<svg xmlns="http://www.w3.org/2000/svg" viewBox="0 0 448.24 294.72">
  <defs>
    <style>.cls-1{fill:#053d5e;}</style>
  </defs>
  <title>Logo2</title>
  <g id="Рідні">
    <path class="cls-1"
      d="M42.49,444.14Q46.91,432,48.8,412.8q1.6-18.85,1.6-34.37a569.86,569.86,0,0,0-6.23-80.35,529.19,529.19,0,0,1-6.32-74.4,90.32,90.32,0,0,1,15.52-49.21,75.7,75.7,0,0,1,14.46-17.18q7.52-6.25,13.79-6.44,4.43.2,8.68,20,4.06,20,4.25,56.62,0,19.91-7,44.32a73.59,73.59,0,0,1-8.63,18.84q-5.5,7.62-12.25,7.81a484.05,484.05,0,0,1,3.42,56.72q0,48.23-8.94,78.39l-12.52,12ZM63,204.16q-2.54,0-3.35,4.4a48.68,48.68,0,0,0-1,11q0,10.36,1.42,24.82A97.15,97.15,0,0,0,62,257.21a42.84,42.84,0,0,0,3,9.58,12,12,0,0,0,6.69-4,20.45,20.45,0,0,0,3.75-6.55,53.41,53.41,0,0,0,2.23-14.07,68.91,68.91,0,0,0-5.14-25.79,39.72,39.72,0,0,0-4.74-9.18q-2.52-3.22-4.74-3Z"
      transform="translate(-37.85 -150.85)" />
    <path class="cls-1"
      d="M144.38,202.21l26.1-3.71a1.85,1.85,0,0,1,1.7,1,6.15,6.15,0,0,1,.47,2.64q-.28,2.35-.65,4a185.43,185.43,0,0,0-4.59,43.77q.36,23.25,1.36,42.21-.19,4.2-2.55,4.4Q152,298.12,147,298.31q-1.52,0-2.65-3a32.57,32.57,0,0,1-2-7.82A223.32,223.32,0,0,1,141.07,260q0-27.18.76-39.2.57-6.16,1.14-10.56A73.19,73.19,0,0,1,144.38,202.21Zm12.61-21a9.48,9.48,0,0,1-6.82-2.63q-2.75-2.62-2.75-9.34.19-8.95,6.45-11.77a29.8,29.8,0,0,1,13-2.43,48.12,48.12,0,0,1,7.53.58q3.48,1.07,3.67,4.18v4.86a19.93,19.93,0,0,1-.38,4,11.69,11.69,0,0,1-1.61,4.57,17.6,17.6,0,0,1-5,4.18Q165.87,181,157,181.21Z"
      transform="translate(-37.85 -150.85)" />
    <path class="cls-1"
      d="M296.21,296.09q-11,21.15-16.1,38.89t-6,24.37q-.38,1.46-2.94,2.63a36.19,36.19,0,0,1-6.16,2.34q-7.58,2.24-10.32,2.24-4.64-.2-4.45-6.24,0-5,2.56-13.55,2.08-8.78,5.21-17.94t5.21-16.38q2.18-6.82,2.18-8.58a6.79,6.79,0,0,0-1.23-4q-1.52-1.56-6.34-1.56H233.42q-8.9,0-11.65,6.34a22.73,22.73,0,0,0-1.7,7,58.83,58.83,0,0,0-.66,9.17q.66,20.2,1.61,41.76-.19,4-2.94,4.58-11.46,1.33-16.48,1.52a4.51,4.51,0,0,1-2.94-1.56,5,5,0,0,1-2.08-4.19q0-13.55-.76-23.09a176.57,176.57,0,0,1-1-19q0-20.75.38-28.16.19-1,2.37-2.12t7.58-1.06l11.28.68a13.61,13.61,0,0,0,7.11-2.05,21.83,21.83,0,0,0,6.26-5.18,60.67,60.67,0,0,0,9.86-16.21q8.34-21.19,8.53-34.37-.41-10.25-1-17.19A26.16,26.16,0,0,1,249.48,203q2.09-5.18,8.35-5.47h9.68q3.89,0,6.45-.2a4.81,4.81,0,0,1,2.94.68q.76,1,.76,4.2a78.38,78.38,0,0,1-.76,10.15,49.35,49.35,0,0,0-1.24,9.57v50.57A27.9,27.9,0,0,0,278.6,286q3.12,6.35,10.89,6.54a23.24,23.24,0,0,0,5.59-.78Zm-48.91-29.9q-2.65,4.59-6.53,10.55Q236.7,283,236.51,287q0,1.76,1.52,2a11,11,0,0,0,3.91.59,17.49,17.49,0,0,0,3.72-.39,3.68,3.68,0,0,0,2.48-1.37V266.38Z"
      transform="translate(-37.85 -150.85)" />
    <path class="cls-1"
      d="M328.69,202.07q17.58-1.62,24.76-1.81,4.82,0,4.63,5.47a46.5,46.5,0,0,1-.76,6.84q-.76,4.79-3.12,14.84l25.61,2q.76-20.21,3.13-28.61,15.25-2.28,20.74-3t5.59-.67a2.14,2.14,0,0,1,2,1.24,9.21,9.21,0,0,1,.38,2.85,18.92,18.92,0,0,1-.66,3.81A159.7,159.7,0,0,0,406.17,245q.56,21.8,1.59,46-.19,7.23-7.39,7a86.07,86.07,0,0,1-16.1-1.86q-1.33-.78-2.37-3.81a74.39,74.39,0,0,1-1.33-7.82q-.95-10-.95-20.22V239.2l-27.26-1.76a55.54,55.54,0,0,0-.94,7.82q-.57,5.38-1,13.4-.76,16-.75,36.68l-27.76,2.76a144.54,144.54,0,0,1-1.33-21A325.67,325.67,0,0,1,328.69,202Z"
      transform="translate(-37.85 -150.85)" />
    <path class="cls-1"
      d="M452.42,202.21l26.1-3.71a1.85,1.85,0,0,1,1.7,1,6.15,6.15,0,0,1,.47,2.64,40.56,40.56,0,0,1-.65,4,185.38,185.38,0,0,0-4.59,43.77q.36,23.25,1.36,42.21-.19,4.2-2.55,4.4-14.19,1.62-19.2,1.81-1.51,0-2.65-3a32.55,32.55,0,0,1-2-7.82A223.19,223.19,0,0,1,449.1,260q0-27.18.76-39.2.57-6.16,1.14-10.56A73.19,73.19,0,0,1,452.42,202.21Zm12.61-21a9.48,9.48,0,0,1-6.82-2.63q-2.75-2.62-2.75-9.34.19-8.95,6.45-11.77a29.8,29.8,0,0,1,13-2.43,48.12,48.12,0,0,1,7.53.58q3.48,1.07,3.67,4.18v4.86a19.89,19.89,0,0,1-.38,4,11.69,11.69,0,0,1-1.6,4.57,17.62,17.62,0,0,1-5,4.18Q473.9,181,465,181.21Z"
      transform="translate(-37.85 -150.85)" />
  </g>
  <g id="генеалогічне_товариство" data-name="генеалогічне товариство">
    <path class="cls-1" d="M320.53,318.75v2.38h-5.36v15h-2.74V318.75Z"
      transform="translate(-37.85 -150.85)" />
    <path class="cls-1"
      d="M325.32,327.72c0,5.33,2.12,6.48,4.14,6.48a5.85,5.85,0,0,0,2.88-.68l.43,2.05a8.4,8.4,0,0,1-3.82.83c-4.18,0-6.34-3.42-6.34-8.75,0-5.65,2.38-9.18,5.87-9.18s5,3.74,5,7.7c0,.65,0,1.12,0,1.55Zm5.47-2.05c.07-3.49-1.26-5-2.59-5-1.8,0-2.74,2.66-2.84,5Z"
      transform="translate(-37.85 -150.85)" />
    <path class="cls-1"
      d="M340.3,318.75v7.38h5.15v-7.38h2.77v17.42h-2.77v-7.67H340.3v7.67h-2.77V318.75Z"
      transform="translate(-37.85 -150.85)" />
    <path class="cls-1"
      d="M355.13,327.72c0,5.33,2.12,6.48,4.14,6.48a5.85,5.85,0,0,0,2.88-.68l.43,2.05a8.4,8.4,0,0,1-3.82.83c-4.18,0-6.34-3.42-6.34-8.75,0-5.65,2.38-9.18,5.87-9.18s5,3.74,5,7.7c0,.65,0,1.12,0,1.55Zm5.47-2.05c.07-3.49-1.26-5-2.59-5-1.8,0-2.74,2.66-2.84,5Z"
      transform="translate(-37.85 -150.85)" />
    <path class="cls-1"
      d="M374.21,336.18l-.18-1.84h-.11a3.91,3.91,0,0,1-3.46,2.12c-2.34,0-4.14-2-4.14-5,0-4.36,3.49-6.3,7.42-6.33v-.54c0-2.34-.58-4-2.77-4a5.25,5.25,0,0,0-2.88.9l-.61-1.94a7.5,7.5,0,0,1,4.07-1.15c3.49,0,5,2.3,5,6.23v7.52a27.52,27.52,0,0,0,.18,4Zm-.4-9c-1.44,0-4.79.25-4.79,4,0,2.27,1.15,3.1,2.12,3.1,1.22,0,2.27-.9,2.59-2.63a4.58,4.58,0,0,0,.07-1Z"
      transform="translate(-37.85 -150.85)" />
    <path class="cls-1"
      d="M391.45,318.75v17.42h-2.77V321.06h-3.82v5.51c0,4.93-.36,8.21-3,9.43a3.94,3.94,0,0,1-1.84.43l-.5-2.2a2.59,2.59,0,0,0,1.48-.83c1-1,1.15-3.46,1.15-6.66v-8Z"
      transform="translate(-37.85 -150.85)" />
    <path class="cls-1"
      d="M407.07,327.47c0,6.73-3.13,9-5.8,9-3.13,0-5.65-2.84-5.65-9,0-6.37,2.84-9,5.83-9S407.07,321.38,407.07,327.47Zm-8.67,0c0,2.88.5,6.8,3,6.8s2.84-4.1,2.84-6.8-.47-6.77-2.92-6.77S398.4,324.8,398.4,327.47Z"
      transform="translate(-37.85 -150.85)" />
    <path class="cls-1" d="M419.35,318.75v2.38H414v15h-2.74V318.75Z"
      transform="translate(-37.85 -150.85)" />
    <path class="cls-1"
      d="M425.58,314.26a1.62,1.62,0,0,1-1.69,1.8,1.64,1.64,0,0,1-1.58-1.8,1.66,1.66,0,0,1,1.62-1.8A1.63,1.63,0,0,1,425.58,314.26Zm-3,21.92V318.75h2.77v17.42Z"
      transform="translate(-37.85 -150.85)" />
    <path class="cls-1"
      d="M432.63,318.75v6.59c0,1.76.47,3.1,2.41,3.1a4.77,4.77,0,0,0,2.56-.79v-8.89h2.77v17.42h-2.74v-6.52h-.11a6.14,6.14,0,0,1-3.31.9c-2.66,0-4.36-1.58-4.36-4.79v-7Z"
      transform="translate(-37.85 -150.85)" />
    <path class="cls-1"
      d="M448.11,318.75v7.38h5.15v-7.38H456v17.42h-2.77v-7.67h-5.15v7.67h-2.77V318.75Z"
      transform="translate(-37.85 -150.85)" />
    <path class="cls-1"
      d="M462.95,327.72c0,5.33,2.12,6.48,4.14,6.48a5.85,5.85,0,0,0,2.88-.68l.43,2.05a8.4,8.4,0,0,1-3.82.83c-4.18,0-6.34-3.42-6.34-8.75,0-5.65,2.38-9.18,5.87-9.18s5,3.74,5,7.7c0,.65,0,1.12,0,1.55Zm5.47-2.05c.07-3.49-1.26-5-2.59-5-1.8,0-2.74,2.66-2.84,5Z"
      transform="translate(-37.85 -150.85)" />
    <path class="cls-1" d="M321.54,350.56v2.34h-4V368h-2.77V352.9h-4v-2.34Z"
      transform="translate(-37.85 -150.85)" />
    <path class="cls-1"
      d="M335,359.27c0,6.73-3.13,9-5.8,9-3.13,0-5.65-2.84-5.65-9,0-6.37,2.84-9,5.83-9S335,353.18,335,359.27Zm-8.67,0c0,2.88.5,6.8,3,6.8s2.84-4.1,2.84-6.8-.47-6.77-2.92-6.77S326.29,356.6,326.29,359.27Z"
      transform="translate(-37.85 -150.85)" />
    <path class="cls-1"
      d="M339.14,350.63a21.45,21.45,0,0,1,3.92-.36c2.88,0,6.48.83,6.48,4.32a4.3,4.3,0,0,1-3.46,4.14v.07c2.52.43,4.18,2,4.18,4.36,0,4.07-4.21,5.08-7.56,5.08a26.48,26.48,0,0,1-3.56-.18Zm2.66,15.51a12.46,12.46,0,0,0,1.44.11c2.12,0,4.25-.76,4.25-3.1s-2.3-3.24-4.5-3.24h-1.19Zm0-8.21h1.26c1.66,0,3.78-1.12,3.78-3,0-2-1.66-2.7-3.6-2.7a9.25,9.25,0,0,0-1.44.14Z"
      transform="translate(-37.85 -150.85)" />
    <path class="cls-1"
      d="M361.28,368l-.18-1.84H361a3.91,3.91,0,0,1-3.46,2.12c-2.34,0-4.14-2-4.14-5,0-4.36,3.49-6.3,7.42-6.33v-.54c0-2.34-.58-4-2.77-4a5.25,5.25,0,0,0-2.88.9l-.61-1.94a7.5,7.5,0,0,1,4.07-1.15c3.49,0,5,2.3,5,6.23V364a27.52,27.52,0,0,0,.18,4Zm-.4-9c-1.44,0-4.79.25-4.79,4,0,2.27,1.15,3.1,2.12,3.1,1.22,0,2.27-.9,2.59-2.63a4.58,4.58,0,0,0,.07-1Z"
      transform="translate(-37.85 -150.85)" />
    <path class="cls-1"
      d="M368.56,356c0-2.66-.11-4.21-.14-5.44h2.48l.14,2.23h.07a4,4,0,0,1,3.67-2.52c3,0,5,3.24,5,9,0,6.44-2.66,9-5.4,9a3.3,3.3,0,0,1-3-2h-.07v8.64h-2.77Zm2.77,5.58a5.88,5.88,0,0,0,.11,1.44c.54,2.48,1.8,3,2.56,3,2.3,0,3-3.17,3-6.7s-.86-6.62-3.06-6.62c-1.26,0-2.37,1.58-2.56,3.17a8.11,8.11,0,0,0-.07,1.33Z"
      transform="translate(-37.85 -150.85)" />
    <path class="cls-1"
      d="M386.55,350.56v6c0,3,0,5.62-.22,8.35h.07c.79-2.3,1.8-4.79,2.56-6.77l2.92-7.56h2.92V368h-2.56v-5.72c0-3.78.07-5.83.25-8.49h-.07c-.65,2.16-1.33,4.1-2.09,6-.58,1.44-2.16,5.4-3.46,8.21H384V350.56Z"
      transform="translate(-37.85 -150.85)" />
    <path class="cls-1"
      d="M408.22,367.55a6,6,0,0,1-2.88.65c-3.82,0-6.37-3.06-6.37-8.82,0-5,2.52-9.07,6.88-9.07a5.6,5.6,0,0,1,2.45.54l-.54,2.27a4.53,4.53,0,0,0-2-.47c-2.77,0-4,3.31-4,6.73,0,4.07,1.55,6.51,4.1,6.51a4.74,4.74,0,0,0,2-.47Z"
      transform="translate(-37.85 -150.85)" />
    <path class="cls-1" d="M421.65,350.56v2.34h-4V368h-2.77V352.9h-4v-2.34Z"
      transform="translate(-37.85 -150.85)" />
    <path class="cls-1"
      d="M424.78,350.63a21.45,21.45,0,0,1,3.92-.36c2.88,0,6.48.83,6.48,4.32a4.3,4.3,0,0,1-3.46,4.14v.07c2.52.43,4.18,2,4.18,4.36,0,4.07-4.21,5.08-7.56,5.08a26.48,26.48,0,0,1-3.56-.18Zm2.66,15.51a12.46,12.46,0,0,0,1.44.11c2.12,0,4.25-.76,4.25-3.1s-2.3-3.24-4.5-3.24h-1.19Zm0-8.21h1.26c1.66,0,3.78-1.12,3.78-3,0-2-1.66-2.7-3.6-2.7a9.25,9.25,0,0,0-1.44.14Z"
      transform="translate(-37.85 -150.85)" />
    <path class="cls-1"
      d="M450.63,359.27c0,6.73-3.13,9-5.8,9-3.13,0-5.65-2.84-5.65-9,0-6.37,2.84-9,5.83-9S450.63,353.18,450.63,359.27Zm-8.67,0c0,2.88.5,6.8,3,6.8s2.84-4.1,2.84-6.8-.47-6.77-2.92-6.77S442,356.6,442,359.27Z"
      transform="translate(-37.85 -150.85)" />
  </g>
</svg>