<svg xmlns="http://www.w3.org/2000/svg" xmlns:xlink="http://www.w3.org/1999/xlink" width="600" height="400"><defs><linearGradient xlink:href="#a" id="b" x1="519.09" x2="536.67" y1="256.77" y2="262.43" gradientTransform="translate(-259.47 51.929)scale(.99962)" gradientUnits="userSpaceOnUse"/><linearGradient xlink:href="#a" id="d" x1="546.1" x2="561.46" y1="224.85" y2="224.85" gradientTransform="translate(-259.47 51.929)scale(.99962)" gradientUnits="userSpaceOnUse"/><linearGradient id="e" x1="575.97" x2="598.07" y1="183.29" y2="186.81" gradientTransform="translate(-259.47 51.929)scale(.99962)" gradientUnits="userSpaceOnUse"><stop offset="0" stop-color="#a80"/><stop offset="1" stop-color="#d4aa00" stop-opacity="0"/></linearGradient><linearGradient id="f" x1="588" x2="599.49" y1="222.87" y2="245.29" gradientTransform="translate(-259.47 51.929)scale(.99962)" gradientUnits="userSpaceOnUse"><stop offset="0" stop-color="#a80"/><stop offset="1" stop-color="#d4aa00" stop-opacity="0"/></linearGradient><linearGradient xlink:href="#a" id="g" x1="529.02" x2="526.49" y1="307" y2="326.06" gradientTransform="translate(-259.47 51.929)scale(.99962)" gradientUnits="userSpaceOnUse"/><linearGradient xlink:href="#a" id="h" x1="556.88" x2="561.99" y1="273.82" y2="295.46" gradientTransform="translate(-259.47 51.929)scale(.99962)" gradientUnits="userSpaceOnUse"/><linearGradient id="i" x1="517.58" x2="517.58" y1="10.213" y2="-27.381" gradientTransform="translate(-259.47 51.929)scale(.99962)" gradientUnits="userSpaceOnUse"><stop offset="0" stop-color="#a00"/><stop offset=".246" stop-color="#d40000"/><stop offset=".721" stop-color="#d40000"/><stop offset="1" stop-color="red"/></linearGradient><linearGradient id="a"><stop offset="0" stop-color="#a80"/><stop offset="1" stop-color="#a80" stop-opacity="0"/></linearGradient><radialGradient id="j" cx="710.2" cy="106.48" r="55.722" gradientTransform="matrix(1.2476 0 0 1.1866 -615.52 31.706)" gradientUnits="userSpaceOnUse"><stop offset="0" stop-color="#a80"/><stop offset="1" stop-color="#a80" stop-opacity="0"/></radialGradient></defs><path fill="#d40000" d="M0 0h600v400H0z"/><g fill-rule="evenodd"><path fill="#ffd500" stroke="#d4a900" stroke-width=".75447668" d="M393.006 278.177c0 12.426-10.076 22.502-22.502 22.502h-54.288c-8.492.192-15.495 6.405-16.915 14.537-1.414-8.133-8.42-14.346-16.91-14.537h-52.903c-12.426 0-22.505-10.076-22.505-22.502v-188.7H393v188.7z"/><path fill="#007ccc" d="M391.144 278.177h-.005zl.002-186.832H208.86V278.18h-.005c0 5.689 2.313 10.848 6.052 14.586 3.736 3.736 8.894 6.052 14.586 6.052v-.01H282.4l.034.01c6.75.152 12.65 3.74 16.016 9.078q.462.734.86 1.51a19.54 19.54 0 0 1 9.42-8.923 19.4 19.4 0 0 1 7.398-1.665h.06l.037-.01h54.29v.01a20.58 20.58 0 0 0 14.584-6.052c3.739-3.738 6.052-8.897 6.052-14.59z"/><path fill="#fff" d="M391.144 278.177h-.005zl.002-186.832H208.86l176.937 200.684a20.56 20.56 0 0 0 5.348-13.852z"/><path fill="gray" d="M247.502 160.501c-1.708.028-4.818.741-5.301 1.34-.258.316-.57.343-1.141.114-.998-.372-1.367-.143-1.367.8 0 1.28.626 1.51 3.363 1.169 1.368-.174 2.964-.428 3.507-.543l1.026-.202v1.628c0 1.625-.685 3.906-1.169 3.764-.598-.174-2.31.397-2.282.769 0 .226.286.769.602 1.196.34.428.626 1.085.626 1.454 0 .372.313 1.057.682 1.541.316.456.23 1.054.63 1.284-.599 15.966-.515 31.932-.487 47.87-.428-.058-.428.144-.484.457 0 .34-.142.626-.313.626-.17 0-.542.8-.828 1.77-.483 1.653-1.711 3.59-1.711 2.707 0-.456-2.338-.512-3.19-.056-.828.456-.772 1.569.14 3.308.427.797.684 1.454.542 1.454-.115 0-.227.369-.285.797-.028.455-.428 1.596-.856 2.539-.512 1.11-.797 2.31-.797 3.308 0 1.28-.087 1.537-.484 1.367-.257-.087-.772-.713-1.113-1.367-.455-.943-.74-1.172-1.227-1.026-.37.083-.654.282-.654.452 0 .174-.258.657-.599 1.085-.344.428-.713 1.34-.828 1.997-.114.682-.4 1.311-.654 1.423-.257.087-.459.459-.459.8 0 .911-.939 3.565-1.454 4.163-.313.37-.455 1.253-.427 3.023.059 3.162-.54 4.874-1.396 4.021-.43-.428-1.168-.344-1.426.17-.17.286-.455 1.597-.657 2.909-.226 1.311-.598 3.305-.856 4.418-.254 1.14-.539 3.363-.626 4.932-.056 1.569-.198 3.137-.285 3.479-.056.34-.028.8.087.967.313.487 1.34.43 1.34-.084 0-.685.855-.456 1.112.285.112.4.254 1.312.282 2.025.06 1.624.685 2.452 1.656 2.195.4-.084.797-.028.911.143.115.173.456.313.8.313.4 0 .825.57 1.398 1.798.71 1.569.909 1.767 1.594 1.624.487-.087 1.057.056 1.426.4.543.456.884.484 2.31.199 2.139-.397 7.242-.515 7.756-.143.199.17.512.23.655.143.17-.115 1.112-.286 2.139-.37a109 109 0 0 0 2.595-.316c.369-.055 1.708.06 2.963.23 1.454.226 2.31.226 2.453.028.198-.313 1.624-.285 7.955.087 4.477.226 5.131.226 6.359.028 3.336-.543 3.478-.543 3.791.285.177.477.289.67.797.713h.623c.239-.012.521-.03.862-.059 1.395-.112 2.108-.341 2.393-.71.199-.313.4-.43.4-.313 0 .14.171.112.4-.087.227-.17 1.566-.34 2.936-.372 1.399-.028 2.908-.198 3.364-.397.97-.4 1.74-2.282 1.37-3.367-.114-.4-.229-1.568-.257-2.595-.059-2.08.087-1.91-2.824-3.478-.825-.456-1.395-.94-1.253-1.082.112-.143.028-.143-.173-.028-.568.313-2.592-.456-2.763-1.085-.201-.626 0-2.536.425-3.934.174-.543.4-1.653.515-2.453.087-.827.313-1.596.483-1.68.143-.087.372-.828.487-1.6.115-.796.369-1.395.543-1.339.34.115 2.449-1.795 2.449-2.25 0-.429-1.482-1.312-2.167-1.312-.313 0-.682-.087-.797-.202-.115-.142-.685-.282-1.256-.313-1.026-.083-5.016-.369-5.958-.4-.258-.028-.682-.396-.912-.855-.34-.599-.598-.741-1.169-.626-.4.114-.74.059-.74-.084 0-.17-.63-.456-1.427-.657-1.283-.313-1.596-.599-1.454-1.395.028-.146-.087-.174-.23-.087-.368.23-.998-1.197-1.025-2.282 0-.484-.258-1.225-.599-1.652s-.626-.999-.626-1.284c0-.257-.174-.626-.344-.797-.17-.173-.456-1.085-.626-2.027-.428-2.195-.713-2.536-2.08-2.31-.856.143-1.086.06-1.086-.341 0-.257-.285-.57-.654-.682-.372-.115-.828-.657-1.085-1.228-.598-1.426-1.14-3.078-1.34-3.962-.114-.43-.657-1.255-1.255-1.882-.567-.63-1.14-1.426-1.224-1.798-.484-1.68-1.51-3.392-2.195-3.705-.63-.285-.741-.514-.602-1.085.118-.456.06-.769-.14-.769-.229 0-.486-.285-.685-.626 0-16.14-.23-32.162-.855-47.986l.028-.087c.201-.257.257-.4.4-.483.229-.143.427-.599.427-.999s.286-1.054.627-1.454c.8-.911.8-1.14 0-1.652-.655-.4-.856-1.77-.341-2.313.483-.54.483-1.51-.087-2.793-.285-.654-.456-1.34-.37-1.454.171-.286 1.34-.084 1.91.285.171.115 1.312.202 2.54.202 1.965-.031 2.223-.087 2.278-.658.056-.455-.23-.796-1.054-1.196-.598-.314-1.255-.484-1.398-.4-.143.086-.4-.056-.626-.286-.23-.313-.685-.4-1.256-.285-.456.087-1.68 0-2.737-.226-1.026-.202-2.167-.344-2.508-.316-.999.086-1.482.059-2.794-.143a4 4 0 0 0-.63-.056zm3.538 3.221.654.741c.372.428.685.97.713 1.2 0 .254.059.682.059.995.028.285-.202.602-.515.657-.511.087-.685-.083-.57-.685.028-.142-.115-.483-.285-.713-.227-.226-.258-.456-.056-.57.17-.112.226-.512.17-.912z"/><path fill="#fff" d="M278.013 278.258c.17 0 .313.142.313.313a.314.314 0 0 1-.313.313.314.314 0 0 1-.314-.313c0-.17.143-.313.314-.313m-31.679-.087c.115-.028.174.115.174.4 0 .713-.06.772-.344.285a.52.52 0 0 1 .086-.626c.028-.028.056-.06.084-.06zm18.846-.884c.258 0 .487.143.487.344 0 .17-.17.314-.344.314-.17 0-.254.114-.17.257.086.143-.056.254-.314.254-.285 0-.4-.17-.285-.456.087-.226.143-.511.143-.57 0-.084.226-.143.483-.143zm3.708-.598c.23 0 .57.087.97.257.512.202.512.23-.114.627-.372.229-.57.257-.456.059.112-.174 0-.345-.285-.345-.257 0-.487-.139-.487-.313 0-.17.115-.257.372-.285zm9.323-.654c.059 0 .114.198.114.483 0 .258-.142.456-.285.456-.17 0-.257-.198-.142-.456.083-.285.229-.483.313-.483zm-22.551 0c.254 0 .539.142.654.313.115.17-.084.313-.456.313s-.657-.143-.657-.313.201-.313.459-.313m-21.528 0c.059 0 .229.142.313.313.114.17.059.313-.112.313-.202 0-.344-.143-.344-.313s.059-.313.143-.313m19.075-.087h.199c.313 0 .542.087.542.285 0 .23-.257.428-.57.428-.428 0-.456.087-.115.285.313.202.258.313-.23.428-.74.199-1.394-.372-1.053-.911.201-.286.772-.487 1.227-.515m-3.28-.084a1 1 0 0 1 .515.171c.254.143.397.341.313.456-.087.087-.372.028-.63-.143-.226-.142-.368-.372-.281-.456.028 0 .055 0 .083-.028zm-12.345-.059c.056.028.198.171.456.456.486.57.855.685 1.568.543.515-.115 1.026-.056 1.141.086.087.171-.23.512-.685.797-.97.543-2.282.258-2.282-.511 0-.258-.083-.713-.198-1.026-.056-.258-.084-.372 0-.345m6.87-.027c.316.027.63.313.63.74 0 .599-.46.599-.943.029-.257-.313-.257-.512-.028-.655.087-.086.23-.114.341-.114zm30.938-.06c-.258 0-.627.202-.856.46-.313.4-.313.483.084.483.257 0 .657-.198.855-.484.313-.372.313-.458-.083-.458m-26.402-.282c.056 0 .112.084.226.199.23.198.314.456.23.57-.087.084-.285-.086-.4-.4-.115-.285-.115-.396-.056-.369zm7.469-.028c.17 0 .344.14.344.31 0 .174-.06.317-.143.317-.086 0-.23-.143-.344-.317-.114-.17-.056-.31.143-.31m-20.558 0c.115 0 .316.199.428.456.087.285 0 .484-.254.484-.23 0-.4-.199-.4-.484 0-.257.114-.456.226-.456zm50.78-1.54c.028 0 .056 0 .084.028.087.114.114.372.028.598-.112.257-.17.198-.199-.17 0-.258.028-.428.087-.456zm-2.139-.543c.884.028 1.68.115 1.597.313-.056.17.083.97.313 1.712.34 1.168.313 1.481-.028 1.826-.515.511-.487.511-1.2.083-.31-.17-.567-.598-.567-.94 0-.343-.115-.57-.258-.514-.372.115-2.083-1.965-1.826-2.223.202-.201 1.113-.257 1.97-.257zm-19.504-.769c-.34 0-.254.199.313.77.8.796 1.57 1.025 1.57.514 0-.4-1.284-1.284-1.883-1.284m-7.781 0c-.428 0-.772.112-.772.227 0 .142.344.285.772.344.455.028.796-.087.796-.258 0-.17-.34-.313-.796-.313zm20.099-.657c-.456 0-.884 1.37-.713 2.282.17.855.914 1.082 1.2.313.257-.598-.143-2.595-.487-2.595m-27.658-.94a.51.51 0 0 0-.511.512c0 .543.685.456.883-.142.056-.199-.114-.37-.372-.37m.859-.257c-.06 0-.087.143-.087.456 0 .344.087.741.199.856.372.397.427 0 .142-.77-.142-.343-.226-.514-.254-.542m26.83-.059c-.174 0-.317.146-.317.344 0 .171.143.227.316.143.17-.115.314-.257.314-.341 0-.087-.143-.146-.314-.146zm-33.93 0c-.428 0-.344.887.112 1.057.201.056.514.056.657 0 .285-.17-.372-1.057-.769-1.057m12.83-.31c-.571 0-1.284 1.68-.77 1.851.17.056.341.344.341.626 0 .8.484-.142.713-1.454.171-.796.087-1.023-.285-1.023m-17.052-.201c-.254 0-.397.083-.313.229.17.313-1.625 1.28-1.882.995-.112-.083-.199.06-.199.344 0 .428.143.456.797.199.459-.17.97-.227 1.113-.143.17.115.199-.028.115-.313-.143-.313-.06-.456.198-.4.23.031.456-.143.543-.428.059-.282-.115-.483-.372-.483zm8.299-.056c-.143.028-.257.198-.257.428 0 .285.142.455.313.396.487-.142.542-.654.087-.796-.028-.028-.06-.028-.087-.028zm7.183-.543c-.313.056-.483.341-.254.599.282.285.682.257.884-.087.083-.17-.031-.37-.285-.456-.115-.056-.258-.056-.345-.056m8.384-1.113c-.171 0-.227.143-.143.313.115.171.257.317.344.317.084 0 .14-.146.14-.317 0-.17-.14-.313-.341-.313zm8.926-.254c.111-.03.226 0 .34.056.258.083.199.17-.17.17-.344.028-.543-.056-.428-.142q.085-.084.257-.084zm-27.773-.115c-.142 0-.313.143-.4.37-.055.173.143.313.428.313s.46-.17.4-.397c-.087-.202-.257-.317-.428-.286m22.781-.142c-.083 0-.17.028-.285.028-.341.056-.769.143-.94.143-.173.027-.086.17.171.34.57.4.97.4 1.538.056.459-.31.174-.595-.484-.567zm-30.28-.57c-.512 0-.967.114-1.253.368-.427.372-.657.4-.998.143-.23-.198-.515-.285-.63-.17-.198.201-2.452.74-3.534.855-.855.087-1.481.515-1.255.884.201.313 5.962.114 6.501-.227.174-.086.543.056.828.341.484.484.57.484 1.256-.34.427-.46.74-.971.74-1.114 0-.486-.855-.74-1.655-.74zm17.935-.487c-.056 0-.115.201-.115.455 0 .286.143.487.316.487.17 0 .227-.201.112-.487-.084-.254-.23-.455-.313-.455zm3.708-.199c-.258.028-.57.028-.915.087-1.454.17-1.652.285-1.652.94 0 .827.483 1.224 1.026.855.198-.114.769-.285 1.252-.313.943-.115 1.541.57 1.541 1.767 0 .828.626.856.856.056.087-.341.57-.797 1.054-.995.514-.202.942-.487.942-.602 0-.111-.769-.598-1.683-1.054-1.082-.542-1.625-.74-2.421-.74zm-10.04-.028c-.027.028-.083.028-.11.056-.171.115-.317.258-.317.344 0 .084.146.143.316.143s.313-.17.313-.344c0-.143-.086-.199-.201-.199zm5.048-.086c-.97 0-1.996.629-1.996 1.196 0 .23.257.258.883.031.515-.173 1.113-.285 1.343-.229.226.056.483-.143.54-.456.086-.428-.085-.542-.77-.542m-6.727-.028a.25.25 0 0 0-.202.114c-.111.084-.083.342.06.57.198.342.253.314.368 0 .115-.343-.028-.656-.226-.684zm25.745-.999c.114.028.229.344.285.884.198 1.54.087 1.683-.313.515-.199-.515-.23-1.113-.084-1.312.028-.087.084-.087.112-.087zm7.298-1.367h.059c.114.028.17.143.257.313.084.258.028.484-.17.484-.174 0-.258.23-.146.487.087.254.146.455.118.427-.999-.344-1.172-.914-.431-1.512a.8.8 0 0 1 .313-.199zm-21.355-.456c-.17 0-.313.14-.313.314 0 .17.143.313.313.313s.314-.143.314-.313a.314.314 0 0 0-.314-.314m-5.701 0c-.258 0-.626.77-.626 1.28 0 .345.111.345.74.115.456-.17.373-1.395-.114-1.395zm26.944-1.6c.17 0 .198.23.112.487-.112.258-.313.456-.453.456-.146 0-.201-.198-.115-.456.115-.257.314-.486.456-.486zm-49.155-4.588c-.114.028-.17.143-.17.313 0 .258.114.484.254.484.145 0 .285-.143.285-.313 0-.143-.14-.369-.285-.456-.028-.028-.056-.028-.084-.028zm44.508-.685c-.028 0-.06.028-.115.06-.17.083-.313.253-.313.34 0 .056.143.115.313.115s.313-.143.313-.316c0-.14-.086-.227-.198-.199zm-31.821-.456c-.626 0-1.082 2.908-.654 4.164.285.828.257.94-.285.94-.741 0-.828.486-.143.74.257.115.484.428.484.713 0 .345.17.428.486.314.282-.112.655-.199.797-.199.17 0 .285-.372.285-.8 0-.455.23-1.224.512-1.767.257-.54.428-1.169.316-1.423-.087-.257-.059-.4.112-.288.146.087.428-.056.657-.31.257-.316.285-.46.028-.46-.198 0-.341-.284-.341-.597 0-.4-.285-.655-.884-.77a13 13 0 0 1-1.311-.257zm27.685-.483c-.198.028-.114.511.285.998.57.626.884.57.884-.23 0-.368-.084-.598-.199-.483-.114.115-.4.056-.626-.115-.142-.142-.257-.17-.344-.17m-17.02-.341c.428-.031 1.085.511 1.085.967-.031.198-.23.087-.515-.285-.455-.599-.455-.599-.313.257.17.97.143 1.026-.372.484-.484-.456-.511-1.113-.056-1.367a.4.4 0 0 1 .171-.056zm-12.203-.06c-.086 0-.201.028-.257.088-.087.111.087.17.428.17.369-.028.428-.087.198-.198a1.5 1.5 0 0 0-.369-.06m-5.245-.542a.8.8 0 0 0-.258.056c-.455.174-.455.257-.028.915.425.654.425.74-.173.883-.512.143-.654.028-.654-.456 0-.455-.143-.57-.515-.455-.257.114-.682.198-.94.198s-.455.285-.455.626c0 .372-.344 1.228-.8 1.941-.769 1.197-.856 1.253-1.367.797-.657-.599-.999-.654-.999-.17 0 .17-.198.542-.455.827-.286.257-.4.599-.286.769.087.17-.03.57-.285.856-.257.285-.428.97-.4 1.482.115 1.482.202 1.624.484.883.17-.397.657-.856 1.085-1.026 1.169-.456 3.079-.115 3.593.63.227.34.685.626.995.626.317 0 .772.226.999.483.23.285.486.372.598.17.115-.198.372-.198.657-.027.258.17.57.316.713.316.428 0 .23-1.485-.257-1.885-.257-.226-.369-.567-.226-.769.114-.198.254-.57.285-.827.369-3.25.397-4.105.111-4.276-.17-.114-.313-.598-.313-1.085 0-.911-.511-1.538-1.11-1.482zm29.936-.456c.17 0 .313.143.313.314 0 .17-.143.372-.313.486-.17.112-.313-.03-.313-.288 0-.282.142-.512.313-.512m15.423-.17c.06 0 .115.028.23.056.285.114.428.344.313.514-.115.199.028.23.428.112.369-.112.74-.056.856.118.114.198 0 .34-.258.34a.71.71 0 0 0-.626.457c-.23.57-.8.626-1.482.17-.4-.285-.4-.369.112-.769.316-.257.514-.598.4-.8-.084-.111-.084-.198.027-.198zm-.911-.031c.285 0 .285.087.028.23-.54.371-.825.371-1.026.058-.087-.114.23-.257.657-.288zm-4.192-.112h.713c.484 0 .655.143.515.4-.202.313-.142.313.199 0 .657-.629 1.14-.458 1.54.543.512 1.169.341 2.679-.201 2.08-.199-.23-.341-.828-.313-1.311.055-.713-.056-.887-.484-.828-.313.059-.884-.115-1.284-.4zm-32.162-.626c-.397 0-.682.512-.428.738.345.372.717.23.717-.254 0-.257-.118-.484-.289-.484m28.826-.942c.174 0 .314.285.314.626 0 .344-.056.63-.14.63-.059 0-.173-.286-.288-.63-.084-.341-.028-.626.114-.626m-2.88-.313c-.17 0-.313.285-.313.626 0 .344.143.63.313.63.202 0 .344-.286.344-.63 0-.341-.142-.626-.344-.626m-20.954-.943c-.028 0-.115.087-.258.285-.17.286-.313.602-.313.744 0 .14.143.17.313.056s.313-.428.313-.74c0-.23 0-.345-.055-.345m-16.767-.028c.143 0 .258.23.258.487 0 .54-.028.57-.341.254-.285-.282-.258-.74.083-.74zm36.295-.257c.087 0 .258.03.543.115 2.396.768 2.967 1.057 2.908 1.54-.028.286.087.512.257.512.143 0 .258.285.258.63 0 .74 1.395 1.739 1.937 1.394.285-.139.344-.027.199.46-.084.368.03.824.257.994.515.428.828 1.597.428 1.597-.143 0-.285-.143-.285-.313a.33.33 0 0 0-.341-.341c-.171 0-.23.142-.143.285.084.17-.028.456-.257.654-.286.23-.512.258-.57.06-.057-.171-.54-.4-1.055-.543-.942-.199-.942-.199-.313.4.484.455.657.97.626 2.25 0 .915-.115 1.656-.285 1.656-.143 0-.198.254-.112.598.084.313 0 .797-.201 1.082-.341.456-.428.428-.77-.111-.229-.372-.597-.543-.942-.428-.511.17-.511.17 0-.174.314-.198.686-.313.8-.226.143.083.286-.202.313-.599.056-.427.115-1.14.171-1.568.028-.428.17-.797.313-.797.515 0 .199-.543-1.026-1.826-.713-.741-1.51-1.342-1.767-1.342-.227 0-.456-.084-.484-.227-.114-1.026-.059-2.31.14-3.193.201-.741.118-1.256-.254-1.823-.345-.515-.456-.716-.345-.716zm-25.66-.568c-.17.028-.428.627-.568 1.625-.17 1.169-.142 1.225.285.654.255-.34.456-1.054.456-1.566 0-.486-.059-.713-.173-.713m6.16-1.057c-.17 0-.23.143-.115.313.087.171.257.317.313.317.087 0 .146-.146.146-.317 0-.17-.146-.313-.345-.313zm9.353-.967c.112 0 .17.084.17.285 0 .143-.17.453-.427.654-.372.313-.428.258-.285-.285.083-.4.369-.654.542-.654zm-2.455-.601c.201 0 .487.114.57.285.115.173.06.57-.139.886-.316.484-.372.484-.23-.142.088-.4 0-.772-.2-.856-.255-.114-.255-.142 0-.173zm-17.591-.342c-.397 0-.369.087.087.599.369.428.428.685.198.828-.257.142-.257.34.028.685.316.369.428.34.828-.23s.4-.713-.084-1.283c-.316-.313-.772-.599-1.057-.599zm1.398-.313c-.17 0-.056.227.258.456.34.257.626.769.654 1.113.027.369.344.856.685 1.11.713.515.8.456 1.256-.884.254-.74.57-1.026 1.11-1.026 1.283-.056 1.568-.114 1.568-.428 0-.396-3.534-.34-4.049.06-.285.226-.542.226-.797-.029-.201-.201-.514-.372-.685-.372m7.67-.142c-.313 0-.629.114-.8.34-.455.63-.229 1.027.317.488.285-.286.455-.143.769.57.285.71.511.884 1.054.738.372-.084.598-.341.542-.54-.087-.198 0-.598.143-.911.17-.344.17-.543-.028-.543-.174 0-.456.258-.63.543-.285.484-.313.511-.34.056 0-.484-.515-.77-1.027-.741zm5.475-.17c-.17 0-.372.142-.486.312-.112.17.028.313.285.313.285 0 .515-.142.515-.313a.316.316 0 0 0-.314-.313m-1.283-.144-.487.714c-.285.368-.428.827-.313 1.026.344.511.8 0 .8-.912zm14.113-1.14c.34 0 .455.17.34.483-.111.285 0 .487.317.487.455 0 .455.056.083.512-.4.486-.369.514.143.313.341-.112.484-.084.372.114-.115.17-.487.313-.856.313-.372 0-.855.258-1.113.543-.257.313-.369.372-.226.143.198-.428.313-.999.397-2.338.028-.313.285-.57.542-.57zm-5.274-2.223c.17 0 .397.17.511.34.344.543.056.6-.4.115-.226-.23-.282-.455-.111-.455zm-10.123-1.113c-.257-.028-.629.027-1.196.142-.087.028.028.227.257.484.369.456 1.054.515 1.197.087.17-.484.142-.713-.258-.713m-2.337-.97c-.202 0-.428.086-.685.312-.23.23-.199.487.142.856.77.915 1.712.143 1.082-.856-.14-.226-.34-.34-.54-.313m1.91-.115c-.286 0-.512.142-.512.316 0 .17.14.313.31.313.146 0 .372-.143.487-.313.114-.174-.028-.316-.285-.316m-14.627-.397c.17 0 .455.17.998.598 1.398 1.054 2.623 1.197 3.308.313.54-.626 1.283-.514 1.224.199q.001.427-.17 0c-.285-.713-.685-.425-1.054.713-.372 1.085-.46 1.14-2.595 1.569-.57.086-1.026-.627-.713-1.141.087-.143-.06-.286-.313-.286-.599 0-.658.373-.115.915.285.282.285.453 0 .741-.23.198-.4.285-.4.17s-.285 0-.626.314c-.344.285-.626.797-.626 1.113 0 .34-.146.883-.345 1.224-.4.77-.939.77-.939-.028 0-.34.198-.626.397-.626.285-.028.257-.114-.056-.316-.285-.17-.341-.341-.17-.341.198 0 .369-.37.4-.828.055-.456.285-1.28.54-1.795.284-.515.486-1.14.486-1.37 0-.227.142-.425.313-.425.17 0 .313-.23.313-.515 0-.114.056-.198.143-.198m12.574-3.11c-.17 0-.4.143-.515.344-.111.171-.055.314.115.314s.4-.143.512-.314c.114-.201.059-.344-.112-.344zm-7.072-2.849c.17 0 .286.654.258 1.423 0 .887-.143 1.426-.372 1.426-.512 0-.825 1.312-.428 1.798q.345.383 0 .599c-.199.084-.341-.028-.341-.316 0-.283-.143-.425-.344-.314-.599.373.059-1.565.685-2.02.74-.543.8-1.058.087-.773-.456.17-.456.087-.087-.57.23-.428.4-.884.372-.999-.06-.142.028-.254.17-.254zm14.029-.657c.143-.028.254.285.341.97.087.57-.056.828-.456.912-.483.083-.542-.028-.344-.797.174-.713.316-1.085.459-1.085m-.031-.912c.174 0 .316.056.316.143 0 .056-.142.227-.316.341-.17.087-.31.028-.31-.142 0-.199.14-.342.31-.342m-12.258-.883c-.171.028-.286.456-.543 1.597-.112.511-.056.855.115.855.198 0 .34-.257.34-.57 0-.316.174-.741.373-.943.285-.285.285-.455 0-.74-.115-.116-.199-.2-.286-.2zm12.146-.57h.056c.028 0 .028 0 .056.027.173.115.316.397.316.654s-.143.46-.316.46c-.17 0-.31-.317-.31-.658 0-.285.083-.456.198-.484m-14.171-2.94c.114 0 .23.06.313.202.372.626 3.221.713 4.191.142 1.197-.685 1.997-.313 1.684.797-.344 1.284-.4 3.252-.115 4.223.143.54.084.998-.115 1.224-.257.258-.226.341.06.341.226 0 .313.143.198.314-.4.629.142 1.512.825 1.342.858-.23 1.283-1.426.914-2.452-.17-.428-.17-.8-.028-.8.57 0 .17-1.597-.427-1.767-.57-.202-.57-.23.17-.627.4-.23.998-.428 1.311-.428.313-.028.543-.17.543-.372 0-.198.198-.254.456-.17.257.087.542-.028.626-.285.257-.654 1.454-.428 1.627.313.425 1.854.655 4.278.425 4.365-.313.112.087 1.767.456 1.91.143.028.372-.115.515-.344.198-.313.427-.341.883-.084.543.285.63.626.599 2.307L256 241.02l-.94-.083c-.886-.06-.914-.031-.4.369.856.657.655.8-.998.657-1.169-.087-1.597 0-1.74.341-.114.313.029.456.429.456.313 0 .682.173.827.344.112.198.484.285.825.198.372-.114.856.028 1.113.285.515.512 1.367.599 1.367.143 0-.202.57-.341 1.256-.341 1.367 0 2.167.567 2.995 2.195.71 1.395.369 2.024-1.057 1.795-1.767-.285-3.962-.428-4.362-.285-.227.087-.314.911-.199 2.368.115 1.91.028 2.31-.456 2.651-.514.397-.486.428.4.654.512.115 1.054.4 1.197.57.17.258.341.202.626-.114.23-.285.77-.428 1.399-.369.939.084 1.054 0 1.054-.713 0-.455-.143-.828-.341-.828a.32.32 0 0 0-.317.314c0 .201-.254.313-.598.313-.57 0-.57-.056-.143-.94.57-1.113.543-1.113 1.228-.427.4.372.598.427.94.114.257-.198.8-.313 1.227-.257.4.059.998-.087 1.284-.341.428-.372.511-.344.511.056 0 .285-.313.598-.654.713q-.688.214-.515.768c.143.63-.285 1.597-.74 1.597-.171 0-.856.344-1.541.772-.884.543-1.28 1.054-1.423 1.823-.115.598-.317.884-.456.713-.115-.198-.602-.456-1.057-.57-.456-.115-1.054-.57-1.34-.999-.629-.967-1.568-1.026-2.48-.17-.657.598-.657.744-.257 1.826.23.654.4 1.597.4 2.108-.031.543.198 1.113.57 1.426.456.372.626.97.682 2.31.06 1.426.202 1.854.63 1.969.313.055.654 0 .769-.171.086-.143.455-.202.796-.087.317.087.602.056.602-.114s-.372-.4-.8-.512c-.682-.174-.769-.344-.741-1.628.028-.768.142-1.51.313-1.596.143-.084.257 0 .257.201 0 .17.143.258.286.17.142-.083.198.143.142.543-.114.57 0 .713.515.713.369 0 .654-.086.654-.229 0-.4-.769-1.997-1.054-2.195-.487-.341-.626-2.71-.202-2.995.285-.17.344-.028.23.599-.143.771-.087.827.511.657.372-.115 1.228-.741 1.882-1.426.657-.686 1.513-1.312 1.882-1.399.744-.198 1.94-1.91 1.655-2.365-.086-.143.056-.341.314-.428.257-.115.685-.685.939-1.311.459-1.113.915-1.395 1.256-.828.114.143 0 .344-.258.43-.282.112-.369.54-.282 1.312.112 1.054.056 1.166-.828 1.34-1.14.226-1.227.796-.257 1.767l.713.713.084-1.169c.086-.915.201-1.113.486-.828.456.428.286 2.852-.229 3.193-.257.17-.226.227.031.227.369 0 .341.316-.146 1.6-.369.967-.34 3.447.06 3.962.313.456.285.685-.345 1.34l-.71.768.682.915c.658.911.686.911 1.256.285.313-.344.654-.626.741-.626.372 0 1.34 1.082 1.197 1.339-.084.143.285.456.827.654.543.202.97.598.97.915 0 .567.825.995 1.312.71.17-.112.199.142.084.657-.199.8-.17.828.456.428.372-.23.685-.599.685-.828 0-.198.285-.4.629-.4.341 0 .626-.112.626-.285 0-.143.428-.112.968.087.514.198.942.57.942.827.028.428.056.428.313.028s.313-.4.487.056c.14.344.425.46.883.372.397-.114.912-.201 1.17-.201.254-.028.653-.254.855-.512.341-.455.425-.455.713-.055.17.285.341.34.341.17 0-.201.084-.201.23 0 .31.428 2.706 1.854 2.477 1.454-.112-.17.058-.257.344-.201.313.03.598.229.654.427.059.174.316.258.542.174.258-.087.515-.031.63.14.083.173-.031.4-.289.486-.254.115-.539.056-.626-.087-.226-.369-1.854-.111-2.223.372-.17.227-.74.397-1.255.341-.512-.028-1.113.084-1.34.258-.514.428-.542 1.854-.055 1.854.254 0 .254.111 0 .427-.202.227-.289.512-.202.599.115.114-.257.369-.769.598-.542.258-.97.599-.97.797 0 .542-.97.828-1.426.428-.227-.17-.627-.227-.94-.112-.313.112-.685-.028-.97-.4-.397-.57-.456-.57-1.169.115-.911.852-1.082.883-1.311.226-.115-.257-.056-.4.086-.313.171.115.456-.114.655-.456.344-.657.285-.657-1.653-.57-1.482.056-1.996.23-1.996.57 0 .314-.373.456-1.197.484-.626.028-1.169-.056-1.169-.226 0-.143.143-.286.313-.286.17-.03.456-.086.626-.142.17-.028.456-.087.63-.115.17 0 .313-.142.313-.285s-1.057-.285-2.369-.341c-1.937-.06-2.365.028-2.365.428 0 .254-.4.567-.856.682-.685.17-.97.059-1.51-.626-.372-.456-.942-.828-1.283-.828-.313 0-.828-.227-1.113-.484-.313-.285-1.113-.542-1.767-.63-.686-.055-1.312-.139-1.395-.198a1.1 1.1 0 0 0-.428 0c-.146.028-1.312.115-2.626.199-2.053.114-2.422.23-3.079.97-.57.685-.911.828-1.54.657-.884-.229-1.455-1.485-.655-1.485.254 0 .4-.17.313-.396-.086-.202-.34-.314-.57-.258-.257.056-.685.115-.998.084a.54.54 0 0 0-.568.514c0 .428-.059.456-.257.115-.202-.313-.344-.313-.515-.087-.142.258-.4.258-.827.028-.683-.369-2.509-.111-2.509.344 0 .143.258.4.543.599.484.257.428.313-.313.313-.599.03-.828-.115-.685-.341.142-.202-.028-.57-.341-.8-.515-.369-.543-.54-.23-1.054.543-.884.484-1.026-.23-.626-.368.17-.653.511-.653.74 0 .484-.943.825-2.282.825-.599 0-.797-.111-.682-.424.111-.286-.06-.428-.57-.4-.4.027-.828-.056-.915-.202-.115-.14-.825-.341-1.597-.397-3.106-.288-3.478-.372-3.847-.74-.202-.23-.258-.373-.087-.345.654.115 1.14-.028.998-.285-.087-.143-.483-.227-.911-.199-.4.028-.884-.055-1.085-.229-.227-.17-.57-.198-.77-.084-.285.199-.34-.455-.17-2.737.198-3.166.654-5.162 1.426-6.074.254-.285.313-.542.17-.542-.427 0-.315-2.108.171-2.651.23-.285.258-.543.084-.657-.599-.341 0-1.367.886-1.566 1.396-.257 2.45-1.627 2.251-2.824-.028-.143.285-.17.685-.056.372.115.97.257 1.253.341.316.087.57.372.57.626 0 .285.23.46.543.4.8-.17 2.052-3.023 2.14-4.904.083-1.653.34-2.167 1.71-3.392a64 64 0 0 0 1.653-1.513c1.513-1.423 2.964-2.108 4.532-2.136 1.541-.028 2.084-.199 2.084-.685 0-.143-.598-.199-1.343-.087-2.908.4-2.877.428-2.963-1.28-.056-.828.027-2.14.17-2.908.174-.999.143-1.597-.17-2.112-.23-.428-.515-.998-.627-1.283-.114-.313-.316-.484-.427-.428-.143.087-.143-.4-.028-1.11.14-.685.111-1.342-.031-1.426-.171-.087-.199-.313-.112-.456.112-.173.028-.316-.174-.316-.285 0-.285-.112.031-.484.313-.397.286-.542-.201-.911-.341-.258-.484-.57-.341-.685q.044-.086.17-.087zm10.094-4.445c.255-.028.397.114.397.427 0 .286-.198.4-.456.314-.226-.115-.542-.028-.654.198-.173.285-.028.344.57.23.484-.087.856-.056.856.055 0 .313 1.368.313 1.768 0 .226-.226.511-.142.796.23.313.372.313.455.06.285-.23-.115-.599-.115-.8.028-.227.142-.825.285-1.34.313-.542.059-1.398.17-1.91.23-.514.086-1.057.142-1.168.17-.115 0-.286.34-.345.74-.083.373-.17.512-.198.286s-.17-.341-.313-.226c-.17.083-.372-.031-.487-.317-.083-.257-.313-.455-.511-.455-.202 0-.286.114-.202.226.087.146-.257.316-.769.344-.511.028-.911-.087-.911-.257 0-.369 1.367-.769 1.937-.57.23.086.599-.056.884-.286a74 74 0 0 1 1.426-1.224c.57-.484 1.054-.741 1.37-.741m.199-49.61c.654 15.966.8 31.932.855 47.87-2.195.084-3.422 0-4.932 0-.23-15.938-.515-31.904.515-47.87 1.767-.087 2.734-.029 3.562 0m2.08-3.966c.087 0 .174 0 .313.06.174.055.202.284.06.542-.2.313-.342.313-.512.056-.202-.342-.118-.599.139-.658zm-2.85-1.74c.057 0 .116.032.171.06.258.083.4.285.286.456-.23.369-.341.34-.543-.17q-.126-.345.087-.345zm-1.968-.483c.8 0 .8.028.23.626-.515.57-.515.658-.028.658.34 0 .483.198.396.685-.114.825-.768 1.138-1.026.456-.087-.258-.428-.428-.74-.372-.314.059-.543-.084-.543-.341 0-.23.142-.428.313-.428.173 0 .23-.115.114-.23-.372-.369.46-1.054 1.284-1.054zm5.047-6.644a.78.78 0 0 1 .57.314c.258.4.144.4-.455 0-.285-.17-.344-.314-.114-.314zm-3.934-.142h.056c.115 0 .285.087.484.198.43.289.57.63.458 1.057-.285.94-.542 1.11-1.085.77-.257-.143-.34-.286-.142-.286.17-.028.142-.112-.056-.257-.23-.143-.257-.484-.087-.968.143-.344.23-.486.372-.514m-3.593 0c.23-.028.313.087.257.257-.142.456-1.168.685-1.168.257 0-.17.285-.372.626-.486.115-.028.201-.028.285-.028zm6.188-.17c.255 0 .512.114.627.284.086.143-.028.341-.258.456-.483.17-.824-.028-.824-.484 0-.17.226-.257.455-.257"/><path fill="#ffd500" d="M341.798 225.122a67 67 0 0 1-6.29 11.766c-3.78 5.664-4.198 12.057-5.475 18.257-1.439 6.979-5.879 10.014-10.346 12.578 19.32-5.996 30.38-22.182 22.11-42.6z"/><path fill="url(#b)" d="M269.05 270.25c-2.593 31.679-15.282 80.974-43.93 84.639 38.387-11.913 60.358-44.072 43.93-84.639" transform="translate(206.38 89.1)scale(.50332)"/></g><path fill="none" stroke="#d4a900" stroke-width=".75447668" d="M341.798 225.122a67 67 0 0 1-6.29 11.766c-3.78 5.664-4.198 12.057-5.475 18.257-1.439 6.979-5.879 10.014-10.346 12.578 19.32-5.996 30.38-22.182 22.11-42.6z"/><path fill="#ffd500" fill-rule="evenodd" d="M352.55 205.85c-1.287 2.638-2.652 5.24-3.858 7.912-2.526 5.602-3.832 11.068-2.334 18.517 1.349 6.7.732 11.918-.908 18.605 9.415-8.91 13.895-19.804 9.127-34.078-1.234-3.696-1.761-7.304-2.028-10.956z"/><path fill="url(#d)" fill-rule="evenodd" d="M290.41 231.96c-7.804 34.783 6.406 58.319-14.106 89.475 18.707-17.703 27.607-39.348 18.134-67.707-2.451-7.342-3.499-14.512-4.028-21.768z" transform="translate(206.38 89.1)scale(.50332)"/><path fill="none" stroke="#d4a900" stroke-width=".75447668" d="M352.55 205.85c-1.287 2.638-2.652 5.24-3.858 7.912-2.526 5.602-3.832 11.068-2.334 18.517 1.349 6.7.732 11.918-.908 18.605 9.415-8.91 13.895-19.804 9.127-34.078-1.234-3.696-1.761-7.304-2.028-10.956z"/><g fill-rule="evenodd"><path fill="#ffd500" d="M295.347 278.474c1.47-3.63 4.148-5.583 7.487-6.492 2.967-.812 6.048-1.212 9.114-1.568 11.199-1.296 20.632-5.01 28.991-12.52 8.954-8.042 15.861-19.016 19.86-29.303l-.992-.382c-4.56 11.723-13.79 24.347-25.177 32.072-11.194 7.596-24.839 8.325-37.863 9.67-1.553 2.908-2.57 5.816-3.041 8.724q.811-.103 1.621-.201z"/><path fill="#ffd500" d="M372.224 185.36c-3.342 4.095-7.754 7.77-10.504 12.28-3.522 5.785-3.041 12.172-1.87 19.364.813 4.982-.061 10.008-1.013 15.012 2.951-4.71 6.077-9.363 9.331-13.186 5.68-6.675 6.347-14.484 4.056-23.125-.961-3.633-.54-7.168 0-10.346z"/><path fill="url(#e)" d="M329.5 191.25c-17.093 26.998-9.744 61.744-26.406 93.078 5.864-9.356 11.888-18.984 18.35-26.579 11.284-13.262 12.609-28.778 8.057-45.945-1.91-7.22-1.072-14.241 0-20.555z" transform="translate(206.38 89.1)scale(.50332)"/></g><path fill="none" stroke="#d4a900" stroke-width=".75447668" d="M372.224 185.36c-3.342 4.095-7.754 7.77-10.504 12.28-3.522 5.785-3.041 12.172-1.87 19.364.472 2.896.376 5.807.026 8.718-.255 2.118-.558 3.783-1.439 5.714-4.898 10.755-13.464 22.2-23.81 29.217-11.192 7.595-24.84 7.949-37.863 9.294-1.327 2.233-2.344 5.14-3.042 8.724q.811-.103 1.622-.201c1.47-3.63 4.148-5.584 7.487-6.492 2.967-.812 6.052-1.212 9.114-1.569 11.199-1.296 20.444-5.571 28.802-13.08 8.01-7.192 14.57-16.174 18.688-25.468a31.8 31.8 0 0 1 2.874-5.2c1.897-2.805 3.854-5.474 5.86-7.83 5.68-6.676 6.346-14.485 4.055-23.126-.961-3.633-.54-7.167 0-10.345z"/><path fill="#ffd500" fill-rule="evenodd" d="M385.41 210.108c-3.17 3.993-6.854 7.134-11.966 9.537-3.358 1.575-6.371 3.627-8.988 6.333-5.06 5.237-6.024 12.231-12.311 18.212 5.004-3.045 10.107-4.555 15.012-5.885 11.539-3.125 18.207-12.187 18.254-28.197"/><path fill="url(#f)" fill-rule="evenodd" d="M355.7 240.42c-2.316 7.151-8.1 15.522-15.516 23.998-15.196 17.358-36.835 27.349-50.577 43.715 9.942-6.049 20.08-9.048 29.825-11.691 22.926-6.209 36.175-24.213 36.268-56.022" transform="translate(206.38 89.1)scale(.50332)"/><path fill="none" stroke="#d4a900" stroke-width=".75447668" d="M385.41 210.108c-3.17 3.993-6.854 7.134-11.966 9.537-3.358 1.575-6.371 3.627-8.988 6.333-5.06 5.237-6.024 12.231-12.311 18.212 5.004-3.045 10.107-4.555 15.012-5.885 11.539-3.125 18.207-12.187 18.254-28.197z"/><path fill="#ffd500" fill-rule="evenodd" d="M364.11 273.4c-6.327-6.926-12.49-9.517-18.564-10.038-8.092-.695-20.052 1.699-27.28 4.967 4.976.942 20.472 10.884 37.53 6.491 2.566-1.082 5.542-1.15 8.314-1.42z"/><path fill="url(#g)" fill-rule="evenodd" d="M313.38 366.17c-24.207-9.443-60.327-9.843-91.082-10.077 9.886 1.873 40.672 21.626 74.562 12.898 5.1-2.15 11.013-2.285 16.52-2.821" transform="translate(206.38 89.1)scale(.50332)"/><path fill="none" stroke="#d4a900" stroke-width=".75447668" d="M364.11 273.4c-6.327-6.926-12.49-9.517-18.564-10.038-8.092-.695-20.052 1.699-27.28 4.967 4.976.942 20.472 10.884 37.53 6.491 2.566-1.082 5.542-1.15 8.314-1.42z"/><path fill="#ffd500" fill-rule="evenodd" d="M374.257 241.958c-11.421 8.352-23.866-.982-39.76 19.88 5.993-1.408 10.764-.884 16.676-.435 9.165.701 17.172-3.757 23.085-19.444z"/><path fill="url(#h)" fill-rule="evenodd" d="M333.54 303.7c-26.573 34.106-51.55 16.686-78.997 39.496 11.907-2.797 21.386-1.756 33.133-.862 18.208 1.392 34.118-7.466 45.865-38.633z" transform="translate(206.38 89.1)scale(.50332)"/><g fill="none" stroke="#d4a900"><path stroke-width=".75447668" d="M374.257 241.958c-11.421 8.352-23.866-.982-39.76 19.88 5.993-1.408 10.764-.884 16.676-.435 9.165.701 17.172-3.757 23.085-19.444z"/><path stroke-width=".50332" d="M341.798 225.122c-1.305 15.945-7.691 40.756-22.11 42.6M352.55 205.85c-3.929 17.507 3.223 29.353-7.1 45.035M372.224 185.36c-8.603 13.589-4.905 31.077-13.29 46.848M385.41 210.108c-1.165 3.6-4.076 7.813-7.809 12.079-7.648 8.736-18.54 13.765-25.456 22.003M364.11 273.4c-12.183-4.752-30.363-4.954-45.843-5.071M374.257 241.958c-13.374 17.167-25.946 8.399-39.76 19.88"/><path stroke-width=".75447668" d="M391.144 278.177h-.005.005l.002-186.832H208.86V278.18h-.005c0 5.689 2.313 10.848 6.052 14.586 3.736 3.736 8.894 6.052 14.586 6.052v-.01H282.4l.034.01c6.75.152 12.65 3.74 16.016 9.078q.462.734.86 1.51a19.54 19.54 0 0 1 9.42-8.923 19.4 19.4 0 0 1 7.398-1.665h.06l.037-.01h54.29v.01a20.58 20.58 0 0 0 14.584-6.052c3.739-3.738 6.052-8.897 6.052-14.59z"/></g><path fill="#ffd500" stroke="#d4a900" stroke-width=".75447668" d="M325.355 98.822h34.373c1.717 0 3.121 1.46 3.121 3.246v2.16c0 1.786-1.404 3.246-3.121 3.246h-34.373c-1.718 0-3.122-1.46-3.122-3.246v-2.16c0-1.786 1.404-3.246 3.122-3.246zm0 25.14c-1.718 0-3.122-1.458-3.122-3.243v-2.164c0-1.786 1.404-3.243 3.122-3.243h34.373c1.717 0 3.121 1.457 3.121 3.243v2.164c0 1.785-1.404 3.242-3.121 3.242H347.44l-2.176 3.33c-.31.478-.862.68-1.433.614h-2.582c-.568.065-1.12-.136-1.433-.614l-2.176-3.33zm15.709.477a1.477 1.477 0 1 0 2.954 0 1.476 1.476 0 0 0-2.955 0z"/><path fill="url(#i)" stroke="#a90000" stroke-width="1.499" d="M236.49 25.801h68.082v36.976H236.49z" transform="translate(206.38 89.1)scale(.50332)"/><g fill="#ffd500"><path stroke="#d4a900" stroke-width=".75447668" d="M342.543 130.305a4.694 4.694 0 1 1-.001 9.392 4.694 4.694 0 0 1 .001-9.392zm-2.7 4.697a2.7 2.7 0 1 0 5.4 0 2.7 2.7 0 0 0-5.4 0z"/><path stroke="#d4a900" stroke-width=".75447668" d="M342.543 124.43c.594 0 1.078.505 1.078 1.119v7.067c0 .614-.484 1.119-1.078 1.119s-1.074-.502-1.074-1.12v-7.066c0-.617.48-1.12 1.074-1.12z"/><path d="m359.872 192.276-17.327-7.658-17.327 7.655 1.928-18.844-12.637-14.112 18.518-3.99 9.518-16.382 9.518 16.382 18.517 3.99-12.637 14.112z"/></g><path fill="url(#j)" d="m304.96 204.99-34.426-15.214-34.426 15.208 3.831-37.438-25.107-28.039 36.791-7.927 18.91-32.547 18.91 32.547 36.791 7.927-25.107 28.039 3.832 37.444z" transform="translate(206.38 89.1)scale(.50332)"/><g fill="#ffd500" fill-rule="evenodd"><path d="m325.219 192.27 1.928-18.843 15.396-5.004z"/><path d="m314.508 159.318 18.518-3.99 9.515 13.099z"/><path d="m333.025 155.327 9.518-16.382v29.48zM370.578 159.318l-18.518-3.99-9.517 13.099z"/></g><g fill="none" stroke="#d4a900"><g stroke-width=".5"><path stroke-width=".25166" d="m370.578 159.318-43.434 14.113M357.945 173.431 314.51 159.32M359.872 192.27l-26.845-36.948M342.543 138.945v45.674M352.06 155.327l-26.844 36.946"/></g><path stroke-width="1.00613668" d="m359.872 192.276-17.327-7.658-17.327 7.655 1.928-18.844-12.637-14.112 18.518-3.99 9.518-16.382 9.518 16.382 18.517 3.99-12.637 14.112z"/></g><path fill="#ffd500" fill-rule="evenodd" d="m359.878 192.276-17.326-7.657-.001-16.19z"/></svg>