<svg xmlns="http://www.w3.org/2000/svg" width="600" height="400" viewBox="0 0 588.123 392.082"><path d="M414.891 198.646h-7.814v-5.21h7.814a2.605 2.605 0 1 0 0-5.209h-7.814l5.21-5.21h2.604c4.25.015 7.815 3.5 7.815 7.814a7.8 7.8 0 0 1-1.991 5.211 7.78 7.78 0 0 1 1.991 5.209c0 4.315-3.564 7.8-7.815 7.814h-7.814v-5.21h7.814a2.605 2.605 0 0 0 0-5.21m-202.587-2.605c0-7.191 5.833-13.025 13.025-13.025s13.024 5.834 13.024 13.025-5.832 13.024-13.024 13.024-13.025-5.832-13.025-13.024m13.025 18.234c10.069 0 18.234-8.165 18.234-18.234 0-10.068-8.165-18.234-18.234-18.234s-18.234 8.166-18.234 18.234 8.165 18.234 18.234 18.234m-5.209-26.049h5.209c4.315 0 7.814 3.5 7.814 7.815s-3.564 7.8-7.814 7.814h-5.209v-5.21h5.209a2.605 2.605 0 0 0 0-5.21h-5.209zm44.28-5.208h5.21v26.047h-5.21l-10.419-16.353v16.353h-5.21v-26.047h5.21l10.42 16.353zm-78.144 0h15.629v5.21h-10.42v5.208h10.42v5.21h-10.42v5.21h10.42v5.21h-15.63zm88.563 0h5.21v26.047h-5.21zm20.84 26.047c5.753 0 10.419-4.665 10.419-10.42v-5.208c0-5.754-4.666-10.42-10.42-10.42h-10.42v26.048zm0-20.838a5.21 5.21 0 0 1 5.209 5.21v5.209a5.21 5.21 0 0 1-5.21 5.21h-5.21v-15.629zm90.58 7.814c0 7.192-5.832 13.024-13.025 13.024-7.19 0-13.024-5.832-13.024-13.024s5.833-13.025 13.024-13.025c7.193 0 13.025 5.834 13.025 13.025m-13.025-18.234c-10.068 0-18.233 8.166-18.233 18.234s8.165 18.234 18.233 18.234c10.07 0 18.235-8.165 18.235-18.234 0-10.068-8.166-18.234-18.235-18.234m-207.797 5.21h5.21v20.838h10.419v5.21h-15.63zm236.45 0v26.048h-5.21v-20.838zm-59.91 15.628a2.605 2.605 0 0 0-2.605 2.605v2.605h10.42v5.21h-15.63v-7.815c.015-4.25 3.5-7.814 7.815-7.814a2.605 2.605 0 0 0 0-5.209h-7.815l5.21-5.21h2.605c4.249.015 7.815 3.5 7.815 7.814 0 4.315-3.501 7.814-7.815 7.814" style="fill:purple;fill-opacity:.98514847;stroke:none"/><path d="M0 0h588.123v392.082H0z" style="fill:#005bbb;fill-opacity:1;stroke:none"/><path d="M-68.005 282.978c3.134-3 6.877-5.785 10.655-8.596 8.349-6.21 13.735-11.447 17.432-18.25 6.4-11.774 7.798-26.695 8.204-40.51.095-3.265.137-6.469.174-9.556l-1.039-.278c-3.168 13.503-25.232 4.92-31.853-5.314-5.15-7.961-11.392-19.573-12.16-32.67H-202.17c-1.952 19.148-6.904 24.772-12.054 32.733-6.622 10.234-27.907 18.754-31.075 5.25l-1.039.28c.038 3.086.08 6.29.175 9.556.406 13.814 1.804 28.735 8.203 40.509 3.698 6.803 9.084 12.04 17.432 18.25 3.778 2.81 7.521 5.597 10.656 8.596-3.427-.402-7.201 1.325-9.416 4.681-12.53 18.993 30.577 38.127 41.854 42.205 13.928 5.036 26.79 10.01 38.495 20.167 11.705-10.158 24.568-15.131 38.495-20.167 11.278-4.078 54.385-23.212 41.854-42.205-2.214-3.356-5.99-5.083-9.415-4.681z" style="fill:#c7ad56;fill-opacity:1;fill-rule:evenodd;stroke:#504416;stroke-width:.98020464;stroke-miterlimit:4;stroke-opacity:1;stroke-dasharray:none" transform="translate(433 .057)"/><path d="M-209.596 283.204c-3.088-2.988-7.1-5.794-10.932-8.62-8.348-6.21-13.734-11.447-17.432-18.25-6.4-11.774-7.797-26.694-8.203-40.508.255 8.68 2.089 19.557 5.833 29.398-1.305-6.724-.758-12.583-2.027-20.184.922.548 1.75.97 2.712.905-.5-1.546-1.16-3.498-1.12-5l1.403 1.18c-.169-2.234-.639-5.098-1.05-7.332 1.324 1.753 2.33 4.107 2.932 6.34l.643-2.328c.947 1.819 1.314 4.248 1.419 6.186l.618-1.526c.616 1.608.493 3.772.264 5.501l1.005-.612c.58 4.982-3.78 15.43-3.116 22.12a19.2 19.2 0 0 0 1.07 4.745 45 45 0 0 0 4.568 6.32c-2.742-5.557-3.377-12.451-2.792-18.077l1.6 1.3c-1.037-2.634-.274-5.191-.205-7.557l1.94 2.028c-1.462-3.48.365-6.724.06-9.876 2.633 1.567 4.2 4.448 3.904 9.105l1.835-.835c-.066 1.333-.734 3.035-1.335 4.635l1.8-1c.166 2.22-1.109 5.603-2.79 8.19l1.236-.69c-2.768 6.858-3.606 14.541.454 18.399l-.119.012a89 89 0 0 0 4.822 3.968c-3.966-4.918-4.538-11.075-3.073-16.556q.674.561 1.138 1.106c-.116-1.898-.278-3.777.36-5.983l.818 1.285c-.259-2.705 1.567-5.51.555-8.904 2.29 1.384 3.957 3.79 3.784 8.068l1.236-1.06c.873 3.5.112 7.067-1.4 10.662l1.188-.434c-1.657 5.216-2.641 10.616-.696 14.708 1.925 1.386 4.142 2.976 6.288 4.725l-1.598-2.256c-1.837-2.966-3.215-6.846-3.356-10.006l1.434.92c-.727-2.166-1.233-4.377-.7-6.51l.791.557c-.852-2.484 1.059-5-.347-7.755 2.613 2.154 3.807 4.932 4.378 7.591l.84-.885c.45 1.28.319 2.837.13 4.324l1.186-.405c.235 1.365-.387 2.972-1.016 4.69l.712.108c-1.223 2.685-1.823 5.714.294 12.01 2.552 2.377 4.734 4.971 5.812 7.684.016-3.768-3.534-6.33-4.46-9.874l1.675.419c-1.253-2.114-2.073-4.224-2.191-6.196l1.014.192c-.486-2.28.446-4.507.41-6.84 1.746 1.79 2.703 4.417 3.56 7.2l.697-1.336c.589 1.814.815 3.765.838 5.793l1.326-.907c1.328 7.043.409 13.987-3.688 19.928-2.42 3.507-7.154 4.588-10.673 2.07-2.905-2.08-3.756-6.091-1.561-8.985 1.753-2.312 5.048-2.934 7.32-1.02 1.75 1.475 2.065 4.176.313 5.762-.54.489-1.226.792-2.008.752-.953-.047-1.926-.723-1.577-1.823a1.35 1.35 0 0 1 1.695-.88l.009.002c.007 0 .034-.021.07-.054.53-.48.23-1.298-.24-1.694-1.085-.914-2.626-.478-3.432.586-1.28 1.686-.669 3.963.989 5.15 2.29 1.638 5.31.86 6.87-1.403 1.452-2.105 1.368-4.699.06-6.664-1.403-2.108-3.146-4.227-4.771-5.8z" style="fill:#c7ad56;fill-opacity:1;stroke:#504416;stroke-width:.98020464;stroke-linejoin:round;stroke-miterlimit:4;stroke-opacity:1;stroke-dasharray:none" transform="translate(433 .057)"/><path d="M-138.939 350.234" style="fill:#ffd300;fill-opacity:1;stroke:none" transform="translate(433 .057)"/><g style="stroke:#504416;stroke-width:1.630705;stroke-miterlimit:4;stroke-opacity:1;stroke-dasharray:none"><path d="M70.498 128.695c-4.051.59-7.752 4.018-11.048 9.27-.9-2.903.055-5.814 1.833-8.607-4.099.71-6.069 4.774-7.592 9.89-1.044-2.38-1.312-5.003-1.042-7.129-2.812 2.064-4.053 6.283-5.255 10.431q-1.365-3.766-1.08-7.676c-3.491 3.916-4.073 7.629-3.293 11.247-1.019-2.875-2.786-5.168-5.145-6.5 3.302 13.726-1.375 19.264-9.892 22.918 20.768-2.452 36.35-14.26 42.514-33.844z" style="fill:#c7ad56;fill-opacity:1;fill-rule:evenodd;stroke:#504416;stroke-width:1.630705;stroke-linejoin:round;stroke-miterlimit:4;stroke-opacity:1;stroke-dasharray:none" transform="translate(179.758 115.24)scale(.6011)"/><path d="M23.994-1.974a1.944 1.944 0 0 1 2.41 1.178c.832-.06 1.303-.34 1.388-1.36.146-1.73-1.37-2.945-3.012-2.998-1.746-.057-3.273.96-4.021 2.477-.702 1.423-.672 3.157-.012 4.662 1.131 2.582 4.074 3.923 7.034 5.271 3.897 1.776 7.818 3.563 9.432 8.127l-3.676 1.296c-1.064-3.009-4.228-4.451-7.373-5.884-3.638-1.658-7.256-3.307-8.986-7.254-1.104-2.519-1.13-5.47.088-7.941 1.417-2.873 4.355-4.75 7.636-4.644 3.868.126 7.112 3.26 6.78 7.209-.259 3.076-3.006 5.527-6.115 4.837-.97-.215-1.85-.745-2.429-1.654-.732-1.151-.7-2.83.856-3.322z" style="fill:#c7ad56;fill-opacity:1;stroke:#504416;stroke-width:1.630705;stroke-miterlimit:4;stroke-opacity:1;stroke-dasharray:none" transform="translate(179.758 115.24)scale(.6011)"/><path d="M68.014 22.98c-4.765-4.185-5.835-10.817-5.32-14.445 3.293 7.896 10.77 7.712 18.2 3.842 2.804-1.46 6.022-.62 9.6.016-.94-3.92-3.37-5.631-6.014-7.026 2.228-.897 3.74-2.655 4.304-5.26l-2.449-.65c2.557-2.69 4.459-5.623 4.175-9.046-1.795 1.678-3.851 3.52-5.993 4.614l.623-4.886c-1.438 1.113-2.584 2.113-4.364 2.55-4.666 1.153-6.393 3.751-7.636 4.664-1.814 1.333-3.3-.533-1.566-1.902 1.675-1.323 3.8-2.424 6.166-3.348 5.046-1.972 7.182-5.369 6.73-12.315l-3.34 1.517c1.76-2.658 2.983-5.85 3.386-8.54l-2.859.375c1.547-4.127 2.839-7.902 2.843-11.938-4.726 1.865-8.726 5.313-12.145 9.96l.177-4.46c-2.775 1.788-5.272 4.82-7.328 8.068l-.42-3.311c-5.488 4.21-8.55 13.323-6.147 19.499C59.69-6.7 57.272-5.017 55.88-7.075c-2.328-3.447.699-10.518 2.48-15.739-3.584.667-6.472 3.12-7.93 7.878q-1.46-3.007-.605-6.158c-4.298 1.157-7.206 4.328-7.147 10.428-4.701-2.931-8.593-1.348-10.996 1.871C46.753-7.212 45.05 15.073 59.017 7.853c-1.265 3.675-.566 9.34 2.608 12.712z" style="fill:#c7ad56;fill-opacity:1;stroke:#504416;stroke-width:1.630705;stroke-linejoin:round;stroke-miterlimit:4;stroke-opacity:1;stroke-dasharray:none" transform="translate(179.758 115.24)scale(.6011)"/><g style="fill:#c7ad56;fill-opacity:1;stroke:#504416;stroke-width:1.630705;stroke-miterlimit:4;stroke-opacity:1;stroke-dasharray:none"><path d="M28.57 153.183a3.84 3.84 0 0 1-.203 7.675 3.84 3.84 0 0 1 .202-7.675zM36.85 152.758a3.839 3.839 0 1 1-.203 7.674 3.839 3.839 0 0 1 .202-7.674z" style="fill:#c7ad56;fill-opacity:1;fill-rule:evenodd;stroke:#504416;stroke-width:1.630705;stroke-miterlimit:4;stroke-opacity:1;stroke-dasharray:none" transform="translate(179.758 56.32)scale(.6011)"/><path d="M40.747 159.443a3.839 3.839 0 1 1-.205 7.675 3.839 3.839 0 0 1 .205-7.675z" style="fill:#c7ad56;fill-opacity:1;fill-rule:evenodd;stroke:#504416;stroke-width:1.630705;stroke-miterlimit:4;stroke-opacity:1;stroke-dasharray:none" transform="translate(179.758 56.32)scale(.6011)"/><path d="M33.076 160.144a3.839 3.839 0 1 1-.205 7.674 3.839 3.839 0 0 1 .205-7.674zM25.045 160.448a3.84 3.84 0 0 1-.203 7.674 3.84 3.84 0 0 1-3.736-3.938 3.84 3.84 0 0 1 3.939-3.736zM21.18 152.602a3.839 3.839 0 1 1-.203 7.675 3.839 3.839 0 0 1 .202-7.675z" style="fill:#c7ad56;fill-opacity:1;fill-rule:evenodd;stroke:#504416;stroke-width:1.630705;stroke-miterlimit:4;stroke-opacity:1;stroke-dasharray:none" transform="translate(179.758 56.32)scale(.6011)"/><path d="M17.055 159.204a3.84 3.84 0 0 1 3.736 3.938 3.84 3.84 0 0 1-3.938 3.736 3.84 3.84 0 0 1-3.736-3.938 3.84 3.84 0 0 1 3.938-3.736zM8.112 123.99a3.839 3.839 0 1 1-.205 7.675 3.839 3.839 0 0 1 .205-7.674zM6.91 132.09a3.84 3.84 0 0 1 3.737 3.938 3.84 3.84 0 0 1-3.939 3.736 3.84 3.84 0 0 1-3.736-3.939 3.84 3.84 0 0 1 3.939-3.736z" style="fill:#c7ad56;fill-opacity:1;fill-rule:evenodd;stroke:#504416;stroke-width:1.630705;stroke-miterlimit:4;stroke-opacity:1;stroke-dasharray:none" transform="translate(179.758 56.32)scale(.6011)"/><path d="M14.453 131.515a3.84 3.84 0 0 1 3.736 3.938 3.84 3.84 0 0 1-3.938 3.736 3.84 3.84 0 0 1-3.736-3.938 3.84 3.84 0 0 1 3.938-3.736zM5.957 140.196a3.84 3.84 0 0 1-.204 7.674 3.84 3.84 0 0 1 .204-7.674zM13.993 139.634a3.84 3.84 0 0 1 3.736 3.938 3.84 3.84 0 0 1-3.938 3.736 3.84 3.84 0 0 1-3.736-3.939 3.84 3.84 0 0 1 3.938-3.735zM6.981 148.097a3.84 3.84 0 0 1 3.736 3.938 3.84 3.84 0 0 1-7.674-.203 3.84 3.84 0 0 1 3.938-3.735zM14.892 147.66a3.84 3.84 0 0 1 3.736 3.938 3.84 3.84 0 0 1-7.674-.203 3.84 3.84 0 0 1 3.938-3.735zM10.11 155.794a3.84 3.84 0 0 1 3.735 3.939 3.84 3.84 0 0 1-7.674-.204 3.84 3.84 0 0 1 3.938-3.735z" style="fill:#c7ad56;fill-opacity:1;fill-rule:evenodd;stroke:#504416;stroke-width:1.630705;stroke-miterlimit:4;stroke-opacity:1;stroke-dasharray:none" transform="translate(179.758 56.32)scale(.6011)"/></g><path d="M72.59 123.22c-10.975-8.384-18.093-28.236-10.897-42.626 1.664-3.328 3.674-7.043 7.72-7.298 2.115-.133 3.66.88 4.546 2.232 1.765 2.695 1.153 7.236-3.338 8.932-1.558.588-3.135-2.844-1.731-3.642 1.189-.678 2.473-1.57 1.79-2.649-.603-.957-1.455-.723-2.208-.216-2.037 1.368-3.23 4.767-4.025 6.979-3.857 10.728-.688 22.307 8.759 33.234z" style="fill:#c7ad56;fill-opacity:1;fill-rule:evenodd;stroke:#504416;stroke-width:1.630705;stroke-miterlimit:4;stroke-opacity:1;stroke-dasharray:none" transform="translate(179.758 115.24)scale(.6011)"/><path d="M71.034 59.046c10.07-18.707.064-48.732-21.983-39.059.719-9.302-9.53-16.662-20.157-12.515-9.932 3.876-18.76 2.192-26.503-6.345Q.405 9.566 6.04 15.58q-2.46.921-4.92-.882c1.688 9.517 6.703 12.844 13.648 11.458l-2.448 3.4c4.678 3.068 11.416 1.878 16.21-3.124 2.8-2.919 7.607-5.021 8.617-2.392.938 2.443-2.51 4.303-6.032 5.163-5.814 1.42-11.64 3.526-14.85 10.501l4.013-1.26c-1.613 1.792-3.148 4.378-3.854 6.774l2.766-.253c-1.28 3.067-1.69 6.858-1.088 10.125 2.697-.915 5.668-.847 8.366-2.822l-.34 4.105c3.023-.405 5.366-2.691 7.165-3.6l.362 4.406c4.76-3.215 6.706-8.703 7.55-14.807.674-4.873 2.472-8.477 4.353-5.993.657.869-.233 3.158-1.61 5.809-2.992 5.76-4.5 15.457-1.903 22.144l1.36-3.049c1.39 4.257 3.506 7.984 6.347 10.426l-.067-5.012c1.36 2.152 3.017 3.641 4.92 4.583-.38-2.173-.666-4.348-.318-6.522 1.984 2.143 3.98 3.2 5.781 3.325-1.416-3.494-1.947-7.075-1.827-10.615.15-4.41 1.681-8.725 3.33-12.804C67.76 29.355 57.99 24.78 51.345 23.64c10.614-5.134 24.903 8.617 16.837 29.224z" style="fill:#c7ad56;fill-opacity:1;stroke:#504416;stroke-width:1.630705;stroke-linejoin:round;stroke-miterlimit:4;stroke-opacity:1;stroke-dasharray:none" transform="translate(179.758 115.24)scale(.6011)"/><path d="M68.494 95.533c-6.607-7.642-14.823-9.158-19.435-5.329 2.789-.035 5.072.43 6.766 1.46 8.84 5.372-4.623 18.62 5.226 32.423-1.858.534-3.534-.49-5.184-1.737-.392 2.576-.33 5.204.724 7.95-3.605.117-7.047-1.15-10.134-5.468a15.2 15.2 0 0 0 .167 3.825q.124.714.324 1.4c-2.26-.75-3.858-2.738-5.364-4.902l-.21 1.323-.626 3.97c-5.64-3.618-5.286-12.593-.409-19.145 1.775-2.386-1.113-3.652-2.082-1.932-2.06 3.478-2.646 7.44-2.873 11.455-.395 6.971-.987 14.01-9.783 15.131l.758-4.628c-1.907 2.525-4.74 5.128-7.877 5.359l.52-3.533c-4.64 6.828-10.322-.06-15.657 1.405l6.253-12.179q-2.856 1.405-5.712 2.807c.342-3.451 2.275-6.716 5.257-9.858-1.182.687-2.211 1.954-3.394 2.639-.272-2.36 1.034-5.695 3.361-8.048l-4.317 2.076c3.056-6.94 4.997-9.537 9.577-10.77 3.73-1.005 7.982-.959 11.645-2.484 3.088-1.286 1.157-5.047-1.617-3.096-1.978 1.39-4.285 2.077-6.158 2.544-4.493 1.122-7.626-.82-9.264-6.987l3.812-.563c-2.512-2.063-3.817-4.732-3.898-7.22l2.462.629c-2.722-4.372-2.505-8.525-1.456-12.114 1.969 2.503 4.47 4.038 6.9 5.097l-.858-3.03c2.624.818 4.807 2.577 7.79 4.076l-.98-2.932c4.34 1.658 8.007 2.56 12.586 2.463 9.186-.193 12.72 3.256 9.714 9.867 6.157-4.24 14.639-5.019 21.66.335-1.158-4.568-2.633-9.316-2.897-13.988-.225-3.977.378-7.676 1.35-12.31 1-4.764.514-8.84-2.234-14.253 4.8 1.519 9.073 3.824 9.657 11.642 1.973-.302 3.816.23 4.275 2.368-5.909 2.226-8.259 6.811-8.297 12.246-.03 4.188 1.751 10.086 2.743 14.145 3.687 15.096 5.736 28.446.89 43.774-5.817 10.816-9.098 16.59-25.945 25.48 8.535-5.397 18.574-16.959 21.722-27.07 3.758-12.078 2.927-22.809.522-34.313z" style="fill:#c7ad56;fill-opacity:1;stroke:#504416;stroke-width:1.630705;stroke-linejoin:round;stroke-miterlimit:4;stroke-opacity:1;stroke-dasharray:none" transform="translate(179.758 115.24)scale(.6011)"/><path d="M82.016 197.203c-.772 17.764-16.993 45.361-32.026 54.648-7.077 4.373-24.877 11.01-31.826 3.094-1.649-1.88-2.591-4.326-2.358-6.953v-.123l.03-.214v-.03a8.57 8.57 0 0 1 2.91-5.361c2.994-2.566 7.471-2.533 10.048.582 1.844 2.23 1.881 5.558-.49 7.412-1.465 1.144-3.688 1.17-4.81-.428-.44-.628-.579-1.726.215-2.145 1.032.58 2.358.275 3.002-.735a2.27 2.27 0 0 0-.245-2.757c-1.688-1.81-4.756-1.003-6.28.613-.254.27-.48.553-.674.858-1.446 2.273-1.008 5.32.766 7.351 2.766 3.165 7.464 3.39 10.782.797 4.359-3.408 4.663-9.652 1.195-13.846-4.178-5.051-11.516-5.305-16.419-1.103-5.76 4.935-6.018 13.42-1.072 19.053 8.538 9.725 27.546 3.464 36.88-1.807 17.825-10.065 30.056-36.493 30.372-58.906z" style="fill:#c7ad56;fill-opacity:1;stroke:#504416;stroke-width:1.630705;stroke-miterlimit:4;stroke-opacity:1;stroke-dasharray:none" transform="translate(179.758 56.32)scale(.6011)"/></g><g style="stroke:#504416;stroke-width:1.630705;stroke-miterlimit:4;stroke-opacity:1;stroke-dasharray:none"><path d="M98.871-29.528c-1.812-5.727-5.098-9.619-9.495-6.388-4.735 3.478-2.81 7.064.69 9.668 1.45 1.079 1.297 3.129-.518 2.59-6.015-1.788-5.656 3.884-1.899 5.87 1.89.999 1.156 2.009.345 2.59-4.802 3.438.326 7.348 5.18 6.042 1.283-.345 3.15.269 2.417 1.554-3.292 5.769 4.906 5.875 9.323 6.388 1.414.164 2.835-.096 2.762 1.035-.311 4.825 3.405 5.902 10.704 3.28 1.188-.426 2.232-1.431 2.762-.517 1.553 2.677 6.621 1.32 11.913 0l-13.64-27.278z" style="fill:#c7ad56;fill-opacity:1;fill-rule:evenodd;stroke:#504416;stroke-width:1.630705;stroke-miterlimit:4;stroke-opacity:1;stroke-dasharray:none" transform="translate(179.758 115.24)scale(.6011)"/><path d="m98.61-3.764 3.901.056c1.12-10.23 17.582-6.303 22.793-4.905l.258-3.876C116.65-14.534 99.22-16.83 98.61-3.764z" style="font-size:medium;font-style:normal;font-variant:normal;font-weight:400;font-stretch:normal;text-indent:0;text-align:start;text-decoration:none;line-height:normal;letter-spacing:normal;word-spacing:normal;text-transform:none;direction:ltr;block-progression:tb;writing-mode:lr-tb;text-anchor:start;baseline-shift:baseline;color:#000;fill:#c7ad56;fill-opacity:1;stroke:#504416;stroke-width:1.630705;stroke-miterlimit:4;stroke-opacity:1;stroke-dasharray:none;marker:none;visibility:visible;display:inline;overflow:visible;font-family:Sans;-inkscape-font-specification:Sans" transform="translate(179.758 115.24)scale(.6011)"/><path d="m113.898-4.014 3.901-.131c-.01-4.712 2.758-6.08 7.117-4.807l.678-3.412c-7.328-2.161-11.73 1.002-11.696 8.35z" style="font-size:medium;font-style:normal;font-variant:normal;font-weight:400;font-stretch:normal;text-indent:0;text-align:start;text-decoration:none;line-height:normal;letter-spacing:normal;word-spacing:normal;text-transform:none;direction:ltr;block-progression:tb;writing-mode:lr-tb;text-anchor:start;baseline-shift:baseline;color:#000;fill:#c7ad56;fill-opacity:1;stroke:#504416;stroke-width:1.630705;stroke-miterlimit:4;stroke-opacity:1;stroke-dasharray:none;marker:none;visibility:visible;display:inline;overflow:visible;font-family:Sans;-inkscape-font-specification:Sans" transform="translate(179.758 115.24)scale(.6011)"/><path d="M100.496-2.777c3.629 0 6.572 3.828 6.572 8.55 0 4.72-2.943 8.549-6.572 8.549s-6.571-3.829-6.571-8.55c0-4.72 2.942-8.55 6.571-8.55z" style="fill:#c7ad56;fill-opacity:1;fill-rule:evenodd;stroke:#504416;stroke-width:1.630705;stroke-miterlimit:4;stroke-opacity:1;stroke-dasharray:none" transform="translate(179.758 115.24)scale(.6011)"/><path d="M100.496-5.265a7.21 7.21 0 0 1 7.017 8.868H93.479a7.21 7.21 0 0 1 7.017-8.868zM116-2.777c3.629 0 6.572 3.828 6.572 8.55 0 4.72-2.943 8.549-6.572 8.549s-6.572-3.829-6.572-8.55c0-4.72 2.943-8.55 6.572-8.55z" style="fill:#c7ad56;fill-opacity:1;fill-rule:evenodd;stroke:#504416;stroke-width:1.630705;stroke-miterlimit:4;stroke-opacity:1;stroke-dasharray:none" transform="translate(179.758 115.24)scale(.6011)"/><path d="M116-5.265a7.21 7.21 0 0 1 7.017 8.868h-14.034A7.21 7.21 0 0 1 116-5.265zM122.22-62.288c-3.012-5.491-3.036-13.423 6.659-10.883 1.558.408 3.69.477 2.207-3.68-.891-2.498-1.666-3.968-.981-5.887 1.176-3.294 3.288-2.721 4.66-.98 1.556 1.973 2.751 1.82 2.944-1.472.136-2.333-1.065-5.003 1.226-6.869 2.304-1.874 3.466-.116 4.416 3.435.545 2.039 2.548 1.732 3.433-.49.683-1.715.86-3.59 1.227-5.397.705-3.48 3.082-3.445 4.906-1.717 1.494 1.415 1.92 1.75 3.434.245 2.165-2.153 4.059-1.845 5.363-.286.855 1.022 1.673 2.817-.065 3.6-1.489.671-.965 1.645-.481 1.994 2.285 1.645-.465 5.166-4.415 3.679-1.82-.685-4.214.184-3.1 2.051 2.107 3.532 2.707 5.87-4.906 7.604-2.807.64-3.799 1.256-2.208 1.962 5.914 2.624 3.463 6.683.245 10.057-2.37 2.486-.708 2.955.736 2.943 1.777-.014 4.887-1.624 4.906.982l.245 33.114-15.698-7.114z" style="fill:#c7ad56;fill-opacity:1;fill-rule:evenodd;stroke:#504416;stroke-width:1.630705;stroke-miterlimit:4;stroke-opacity:1;stroke-dasharray:none" transform="translate(179.758 115.24)scale(.6011)"/><path d="M112.044-68.965c1.415.15 2.145-1.106 1.876-2.504-.835-4.343-2.315-10.177 4.103-10.489 5.544-.27 5.549 5.22 4.342 10.602-.565 2.522.481 3.447 1.853 2.51 3.866-2.645 7.322.011 4.415 5.486-1.003 1.89-.243 3.1 1.181 1.281 3.325-4.244 9.806-2.33 7.214 8.33-.491 2.02-.204 3.162.88 2.744 4.006-1.543 5.852 1.848 4.416 10.593-.383 2.333.446 3.786 1.472 3.298 3.138-1.491 5.426 1.445 8.14 5.887l-.246 10.057-19.623-1.717-21.095-22.076c-5.402-4.633-4.838-10.82 1.227-11.283 2.92-.223 2.066-2.24 0-2.944-6.246-2.125-7.742-10.585-.155-9.775z" style="fill:#c7ad56;fill-opacity:1;fill-rule:evenodd;stroke:#504416;stroke-width:1.630705;stroke-miterlimit:4;stroke-opacity:1;stroke-dasharray:none" transform="translate(179.758 115.24)scale(.6011)"/><path d="M146.905-23.058c-.727.728-1.656.447-2.324-.871-2.07-4.087-4.285-4.828-7.12-3.778-1.32.49-2.297 1.376-2.614-1.743-.864-8.504-4.034-15.208-8.136-11.042-.605.614-1.799.476-2.034-.872-1.332-7.628-4.525-13.694-9.153-6.683-1.363 2.065-2.634 2.078-2.324-.726.656-5.953-3.629-7.998-5.957-2.615-.898 2.075-2.483.884-2.325-1.453.423-6.24-2.469-10.252-7.264-8.281-6.19 2.544-3.594 7.283-.727 11.041.686.898.833 2.552-.58 2.906-8.572 2.145-2.223 8.649 2.905 9.008 2.227.155 3.006 1.4.872 3.196-8.179 6.88-.536 11.15 7.119 10.896 1.562-.051 1.939 1.094 1.453 1.889-3.85 6.294 1.537 7.005 8.136 5.811 1.489-.269 2.464.235 2.179 1.163-1.548 5.041 8.493 6.545 15.11 1.162.745-.607 2.395-.388 2.76.726 1.302 3.976 5.852 4.213 10.17 1.889 1.562-.84 2.861 1.55 4.605-.145 0-3.632.172-7.264.172-10.897-1.259-1.356-4.001-1.502-4.923-.58z" style="fill:#c7ad56;fill-opacity:1;fill-rule:evenodd;stroke:#504416;stroke-width:1.630705;stroke-miterlimit:4;stroke-opacity:1;stroke-dasharray:none" transform="translate(179.758 115.24)scale(.6011)"/><path d="M124.768-4.84q.21.14.396.306c1.197 1.068 1.59 2.848.294 3.147-3.511.812-1.374 5.136 3.108 6.215 1.997.48 3.117 1.05 1.209 2.245-5.542 3.467 2.82 8.276 8.977 2.935 1.548-1.343 2.735-1.139 3.453.345 3.008 6.214 8.64 5.144 15.71-1.209 1.153-1.035 1.995-1.076 3.108 0 2.344 2.266 4.834.92 7.252-3.798l-8.46-9.495-7.079-2.072c-1.553.978-.926 7.437-2.416 6.042-1.43-1.337-3.043-1.998-5.007-1.035-2.584 1.265-2.326-.745-1.9-2.418.945-3.704-2.238-6.896-4.833-3.798-1.473 1.758-2.458.078-2.418-2.071.077-3.997-3.46-5.01-4.66-2.072-.987 2.414-1.911 3.16-2.59.863-1-3.376-2.346-4.44-4.835-2.762-2.807 1.892-3.515 5.842.69 8.632z" style="fill:#c7ad56;fill-opacity:1;fill-rule:evenodd;stroke:#504416;stroke-width:1.630705;stroke-miterlimit:4;stroke-opacity:1;stroke-dasharray:none" transform="translate(179.758 115.24)scale(.6011)"/></g><g style="stroke:#504416;stroke-width:1.630705;stroke-miterlimit:4;stroke-opacity:1;stroke-dasharray:none"><path d="M98.871-29.528c-1.812-5.727-5.098-9.619-9.495-6.388-4.735 3.478-2.81 7.064.69 9.668 1.45 1.079 1.297 3.129-.518 2.59-6.015-1.788-5.656 3.884-1.899 5.87 1.89.999 1.156 2.009.345 2.59-4.802 3.438.326 7.348 5.18 6.042 1.283-.345 3.15.269 2.417 1.554-3.292 5.769 4.906 5.875 9.323 6.388 1.414.164 2.835-.096 2.762 1.035-.311 4.825 3.405 5.902 10.704 3.28 1.188-.426 2.232-1.431 2.762-.517 1.553 2.677 6.621 1.32 11.913 0l-13.64-27.278z" style="fill:#c7ad56;fill-opacity:1;fill-rule:evenodd;stroke:#504416;stroke-width:1.630705;stroke-miterlimit:4;stroke-opacity:1;stroke-dasharray:none" transform="matrix(-.6011 0 0 .6011 408.365 115.24)"/><path d="m98.61-3.764 3.901.056c1.12-10.23 17.582-6.303 22.793-4.905l.258-3.876C116.65-14.534 99.22-16.83 98.61-3.764z" style="font-size:medium;font-style:normal;font-variant:normal;font-weight:400;font-stretch:normal;text-indent:0;text-align:start;text-decoration:none;line-height:normal;letter-spacing:normal;word-spacing:normal;text-transform:none;direction:ltr;block-progression:tb;writing-mode:lr-tb;text-anchor:start;baseline-shift:baseline;color:#000;fill:#c7ad56;fill-opacity:1;stroke:#504416;stroke-width:1.630705;stroke-miterlimit:4;stroke-opacity:1;stroke-dasharray:none;marker:none;visibility:visible;display:inline;overflow:visible;font-family:Sans;-inkscape-font-specification:Sans" transform="matrix(-.6011 0 0 .6011 408.365 115.24)"/><path d="m113.898-4.014 3.901-.131c-.01-4.712 2.758-6.08 7.117-4.807l.678-3.412c-7.328-2.161-11.73 1.002-11.696 8.35z" style="font-size:medium;font-style:normal;font-variant:normal;font-weight:400;font-stretch:normal;text-indent:0;text-align:start;text-decoration:none;line-height:normal;letter-spacing:normal;word-spacing:normal;text-transform:none;direction:ltr;block-progression:tb;writing-mode:lr-tb;text-anchor:start;baseline-shift:baseline;color:#000;fill:#c7ad56;fill-opacity:1;stroke:#504416;stroke-width:1.630705;stroke-miterlimit:4;stroke-opacity:1;stroke-dasharray:none;marker:none;visibility:visible;display:inline;overflow:visible;font-family:Sans;-inkscape-font-specification:Sans" transform="matrix(-.6011 0 0 .6011 408.365 115.24)"/><path d="M100.496-2.777c3.629 0 6.572 3.828 6.572 8.55 0 4.72-2.943 8.549-6.572 8.549s-6.571-3.829-6.571-8.55c0-4.72 2.942-8.55 6.571-8.55z" style="fill:#c7ad56;fill-opacity:1;fill-rule:evenodd;stroke:#504416;stroke-width:1.630705;stroke-miterlimit:4;stroke-opacity:1;stroke-dasharray:none" transform="matrix(-.6011 0 0 .6011 408.365 115.24)"/><path d="M100.496-5.265a7.21 7.21 0 0 1 7.017 8.868H93.479a7.21 7.21 0 0 1 7.017-8.868zM116-2.777c3.629 0 6.572 3.828 6.572 8.55 0 4.72-2.943 8.549-6.572 8.549s-6.572-3.829-6.572-8.55c0-4.72 2.943-8.55 6.572-8.55z" style="fill:#c7ad56;fill-opacity:1;fill-rule:evenodd;stroke:#504416;stroke-width:1.630705;stroke-miterlimit:4;stroke-opacity:1;stroke-dasharray:none" transform="matrix(-.6011 0 0 .6011 408.365 115.24)"/><path d="M116-5.265a7.21 7.21 0 0 1 7.017 8.868h-14.034A7.21 7.21 0 0 1 116-5.265zM122.22-62.288c-3.012-5.491-3.036-13.423 6.659-10.883 1.558.408 3.69.477 2.207-3.68-.891-2.498-1.666-3.968-.981-5.887 1.176-3.294 3.288-2.721 4.66-.98 1.556 1.973 2.751 1.82 2.944-1.472.136-2.333-1.065-5.003 1.226-6.869 2.304-1.874 3.466-.116 4.416 3.435.545 2.039 2.548 1.732 3.433-.49.683-1.715.86-3.59 1.227-5.397.705-3.48 3.082-3.445 4.906-1.717 1.494 1.415 1.92 1.75 3.434.245 2.165-2.153 4.059-1.845 5.363-.286.855 1.022 1.673 2.817-.065 3.6-1.489.671-.965 1.645-.481 1.994 2.285 1.645-.465 5.166-4.415 3.679-1.82-.685-4.214.184-3.1 2.051 2.107 3.532 2.707 5.87-4.906 7.604-2.807.64-3.799 1.256-2.208 1.962 5.914 2.624 3.463 6.683.245 10.057-2.37 2.486-.708 2.955.736 2.943 1.777-.014 4.887-1.624 4.906.982l.245 33.114-15.698-7.114z" style="fill:#c7ad56;fill-opacity:1;fill-rule:evenodd;stroke:#504416;stroke-width:1.630705;stroke-miterlimit:4;stroke-opacity:1;stroke-dasharray:none" transform="matrix(-.6011 0 0 .6011 408.365 115.24)"/><path d="M112.044-68.965c1.415.15 2.145-1.106 1.876-2.504-.835-4.343-2.315-10.177 4.103-10.489 5.544-.27 5.549 5.22 4.342 10.602-.565 2.522.481 3.447 1.853 2.51 3.866-2.645 7.322.011 4.415 5.486-1.003 1.89-.243 3.1 1.181 1.281 3.325-4.244 9.806-2.33 7.214 8.33-.491 2.02-.204 3.162.88 2.744 4.006-1.543 5.852 1.848 4.416 10.593-.383 2.333.446 3.786 1.472 3.298 3.138-1.491 5.426 1.445 8.14 5.887l-.246 10.057-19.623-1.717-21.095-22.076c-5.402-4.633-4.838-10.82 1.227-11.283 2.92-.223 2.066-2.24 0-2.944-6.246-2.125-7.742-10.585-.155-9.775z" style="fill:#c7ad56;fill-opacity:1;fill-rule:evenodd;stroke:#504416;stroke-width:1.630705;stroke-miterlimit:4;stroke-opacity:1;stroke-dasharray:none" transform="matrix(-.6011 0 0 .6011 408.365 115.24)"/><path d="M146.905-23.058c-.727.728-1.656.447-2.324-.871-2.07-4.087-4.285-4.828-7.12-3.778-1.32.49-2.297 1.376-2.614-1.743-.864-8.504-4.034-15.208-8.136-11.042-.605.614-1.799.476-2.034-.872-1.332-7.628-4.525-13.694-9.153-6.683-1.363 2.065-2.634 2.078-2.324-.726.656-5.953-3.629-7.998-5.957-2.615-.898 2.075-2.483.884-2.325-1.453.423-6.24-2.469-10.252-7.264-8.281-6.19 2.544-3.594 7.283-.727 11.041.686.898.833 2.552-.58 2.906-8.572 2.145-2.223 8.649 2.905 9.008 2.227.155 3.006 1.4.872 3.196-8.179 6.88-.536 11.15 7.119 10.896 1.562-.051 1.939 1.094 1.453 1.889-3.85 6.294 1.537 7.005 8.136 5.811 1.489-.269 2.464.235 2.179 1.163-1.548 5.041 8.493 6.545 15.11 1.162.745-.607 2.395-.388 2.76.726 1.302 3.976 5.852 4.213 10.17 1.889 1.562-.84 2.861 1.55 4.605-.145 0-3.632.172-7.264.172-10.897-1.259-1.356-4.001-1.502-4.923-.58z" style="fill:#c7ad56;fill-opacity:1;fill-rule:evenodd;stroke:#504416;stroke-width:1.630705;stroke-miterlimit:4;stroke-opacity:1;stroke-dasharray:none" transform="matrix(-.6011 0 0 .6011 408.365 115.24)"/><path d="M124.768-4.84q.21.14.396.306c1.197 1.068 1.59 2.848.294 3.147-3.511.812-1.374 5.136 3.108 6.215 1.997.48 3.117 1.05 1.209 2.245-5.542 3.467 2.82 8.276 8.977 2.935 1.548-1.343 2.735-1.139 3.453.345 3.008 6.214 8.64 5.144 15.71-1.209 1.153-1.035 1.995-1.076 3.108 0 2.344 2.266 4.834.92 7.252-3.798l-8.46-9.495-7.079-2.072c-1.553.978-.926 7.437-2.416 6.042-1.43-1.337-3.043-1.998-5.007-1.035-2.584 1.265-2.326-.745-1.9-2.418.945-3.704-2.238-6.896-4.833-3.798-1.473 1.758-2.458.078-2.418-2.071.077-3.997-3.46-5.01-4.66-2.072-.987 2.414-1.911 3.16-2.59.863-1-3.376-2.346-4.44-4.835-2.762-2.807 1.892-3.515 5.842.69 8.632z" style="fill:#c7ad56;fill-opacity:1;fill-rule:evenodd;stroke:#504416;stroke-width:1.630705;stroke-miterlimit:4;stroke-opacity:1;stroke-dasharray:none" transform="matrix(-.6011 0 0 .6011 408.365 115.24)"/></g><g style="stroke:#504416;stroke-width:1.630705;stroke-miterlimit:4;stroke-opacity:1;stroke-dasharray:none"><path d="M70.498 128.695c-4.051.59-7.752 4.018-11.048 9.27-.9-2.903.055-5.814 1.833-8.607-4.099.71-6.069 4.774-7.592 9.89-1.044-2.38-1.312-5.003-1.042-7.129-2.812 2.064-4.053 6.283-5.255 10.431q-1.365-3.766-1.08-7.676c-3.491 3.916-4.073 7.629-3.293 11.247-1.019-2.875-2.786-5.168-5.145-6.5 3.302 13.726-1.375 19.264-9.892 22.918 20.768-2.452 36.35-14.26 42.514-33.844z" style="fill:#c7ad56;fill-opacity:1;fill-rule:evenodd;stroke:#504416;stroke-width:1.630705;stroke-linejoin:round;stroke-miterlimit:4;stroke-opacity:1;stroke-dasharray:none" transform="matrix(-.6011 0 0 .6011 408.365 115.24)"/><path d="M23.994-1.974a1.944 1.944 0 0 1 2.41 1.178c.832-.06 1.303-.34 1.388-1.36.146-1.73-1.37-2.945-3.012-2.998-1.746-.057-3.273.96-4.021 2.477-.702 1.423-.672 3.157-.012 4.662 1.131 2.582 4.074 3.923 7.034 5.271 3.897 1.776 7.818 3.563 9.432 8.127l-3.676 1.296c-1.064-3.009-4.228-4.451-7.373-5.884-3.638-1.658-7.256-3.307-8.986-7.254-1.104-2.519-1.13-5.47.088-7.941 1.417-2.873 4.355-4.75 7.636-4.644 3.868.126 7.112 3.26 6.78 7.209-.259 3.076-3.006 5.527-6.115 4.837-.97-.215-1.85-.745-2.429-1.654-.732-1.151-.7-2.83.856-3.322z" style="fill:#c7ad56;fill-opacity:1;stroke:#504416;stroke-width:1.630705;stroke-miterlimit:4;stroke-opacity:1;stroke-dasharray:none" transform="matrix(-.6011 0 0 .6011 408.365 115.24)"/><path d="M68.014 22.98c-4.765-4.185-5.835-10.817-5.32-14.445 3.293 7.896 10.77 7.712 18.2 3.842 2.804-1.46 6.022-.62 9.6.016-.94-3.92-3.37-5.631-6.014-7.026 2.228-.897 3.74-2.655 4.304-5.26l-2.449-.65c2.557-2.69 4.459-5.623 4.175-9.046-1.795 1.678-3.851 3.52-5.993 4.614l.623-4.886c-1.438 1.113-2.584 2.113-4.364 2.55-4.666 1.153-6.393 3.751-7.636 4.664-1.814 1.333-3.3-.533-1.566-1.902 1.675-1.323 3.8-2.424 6.166-3.348 5.046-1.972 7.182-5.369 6.73-12.315l-3.34 1.517c1.76-2.658 2.983-5.85 3.386-8.54l-2.859.375c1.547-4.127 2.839-7.902 2.843-11.938-4.726 1.865-8.726 5.313-12.145 9.96l.177-4.46c-2.775 1.788-5.272 4.82-7.328 8.068l-.42-3.311c-5.488 4.21-8.55 13.323-6.147 19.499C59.69-6.7 57.272-5.017 55.88-7.075c-2.328-3.447.699-10.518 2.48-15.739-3.584.667-6.472 3.12-7.93 7.878q-1.46-3.007-.605-6.158c-4.298 1.157-7.206 4.328-7.147 10.428-4.701-2.931-8.593-1.348-10.996 1.871C46.753-7.212 45.05 15.073 59.017 7.853c-1.265 3.675-.566 9.34 2.608 12.712z" style="fill:#c7ad56;fill-opacity:1;stroke:#504416;stroke-width:1.630705;stroke-linejoin:round;stroke-miterlimit:4;stroke-opacity:1;stroke-dasharray:none" transform="matrix(-.6011 0 0 .6011 408.365 115.24)"/><g style="fill:#c7ad56;fill-opacity:1;stroke:#504416;stroke-width:1.630705;stroke-miterlimit:4;stroke-opacity:1;stroke-dasharray:none"><path d="M28.57 153.183a3.84 3.84 0 0 1-.203 7.675 3.84 3.84 0 0 1 .202-7.675zM36.85 152.758a3.839 3.839 0 1 1-.203 7.674 3.839 3.839 0 0 1 .202-7.674z" style="fill:#c7ad56;fill-opacity:1;fill-rule:evenodd;stroke:#504416;stroke-width:1.630705;stroke-miterlimit:4;stroke-opacity:1;stroke-dasharray:none" transform="matrix(-.6011 0 0 .6011 408.365 56.32)"/><path d="M40.747 159.443a3.839 3.839 0 1 1-.205 7.675 3.839 3.839 0 0 1 .205-7.675z" style="fill:#c7ad56;fill-opacity:1;fill-rule:evenodd;stroke:#504416;stroke-width:1.630705;stroke-miterlimit:4;stroke-opacity:1;stroke-dasharray:none" transform="matrix(-.6011 0 0 .6011 408.365 56.32)"/><path d="M33.076 160.144a3.839 3.839 0 1 1-.205 7.674 3.839 3.839 0 0 1 .205-7.674zM25.045 160.448a3.84 3.84 0 0 1-.203 7.674 3.84 3.84 0 0 1-3.736-3.938 3.84 3.84 0 0 1 3.939-3.736zM21.18 152.602a3.839 3.839 0 1 1-.203 7.675 3.839 3.839 0 0 1 .202-7.675z" style="fill:#c7ad56;fill-opacity:1;fill-rule:evenodd;stroke:#504416;stroke-width:1.630705;stroke-miterlimit:4;stroke-opacity:1;stroke-dasharray:none" transform="matrix(-.6011 0 0 .6011 408.365 56.32)"/><path d="M17.055 159.204a3.84 3.84 0 0 1 3.736 3.938 3.84 3.84 0 0 1-3.938 3.736 3.84 3.84 0 0 1-3.736-3.938 3.84 3.84 0 0 1 3.938-3.736zM8.112 123.99a3.839 3.839 0 1 1-.205 7.675 3.839 3.839 0 0 1 .205-7.674zM6.91 132.09a3.84 3.84 0 0 1 3.737 3.938 3.84 3.84 0 0 1-3.939 3.736 3.84 3.84 0 0 1-3.736-3.939 3.84 3.84 0 0 1 3.939-3.736z" style="fill:#c7ad56;fill-opacity:1;fill-rule:evenodd;stroke:#504416;stroke-width:1.630705;stroke-miterlimit:4;stroke-opacity:1;stroke-dasharray:none" transform="matrix(-.6011 0 0 .6011 408.365 56.32)"/><path d="M14.453 131.515a3.84 3.84 0 0 1 3.736 3.938 3.84 3.84 0 0 1-3.938 3.736 3.84 3.84 0 0 1-3.736-3.938 3.84 3.84 0 0 1 3.938-3.736zM5.957 140.196a3.84 3.84 0 0 1-.204 7.674 3.84 3.84 0 0 1 .204-7.674zM13.993 139.634a3.84 3.84 0 0 1 3.736 3.938 3.84 3.84 0 0 1-3.938 3.736 3.84 3.84 0 0 1-3.736-3.939 3.84 3.84 0 0 1 3.938-3.735zM6.981 148.097a3.84 3.84 0 0 1 3.736 3.938 3.84 3.84 0 0 1-7.674-.203 3.84 3.84 0 0 1 3.938-3.735zM14.892 147.66a3.84 3.84 0 0 1 3.736 3.938 3.84 3.84 0 0 1-7.674-.203 3.84 3.84 0 0 1 3.938-3.735zM10.11 155.794a3.84 3.84 0 0 1 3.735 3.939 3.84 3.84 0 0 1-7.674-.204 3.84 3.84 0 0 1 3.938-3.735z" style="fill:#c7ad56;fill-opacity:1;fill-rule:evenodd;stroke:#504416;stroke-width:1.630705;stroke-miterlimit:4;stroke-opacity:1;stroke-dasharray:none" transform="matrix(-.6011 0 0 .6011 408.365 56.32)"/></g><path d="M72.59 123.22c-10.975-8.384-18.093-28.236-10.897-42.626 1.664-3.328 3.674-7.043 7.72-7.298 2.115-.133 3.66.88 4.546 2.232 1.765 2.695 1.153 7.236-3.338 8.932-1.558.588-3.135-2.844-1.731-3.642 1.189-.678 2.473-1.57 1.79-2.649-.603-.957-1.455-.723-2.208-.216-2.037 1.368-3.23 4.767-4.025 6.979-3.857 10.728-.688 22.307 8.759 33.234z" style="fill:#c7ad56;fill-opacity:1;fill-rule:evenodd;stroke:#504416;stroke-width:1.630705;stroke-miterlimit:4;stroke-opacity:1;stroke-dasharray:none" transform="matrix(-.6011 0 0 .6011 408.365 115.24)"/><path d="M71.034 59.046c10.07-18.707.064-48.732-21.983-39.059.719-9.302-9.53-16.662-20.157-12.515-9.932 3.876-18.76 2.192-26.503-6.345Q.405 9.566 6.04 15.58q-2.46.921-4.92-.882c1.688 9.517 6.703 12.844 13.648 11.458l-2.448 3.4c4.678 3.068 11.416 1.878 16.21-3.124 2.8-2.919 7.607-5.021 8.617-2.392.938 2.443-2.51 4.303-6.032 5.163-5.814 1.42-11.64 3.526-14.85 10.501l4.013-1.26c-1.613 1.792-3.148 4.378-3.854 6.774l2.766-.253c-1.28 3.067-1.69 6.858-1.088 10.125 2.697-.915 5.668-.847 8.366-2.822l-.34 4.105c3.023-.405 5.366-2.691 7.165-3.6l.362 4.406c4.76-3.215 6.706-8.703 7.55-14.807.674-4.873 2.472-8.477 4.353-5.993.657.869-.233 3.158-1.61 5.809-2.992 5.76-4.5 15.457-1.903 22.144l1.36-3.049c1.39 4.257 3.506 7.984 6.347 10.426l-.067-5.012c1.36 2.152 3.017 3.641 4.92 4.583-.38-2.173-.666-4.348-.318-6.522 1.984 2.143 3.98 3.2 5.781 3.325-1.416-3.494-1.947-7.075-1.827-10.615.15-4.41 1.681-8.725 3.33-12.804C67.76 29.355 57.99 24.78 51.345 23.64c10.614-5.134 24.903 8.617 16.837 29.224z" style="fill:#c7ad56;fill-opacity:1;stroke:#504416;stroke-width:1.630705;stroke-linejoin:round;stroke-miterlimit:4;stroke-opacity:1;stroke-dasharray:none" transform="matrix(-.6011 0 0 .6011 408.365 115.24)"/><path d="M68.494 95.533c-6.607-7.642-14.823-9.158-19.435-5.329 2.789-.035 5.072.43 6.766 1.46 8.84 5.372-4.623 18.62 5.226 32.423-1.858.534-3.534-.49-5.184-1.737-.392 2.576-.33 5.204.724 7.95-3.605.117-7.047-1.15-10.134-5.468a15.2 15.2 0 0 0 .167 3.825q.124.714.324 1.4c-2.26-.75-3.858-2.738-5.364-4.902l-.21 1.323-.626 3.97c-5.64-3.618-5.286-12.593-.409-19.145 1.775-2.386-1.113-3.652-2.082-1.932-2.06 3.478-2.646 7.44-2.873 11.455-.395 6.971-.987 14.01-9.783 15.131l.758-4.628c-1.907 2.525-4.74 5.128-7.877 5.359l.52-3.533c-4.64 6.828-10.322-.06-15.657 1.405l6.253-12.179q-2.856 1.405-5.712 2.807c.342-3.451 2.275-6.716 5.257-9.858-1.182.687-2.211 1.954-3.394 2.639-.272-2.36 1.034-5.695 3.361-8.048l-4.317 2.076c3.056-6.94 4.997-9.537 9.577-10.77 3.73-1.005 7.982-.959 11.645-2.484 3.088-1.286 1.157-5.047-1.617-3.096-1.978 1.39-4.285 2.077-6.158 2.544-4.493 1.122-7.626-.82-9.264-6.987l3.812-.563c-2.512-2.063-3.817-4.732-3.898-7.22l2.462.629c-2.722-4.372-2.505-8.525-1.456-12.114 1.969 2.503 4.47 4.038 6.9 5.097l-.858-3.03c2.624.818 4.807 2.577 7.79 4.076l-.98-2.932c4.34 1.658 8.007 2.56 12.586 2.463 9.186-.193 12.72 3.256 9.714 9.867 6.157-4.24 14.639-5.019 21.66.335-1.158-4.568-2.633-9.316-2.897-13.988-.225-3.977.378-7.676 1.35-12.31 1-4.764.514-8.84-2.234-14.253 4.8 1.519 9.073 3.824 9.657 11.642 1.973-.302 3.816.23 4.275 2.368-5.909 2.226-8.259 6.811-8.297 12.246-.03 4.188 1.751 10.086 2.743 14.145 3.687 15.096 5.736 28.446.89 43.774-5.817 10.816-9.098 16.59-25.945 25.48 8.535-5.397 18.574-16.959 21.722-27.07 3.758-12.078 2.927-22.809.522-34.313z" style="fill:#c7ad56;fill-opacity:1;stroke:#504416;stroke-width:1.630705;stroke-linejoin:round;stroke-miterlimit:4;stroke-opacity:1;stroke-dasharray:none" transform="matrix(-.6011 0 0 .6011 408.365 115.24)"/><path d="M82.016 197.203c-.772 17.764-16.993 45.361-32.026 54.648-7.077 4.373-24.877 11.01-31.826 3.094-1.649-1.88-2.591-4.326-2.358-6.953v-.123l.03-.214v-.03a8.57 8.57 0 0 1 2.91-5.361c2.994-2.566 7.471-2.533 10.048.582 1.844 2.23 1.881 5.558-.49 7.412-1.465 1.144-3.688 1.17-4.81-.428-.44-.628-.579-1.726.215-2.145 1.032.58 2.358.275 3.002-.735a2.27 2.27 0 0 0-.245-2.757c-1.688-1.81-4.756-1.003-6.28.613-.254.27-.48.553-.674.858-1.446 2.273-1.008 5.32.766 7.351 2.766 3.165 7.464 3.39 10.782.797 4.359-3.408 4.663-9.652 1.195-13.846-4.178-5.051-11.516-5.305-16.419-1.103-5.76 4.935-6.018 13.42-1.072 19.053 8.538 9.725 27.546 3.464 36.88-1.807 17.825-10.065 30.056-36.493 30.372-58.906z" style="fill:#c7ad56;fill-opacity:1;stroke:#504416;stroke-width:1.630705;stroke-miterlimit:4;stroke-opacity:1;stroke-dasharray:none" transform="matrix(-.6011 0 0 .6011 408.365 56.32)"/></g><path d="M-68.281 283.204c3.087-2.988 7.1-5.794 10.932-8.62 8.348-6.21 13.734-11.447 17.431-18.25 6.4-11.774 7.798-26.694 8.204-40.508-.255 8.68-2.09 19.557-5.833 29.398 1.305-6.724.757-12.583 2.027-20.184-.922.548-1.75.97-2.713.905.501-1.546 1.16-3.498 1.121-5l-1.404 1.18c.17-2.234.64-5.098 1.05-7.332-1.323 1.753-2.33 4.107-2.931 6.34l-.644-2.328c-.946 1.819-1.313 4.248-1.418 6.186l-.618-1.526c-.617 1.608-.493 3.772-.264 5.501l-1.005-.612c-.58 4.982 3.78 15.43 3.115 22.12a19.2 19.2 0 0 1-1.07 4.745 45 45 0 0 1-4.568 6.32c2.743-5.557 3.377-12.451 2.793-18.077l-1.6 1.3c1.037-2.634.274-5.191.204-7.557l-1.939 2.028c1.462-3.48-.365-6.724-.06-9.876-2.633 1.567-4.2 4.448-3.904 9.105l-1.835-.835c.065 1.333.734 3.035 1.334 4.635l-1.8-1c-.165 2.22 1.11 5.603 2.79 8.19l-1.235-.69c2.767 6.858 3.606 14.541-.454 18.399l.119.012a89 89 0 0 1-4.823 3.968c3.966-4.918 4.538-11.075 3.073-16.556q-.674.561-1.137 1.106c.115-1.898.277-3.777-.36-5.983l-.818 1.285c.258-2.705-1.567-5.51-.556-8.904-2.289 1.384-3.956 3.79-3.783 8.068l-1.236-1.06c-.873 3.5-.113 7.067 1.399 10.662l-1.187-.434c1.657 5.216 2.64 10.616.695 14.708-1.924 1.386-4.142 2.976-6.288 4.725l1.599-2.256c1.837-2.966 3.215-6.846 3.355-10.006l-1.434.92c.728-2.166 1.234-4.377.7-6.51l-.79.557c.852-2.484-1.059-5 .346-7.755-2.612 2.154-3.807 4.932-4.377 7.591l-.841-.885c-.45 1.28-.318 2.837-.13 4.324l-1.186-.405c-.235 1.365.388 2.972 1.017 4.69l-.712.108c1.222 2.685 1.822 5.714-.294 12.01-2.552 2.377-4.734 4.971-5.812 7.684-.016-3.768 3.533-6.33 4.46-9.874l-1.675.419c1.253-2.114 2.072-4.224 2.19-6.196l-1.013.192c.486-2.28-.446-4.507-.41-6.84-1.746 1.79-2.703 4.417-3.56 7.2l-.697-1.336c-.59 1.814-.815 3.765-.838 5.793l-1.326-.907c-1.328 7.043-.41 13.987 3.688 19.928 2.42 3.507 7.154 4.588 10.673 2.07 2.904-2.08 3.756-6.091 1.56-8.985-1.752-2.312-5.047-2.934-7.319-1.02-1.75 1.475-2.066 4.176-.314 5.762.54.489 1.227.792 2.009.752.953-.047 1.925-.723 1.577-1.823a1.35 1.35 0 0 0-1.695-.88l-.01.002a.3.3 0 0 1-.068-.054c-.532-.48-.231-1.298.239-1.694 1.085-.914 2.625-.478 3.432.586 1.28 1.686.668 3.963-.99 5.15-2.289 1.638-5.309.86-6.87-1.403-1.451-2.105-1.367-4.699-.06-6.664 1.404-2.108 3.147-4.227 4.772-5.8z" style="fill:#c7ad56;fill-opacity:1;stroke:#504416;stroke-width:.98020464;stroke-linejoin:round;stroke-miterlimit:4;stroke-opacity:1;stroke-dasharray:none" transform="translate(433 .057)"/><path d="m206.77.49 22.54 22.54v64.229l-22.54 22.54h-35.627l-22.54-22.54v-64.23L171.144.49z" style="fill:#c7ad56;fill-opacity:1;fill-rule:evenodd;stroke:#504416;stroke-width:1.59059441;stroke-miterlimit:4;stroke-opacity:1;stroke-dasharray:none" transform="translate(177.617 57.273)scale(.61625)"/><path d="m205.66 3.17 20.98 20.98v61.988l-20.98 20.98h-33.407l-.392-.393-.63-.629-19.958-19.958V24.15l20.98-20.98z" style="fill:#fff;fill-rule:evenodd;stroke:none" transform="translate(177.617 57.273)scale(.61625)"/><path d="M204.55 5.85h-31.187l-19.42 19.42v59.748l19.42 19.42h31.187l19.42-19.42V25.27z" style="fill:#d40000;fill-opacity:1;fill-rule:evenodd;stroke:none" transform="translate(177.617 57.273)scale(.61625)"/><path d="M209.469 24.101q-.517 3.446 1.722 6.89c2.556 5.656 3.82 11.456 2.24 17.571q-.948 2.153.172 5.685c1.27 3.387-.122 6.72-1.646 10.096-1.354 2.998-2.211 6.01-2 9.024.197 2.808-1.198 5.1-3.552 6.995 2.297 6.89 1.054 11.897-3.999 12.643q.775-2.325.861-4.651-1.205 1.206-3.1 1.723c.744-2.642.882-5.283.345-7.924q-2.585 1.894-5.168-1.034c-1.55 1.726-3.1 2.241-4.651 2.584l-.173-2.067c-1.55 1.84-3.1 2.47-4.65 2.928l-.69-3.273c-1.61 1.608-1.743 3.283-1.971 4.89.058 1.78-.842 3.034-2.163 3.896q.067-2.68-1.206-4.824c-1.722 4.604-3.445 5.576-5.168 6.03.235-1.055.302-2.053 0-2.929q-2.152 2.584-4.306 3.1.258-3.272 1.895-5.856c-1.723-.405-2.902-.007-4.625.97.22-6.032.792-10.04 2.893-12.359.315 3.25 1.194 6.112 2.593 8.46 1.091-2.765 2.871-4.83 5.34-5.856 1.264.208 2.527-.228 3.79-1.378 2.26-2 4.713-1.271 6.201.344 3.768 2.448 7.671.493 9.302-3.1 2.294-.463 3.213 1.642 2.542 4.307 4.304-3.359-.58-7.6-2.618-6.01-1.173 3.042-5.977 2.97-7.159.067-2.915.561-4.508-1.721-5.512-3.833-.878 1.45-.948 3.286-.517 4.607-5.082 3.13-9.508 3.307-9.819-3.273-.07-1.491.69-2.756.345-4.134-4.881.92-8.816-3.874-4.996-8.269 1.609-1.85 3.739-1.005 5.648.127-.058 3.445 5.453 3.394 6.257.473 1.32-.115 2.45-.23 3.771-.6l.172 2.757-4.134 3.445c3.1-1.149 5.34-.517 7.924 1.722.029-3.359-.2-6.919 1.206-9.818-1.493.173-3.006.27-4.479-.517-2.203-1.179-5.063-.597-7.245-.345.977-1.147 2.595-2.353 3.11-3.962-1.463-.861-3.875-.46-6.717.517-3.733.201-6.375-5.081-1.55-7.752-1.881-1.062-3.152-2.555-3.446-4.392s1.077-3.675 2.412-6.46c-1.034-.172-2.534.05-3.51.637-1.108-4.28.775-5.489 3.277-7.959 1.018-1.005.593-2.44 1.61-3.337.954-.842 1.856-1.112 2.698-1.709.656-.464 1.251-1.195 1.954-2.102 3.261-4.203 8.551-6.492 17.743-4.823 6.332 1.404 12.496 4.551 15.856 12.142 1.716 3.703 3.386 4.3 4.382 6.363 2.646 5.484 2.084 10.47-1.118 14.224.316-12.503-2.096-18.733-6.373-20.67m-6.213 37.31c-2.655-1.327-5.098-1.25-7.337-.5-1.032-3.334-1.323-6.478 1.652-8.682 2.025 2.468 6.431 3.012 6.991-1.152 3.26-3.014 7.19-.1 3.995 5.685.065-2.835-1.868-4.299-3.15-2.612-1.021 2.948-3.409 3.441-5.762 2.19-.474.422-.525 1.165-.345 1.959 2.893.179 4.186 1.024 3.956 3.111m-16.17 26.13c.704-.568 1.465-.924 2.76-.44a16.1 16.1 0 0 0 5.934-1.666c2.461 1.543 2.732 4.517 1.13 7.408-1.392 1.371-3.235 1.643-4.709.22-.759-.733-1.29-.792-2.261-.22-4.24 2.494-6.067-2.708-2.854-5.301m-21.81-9.343c-3.02-4.93-4.325-8.513-3.862-13.366.355-3.717 1.927-4.804-1.543-7.283-2.564-1.831-4.757-4.137-4.652-8.062.048-1.784 1.783-3.007 3.98-2.25 1.407.485 1.07 2.22.346 3.98.49 2.308 1.708 4.006 4.067 4.327.86.117 1.568-.352.78-2.683-.572-1.685-1.558-3.116-2.857-4.326-.867-.809-.102-1.467 0-2.423.49-4.547-3.906-4.32-6.253-2.002-2.002 1.978-1.487 5.589-1.026 8.127.487 2.677 1.622 5.306 3.386 7.46 1.396 1.706.988 3.308 1.211 5.452.745 7.143 2.547 11.36 6.422 13.049" style="fill:#fff;fill-rule:evenodd;stroke:none" transform="translate(177.617 57.273)scale(.61625)"/><path d="M303.27 300.12V113.641H77.05v186.48c0 62.458 50.652 113.109 113.11 113.109s113.11-50.65 113.11-113.11z" style="fill:#d40000;fill-opacity:1;fill-rule:evenodd;stroke:#504416;stroke-width:1.630705;stroke-miterlimit:4;stroke-opacity:1;stroke-dasharray:none" transform="translate(179.758 56.32)scale(.6011)"/><path d="M297.7 300.12V119.211H82.62l-.001 180.91c0 59.383 48.158 107.54 107.54 107.54 59.384 0 107.542-48.157 107.542-107.54z" style="fill:#ffd500;fill-opacity:1;fill-rule:evenodd;stroke:none" transform="translate(179.758 56.32)scale(.6011)"/><path d="M292.38 300.324c0 56.444-45.776 102.22-102.22 102.22-56.445 0-102.221-45.775-102.221-102.22V124.327H292.38z" style="fill:#005bbb;fill-opacity:1;fill-rule:evenodd;stroke:none" transform="translate(179.758 56.32)scale(.6011)"/><path d="M660.449 188.887c5.817-3.912 13.507-1.686 17.307 4.074 18.036 27.342-51.86 58.243-67.297 63.836-22.494 8.152-43.556 16.104-62.611 32.193-19.055-16.089-40.117-24.041-62.61-32.193-15.438-5.593-85.335-36.494-67.298-63.836 3.8-5.76 11.49-7.986 17.307-4.074" style="fill:none;stroke:#504416;stroke-width:1.63069212;stroke-miterlimit:4;stroke-opacity:1;stroke-dasharray:none" transform="translate(-35.246 173.414)scale(.6011)"/><g style="fill:#c7ad56;fill-opacity:1;stroke:#504416;stroke-width:.98020464;stroke-miterlimit:4;stroke-opacity:1;stroke-dasharray:none"><g style="fill:#c7ad56;fill-opacity:1;stroke:#504416;stroke-width:1.62791348;stroke-miterlimit:4;stroke-opacity:1;stroke-dasharray:none"><path d="m224.802 452.101-97.028-36.497-2.391 6.387 97.028 36.497a3.4 3.4 0 0 0 4.382-1.995 3.413 3.413 0 0 0-1.99-4.392zM123.48 394.681l-4.039 4.266 4.28 1.61zM108.465 434.786l4.04-4.266-4.282-1.61zM95.968 407.208l5.862-.242-1.607 4.29zM107.135 395.234l.154 5.878 4.163-1.895zM135.427 405.876l-3.974 4.326-1.891-4.173zM96.519 423.591l3.974-4.326 1.89 4.173zM124.81 434.233l-.153-5.878-4.163 1.895z" style="fill:#c7ad56;fill-opacity:1;fill-rule:evenodd;stroke:#504416;stroke-width:1.62791348;stroke-miterlimit:4;stroke-opacity:1;stroke-dasharray:none" transform="translate(179.575 56.068)scale(.60212)"/><path d="M122.116 397.795c9.331 3.51 14.059 13.942 10.557 23.295s-13.909 14.092-23.24 10.582-14.059-13.942-10.557-23.295 13.908-14.092 23.24-10.582z" style="fill:#c7ad56;fill-opacity:1;fill-rule:evenodd;stroke:#504416;stroke-width:1.62791348;stroke-miterlimit:4;stroke-opacity:1;stroke-dasharray:none" transform="translate(179.575 56.068)scale(.60212)"/><path d="M116.518 412.746a2.124 2.124 0 0 1 1.239 2.733 2.116 2.116 0 0 1-2.727 1.242 2.124 2.124 0 0 1-1.238-2.733 2.116 2.116 0 0 1 2.726-1.242zM155.143 426.006l-2.32 6.2c-.666 1.778-3.355.767-2.689-1.011l2.322-6.2c.665-1.778 3.353-.767 2.687 1.011zM225.246 452.375l-2.321 6.2c-.666 1.778-3.354.767-2.688-1.011l2.321-6.2c.666-1.778 3.354-.767 2.688 1.011zM139.504 420.123l-2.32 6.2c-.666 1.778-3.354.767-2.689-1.011l2.322-6.2c.665-1.778 3.353-.767 2.687 1.011zM111.149 402.07a2.124 2.124 0 0 1 2.208 2.031 2.116 2.116 0 0 1-2.025 2.208 2.124 2.124 0 0 1-2.208-2.031 2.116 2.116 0 0 1 2.025-2.209zM103.549 409.05a2.124 2.124 0 0 1 2.998-.125c.864.792.921 2.132.13 2.993a2.124 2.124 0 0 1-2.999.124 2.116 2.116 0 0 1-.13-2.993zM103.11 419.36a2.124 2.124 0 0 1 2.032-2.209c1.17-.05 2.16.856 2.208 2.025a2.124 2.124 0 0 1-2.032 2.208 2.116 2.116 0 0 1-2.208-2.025zM110.09 426.96a2.124 2.124 0 0 1-.125-2.999 2.116 2.116 0 0 1 2.994-.13c.86.792.916 2.135.124 2.998a2.116 2.116 0 0 1-2.993.13zM120.4 427.398a2.124 2.124 0 0 1-2.208-2.032 2.116 2.116 0 0 1 2.025-2.208 2.124 2.124 0 0 1 2.207 2.032 2.116 2.116 0 0 1-2.024 2.208zM128 420.418a2.124 2.124 0 0 1-2.998.125 2.116 2.116 0 0 1-.13-2.994 2.124 2.124 0 0 1 2.998-.124c.864.792.922 2.132.13 2.993zM128.438 410.108a2.124 2.124 0 0 1-2.031 2.208 2.116 2.116 0 0 1-2.208-2.025 2.124 2.124 0 0 1 2.031-2.207c1.171-.051 2.16.855 2.208 2.024zM121.458 402.508c.862.792.917 2.134.125 2.998a2.116 2.116 0 0 1-2.993.13 2.124 2.124 0 0 1-.124-2.998 2.116 2.116 0 0 1 2.992-.13z" style="fill:#c7ad56;fill-opacity:1;fill-rule:evenodd;stroke:#504416;stroke-width:1.62791348;stroke-miterlimit:4;stroke-opacity:1;stroke-dasharray:none" transform="translate(179.575 56.068)scale(.60212)"/></g><g style="fill:#c7ad56;fill-opacity:1;stroke:#504416;stroke-width:1.62791348;stroke-miterlimit:4;stroke-opacity:1;stroke-dasharray:none"><path d="m255.96 509.404 14.356-8.141c6.009-3.27 11.361.953 13.444 4.325.788 1.295.91 3.425-.885 4.411-2.894.036-4.746-3.943-9.275-1.325l-13.591 7.995z" style="fill:#c7ad56;fill-opacity:1;fill-rule:evenodd;stroke:#504416;stroke-width:1.62791348;stroke-miterlimit:4;stroke-opacity:1;stroke-dasharray:none" transform="translate(179.575 -2.953)scale(.60212)"/><path d="M267.819 523.556a3.09 3.09 0 0 1-1.117 4.222 3.08 3.08 0 0 1-4.211-1.119c-1.204-2.076.225-3.745-1.517-6.752l-7.631-13.167c-1.728-2.981-3.842-2.494-5.047-4.574a3.093 3.093 0 0 1 1.116-4.222 3.08 3.08 0 0 1 4.212 1.12c1.206 2.08-.264 3.678 1.464 6.66l7.684 13.259c1.728 2.98 3.841 2.493 5.047 4.573z" style="fill:#c7ad56;fill-opacity:1;fill-rule:evenodd;stroke:#504416;stroke-width:1.62791348;stroke-miterlimit:4;stroke-opacity:1;stroke-dasharray:none" transform="translate(179.575 -2.953)scale(.60212)"/><path d="M133.888 536.133c31.988 20.605 75.54.35 121.885-27.127l4.165 8.063c-84.736 52.796-123.764 34.63-126.05 19.064z" style="fill:#c7ad56;fill-opacity:1;stroke:#504416;stroke-width:1.62791348;stroke-miterlimit:4;stroke-opacity:1;stroke-dasharray:none" transform="translate(179.575 -2.953)scale(.60212)"/><path d="M257.354 512.067c-75.887 46.826-115.13 37.714-123.463 24.067" style="fill:none;stroke:#504416;stroke-width:1.62791348;stroke-miterlimit:4;stroke-opacity:1;stroke-dasharray:none" transform="translate(179.575 -2.953)scale(.60212)"/><path d="m254.512 514.551.187-7.485 6.485 3.687.232 7.903z" style="fill:#c7ad56;fill-opacity:1;fill-rule:evenodd;stroke:#504416;stroke-width:1.62791348;stroke-miterlimit:4;stroke-opacity:1;stroke-dasharray:none" transform="translate(179.575 -2.953)scale(.60212)"/></g></g><path d="m245.406 221.25-1.812.688c7.135 18.8 5.356 37.64-3.531 52.562-8.888 14.923-24.909 25.957-46.5 29.094l.28 1.937c22.105-3.211 38.707-14.582 47.907-30.031s10.983-34.942 3.656-54.25z" style="font-size:medium;font-style:normal;font-variant:normal;font-weight:400;font-stretch:normal;text-indent:0;text-align:start;text-decoration:none;line-height:normal;letter-spacing:normal;word-spacing:normal;text-transform:none;direction:ltr;block-progression:tb;writing-mode:lr-tb;text-anchor:start;baseline-shift:baseline;color:#000;fill:#ffd300;fill-opacity:1;stroke:#000;stroke-width:.49010232;stroke-miterlimit:4;stroke-opacity:1;stroke-dasharray:none;marker:none;visibility:visible;display:inline;overflow:visible;font-family:Sans;-inkscape-font-specification:Sans" transform="translate(179.562 55.804)scale(.60212)"/><path d="M147.742 184.375c-.6.26-1.188-1.1-.428-1.435 9.313-2.772 21.712-4.061 30.828.016l-1.356 1.738c-8.784-3.929-20.079-2.988-29.044-.319zm-9.619 8.153c-.782.22-1.209-1.204-.45-1.424 10.052-3.805 23.191-7.619 34.884-7.338l-.11 1.867c-11.516-.277-24.164 3.416-34.324 6.895zm-12.566 12.915c-.737.484-1.552-.914-.732-1.306 13.772-7.763 27.921-15.29 43.629-18.11l.338 1.917c-15.543 2.79-29.608 9.818-43.235 17.499zm11.462.244.001-.001.012-.012c9.628-7.651 22.53-14.968 33.79-19.65l.65 1.682c-11.135 4.628-23.988 11.575-33.509 19.14-.688.537-1.582-.714-.944-1.159zm12.774-3.336c7.338-5.76 18.347-12.094 26.33-16.285l.84 1.64c-7.819 4.106-19.017 10.065-26.23 15.739-.618.556-1.642-.477-.94-1.094z" style="fill:#ffd300;fill-opacity:1;fill-rule:evenodd;stroke:#000;stroke-width:.49010232;stroke-miterlimit:4;stroke-dasharray:none" transform="translate(179.562 55.804)scale(.60212)"/><g style="fill:#ffd300;fill-opacity:1;stroke:#000;stroke-width:.49010232;stroke-miterlimit:4;stroke-opacity:1;stroke-dasharray:none"><path d="m206.21 186.983-20.967 2.51c-7.05 1.876-18.073-.426-26.322 1.013-.997.174-.845-.44-.082-.77 5.226-2.263 12.006-9.357 19.852-11.429z" style="fill:#ffd300;fill-opacity:1;fill-rule:evenodd;stroke:#000;stroke-width:.49010232;stroke-miterlimit:4;stroke-opacity:1;stroke-dasharray:none" transform="translate(179.562 55.804)scale(.60212)"/><path d="M180.972 174.423c7.299 1.153 21.191 8.431 26.024 14.36-6.51.216-20.864-2.881-27.932-7.361-5.242-3.322-8.468-6.178-14.553-4.983a.353.353 0 0 1-.135-.692c5.488-1.078 10.954-2.216 16.596-1.324z" style="fill:#ffd300;fill-opacity:1;fill-rule:evenodd;stroke:#000;stroke-width:.49010232;stroke-miterlimit:4;stroke-opacity:1;stroke-dasharray:none" transform="translate(179.562 55.804)scale(.60212)"/><path d="M173.883 191.506c6.004-3.723 11.285-6.041 18.184-5.878 6.634.158 14.121 3.01 15.957 5.142-10.147 3.185-22.782 3.023-32.928 4.42-3.41.469-6.666.813-9.843 2.303a.351.351 0 0 1-.298-.637c3.235-1.516 5.896-3.47 8.928-5.35z" style="fill:#ffd300;fill-opacity:1;fill-rule:evenodd;stroke:#000;stroke-width:.49010232;stroke-miterlimit:4;stroke-opacity:1;stroke-dasharray:none" transform="translate(179.562 55.804)scale(.60212)"/><path d="M197.573 174.684c6.898 2.65 15.105 10.826 18.594 17.632-6.358-1.396-15.864-4.98-21.38-10.25-4.488-4.285-7.533-8.745-13.734-8.846a.352.352 0 0 1 .013-.704c5.592.09 11.175.119 16.507 2.168z" style="fill:#ffd300;fill-opacity:1;fill-rule:evenodd;stroke:#000;stroke-width:.49010232;stroke-miterlimit:4;stroke-opacity:1;stroke-dasharray:none" transform="translate(179.562 55.804)scale(.60212)"/><path d="M189.564 192.72c4.254-2.015 6.71-4.044 11.264-4.543 5.067-.555 16.106 2.903 19.16 7.316-4.515.884-10.143.718-15.29.49-4.878-.216-9.525.177-14.371.308-3.266.09-6.373.078-9.525 1.145a.33.33 0 1 1-.215-.626c3.209-1.086 5.922-2.642 8.977-4.09z" style="fill:#ffd300;fill-opacity:1;fill-rule:evenodd;stroke:#000;stroke-width:.49010232;stroke-miterlimit:4;stroke-opacity:1;stroke-dasharray:none" transform="translate(179.562 55.804)scale(.60212)"/><path d="M216.648 180.038c3.194 2.398 6.982 5.178 10.009 9.76 2.07 3.135 3.58 7.453 5.11 11.72-4.239-2.154-12.964-7.071-16.594-10.172-2.982-2.547-5.214-7.001-7.718-10.154-2.547-3.205-4.525-5.988-8.686-7.884a.352.352 0 1 1 .292-.64c6.154 2.802 11.774 3.005 17.587 7.37z" style="fill:#ffd300;fill-opacity:1;fill-rule:evenodd;stroke:#000;stroke-width:.49010232;stroke-miterlimit:4;stroke-opacity:1;stroke-dasharray:none" transform="translate(179.562 55.804)scale(.60212)"/><path d="M203.536 195.414c3.771-1.357 7.381-3.505 12.426-2.7 3.924.626 9.43 4.062 16.668 9.468-8.921 1.88-20.03-1.708-28.592-2.743-2.876-.347-5.603-.517-8.495.12-.16.035-.316-.082-.347-.261-.032-.18.072-.353.232-.388 2.945-.649 5.255-2.469 8.108-3.496z" style="fill:#ffd300;fill-opacity:1;fill-rule:evenodd;stroke:#000;stroke-width:.49010232;stroke-miterlimit:4;stroke-opacity:1;stroke-dasharray:none" transform="translate(179.562 55.804)scale(.60212)"/><path d="M233.369 189.08c3.945 5.45 7.306 13.558 7.888 23.537-3.413-3.31-8.32-8.745-10.873-12.78-1.62-2.564-2.765-5.634-4.278-8.888-2.478-5.33-4.12-9.475-8.492-13.368a.353.353 0 0 1 .469-.527c5.05 4.497 11.024 6.138 15.286 12.026z" style="fill:#ffd300;fill-opacity:1;fill-rule:evenodd;stroke:#000;stroke-width:.49010232;stroke-miterlimit:4;stroke-opacity:1;stroke-dasharray:none" transform="translate(179.562 55.804)scale(.60212)"/><path d="M215.769 200.86c4.856-.653 9.72-3.024 16.3 1.092 2.99 1.872 6.66 6.972 10.008 12.474-2.707-.011-6.08-2.59-8.709-3.227-6.224-1.51-12.222-4.322-17.954-6.298-2.74-.945-5.369-1.685-8.33-1.67-.164 0-.292-.146-.285-.328.007-.181.145-.33.309-.33 3.015-.015 5.656-1.309 8.66-1.713z" style="fill:#ffd300;fill-opacity:1;fill-rule:evenodd;stroke:#000;stroke-width:.49010232;stroke-miterlimit:4;stroke-opacity:1;stroke-dasharray:none" transform="translate(179.562 55.804)scale(.60212)"/><path d="M244.934 223.93c-2.105-4.024-3.144-8.548-4.138-12.632-.823-3.384-1.174-6.816-2.09-10.344-1.475-5.69-3.154-10.064-6.751-14.681a.352.352 0 0 1 .556-.433c3.376 4.334 7.527 6.893 10.643 11.219 5.005 6.947 8.677 20.222 1.78 26.872z" style="fill:#ffd300;fill-opacity:1;fill-rule:evenodd;stroke:#000;stroke-width:.49010232;stroke-miterlimit:4;stroke-opacity:1;stroke-dasharray:none" transform="translate(179.562 55.804)scale(.60212)"/><path d="M230.993 210.02c2.922-.001 7.248.87 9.753 2.422 2.33 3.233 3.977 8.841 4.308 11.528-8.045.38-14.014-6.824-19.62-11.017-1.884-1.41-3.734-2.633-6.027-3.355-.127-.04-.189-.185-.139-.324s.194-.22.32-.18c3.405 1.073 7.743.927 11.405.926z" style="fill:#ffd300;fill-opacity:1;fill-rule:evenodd;stroke:#000;stroke-width:.49010232;stroke-miterlimit:4;stroke-opacity:1;stroke-dasharray:none" transform="translate(179.562 55.804)scale(.60212)"/></g><path d="m245.406 221.25-1.812.688c7.135 18.8 5.356 37.64-3.531 52.562-8.888 14.923-24.909 25.957-46.5 29.094l.28 1.937c22.105-3.211 38.707-14.582 47.907-30.031s10.983-34.942 3.656-54.25z" style="font-size:medium;font-style:normal;font-variant:normal;font-weight:400;font-stretch:normal;text-indent:0;text-align:start;text-decoration:none;line-height:normal;letter-spacing:normal;word-spacing:normal;text-transform:none;direction:ltr;block-progression:tb;writing-mode:lr-tb;text-anchor:start;baseline-shift:baseline;color:#000;fill:#ffd300;fill-opacity:1;stroke:#000;stroke-width:.49010232;stroke-miterlimit:4;stroke-opacity:1;stroke-dasharray:none;marker:none;visibility:visible;display:inline;overflow:visible;font-family:Sans;-inkscape-font-specification:Sans" transform="rotate(240 219.916 129.67)scale(.60212)"/><path d="M147.742 184.375c-.6.26-1.188-1.1-.428-1.435 9.313-2.772 21.712-4.061 30.828.016l-1.356 1.738c-8.784-3.929-20.079-2.988-29.044-.319zm-9.619 8.153c-.782.22-1.209-1.204-.45-1.424 10.052-3.805 23.191-7.619 34.884-7.338l-.11 1.867c-11.516-.277-24.164 3.416-34.324 6.895zm-12.566 12.915c-.737.484-1.552-.914-.732-1.306 13.772-7.763 27.921-15.29 43.629-18.11l.338 1.917c-15.543 2.79-29.608 9.818-43.235 17.499zm11.462.244.001-.001.012-.012c9.628-7.651 22.53-14.968 33.79-19.65l.65 1.682c-11.135 4.628-23.988 11.575-33.509 19.14-.688.537-1.582-.714-.944-1.159zm12.774-3.336c7.338-5.76 18.347-12.094 26.33-16.285l.84 1.64c-7.819 4.106-19.017 10.065-26.23 15.739-.618.556-1.642-.477-.94-1.094z" style="fill:#ffd300;fill-opacity:1;fill-rule:evenodd;stroke:#000;stroke-width:.49010232;stroke-miterlimit:4;stroke-dasharray:none" transform="rotate(240 219.916 129.67)scale(.60212)"/><g style="fill:#ffd300;fill-opacity:1;stroke:#000;stroke-width:.49010232;stroke-miterlimit:4;stroke-opacity:1;stroke-dasharray:none"><path d="m206.21 186.983-20.967 2.51c-7.05 1.876-18.073-.426-26.322 1.013-.997.174-.845-.44-.082-.77 5.226-2.263 12.006-9.357 19.852-11.429z" style="fill:#ffd300;fill-opacity:1;fill-rule:evenodd;stroke:#000;stroke-width:.49010232;stroke-miterlimit:4;stroke-opacity:1;stroke-dasharray:none" transform="rotate(240 219.916 129.67)scale(.60212)"/><path d="M180.972 174.423c7.299 1.153 21.191 8.431 26.024 14.36-6.51.216-20.864-2.881-27.932-7.361-5.242-3.322-8.468-6.178-14.553-4.983a.353.353 0 0 1-.135-.692c5.488-1.078 10.954-2.216 16.596-1.324z" style="fill:#ffd300;fill-opacity:1;fill-rule:evenodd;stroke:#000;stroke-width:.49010232;stroke-miterlimit:4;stroke-opacity:1;stroke-dasharray:none" transform="rotate(240 219.916 129.67)scale(.60212)"/><path d="M173.883 191.506c6.004-3.723 11.285-6.041 18.184-5.878 6.634.158 14.121 3.01 15.957 5.142-10.147 3.185-22.782 3.023-32.928 4.42-3.41.469-6.666.813-9.843 2.303a.351.351 0 0 1-.298-.637c3.235-1.516 5.896-3.47 8.928-5.35z" style="fill:#ffd300;fill-opacity:1;fill-rule:evenodd;stroke:#000;stroke-width:.49010232;stroke-miterlimit:4;stroke-opacity:1;stroke-dasharray:none" transform="rotate(240 219.916 129.67)scale(.60212)"/><path d="M197.573 174.684c6.898 2.65 15.105 10.826 18.594 17.632-6.358-1.396-15.864-4.98-21.38-10.25-4.488-4.285-7.533-8.745-13.734-8.846a.352.352 0 0 1 .013-.704c5.592.09 11.175.119 16.507 2.168z" style="fill:#ffd300;fill-opacity:1;fill-rule:evenodd;stroke:#000;stroke-width:.49010232;stroke-miterlimit:4;stroke-opacity:1;stroke-dasharray:none" transform="rotate(240 219.916 129.67)scale(.60212)"/><path d="M189.564 192.72c4.254-2.015 6.71-4.044 11.264-4.543 5.067-.555 16.106 2.903 19.16 7.316-4.515.884-10.143.718-15.29.49-4.878-.216-9.525.177-14.371.308-3.266.09-6.373.078-9.525 1.145a.33.33 0 1 1-.215-.626c3.209-1.086 5.922-2.642 8.977-4.09z" style="fill:#ffd300;fill-opacity:1;fill-rule:evenodd;stroke:#000;stroke-width:.49010232;stroke-miterlimit:4;stroke-opacity:1;stroke-dasharray:none" transform="rotate(240 219.916 129.67)scale(.60212)"/><path d="M216.648 180.038c3.194 2.398 6.982 5.178 10.009 9.76 2.07 3.135 3.58 7.453 5.11 11.72-4.239-2.154-12.964-7.071-16.594-10.172-2.982-2.547-5.214-7.001-7.718-10.154-2.547-3.205-4.525-5.988-8.686-7.884a.352.352 0 1 1 .292-.64c6.154 2.802 11.774 3.005 17.587 7.37z" style="fill:#ffd300;fill-opacity:1;fill-rule:evenodd;stroke:#000;stroke-width:.49010232;stroke-miterlimit:4;stroke-opacity:1;stroke-dasharray:none" transform="rotate(240 219.916 129.67)scale(.60212)"/><path d="M203.536 195.414c3.771-1.357 7.381-3.505 12.426-2.7 3.924.626 9.43 4.062 16.668 9.468-8.921 1.88-20.03-1.708-28.592-2.743-2.876-.347-5.603-.517-8.495.12-.16.035-.316-.082-.347-.261-.032-.18.072-.353.232-.388 2.945-.649 5.255-2.469 8.108-3.496z" style="fill:#ffd300;fill-opacity:1;fill-rule:evenodd;stroke:#000;stroke-width:.49010232;stroke-miterlimit:4;stroke-opacity:1;stroke-dasharray:none" transform="rotate(240 219.916 129.67)scale(.60212)"/><path d="M233.369 189.08c3.945 5.45 7.306 13.558 7.888 23.537-3.413-3.31-8.32-8.745-10.873-12.78-1.62-2.564-2.765-5.634-4.278-8.888-2.478-5.33-4.12-9.475-8.492-13.368a.353.353 0 0 1 .469-.527c5.05 4.497 11.024 6.138 15.286 12.026z" style="fill:#ffd300;fill-opacity:1;fill-rule:evenodd;stroke:#000;stroke-width:.49010232;stroke-miterlimit:4;stroke-opacity:1;stroke-dasharray:none" transform="rotate(240 219.916 129.67)scale(.60212)"/><path d="M215.769 200.86c4.856-.653 9.72-3.024 16.3 1.092 2.99 1.872 6.66 6.972 10.008 12.474-2.707-.011-6.08-2.59-8.709-3.227-6.224-1.51-12.222-4.322-17.954-6.298-2.74-.945-5.369-1.685-8.33-1.67-.164 0-.292-.146-.285-.328.007-.181.145-.33.309-.33 3.015-.015 5.656-1.309 8.66-1.713z" style="fill:#ffd300;fill-opacity:1;fill-rule:evenodd;stroke:#000;stroke-width:.49010232;stroke-miterlimit:4;stroke-opacity:1;stroke-dasharray:none" transform="rotate(240 219.916 129.67)scale(.60212)"/><path d="M244.934 223.93c-2.105-4.024-3.144-8.548-4.138-12.632-.823-3.384-1.174-6.816-2.09-10.344-1.475-5.69-3.154-10.064-6.751-14.681a.352.352 0 0 1 .556-.433c3.376 4.334 7.527 6.893 10.643 11.219 5.005 6.947 8.677 20.222 1.78 26.872z" style="fill:#ffd300;fill-opacity:1;fill-rule:evenodd;stroke:#000;stroke-width:.49010232;stroke-miterlimit:4;stroke-opacity:1;stroke-dasharray:none" transform="rotate(240 219.916 129.67)scale(.60212)"/><path d="M230.993 210.02c2.922-.001 7.248.87 9.753 2.422 2.33 3.233 3.977 8.841 4.308 11.528-8.045.38-14.014-6.824-19.62-11.017-1.884-1.41-3.734-2.633-6.027-3.355-.127-.04-.189-.185-.139-.324s.194-.22.32-.18c3.405 1.073 7.743.927 11.405.926z" style="fill:#ffd300;fill-opacity:1;fill-rule:evenodd;stroke:#000;stroke-width:.49010232;stroke-miterlimit:4;stroke-opacity:1;stroke-dasharray:none" transform="rotate(240 219.916 129.67)scale(.60212)"/></g><path d="m245.406 221.25-1.812.688c7.135 18.8 5.356 37.64-3.531 52.562-8.888 14.923-24.909 25.957-46.5 29.094l.28 1.937c22.105-3.211 38.707-14.582 47.907-30.031s10.983-34.942 3.656-54.25z" style="font-size:medium;font-style:normal;font-variant:normal;font-weight:400;font-stretch:normal;text-indent:0;text-align:start;text-decoration:none;line-height:normal;letter-spacing:normal;word-spacing:normal;text-transform:none;direction:ltr;block-progression:tb;writing-mode:lr-tb;text-anchor:start;baseline-shift:baseline;color:#000;fill:#ffd300;fill-opacity:1;stroke:#000;stroke-width:.49010232;stroke-miterlimit:4;stroke-opacity:1;stroke-dasharray:none;marker:none;visibility:visible;display:inline;overflow:visible;font-family:Sans;-inkscape-font-specification:Sans" transform="rotate(120 187.697 233.34)scale(.60212)"/><path d="M147.742 184.375c-.6.26-1.188-1.1-.428-1.435 9.313-2.772 21.712-4.061 30.828.016l-1.356 1.738c-8.784-3.929-20.079-2.988-29.044-.319zm-9.619 8.153c-.782.22-1.209-1.204-.45-1.424 10.052-3.805 23.191-7.619 34.884-7.338l-.11 1.867c-11.516-.277-24.164 3.416-34.324 6.895zm-12.566 12.915c-.737.484-1.552-.914-.732-1.306 13.772-7.763 27.921-15.29 43.629-18.11l.338 1.917c-15.543 2.79-29.608 9.818-43.235 17.499zm11.462.244.001-.001.012-.012c9.628-7.651 22.53-14.968 33.79-19.65l.65 1.682c-11.135 4.628-23.988 11.575-33.509 19.14-.688.537-1.582-.714-.944-1.159zm12.774-3.336c7.338-5.76 18.347-12.094 26.33-16.285l.84 1.64c-7.819 4.106-19.017 10.065-26.23 15.739-.618.556-1.642-.477-.94-1.094z" style="fill:#ffd300;fill-opacity:1;fill-rule:evenodd;stroke:#000;stroke-width:.49010232;stroke-miterlimit:4;stroke-dasharray:none" transform="rotate(120 187.697 233.34)scale(.60212)"/><g style="fill:#ffd300;fill-opacity:1;stroke:#000;stroke-width:.49010232;stroke-miterlimit:4;stroke-opacity:1;stroke-dasharray:none"><path d="m206.21 186.983-20.967 2.51c-7.05 1.876-18.073-.426-26.322 1.013-.997.174-.845-.44-.082-.77 5.226-2.263 12.006-9.357 19.852-11.429z" style="fill:#ffd300;fill-opacity:1;fill-rule:evenodd;stroke:#000;stroke-width:.49010232;stroke-miterlimit:4;stroke-opacity:1;stroke-dasharray:none" transform="rotate(120 187.697 233.34)scale(.60212)"/><path d="M180.972 174.423c7.299 1.153 21.191 8.431 26.024 14.36-6.51.216-20.864-2.881-27.932-7.361-5.242-3.322-8.468-6.178-14.553-4.983a.353.353 0 0 1-.135-.692c5.488-1.078 10.954-2.216 16.596-1.324z" style="fill:#ffd300;fill-opacity:1;fill-rule:evenodd;stroke:#000;stroke-width:.49010232;stroke-miterlimit:4;stroke-opacity:1;stroke-dasharray:none" transform="rotate(120 187.697 233.34)scale(.60212)"/><path d="M173.883 191.506c6.004-3.723 11.285-6.041 18.184-5.878 6.634.158 14.121 3.01 15.957 5.142-10.147 3.185-22.782 3.023-32.928 4.42-3.41.469-6.666.813-9.843 2.303a.351.351 0 0 1-.298-.637c3.235-1.516 5.896-3.47 8.928-5.35z" style="fill:#ffd300;fill-opacity:1;fill-rule:evenodd;stroke:#000;stroke-width:.49010232;stroke-miterlimit:4;stroke-opacity:1;stroke-dasharray:none" transform="rotate(120 187.697 233.34)scale(.60212)"/><path d="M197.573 174.684c6.898 2.65 15.105 10.826 18.594 17.632-6.358-1.396-15.864-4.98-21.38-10.25-4.488-4.285-7.533-8.745-13.734-8.846a.352.352 0 0 1 .013-.704c5.592.09 11.175.119 16.507 2.168z" style="fill:#ffd300;fill-opacity:1;fill-rule:evenodd;stroke:#000;stroke-width:.49010232;stroke-miterlimit:4;stroke-opacity:1;stroke-dasharray:none" transform="rotate(120 187.697 233.34)scale(.60212)"/><path d="M189.564 192.72c4.254-2.015 6.71-4.044 11.264-4.543 5.067-.555 16.106 2.903 19.16 7.316-4.515.884-10.143.718-15.29.49-4.878-.216-9.525.177-14.371.308-3.266.09-6.373.078-9.525 1.145a.33.33 0 1 1-.215-.626c3.209-1.086 5.922-2.642 8.977-4.09z" style="fill:#ffd300;fill-opacity:1;fill-rule:evenodd;stroke:#000;stroke-width:.49010232;stroke-miterlimit:4;stroke-opacity:1;stroke-dasharray:none" transform="rotate(120 187.697 233.34)scale(.60212)"/><path d="M216.648 180.038c3.194 2.398 6.982 5.178 10.009 9.76 2.07 3.135 3.58 7.453 5.11 11.72-4.239-2.154-12.964-7.071-16.594-10.172-2.982-2.547-5.214-7.001-7.718-10.154-2.547-3.205-4.525-5.988-8.686-7.884a.352.352 0 1 1 .292-.64c6.154 2.802 11.774 3.005 17.587 7.37z" style="fill:#ffd300;fill-opacity:1;fill-rule:evenodd;stroke:#000;stroke-width:.49010232;stroke-miterlimit:4;stroke-opacity:1;stroke-dasharray:none" transform="rotate(120 187.697 233.34)scale(.60212)"/><path d="M203.536 195.414c3.771-1.357 7.381-3.505 12.426-2.7 3.924.626 9.43 4.062 16.668 9.468-8.921 1.88-20.03-1.708-28.592-2.743-2.876-.347-5.603-.517-8.495.12-.16.035-.316-.082-.347-.261-.032-.18.072-.353.232-.388 2.945-.649 5.255-2.469 8.108-3.496z" style="fill:#ffd300;fill-opacity:1;fill-rule:evenodd;stroke:#000;stroke-width:.49010232;stroke-miterlimit:4;stroke-opacity:1;stroke-dasharray:none" transform="rotate(120 187.697 233.34)scale(.60212)"/><path d="M233.369 189.08c3.945 5.45 7.306 13.558 7.888 23.537-3.413-3.31-8.32-8.745-10.873-12.78-1.62-2.564-2.765-5.634-4.278-8.888-2.478-5.33-4.12-9.475-8.492-13.368a.353.353 0 0 1 .469-.527c5.05 4.497 11.024 6.138 15.286 12.026z" style="fill:#ffd300;fill-opacity:1;fill-rule:evenodd;stroke:#000;stroke-width:.49010232;stroke-miterlimit:4;stroke-opacity:1;stroke-dasharray:none" transform="rotate(120 187.697 233.34)scale(.60212)"/><path d="M215.769 200.86c4.856-.653 9.72-3.024 16.3 1.092 2.99 1.872 6.66 6.972 10.008 12.474-2.707-.011-6.08-2.59-8.709-3.227-6.224-1.51-12.222-4.322-17.954-6.298-2.74-.945-5.369-1.685-8.33-1.67-.164 0-.292-.146-.285-.328.007-.181.145-.33.309-.33 3.015-.015 5.656-1.309 8.66-1.713z" style="fill:#ffd300;fill-opacity:1;fill-rule:evenodd;stroke:#000;stroke-width:.49010232;stroke-miterlimit:4;stroke-opacity:1;stroke-dasharray:none" transform="rotate(120 187.697 233.34)scale(.60212)"/><path d="M244.934 223.93c-2.105-4.024-3.144-8.548-4.138-12.632-.823-3.384-1.174-6.816-2.09-10.344-1.475-5.69-3.154-10.064-6.751-14.681a.352.352 0 0 1 .556-.433c3.376 4.334 7.527 6.893 10.643 11.219 5.005 6.947 8.677 20.222 1.78 26.872z" style="fill:#ffd300;fill-opacity:1;fill-rule:evenodd;stroke:#000;stroke-width:.49010232;stroke-miterlimit:4;stroke-opacity:1;stroke-dasharray:none" transform="rotate(120 187.697 233.34)scale(.60212)"/><path d="M230.993 210.02c2.922-.001 7.248.87 9.753 2.422 2.33 3.233 3.977 8.841 4.308 11.528-8.045.38-14.014-6.824-19.62-11.017-1.884-1.41-3.734-2.633-6.027-3.355-.127-.04-.189-.185-.139-.324s.194-.22.32-.18c3.405 1.073 7.743.927 11.405.926z" style="fill:#ffd300;fill-opacity:1;fill-rule:evenodd;stroke:#000;stroke-width:.49010232;stroke-miterlimit:4;stroke-opacity:1;stroke-dasharray:none" transform="rotate(120 187.697 233.34)scale(.60212)"/></g><path d="M104.237 265.884a28.978 28.978 0 1 1-57.956 0 28.978 28.978 0 1 1 57.956 0z" style="fill:#ffd300;fill-opacity:1;stroke:#000;stroke-width:.27920184;stroke-linecap:round;stroke-linejoin:miter;stroke-miterlimit:4;stroke-opacity:1;stroke-dasharray:none;stroke-dashoffset:0" transform="translate(214.043 -71.618)scale(1.05695)"/></svg>