<svg xmlns="http://www.w3.org/2000/svg" width="800" height="533.333"><path d="M-194.996-132.638H-15v120h-179.996z" style="opacity:1;fill:#ee161f;fill-opacity:1;stroke:#fff;stroke-width:0;stroke-miterlimit:4;stroke-dasharray:none;stroke-opacity:1" transform="matrix(4.44444 0 0 4.44397 866.667 589.438)"/><path d="M-110-132.625v55h-85v10h85v55h10v-55h85v-10h-85v-55z" style="opacity:1;fill:#fff215;fill-opacity:1;stroke:#fff;stroke-width:0;stroke-miterlimit:4;stroke-dasharray:none;stroke-opacity:1" transform="matrix(4.44444 0 0 4.44397 866.667 589.438)"/><path d="M-125-99.638v33a20.1 20.1 0 0 0 1.563 7.781 19.8 19.8 0 0 0 1.843 3.375 20.4 20.4 0 0 0 2.469 2.97 20 20 0 0 0 2.938 2.437c1.064.719 2.21 1.337 3.406 1.843 1.196.507 2.448.921 3.75 1.188 1.301.266 2.651.406 4.031.406s2.73-.14 4.031-.406a20 20 0 0 0 3.75-1.188 20 20 0 0 0 3.406-1.843 20 20 0 0 0 2.938-2.438 20.4 20.4 0 0 0 2.469-2.969 19.8 19.8 0 0 0 1.844-3.375q.758-1.795 1.156-3.75c.266-1.301.406-2.65.406-4.03v-33z" style="opacity:1;fill:#00aef5;fill-opacity:1;stroke:#000;stroke-width:0;stroke-miterlimit:4;stroke-dasharray:none;stroke-opacity:1" transform="matrix(4.44444 0 0 4.44397 866.667 589.438)"/><g style="opacity:1"><path d="M79.076 191.643h18.64v37.84h-18.64zm18.526-.003h38.975v37.844H97.602zm39.086.116h15.106v37.614h-15.106zm-57.612-21.014h38.737v21.008H79.076zm38.973 0h33.645v21.005h-33.645zm-38.973-34.94H99.41v34.935H79.076zm20.272-.045h37.34v34.87h-37.34zm37.34.218h14.924v34.767h-14.924zM79.076 99.68h38.057v36.138H79.076zm38.068-.002h34.386v36.28h-34.386z" style="opacity:1;fill:#fff;fill-opacity:1;stroke:#000;stroke-width:.9375;stroke-miterlimit:4;stroke-opacity:1" transform="matrix(-.44746 0 0 .44741 501.056 137.135)"/><path d="M88.396 117.24h15.541v37.99H88.396zM107.679 117.24h15.541v37.99h-15.541zM127.25 117.24h15.541v37.99H127.25z" style="opacity:1;fill:#000;fill-opacity:1;stroke:#000;stroke-width:0;stroke-miterlimit:4;stroke-dasharray:none;stroke-opacity:1" transform="matrix(-.44746 0 0 .44741 501.056 137.135)"/><path d="M76.928 95.69h77.014v6.87H76.928z" style="opacity:1;fill:#fff;fill-opacity:1;stroke:#000;stroke-width:.9375;stroke-linejoin:round;stroke-miterlimit:4;stroke-dasharray:none;stroke-opacity:1" transform="matrix(-.44746 0 0 .44741 501.056 137.135)"/><path d="M72.325 69.031v31h86.22v-31h-12.157v14.844h-11.031V69.031h-13.875v14.844H110.45V69.031H96.575v14.844h-11.03V69.031z" style="opacity:1;fill:#fff;fill-opacity:1;stroke:#000;stroke-width:.93750048;stroke-linejoin:round;stroke-miterlimit:4;stroke-dasharray:none;stroke-opacity:1" transform="matrix(-.44746 0 0 .44741 501.056 137.135)"/><path d="M79.076 191.643h18.64v37.84h-18.64zm18.526-.003h38.975v37.844H97.602zm39.086.116h15.106v37.614h-15.106zm-57.612-21.014h38.737v21.008H79.076zm38.973 0h33.645v21.005h-33.645zm-38.973-34.94H99.41v34.935H79.076zm20.272-.045h37.34v34.87h-37.34zm37.34.218h14.924v34.767h-14.924zM79.076 99.68h38.057v36.138H79.076zm38.068-.002h34.386v36.28h-34.386z" style="opacity:1;fill:#fff;fill-opacity:1;stroke:#000;stroke-width:.9375;stroke-miterlimit:4;stroke-opacity:1" transform="matrix(.44746 0 0 .44741 298.963 136.792)"/><path d="M88.396 117.24h15.541v37.99H88.396zM107.679 117.24h15.541v37.99h-15.541zM127.25 117.24h15.541v37.99H127.25z" style="opacity:1;fill:#000;fill-opacity:1;stroke:#000;stroke-width:0;stroke-miterlimit:4;stroke-dasharray:none;stroke-opacity:1" transform="matrix(.44746 0 0 .44741 298.963 136.792)"/><path d="M76.928 95.69h77.014v6.87H76.928z" style="opacity:1;fill:#fff;fill-opacity:1;stroke:#000;stroke-width:.9375;stroke-linejoin:round;stroke-miterlimit:4;stroke-dasharray:none;stroke-opacity:1" transform="matrix(.44746 0 0 .44741 298.963 136.792)"/><path d="M72.325 69.031v31h86.22v-31h-12.157v14.844h-11.031V69.031h-13.875v14.844H110.45V69.031H96.575v14.844h-11.03V69.031z" style="opacity:1;fill:#fff;fill-opacity:1;stroke:#000;stroke-width:.93750048;stroke-linejoin:round;stroke-miterlimit:4;stroke-dasharray:none;stroke-opacity:1" transform="matrix(.44746 0 0 .44741 298.963 136.792)"/><path d="M330.961 1897.439h16.135v47.92h-16.135zm16.127-.036h25.387v47.956h-25.387zm25.342-.032h29.49v47.989h-29.49zm29.445-.067h13.957v48.054h-13.957zm-70.995-21.06h26.806v21.114H330.88zm26.635.08h32.38v21.122h-32.38zm32.425 0h25.803v21.159H389.94zm-59.11-37.49h13.033v37.404H330.83zm13.055.087h28.545v37.278h-28.545zm28.403-.175h31.935v37.656h-31.935zm-41.628-59.976h13.335v60.026H330.66zm13.324.038h28.156v60.284h-28.156zm28.221-.005h31.82v60.08h-31.82zm31.848.043h11.651v59.828h-11.65zm.083 59.78h11.65v37.657h-11.65z" style="opacity:1;fill:#fff;fill-opacity:1;stroke:#000;stroke-width:.93749994;stroke-linejoin:round;stroke-miterlimit:4;stroke-opacity:1" transform="matrix(.44746 0 0 .44741 233.144 -629.412)"/><path d="M319.719 1755.25v35.656H426.78v-35.656H411v14.438h-14.531v-14.438h-16.281v14.438h-14.5v-14.438h-16.313v14.438h-14.5v-14.438z" style="opacity:1;fill:#fff;fill-opacity:1;stroke:#000;stroke-width:.9375;stroke-linejoin:round;stroke-miterlimit:4;stroke-dasharray:none;stroke-opacity:1" transform="matrix(.44746 0 0 .44741 233.144 -629.412)"/><path d="M344.628 1812.406h14.436v47.59h-14.436zM366.23 1812.406h14.436v47.59H366.23zM387.832 1812.406h14.436v47.59h-14.436z" style="opacity:1;fill:#000;fill-opacity:1;stroke:#000;stroke-width:0;stroke-linejoin:miter;stroke-miterlimit:4;stroke-dasharray:none;stroke-opacity:1" transform="matrix(.44746 0 0 .44741 233.144 -629.412)"/><path d="M371.135 280.192v21.843h22.812v-22h-.062v.157zm0 0h22.75v-.157h-22.75zm-80.782 21.687h.032v-21.656h-.032zm20.032-21.687v.062h44.343v-.062h-44.343zm-20.032 0v.03h.032v21.657h-.032v.125h80.72v-21.812h-16.345v.062h-44.343v-.062zm-20.718.03h20.718v-.03h-20.718zm-167.313-.03v.062h44.313v-.062h-44.312zm64.375.03h20.719v-.03h-20.719zm0 21.657v-21.656h-.031v21.656zm0 0h-.031v-21.656h.031v-.031h-20.062v.062h-44.313v-.062H85.947v21.812h80.75zm47.094-21.625h-26.375v-.031h-20.719v21.656h24.063c.945-2.052 1.932-4.08 3.187-5.937a42.6 42.6 0 0 1 5.188-6.25 42.4 42.4 0 0 1 6.25-5.157 42.3 42.3 0 0 1 7.187-3.906c.388-.164.825-.222 1.219-.375zm.094-.031h-26.47v.031h26.376q.046-.016.094-.031zm30.406.031h25.344v-.031h-25.438q.046.016.094.031zm23.062 21.625h23v-21.656h-20.718v.031H244.29c.394.153.83.21 1.219.375a42.3 42.3 0 0 1 7.187 3.906 42.4 42.4 0 0 1 6.25 5.157 42.6 42.6 0 0 1 5.188 6.25c1.256 1.858 2.265 3.884 3.218 5.937zm103.844 73.438h-.031v25.25h.031zm0 0v25.25h22.75v-25.25zm-.031-21.844h22.781v-25.25h-22.781zm-16.531 0v21.781h39.312v-21.781h-39.312zm.25-51.406v26.062h39.062v-26.062zm-87.438-.032c.174.38.431.71.594 1.094a42 42 0 0 1 2.469 7.938c.283 1.382.855 2.853 1 4.28v12.813h83.375v-26.125zm-165.281.032v26.093h84.406v-12.812c.145-1.427.748-2.9 1.031-4.281a42 42 0 0 1 2.47-7.938c.162-.386.42-.714.593-1.094h-88.5zM63.26 328.129h38.906v-26.062H63.26zm0 25.344h22.593v-25.25H63.26zm0 21.781h39.125v-21.781H63.26zm22.562.063v25.25h.031v-25.25zm-22.562 25.25h22.562v-25.25H63.26zm123.312 0H63.26v42.03h123.312zm0-25.22h-84.156v-.062H85.822v.032h.031v25.25h100.72zm0-.062h-84.156v.063h84.156zm-84.156-21.843v21.843h84.156v-21.843zm0 0h84.156v-.094h-84.156zm84.156-25.25v-.032h-84.406v-.03H63.26v.093h22.593v25.25h16.532v21.781H63.26v.063h22.562v-.032h16.594v-21.843H85.978v-25.25zm0 0H85.978v25.25h16.438v-.094h84.156zm84.938 25.156h83.125v.094h16.437v-25.25H271.51zm0 .094h83.125v-.094H271.51zm0 21.843h83.125v-21.843H271.51zm0 .063h83.125v-.063H271.51zm0 25.219h99.656v-25.25h.031v-.032h-16.562v.063H271.51zm122.375-144.782v24.25h.062v22h-22.812v-21.843h-.063v21.812h-80.719v-.125h-23c.026.055.069.1.094.156h87.438v.032h39.062v26.062h-39.062v.031H271.51v.032h99.562v25.25h-16.437v.03h16.53v-25.25h22.782v47.032h-39.312v.031h16.562v.032h22.75v25.25H271.51v42.03h122.53V255.786zm-39.157 0v24.407h16.407v-.157h22.75v-24.25zm-.062 0v24.407h.062v-24.407zm-44.219 0v24.407h44.219v-24.407zm-.062 0v24.407h.062v-24.407zm-40.75 0v24.407h40.75v-24.407zm-29.094 0v23.313c1.231.35 2.473.668 3.656 1.125h25.438v-24.438zm-24.031 0v23.625c1.334-.417 2.611-.965 4-1.25a42.5 42.5 0 0 1 8.53-.875c2.92 0 5.779.311 8.532.875 1.031.212 1.967.653 2.969.938v-23.313zm-29.094 0v24.437h26.469c.85-.327 1.75-.538 2.625-.812v-23.625zm-40.781 0v24.407h40.781v-24.407zm-.032 0v24.407h.032v-24.407zm-44.25 0v24.407h44.25v-24.407zm-.03 0v24.407h.03v-24.407zm-16.407 24.407h16.406v-24.407H63.26v24.25h22.656zm0 0v-.157H63.26v.157zM63.26 302.035v.032h38.906v-.032h88.5c.025-.055.068-.1.094-.156h-24.063v.125h-80.75v-21.812h-.031v21.843zm0 0h22.656v-21.843H63.26z" style="opacity:1;fill:#fff;fill-opacity:1;stroke:#000;stroke-width:.9375;stroke-miterlimit:4;stroke-opacity:1" transform="matrix(.44746 0 0 .44741 297.583 134.182)"/><path d="M59.774 239.776H399.03v17.284H59.774z" style="opacity:1;fill:#fff;fill-opacity:1;stroke:#000;stroke-width:.9375;stroke-miterlimit:4;stroke-dasharray:none;stroke-opacity:1" transform="matrix(.44746 0 0 .44741 297.583 134.182)"/><path d="M53.188 202.313v44.718h351.437v-44.719h-21.656v23.47H370.03v-23.47h-18.437v23.47h-12.938v-23.47H318.25v23.47h-12.969v-23.47h-20.906v23.47h-12.937v-23.47H252v23.47h-12.937v-23.47h-20.438v23.47h-12.937v-23.47H187.25v23.47h-12.937v-23.47h-20.438v23.47h-12.937v-23.47H120.53v23.47h-12.969v-23.47H89.157v23.47H76.187v-23.47z" style="opacity:1;fill:#fff;fill-opacity:1;stroke:#000;stroke-width:.93749988;stroke-miterlimit:4;stroke-dasharray:none;stroke-opacity:1" transform="matrix(.44746 0 0 .44741 297.583 134.182)"/></g><path d="M58.875 1788.719v164.844h51.594v-104.657q.016-.047.031-.093v-23.032c-5.821-19.95-26.415-35.113-51.625-37.062z" style="opacity:1;fill:#fff;fill-opacity:1;stroke:#000;stroke-width:.9374997;stroke-linejoin:miter;stroke-miterlimit:4;stroke-dasharray:none;stroke-opacity:1" transform="matrix(.44746 0 0 .44741 326.575 -541.807)"/><path d="M81.563 1837.125v6.594l-10.063-4-2.75 6.906 12.813 5.094v8.531h5.687V1854l5.875 2.344v9.343h5.688v-7.093l12.906 5.156 2.75-6.906-15.656-6.25v-8.032h-5.688v5.782L87.25 1846v-8.875zM81.124 1880.418v6.594l-10.062-4-2.75 6.906 12.812 5.094v8.531h5.688v-6.25l5.875 2.344v9.344h5.687v-7.094l12.906 5.156 2.75-6.906-15.656-6.25v-8.031h-5.687v5.78l-5.875-2.343v-8.875z" style="opacity:1;fill:#000;fill-opacity:1;stroke:#000;stroke-width:0;stroke-linejoin:miter;stroke-miterlimit:4;stroke-dasharray:none;stroke-opacity:1" transform="matrix(.44746 0 0 .44741 326.575 -541.807)"/><path d="M151.656 1779.82c-20.994 4.66-37.355 21.772-41.062 43.23h-.063v130.57h12.47v-130.57c2.825-15.425 14.014-27.922 28.655-32.54z" style="opacity:1;fill:#fff;fill-opacity:1;stroke:#000;stroke-width:.9375;stroke-linejoin:miter;stroke-miterlimit:4;stroke-dasharray:none;stroke-opacity:1" transform="matrix(.44746 0 0 .44741 326.536 -541.806)"/><path d="M58.875 1788.719v164.844h51.594v-104.657q.016-.047.031-.093v-23.032c-5.821-19.95-26.415-35.113-51.625-37.062z" style="opacity:1;fill:#fff;fill-opacity:1;stroke:#000;stroke-width:.9374997;stroke-linejoin:miter;stroke-miterlimit:4;stroke-dasharray:none;stroke-opacity:1" transform="matrix(-.44746 0 0 .44741 473.282 -541.807)"/><path d="M81.563 1837.125v6.594l-10.063-4-2.75 6.906 12.813 5.094v8.531h5.687V1854l5.875 2.344v9.343h5.688v-7.093l12.906 5.156 2.75-6.906-15.656-6.25v-8.032h-5.688v5.782L87.25 1846v-8.875zM81.124 1880.418v6.594l-10.062-4-2.75 6.906 12.812 5.094v8.531h5.688v-6.25l5.875 2.344v9.344h5.687v-7.094l12.906 5.156 2.75-6.906-15.656-6.25v-8.031h-5.687v5.78l-5.875-2.343v-8.875z" style="opacity:1;fill:#000;fill-opacity:1;stroke:#000;stroke-width:0;stroke-linejoin:miter;stroke-miterlimit:4;stroke-dasharray:none;stroke-opacity:1" transform="matrix(-.44746 0 0 .44741 473.282 -541.807)"/><path d="M176.396 1779.585c20.995 4.664 37.355 21.793 41.062 43.274h.063v130.706h-12.469V1822.86c-2.826-15.44-14.015-27.95-28.656-32.574z" style="opacity:1;fill:#fff;fill-opacity:1;stroke:#000;stroke-width:.9374997;stroke-linejoin:miter;stroke-miterlimit:4;stroke-dasharray:none;stroke-opacity:1" transform="matrix(.44746 0 0 .44741 326.536 -541.806)"/></svg>