<svg xmlns="http://www.w3.org/2000/svg" xmlns:xlink="http://www.w3.org/1999/xlink" width="900" height="600" overflow="visible"><path d="M0 0h900v600H0z" style="fill-rule:evenodd;fill:#1059d3"/><path d="M0 61.064h900V120H0zM0 480h900v58.936H0z" style="fill-rule:evenodd;fill:red"/><g style="stroke:#916a09" transform="translate(-1875.5 265.57)scale(1.6168)"><use xlink:href="#a" style="fill:#ffd500;stroke-width:.8;stroke:#916a09" transform="rotate(22.428 1313.9 21.293)"/><path id="a" fill="#ffd500" d="M1302.8-45.577c-1.944-1.2-2.587-2.694-1.892-4.507.738-1.924.16-3.236-1.651-4.068-1.985-.912-2.608-2.698-1.767-5.398.433-1.392-.108-2.336-.984-3.067-1.962-1.637-2.374-4.675-1.212-9.359-2.86 4.547-3.547 7.545-2.126 9.396 1.28 1.667 1.643 3.855 1.019 5.697-.686 2.025-.315 3.866 1.046 5.499 1.405 1.684 1.719 3.343 1.229 4.918-.546 1.755.652 3.488 1.468 4.649 4.086 5.807 3.776 15.61 2.621 20.275l11.395-2.212c-.7-3.073-1.738-7.372-3.803-11.683-1.073-2.24-2.442-3.782-2.433-5.693.01-1.824-1.044-3.295-2.91-4.447z" style="fill:#ffd500;stroke-width:.8;stroke:#916a09"/><use xlink:href="#a" style="fill:#ffd500;stroke-width:.8;stroke:#916a09" transform="rotate(-22.572 1313.9 21.293)"/><use xlink:href="#a" style="fill:#ffd500;stroke-width:.8;stroke:#916a09" transform="rotate(-45.072 1313.9 21.293)"/><use xlink:href="#a" style="fill:#ffd500;stroke-width:.8;stroke:#916a09" transform="rotate(-67.572 1313.9 21.293)"/><use xlink:href="#a" style="fill:#ffd500;stroke-width:.8;stroke:#916a09" transform="rotate(269.93 1313.9 21.293)"/><use xlink:href="#a" style="fill:#ffd500;stroke-width:.8;stroke:#916a09" transform="rotate(224.93 1313.9 21.293)"/><use xlink:href="#a" style="fill:#ffd500;stroke-width:.8;stroke:#916a09" transform="rotate(202.43 1313.9 21.293)"/><use xlink:href="#a" style="fill:#ffd500;stroke-width:.8;stroke:#916a09" transform="rotate(179.93 1313.9 21.293)"/><use xlink:href="#a" style="fill:#ffd500;stroke-width:.8;stroke:#916a09" transform="rotate(157.43 1313.9 21.293)"/><use xlink:href="#a" style="fill:#ffd500;stroke-width:.8;stroke:#916a09" transform="rotate(247.43 1313.9 21.293)"/><use xlink:href="#a" style="fill:#ffd500;stroke-width:.8;stroke:#916a09" transform="rotate(135 1313.9 21.293)"/><use xlink:href="#a" style="fill:#ffd500;stroke-width:.8;stroke:#916a09" transform="rotate(112.5 1313.9 21.293)"/><use xlink:href="#a" style="fill:#ffd500;stroke-width:.8;stroke:#916a09" transform="rotate(90 1313.9 21.293)"/><use xlink:href="#a" style="fill:#ffd500;stroke-width:.8;stroke:#916a09" transform="rotate(67.5 1313.9 21.293)"/><use xlink:href="#a" style="fill:#ffd500;stroke-width:.8;stroke:#916a09" transform="rotate(44.856 1313.9 21.293)"/><path id="b" d="M1313.9-73.797c-21.665 18.764 4.681 35.081-4.686 49.672l11.877.702c1.219-4.357.28-10.387-.652-14.565-2.408-10.506-12.646-19.466-6.539-35.81z" style="fill-rule:evenodd;fill:#ffd500;stroke-linecap:round;stroke-linejoin:round;stroke-miterlimit:5;stroke-width:.8;stroke:#916a09"/><use xlink:href="#b" style="fill:#ffd500;stroke-width:.8;stroke:#916a09" transform="rotate(22.428 1313.9 21.293)"/><use xlink:href="#b" style="fill:#ffd500;stroke-width:.8;stroke:#916a09" transform="rotate(-22.572 1313.9 21.293)"/><use xlink:href="#b" style="fill:#ffd500;stroke-width:.8;stroke:#916a09" transform="rotate(-45.072 1313.9 21.293)"/><use xlink:href="#b" style="fill:#ffd500;stroke-width:.8;stroke:#916a09" transform="rotate(-67.572 1313.9 21.293)"/><use xlink:href="#b" style="fill:#ffd500;stroke-width:.8;stroke:#916a09" transform="rotate(269.93 1313.9 21.293)"/><use xlink:href="#b" style="fill:#ffd500;stroke-width:.8;stroke:#916a09" transform="rotate(247.43 1313.9 21.293)"/><use xlink:href="#b" style="fill:#ffd500;stroke-width:.8;stroke:#916a09" transform="rotate(224.93 1313.9 21.293)"/><use xlink:href="#b" style="fill:#ffd500;stroke-width:.8;stroke:#916a09" transform="rotate(202.43 1313.9 21.293)"/><use xlink:href="#b" style="fill:#ffd500;stroke-width:.8;stroke:#916a09" transform="rotate(179.93 1313.9 21.293)"/><use xlink:href="#b" style="fill:#ffd500;stroke-width:.8;stroke:#916a09" transform="rotate(157.43 1313.9 21.293)"/><use xlink:href="#b" style="fill:#ffd500;stroke-width:.8;stroke:#916a09" transform="rotate(134.93 1313.9 21.293)"/><use xlink:href="#b" style="fill:#ffd500;stroke-width:.8;stroke:#916a09" transform="rotate(112.5 1313.9 21.293)"/><use xlink:href="#b" style="fill:#ffd500;stroke-width:.8;stroke:#916a09" transform="rotate(90 1313.9 21.293)"/><use xlink:href="#b" style="fill:#ffd500;stroke-width:.8;stroke:#916a09" transform="rotate(67.5 1313.9 21.293)"/><use xlink:href="#b" style="fill:#ffd500;stroke-width:.8;stroke:#916a09" transform="rotate(45 1313.9 21.293)"/><circle cx="1313.9" cy="21.293" r="45.235" style="fill-rule:evenodd;fill:#ffd500;stroke-linecap:round;stroke-linejoin:round;stroke-miterlimit:5;stroke:#916a09"/><g style="stroke:#916a09" transform="translate(1188.3 -103.51)"><use xlink:href="#c" style="stroke:#916a09" transform="matrix(-1 0 0 1 251.3 0)"/><g id="c" style="stroke:#916a09"><path d="M120.35 114.9c2.3 7.403 1.769 14.083.6 20.6.717 2.093 2.7 3.99 4.7 4M95.935 117.91c4.291.747 7.542-3.12 12.815-3.309 4.04-.144 7.271 2.356 8.5 6.9-3.538 1.899-4.542 2.853-9.305 2.853-3.855 0-7.072-5.036-9.295-6.553" style="fill:none;stroke-linecap:round;stroke-linejoin:round;stroke-miterlimit:5;stroke:#916a09"/><circle cx="108.93" cy="118.89" r="4.278" style="fill:none;stroke-linecap:round;stroke-linejoin:round;stroke-miterlimit:5;stroke:#916a09"/><circle cx="108.93" cy="118.89" r="1.095" style="fill:none;stroke-linecap:round;stroke-linejoin:round;stroke-miterlimit:5;stroke:#916a09"/><path d="M95.917 112.72c3.207-5.721 20.459-10.214 25.485-1.156-7.78 1.175-6.38-3.392-13.049-2.92-4.061.287-7.42.997-12.436 4.076M122.65 138.2c-8.021.358-4.372-6.256-.9-7.6M114.45 149.3c3.818-.46 6.587-3.87 11.2-3.87" style="fill:none;stroke-linecap:round;stroke-linejoin:round;stroke-miterlimit:5;stroke:#916a09"/><path d="M116.75 148.8c1.38 2.982 1.594 4.6 8.9 4.6M120.95 159.4c.847-1.446 2.805-2.5 4.7-2.5M116.83 148.74c2.464.102 5.552.504 8.822.632" style="fill:none;stroke-linecap:round;stroke-linejoin:round;stroke-miterlimit:5;stroke:#916a09"/></g><path d="M126.89 139.97c-.032 2.595.39 6.277-1.23 6.8-1.621-.523-1.198-4.205-1.23-6.8" style="fill:none;stroke-linecap:round;stroke-linejoin:round;stroke-miterlimit:5;stroke:#916a09" transform="translate(-.008 -.5)"/></g></g><path d="M589.06 93.67c37.142 16.879 64.178 92.227 83.201 137.1v15.648h-15.648c-44.868-19.024-120.22-46.059-137.1-83.201v185.35c16.878-37.141 92.223-64.178 137.09-83.201h15.652v15.648c-19.024 44.868-46.059 120.22-83.201 137.1h185.35c-37.141-16.878-64.178-92.223-83.201-137.09v-15.652h15.652c44.869 19.023 120.21 46.06 137.09 83.201v-185.35c-16.879 37.142-92.228 64.178-137.1 83.201h-15.648v-15.652c19.023-44.869 46.06-120.21 83.201-137.09z" style="fill-rule:evenodd;fill:#fff;stroke-linejoin:round;stroke-miterlimit:5;stroke-width:3;stroke:#999" transform="translate(18.318 73.926)scale(.88348)"/><path d="M601.41 166.81v103.67c0 74.177 57.959 89.893 80.329 89.893s80.329-15.717 80.329-89.893V166.81z" style="fill-rule:evenodd;fill:#1059d3;stroke-linejoin:round;stroke-miterlimit:5;stroke-width:3;stroke:#000" transform="translate(18.318 73.926)scale(.88348)"/><path d="M684.75 197.41a56.755 56.755 0 0 0-56.756 56.756 56.755 56.755 0 0 0 56.756 56.754 56.76 56.76 0 0 0 50.711-31.5 40.82 40.82 0 0 1-31.928 15.533 40.816 40.816 0 0 1-40.816-40.816 40.816 40.816 0 0 1 40.816-40.816 40.82 40.82 0 0 1 31.941 15.424 56.76 56.76 0 0 0-50.725-31.334z" style="fill-rule:evenodd;fill:#fff;stroke-linejoin:round;stroke-miterlimit:5;stroke-width:3;stroke:#999" transform="translate(18.318 73.926)scale(.88348)"/></svg>