<svg xmlns="http://www.w3.org/2000/svg" xmlns:xlink="http://www.w3.org/1999/xlink" width="886" height="591"><defs><linearGradient id="a"><stop offset="0" stop-color="#008bd2" stop-opacity=".121"/><stop offset=".25" stop-color="#008bd2"/><stop offset=".5" stop-color="#bfe9ff"/><stop offset=".75" stop-color="#008bd2"/><stop offset="1" stop-color="#008bd2" stop-opacity=".123"/></linearGradient><linearGradient xlink:href="#a" id="o" x1="257.31" x2="336.48" y1="570.86" y2="570.86" gradientUnits="userSpaceOnUse"/><linearGradient xlink:href="#a" id="d" x1="266.21" x2="315.76" y1="581.1" y2="581.1" gradientTransform="translate(171.36 -64.474)scale(.86592)" gradientUnits="userSpaceOnUse"/><linearGradient xlink:href="#a" id="n" x1="278.05" x2="327.92" y1="581.1" y2="581.1" gradientUnits="userSpaceOnUse"/><linearGradient id="q" x1="265.9" x2="327.73" y1="284.45" y2="284.45" gradientUnits="userSpaceOnUse"><stop offset="0" stop-color="#fff"/><stop offset=".5" stop-color="#bae0ff"/><stop offset=".5" stop-color="#fff"/><stop offset="1" stop-color="#bae1ff"/></linearGradient><linearGradient xlink:href="#a" id="e" x1="392.01" x2="431.94" y1="372.99" y2="372.99" gradientUnits="userSpaceOnUse"/><linearGradient xlink:href="#a" id="g" x1="393.53" x2="432.31" y1="436.93" y2="436.93" gradientUnits="userSpaceOnUse"/><linearGradient xlink:href="#a" id="h" x1="398.82" x2="433.32" y1="495.9" y2="495.9" gradientUnits="userSpaceOnUse"/><linearGradient xlink:href="#a" id="j" x1="408.5" x2="408.5" y1="516.48" y2="574.02" gradientUnits="userSpaceOnUse"/><linearGradient xlink:href="#a" id="m" x1="324.23" x2="324.23" y1="538.24" y2="557.71" gradientUnits="userSpaceOnUse"/></defs><path fill="#903" fill-rule="evenodd" d="M0-.004h886.01v591.01H0z"/><use xlink:href="#b" width="595.28" height="841.89" transform="matrix(-1 0 0 1 857.2 0)"/><use xlink:href="#c" width="595.28" height="841.89" transform="matrix(-1 0 0 1 857.2 0)"/><path d="m501.21 381.89-.01.03-.75 1.78-.01.02-.88 1.64-.01.03-1.01 1.49-.01.02-1.12 1.36-.02.02c-.3.32-.61.62-.92.92-.33.3-.65.59-.98.88l-.02.01a23.504 23.504 0 0 1-2.17 1.51l-.01.01c-.41.24-.81.45-1.2.65-.4.2-.8.4-1.22.59h-.02c-.44.18-.88.35-1.31.5-.44.16-.89.32-1.34.45l-.02.01c-.47.12-.95.25-1.44.36-.48.11-.96.21-1.44.31h-.02l-.9.15-.05.01H447c-.43.01-.84.05-1.23.09-.42.04-.83.1-1.24.17l.01-.01c-.38.08-.77.17-1.16.27-.37.1-.74.21-1.14.33h.02c-.36.13-.71.27-1.07.43-.34.14-.69.3-1.05.47l.01-.01c-.33.19-.66.37-.98.56q-.465.27-.96.6l.01-.01a29 29 0 0 0-1.21.88c-.38.3-.77.62-1.15.94h.01c-.56.5-1.09 1.01-1.59 1.52-.52.52-1.02 1.06-1.52 1.62h.01c-.55.62-1.08 1.26-1.59 1.91-.53.65-1.04 1.3-1.55 1.96l-.24.32-.25-.32c-.66-.86-1.32-1.7-2-2.53-.68-.82-1.38-1.63-2.11-2.42-.44-.45-.87-.89-1.31-1.3-.44-.43-.9-.83-1.37-1.24h-.01.01-.01c-.39-.32-.79-.62-1.17-.9-.4-.29-.81-.56-1.24-.84h.01c-.34-.2-.67-.38-.99-.55-.31-.18-.65-.34-1.01-.52h.01c-.37-.15-.72-.3-1.08-.43-.34-.12-.7-.25-1.08-.37l-1.57-.37.03.01c-.42-.07-.83-.13-1.24-.17-.39-.04-.81-.08-1.24-.09h-37.32l-.05-.01c-.5-.08-.97-.17-1.44-.25-.47-.1-.94-.2-1.42-.32h-.02c-.46-.13-.92-.26-1.37-.4-.46-.14-.91-.3-1.36-.45l-.02-.01q-.645-.27-1.26-.54c-.42-.2-.83-.39-1.24-.6h-.01c-.39-.23-.77-.46-1.15-.69-.39-.25-.76-.49-1.1-.74h-.02q-.525-.42-1.02-.84c-.495-.42-.65-.57-.98-.88l-.01-.01c-.31-.32-.61-.65-.89-.98-.29-.32-.57-.66-.85-1.03l-.01-.01-1-1.49-.01-.03-.88-1.64-.01-.02-.75-1.78-.02-.03-.61-1.94-.01-.02c-.13-.53-.25-1.06-.36-1.61-.12-.54-.21-1.07-.31-1.61v-.02c-.07-.59-.14-1.18-.2-1.78-.05-.62-.09-1.21-.13-1.78V217.39h146.89v155.74c-.03.57-.08 1.16-.14 1.78-.05.6-.12 1.19-.19 1.78v.02c-.09.54-.19 1.07-.31 1.61-.1.55-.23 1.08-.36 1.61v.02zm-.59-.19.62-1.92c.14-.54.25-1.06.36-1.58.1-.52.2-1.05.29-1.59v.01c.07-.59.14-1.17.2-1.76.05-.56.09-1.14.13-1.77V218.01H356.57v155.08c.03.63.08 1.21.13 1.77.05.59.11 1.17.19 1.76v-.01c.08.54.19 1.07.29 1.59.11.52.23 1.04.37 1.58l.6 1.92.74 1.75.86 1.61.98 1.47c.27.34.54.67.83.99.27.32.56.64.86.95.32.29.63.58.95.86.32.27.66.54 1 .8l-.01-.01c.38.27.74.51 1.08.73.37.23.74.45 1.13.67l-.02-.01c.42.21.82.41 1.21.59.41.18.82.35 1.23.53.46.15.9.3 1.34.44s.89.27 1.36.4c.46.1.92.2 1.39.3.48.09.94.17 1.39.24h37.33c.41.03.84.06 1.28.11.41.04.83.1 1.26.17h.03l1.57.37.02.01c.36.12.75.24 1.13.39.37.14.73.29 1.11.44.34.17.69.34 1.04.53s.69.38 1.02.57v.01c.43.27.84.55 1.26.86.42.3.82.6 1.21.92h.01c.49.42.94.83 1.4 1.27.45.42.9.86 1.33 1.32h.01q1.095 1.2 2.13 2.46c.6.74 1.19 1.48 1.77 2.23.44-.56.88-1.11 1.31-1.66.53-.65 1.06-1.29 1.61-1.93.49-.56 1.01-1.11 1.53-1.64.53-.54 1.07-1.06 1.62-1.55l.01-.01c.38-.33.77-.65 1.18-.96.4-.31.8-.62 1.22-.9l.01-.01c.32-.2.64-.4.99-.61.32-.19.65-.38 1-.56l.02-.01c.34-.16.7-.33 1.07-.48.35-.15.71-.3 1.09-.44l.02-.01q.57-.18 1.17-.33c.39-.11.78-.2 1.19-.29h.01c.44-.07.85-.12 1.28-.16.43-.06.85-.08 1.27-.11h37.33l.87-.14h-.01c.49-.09.96-.2 1.43-.3.47-.11.94-.22 1.42-.35h-.01q.66-.21 1.32-.45c.43-.15.86-.32 1.28-.49.41-.18.81-.37 1.21-.57.39-.21.77-.42 1.16-.62.35-.23.71-.46 1.07-.72.36-.25.71-.51 1.04-.76.33-.28.64-.57.95-.85.3-.3.61-.59.9-.9l1.1-1.34.99-1.46.86-1.61z"/><g clip-rule="evenodd"><path fill="url(#d)" d="M424.16 435.13c-16.32 2.46-22.19 4.33-22.29 5.96.08 3.79 14.91-2.28 22.29-5.96"/><g id="c" clip-rule="evenodd"><path d="M428.59 416.051c.961.009 2.044.026 3.074.035 1.091.069 2.182.138 3.265.233 1.048-1.619 2.147-3.23 3.308-4.693 1.645-2.052 3.558-4 5.567-5.776 2.217-1.913 4.581-3.758 7.188-5.057 1.68-.744 5.438-2.268 6.537.13 1.914-.156 3.724.07 5.594.468l1.394.355c1.758-.987 3.516-1.732 5.525-1.914 1.377.009 2.269.251 3.42 1.074l.606.563c.425-.269.797-.45 1.265-.658l.753-.121.762.164.632.485c.294.494.45.805.615 1.35a11.5 11.5 0 0 1 2.727-2.207c1.16-.58 2.157-.91 3.456-.987 1.645.095 2.684.632 2.926 2.424-.034.52-.086.961-.26 1.446.771-.311 1.767-.225 2.356.433a35 35 0 0 1 3.334-3.559l.83-.658c.78-.502 1.36-.805 2.252-1.056l.702-.035c1.333.286 1.81.823 2.468 2.018l.12.294c1.204-.84 2.339-1.81 3.5-2.728-.295-1.454-.546-2.848-.512-4.355.2-1.836.9-4.615 3.074-4.78.078.035.485.19.528.234 1.143-1.94 2.286-3.88 3.438-5.81-.563-1.897-.848-3.862-.796-5.837.147-.424.285-.78.476-1.186.337-.407.632-.762 1.195-.719l-.104-.303c-.866-2.658-1.663-5.776-.286-8.4.77-1.194 1.645-1.757 2.97-2.19-.744-.727-1.126-1.637-1.35-2.641-.217-2.19.631-4.027 1.852-5.784-1.255-3.507-2.372-7.101-2.918-10.807-.268-2.286-.398-4.676.91-6.668v-.667l-.14.078-.891-.562-.182-.884c.018-.796.095-1.55.182-2.355.485-.961.961-1.792 1.645-2.615-.086-2.269-.173-4.537-.25-6.806l-.451.13-.667-.303-.338-.52c-.528-1.714-.086-3.516.45-5.178.607-.918 1.222-1.905 1.923-2.754-.338-.346-.51-.615-.753-1.048l-.156-.753.121-.77c.45-.884.927-1.481 1.75-2.044-1.507-2.962-2.876-6.018-3.88-9.205-.667-2.32-1.282-4.9-.303-7.23.675-1.213 1.463-1.758 2.78-2.104a22 22 0 0 1-.97-5.707l.043-1.03c-.286-.096-.494-.511-.64-.771-.477-1.134-.746-2.338-1.031-3.542.173-1.853.588-3.49 1.766-4.953l-.727-4.728c-.225.026-.606-.225-.814-.329l-.485-.58c-.346-.788-.45-1.333-.511-2.2l.052-.805c.762-3.732 3.594-6.546 6.226-9.022a34 34 0 0 1-1.74-1.776c-2.26-2.615-4.495-5.836-4.798-9.438 0-2.13.754-3.377 2.806-3.957l.545-.078c-2.38-2.85-4.831-6.46-4.52-10.409.32-2 1.3-3.377 3.16-4.113a35 35 0 0 1 0-3.152c.191-2.06.477-3.853 1.69-5.568l.415-.45c.71-.545 1.152-.736 2.035-.814 1.524.182 2.312.944 3.17 2.2l.31.58c.815 1.87.997 3.507.945 5.542l-.07.762c1.178-.148 2.598-.156 3.56.692-.061-2.043.467-3.385 1.853-4.831.346-.303.692-.607 1.073-.866-.424-2.399-.718-4.798-.788-7.23 0-2.295.122-4.755 1.723-6.521 1.282-1.109 2.685-1.212 4.27-.77l.32-1.395.71-1.992.84-1.697.944-1.385 1.021-1.074 1.066-.78 1.1-.467 1.099-.121 1.04.286.848.692.554 1.03.242 1.265-.06 1.49-.373 1.705c-.38 1.048-.736 2.01-1.22 2.996.372.044.822.208 1.203.303l.944.468.762.632.545.797.304.9.077.953-.103.987c-.33 1.152-.71 1.992-1.282 3.022l-.701 1.013c-.788.953-1.568 1.801-2.477 2.624.468.225.693.459 1.082.823l.39.866.052 1.021c1.04-.796 2.052-1.342 3.265-1.8 1.54-.434 2.745-.555 4.26.034l.476.268c1.04.849 1.36 1.585 1.403 2.944l-.07.624c-.432 1.688-1.22 2.797-2.32 4.096l-.701.718c.242.104.476.243.71.364.563.979.952 1.784 1.203 2.892.277 2.26-.467 3.724-1.991 5.291l-.009.009q.275 2.042.563 4.07l.216-.382 1.1.182c1.645 3.819-.13 7.854-2.407 10.928l.398.251c.234.416.347.65.468 1.109.26 2.147-.147 4.373.441 6.46.892-.217 1.594.207 2.208.822 1.022 1.403 1.273 3.048 1.473 4.745.32 3.966-.01 7.993-.806 11.872.788.918.996 1.88 1.057 3.065l-.07.78a12.3 12.3 0 0 1-1.775 4.269c.338.104.425.441.598.744.199 1.048.234 2.035-.113 3.057-.667 1.689-1.602 2.962-2.857 4.235.233 1.619.415 3.195.476 4.823v.008c.138-.086.632.122.805.174l.286.52c.216 1.133.009 2.346-.121 3.471-.243 1.793-.979 3.265-1.957 4.737.822 1.342.701 2.996.597 4.52a181 181 0 0 1-.294 3.048c.892-.086 1.602.243 2.243.857 1.203 1.68.848 3.897.554 5.837-.624 3.55-1.62 7.031-2.39 10.547 1.125 0 2.113.268 3.108.814.823.614 1.178 1.073 1.412 2.104.017 2.459-2.026 3.88-3.827 5.083-.477.277-.936.563-1.412.814.13.303.217.623.32.944.728-.078 1.1.155 1.646.614.753.936.9 1.646.9 2.85l-.121.77c-.39 1.29-.978 2.225-1.74 3.299l-.078.13c0 1.507-.018 3.048.502 4.477.017.052.684-.06.78-.07l.484.641c.277.762.459 1.533.485 2.356-.139 3.09-1.671 5.87-3.75 8.027.053 2.32.104 4.65.165 6.97.424-.026.719.06 1.117.208 1.368.875 1.671 2.269 1.88 3.819.337 4.208-.84 8.434-2.78 12.105 1.169.91.96 2.598.805 3.932l-.147.909.597.078.823.39.623.692.32.91.018 1.03-.268 1.108-.537 1.204c-.745 1.186-1.49 2.251-2.45 3.273.397.182.683.381 1.047.64l.467.607.234.719-.017.744c-.173.537-.33.91-.598 1.403-1.74 2.338-4.208 4.01-6.59 5.585.252.84.157 1.594-.034 2.425l-.329.675c-.554.719-.987 1.091-1.732 1.576l-.796.381c-2.304.84-4.52 1.065-6.945 1.204l-1.61.043c.034.624.06 1.239.086 1.862-.364 1.55-.693 3.152-1.29 4.624-.269.459-.485.606-.9.927l-.78-.45q-2.52 1.971-5.04 3.93l-.017-.069-.979 1.152.018.104c-.555 1.61-1.126 3.247-2.26 4.537l-.494.338-.78.052-.467-.485-.086.476-.485.745-.797.424-.935.035-1.005-.26c-1.628-.78-3.013-1.74-4.373-2.961-.13.502-.32.779-.588 1.212l-.702.485-.805.138a6.5 6.5 0 0 1-1.55-.45c-1.775-1.082-3.005-2.424-4.278-4.078l-.589-.858c-.433 1.057-1.203 1.646-2.138 2.174l-.858.251-.874.052a9.4 9.4 0 0 1-1.75-.381c-1.359-.684-2.407-1.48-3.23-2.823-.172.468-.346.866-.683 1.23 2.112 1.42 4.476 2.831 5.706 5.178l.208.727.009.78-.217.77c-.381.632-.719 1.126-1.307 1.568.432 1.168.675 2.216.848 3.463l-.009 1.117-.173.996-.363.857-.537.684-.719.468-.831.182-.866-.104-.857-.355-.823-.589c-.961-.961-1.827-2.009-2.39-3.282l-.831.797-.961.545-1.005.243-.987-.07-.935-.311c-.979-.58-1.568-1.109-2.33-1.974l-.606-.884c-.51-.96-.874-1.8-1.169-2.857l-.415.415c-.598.381-.944.529-1.637.633-1.559-.096-2.511-.858-3.61-1.923-1.984-2.13-3.473-4.658-4.807-7.265-.407-.814-.147-.78-.978-.251l-.745-.216c-.563-.546-.857-1.04-1.204-1.75.061.9-.077 1.524-.64 2.217-.555.243-.858.346-1.377-.017.078 1.056-.502 2.017-1.091 2.814l-.433.502c-.961 1.057-1.784 1.827-1.957 3.334l.138 1.948c.537.84.58 1.386.182 2.312l-.372.46c-1.221 1.004-2.555 1.42-4.027 1.887-.701.087-1.394.165-2.086.225-1.966.104-3.81.035-5.75-.225-2.416-.398-4.659-1.048-6.936-1.957-3.178-1.333-6.122-3.04-9.006-4.875l-3.074-2.078"/><g fill="#fd0"><path d="M521.114 253.267c-.173-9.76-6.079-18.228-5.04-24.627.823 6.893 3.057 11.058 4.572 15.18.052-2.356.667-6.98 2.035-7.344.745-4.805-.06-7.862-4.97-6.52 1.94-10.408-7.75-14.417-6.677.442-4.511 1.169-4.849 7.196 2.46 14.859-7.439-1.299-4.815 7.594 1.861 13.768 1.559-2.295 3.369-4.32 5.759-5.758"/><path d="M527.59 248.15c.46-5.855 7.69-12.66 15.449-20.68-9.084 6.842-16.288 13.579-16.964 21.97-1.1.883-2.199 1.766-3.29 2.658q-2.156-.598-.182-2.936c-1.195-10.772 1.204-14.374 5.611-13.95 2.641-7.724 5.698-11.084 9.36-8.07 6.91-8.2 15.9-3.057 5.785 4.953.883 1.169 1.195 3.04.858 3.923-.234.597-1.152 1.506-2.668 2.45-4.182 2.572-10.027 7.698-13.958 9.681"/><path d="M537.687 226.285c1.949-3.213-.017-4.295-1.827-4.174 6.053-4.425 8.348-11.257 1.377-11.465 6.564-11.924-4.018-12.902-6.278-.208-4.9-1.861-7.126 1.507-4.9 13.838-2.772 1.853-4.278 4.018-1.68 10.244.502 1.186 2.25-.13 2.978.025.113-.952.953-3.212 1.914-3.697-1.533-8.27 1.36-15.656 5.368-22.661-2.502 6.58-5.386 14.374-4.078 20.713 1.992-3.984 3.784-5.005 7.126-2.615M545.74 232.225c1.628 2.598 1.481 5.074-1.238 7.36-19.11 13.37-31.086 22.124-33.961 29.39-.217 1.013.017 1.827.19 2.65-1.212.432-1.792-1.81-1.281-3.612 1.429-4.173 4.399-6.39 8.46-10.33 6.572-6.148 16.478-13.153 25.813-20.012 1.273-1.169 1.437-2.415 1.091-3.688-1.152-2.676-.26-2.425.927-1.758"/></g><path fill="url(#e)" d="M431.23 351.91c.23 1.73.47 3.45.71 5.18-.92 4.74-3.55 8.59-6.53 11.76-7.97 8.44-17.46 13.62-27.48 20.81a52 52 0 0 0-4.85 4.4c-.36-2.34-.71-4.68-1.07-7.03 1.09-3.28 3.23-4.31 5.46-7.01 5.77-6.18 12.35-12.03 19.75-17.57 5.32-3.24 9.56-7.87 14.01-10.54" transform="translate(171.36 -64.474)scale(.86592)"/><g fill="#fd0"><path d="M546.33 245.76c.372-2.192.683-1.81.926 1.125-.147 3.75-2.477 6.884-5.126 9.923-8.036 8.001-18.678 14.608-28.039 21.475-1.818 1.386-2.546 2.875-2.182 4.486-.234 4.71-.935 3.403-1.862-.641.156-2.061.797-3.906 2.485-5.282 6.53-5.447 13.292-8.945 17.094-11.682 7.126-5.68 9.889-8.14 13.88-13.595 1.265-1.714 1.992-3.827 2.823-5.81M544.19 292.025c4.79-5.308 6.616-9.464 4.114-11.95 1.706-7.819 1.446-18.72-2.46-16.634-1.29-2.45-.199-7.092-1.039-8.01-.199-.207-.493.087-.944.338-2.407 3.273-4.953 5.707-8.659 8.443-1.706 1.255-.017 3.186 1.992 5.949-1.922-.546-4.278.329-3.602 3.412 1.922 1.853 2.961 3.03 3.186 6.234 1.949-.77 4.494 1.593 6.59 5.776.493-7.993-.546-15.595-2.139-23.051 3.117 8.547 4.035 17.163 3.126 25.848.598 1.048-1.87 3.645-.164 3.645"/><path d="M539.038 296.39c1.438-4.893-4.087-11.82-10.78-18.947 5.135 6.798 9.464 13.197 9.083 20.28-1.264.927-2.52 1.844-3.784 2.771-4.32-4.901-9.534-9.958-3.706-12.91-1.827-.59-2.944-1.525-2.91-3.75.494-2.053-1.81-5.3-3.152-5.404.537-2.104.018-3.836-.294-5.645 1.256-2.087 3.317-1.351 6.174 3.134 2.39-2.19 4.503-3.377 6.365 5.386 4.251-2.606 6.226 3.42 5.697 12.314-.9.926-1.8 1.844-2.693 2.77"/><path d="M524.344 306.884c3.342-8.468 2.883-12.39-1.403-11.785 3.75-8.468 4.018-14.097-.52-14.14.788-3.36.702-5.1-.173-6.512-2.26 1.559-4.52 3.117-6.771 4.676-.2.849.32 1.455.45 2.303-3.585.832-5.758 4.217-3.048 12.504-4.815.269-5.057 5.534 1.394 18.115-2.251 1.42-2.684 2.72-1.29 3.897.814-1.87 2.208-2.892 3.689-3.793-4.07-8.962-.433-19.076 1.688-29.034-1.307 11.266-4.511 24.791.104 27.372 1.957-1.195 3.914-2.399 5.88-3.603"/><path d="M546.892 289.8c.979-1.948 1.689-1.342 1.368 1.238-.675 2.208-2.251 4-4.225 5.611-7.828 5.785-15.933 11.526-24.627 17.033-2.953 1.81-5.014 4.347-6.46 7.369-2.433 6.312-3.135 1.966-1.87-1.533 1.835-2.814 3.862-5.533 7.213-7.577 9.153-6.355 18.037-12.4 26.107-18.6 1.109-.917 1.793-2.173 2.494-3.541"/></g><path fill="url(#g)" d="M431.87 417.28c.33 2.23.48 4.46.43 6.67-.86 2.11-1.86 4.31-3.88 7.11-5.31 5.3-11.15 9.77-17.23 13.86-5.79 3.52-11.58 6.97-17.37 11.67-.1-2.61-.19-5.21-.29-7.82 1.68-4.23 4.07-7.92 8.04-10.44 7.47-4.93 14.94-9.87 22.4-14.8 2.92-1.92 5.75-3.9 7.9-6.25" transform="translate(171.36 -64.474)scale(.86592)"/><g fill="#fd0"><path d="M545.81 303.29c1.1-2.77 1.342-1.982.744 2.356-.848 3.092-2.978 5.378-5.221 7.603-8.14 7.655-16.955 13.205-25.735 19.059-1.264.978-2.416 2.026-3.36 3.238-1.126 1.862-2.043 3.014-1.49-.866.685-1.437 1.499-2.632 2.607-3.29a675 675 0 0 1 17.777-12.409c7.716-4.77 12.695-9.992 14.678-15.69M544.883 310.192c.987 1.386.425 3.802.018 8.088 5.697-1.507 2.355 7.611.493 16.21-1.463-.312-2.035.753-3.386 1.238 1.724-6.191 1.386-12.443-1.697-19.466 1.559 6.642 1.767 12.99.606 18.496-1.697-.684-4.728-1.143-6.641 1.273-3.481-6.58-3.62-12.287 1.532-12.261-2.156-2.529-2.164-2.988-.909-3.455 3.455-2.537 7.326-6.555 9.984-10.123M532.163 332.455c-1.386-1.472-2.58-2.035-3.758-2.476-.424-.122-1.221-.2-.2 1.714 1.984-.286 2.754.883 3.724 2 .32-.034.355-.502.234-1.238"/></g><path fill="#008bd2" d="M528.396 331.606q3.52.275 5.56 4.564c-2.13 1.446-3.863 3.61-5.188 6.503q.001-3.717-2.104-4.953c1.074-1.94 1.654-3.975 1.732-6.114"/><g fill="#fd0"><path d="M527.929 342.318c.32-2.373-.503-3.55-2.486-3.55 3.343-10.21 1.94-12.47-1.619-11.119q-3.985 2.73-7.984 5.447c-.537.892-.64 2.52-.32 4.892-6.53-.692-5.741 6.98-1.62 18.444-2.476 3.403-2.658 6.07-.536 8.001q.261-5.998 3.992-8.45c-2.234-6.296 1.974-14.808 3.663-24.55-.252 8.183-4.278 19.258-1.724 24.22 1.239-7.3 3.646-12.556 8.634-13.335"/><path d="M542.164 340.413c-7.836 3.394-15.006 8.165-20.721 16.002-3.732-.987 2.52-15.734 8.191-12.997 4.85-6.79 9.283-10.972 12.21-5.889 2.892-4.875 15.05-.874 2.58 5.438 2.572 4.893-1.463 6.928-8.512 7.672 4.945 3.213-4.667 7.309-12.599 13.89.035-.269-.857-.528-1.524-.234.269-1.507.45-5.048.33-5.992 4.554-8.252 11.906-13.491 20.045-17.89"/><path d="M545.836 346.492c1.576 3.039-9.11 9.334-21.934 18.608q.376.717.753 1.446c10.712-6.511 19.64-11.291 22.584-17.5 1.489-4-2.616-5.187-1.403-2.554"/></g><path fill="url(#h)" d="M432.2 481.35c0 2.27.13 4.45 1.12 6.03-.75 7.34-9.83 14.71-23.22 23.08q-.555-2.37-2.61-3.21c1.12-3.16 1.24-6.46.37-8.6 10.62-6.15 17.87-11.14 24.34-17.3" transform="translate(171.36 -64.474)scale(.86592)"/><g fill="#fd0"><path d="M546.806 358.407q.568-2.637 1.047.597c.113 1.663-.77 5.005-3.35 7.638-4.685 5.204-10.374 9.265-16.436 12.92-1.091.432-2.009-1.222-.9-1.707 7.542-4.286 16.175-10.815 18.383-15.508.64-1.065 1.004-2.434 1.256-3.94M545.186 395.078c.381-2.147.511-4.043-1.039-4.208 4.503-7.43 3.992-17.474.156-15.43l-.156-6.937a71.8 71.8 0 0 1-10.824 8.91c.026.442.06.884.087 1.325-3.905-1.073-4.408 4.65 2.078 11.968-1.689.64-1.732 1.749-1.065 3.325.71.502 2.46 1.766 2.347 3.446.536-.087.909-.251 1.446-.329 2-7.153 1.93-14.885 1.68-22.375.97 8.702 1.532 16.963-.72 22.124.72.277 1.127.658 1.204 1.16 1.334-2.095 3.049-2.65 4.806-2.979"/><path d="M515.598 386.03c-1.186-7.863 1.888-15.007 1.524-22.86-.658 9.195-4.338 15.993-2.97 22.704-1.429-.511-1.931-3.187-2-6.858-3.36-7.482-3.958-12.885 1.524-13.7 1.117-9.836 8.607-12.607 7.368.494 3.603-1.09 3.49 3.854 2.33 10.487q3.766.831 2.961 5.61c-4.884-4.485-10.642-4.199-6.408 6.357-2.13 1.532-2.216 2.07-.64 4.788.744 1.377 1.489 2.745 2.242 4.13-.06 1.031-.536 1.282-1.446.737-1.039-2.399-2.528-4.555-3.922-6.763-.303-1.637-.598-3.317-.563-5.126"/><path d="M526.656 409.712c-1.585-3.048-3.17-6.104-4.754-9.152q-.767-2.637.987-2.312c-.182-2.13-7.083-7.534-.814-9.344-6.789-10.295 2.399-12.46 4.676-2.035 1.784-4.442 5.221-2.78 6.018 8.322 2.944.104 7.066 5.499-3.594 16.652.988 1.42.537 2.346-1.35 2.77-.234-.891-.477-1.783-.72-2.675 4.616-7.759 2.971-16.392-2.96-25.623 4.052 8.798 6.373 17.068 2.51 23.397"/><path d="M543.619 404.37c8.339-8.192 1.68-11.344-3.775-4.529-1.135-2.503-2.399-2.529-3.776-.095-.312 4.104-1.896 8.053-6.286 11.655v2.035c4.667-1.931 8.693-7.473 12.85-12.305-4.927 7.56-9.932 13.413-15.093 15.543.242.832.476 1.663.719 2.494 8.382-.086 11.854-2.035 10.417-5.827 6.78-4.39 9.897-7.785 4.944-8.971M510.8 377.284c-.735-1.247-1.324-1.117-1.749.39-.26 5.463 3.637 14.192 10.392 25.154 3.463 5.715 5.593 12.123 6.39 19.215q-.44 8.898 1.628-.26c-.208-7.481-2.251-14.443-6.14-20.894-5.394-8.123-10.157-16.167-10.52-23.605"/></g><path fill="url(#j)" d="M390.27 518.5c1.39 6.86 7.39 13.91 11.82 23 3.72 7.88 7.51 15.34 6.11 25.26-1.59 1.24-4.7 3.52-6.29 4.77-2-7.81-5.13-16.07-9.45-22.95-5.13-8.86-7.66-17.14-6.24-23.22 1.35-2.29 2.7-4.57 4.05-6.86" transform="translate(171.36 -64.474)scale(.86592)"/><g fill="#fd0"><path d="M483.005 408.275c2.545-3.29 4.935-5.828 6.252-3.126 6.139-7.785 8.304-6.659 9.351-3.048q1.146-.807 2.304-1.628c.563 2.104 1.22 4.165 2.502 5.906-.571.424-1.212.788-2.312.675 5.326 3.845-.156 5.473-7.17 6.78 3.248 3.732-.268 5.828-10.538 6.304q.858.713-.13 1.697c-2.234-1.108-4.935-1.273-7.706-1.29.225-1.602.9-2.58 1.654-3.455 3.108-1.247 5.464-2.883 6.918-5.239 4.98-3.394 9.984-5.862 16.652-7.914-5.62 1.524-10.711 1.905-16.513 5.55-.615-.25-1.36-.242-1.264-1.212M507.943 416.155c1.334 1.697 2.468 3.602 3.628 5.481-1.151.693-3.143.269-4.823.416-.918-.364-1.126-1.074-.814-1.983-.84-1.49-1.29-1.732-2.658-2.503 1.671-.112 3.35-.571 4.667-1.411"/><path d="M495.846 415.964c6.408.468 9.75 2.252 8.633 5.984 7.084 2.416 10.703 5.005 6.694 7.984 5.031 4.693 5.057 12.166-4.174 3.403.035 6.156-6.217.19-8.13-3.992-.884 6.14-7.76 4.052-8.894-1.438-1.36-2.935-3.507-4.667-6-5.853.112-.468.216-.935.328-1.412 2.287 1.057 5.49.32 8.937-.926 4.667 1.048 10.287 4.684 17.613 12.92-3.854-6.738-9.63-10.903-16.107-14.141 1.646-.944 2.018-1.784 1.1-2.529"/><path d="M504.384 392.983c1.152 7.81 4.053 14.989 8.123 21.561 3.039 5.611 5.195 11.846 5.948 17.457-1.333 4.148-3.818 7.335-2.07-1.299-1.125-7.369-3.93-12.72-7.766-18.894-3.222-4.737-4.711-10.227-5.655-15.742-.857-4.417 1.75-7.101 2.243-6.062.216.468-1.152 1.654-.823 2.979M451.277 418.77c4.347-2.97 7.993-6.226 11.231-9.638 1.68-1.766 3.42-2.953 5.646-.026 5.611-7.42 9.447-10.512 9.36-4.06 3.464-7.023 15.431-6.547 4.131 3.757 6.815 2.477-3.801 7.56-7.897 7.698 4.762 3.3-3.1 9.179-11.941 8.149-1.845-1.247-3.698-2.503-5.542-3.75 11.768-3.308 18.427-9.257 25.164-15.153-8.642 6.745-17.613 12.374-27.727 14.01-.805-.329-1.62-.658-2.425-.987"/><path d="M474.103 421.385c6.538-1.385 19.691 6.875 14.123 10.65 4.278 2.884 9.1 5.76 4.754 8.634 3.351 7.828-2.243 10.391-5.585 2.096-3.715 6.364-9.37-1.533-8.27-6.01-2.918 9.387-9.802-3.524-11.664-7.984-.545 5.118-2.312-2.043-3.628-3.074 3.455.052 5.057.667 7.707-1.36 8.295 2.858 14.73 9.803 20.003 19.285-9.3-17.561-14.124-18.557-18.496-20.678.103-.468.952-1.091 1.056-1.559M471.938 403.538c.468-.536.944-1.073 1.412-1.61-2.044-2.148-5.213-1.342-8.893.805-5.499 5.386-11.37 10.53-17.544 15.465.736.113 1.472.226 2.217.338 5.784-4.658 11.447-9.395 16.669-14.365 2.32-1.42 4.442-1.975 6.14-.633"/></g><path fill="url(#m)" d="M337.56 539.15c-4.37-1.17-8.76-1.24-13.2 1.13-6.99 4.38-11.66 9.55-15.5 15 2.82.64 5.65 1.28 8.47 1.93 7.66-5.66 14.37-11.69 20.23-18.06" transform="translate(171.36 -64.474)scale(.86592)"/><path fill="#fd0" d="M456.854 401.581c-1.507.035-3.1.615-4.71 1.265-5.326 3.04-10.01 7.628-14.271 13.283-.598-.026-1.204-.043-1.81-.06 3.446-5.421 8.044-10.002 13.777-13.743 4.156-2.381 6.927-2.303 7.014-.745M503.96 409.565c1.013 1.533 2.017 3.066 3.03 4.607-1.515 1.42-3.558 2.121-6.121 2.104-2.91-.32-2.408-2.095-.736-2.953 2.857-.06 4.139-.995 3.827-3.758"/></g><path fill="url(#n)" d="M302.17 576.96c18.85 2.85 25.64 5.01 25.75 6.89-.1 4.38-17.22-2.64-25.75-6.89" transform="translate(171.36 -64.474)scale(.86592)"/><path fill="#fd0" d="M394.68 429.655c7.959-7.958 20.41-9.872 32.55-10.175 13.163.078 27.009 3.048 35.036 11.205 1.533 2.797 2.398-.043 1.62-1.16-7.855-7.828-20.038-12.071-36.534-12.712-19.726.918-29.164 5.369-33.918 11.43-.953.996-.424 5.022 1.247 1.412"/><path fill="url(#o)" d="M259.05 570.49c10.05-7.15 20.61-10.69 37.3-10.38 14.39.47 27.32 3.04 37.87 11.42 4.34 3.56-5.08 4.94-2.73 9.64-8.83-6.24-21.5-7.27-34.57-7.56-12.97-.27-24.81 1.54-34.7 8.01.81-5.19-6.29-5.49-3.17-11.13" transform="translate(171.36 -64.474)scale(.86592)"/><path fill="#fd0" d="M425.915 435.05c.415 0 1.827.389 2.242.389-7.533 4.988-15.569 10.278-26.246 8.728-6.416-1.896-3.524-3.342-2.494-4.883 8.85-4.798 18.332-6.538 28.177-6.547 10.322.087 20.531 1.057 30.178 6.296 1.021 1.94 3.723 4.06-1.992 5.264-12.72.987-21.388-4.97-27.493-9.248.58-.13 1.533-.06 2.122-.19 10.321 8.33 28.073 9.395 26.99 6.745 2.72.572-9.698-7.654-28.8-6.936-14.963.139-29.606 4.598-28.307 7.187 3.905 3.888 16.998-1.827 25.623-6.806"/></g><g id="b" transform="translate(171.36 -64.474)scale(.86592)"><use xlink:href="#p" width="282.094" height="341.78" transform="rotate(20.976 322.526 377.357)"/><g id="p" clip-rule="evenodd"><path d="M375.338 269.259c-.336-.665-.662-1.332-.989-2-1.354.318-2.703.623-4.029 1.048-.343-.683-.673-1.36-1.015-2.043-6.24 1.764-10.913 6.122-16.762 8.721l1.675 1.891c2.586-1.36 4.566-3.11 7.018-4.686.578.627 1.147 1.256 1.728 1.892 2.275-1.167 6.407-3.387 8.96-3.9.74-.193-.283.128-.522.229-1.35.53-4.403 2.268-5.728 2.864.578.626 1.146 1.256 1.728 1.892 3.924-2.547 8.102-3.908 12.376-4.45l-1.089-2.208c-1.123.252-2.24.492-3.35.75m-14.093 2.928c1.816-1.166 5.721-2.968 7.842-3.437-1.996.828-5.86 2.572-7.842 3.437m20.457 4.345c.805-.218 1.625-.367 2.451-.528-.364-.74-.734-1.466-1.098-2.205-6.716 1.772-14.158 5.507-19.934 8.1.578.627 1.147 1.257 1.725 1.883 4.976-2.42 12.26-5.946 16.856-7.25m-17.121.65c.578.626 1.156 1.252 1.725 1.882 4.039-2.185 9.88-4.75 14.43-5.577.381-.123 1.037-.113 1.247-.32l-1.06-2.134c-5.487 1.32-11.847 4.123-16.342 6.148"/><path fill="#fd0" stroke="#000" stroke-width=".808" d="m366.783 283.48 1.036 1.415c3.83-2.031 11.032-4.5 16.082-5.42l-.688-1.514c-5.395 1.338-11.18 3.113-16.43 5.518z"/><path fill="#fd0" d="M364.326 282.135c.221.247.452.492.674.74 3.895-2.056 12.959-6.477 18.059-7.405-.137-.28-.236-.541-.377-.83-5.647 1.433-13.076 5.088-18.356 7.495M365.793 277.42c.225.256.443.495.674.739 3.886-2.052 9.376-4.527 14.476-5.456l-.412-.838c-4.76 1.067-10.334 3.574-14.738 5.554M366.889 273.522c.222.248.443.496.674.74 4.252-2.414 6.222-3.2 11.146-4.083a29 29 0 0 1-.421-.835c-4.872 1.024-6.877 1.544-11.4 4.178M362.46 272.45c.222.248.414.475.636.722 3.7-1.864 5.904-3.048 11.257-4.242-.137-.28-.264-.531-.401-.81-3.561.561-9.01 3.202-11.492 4.33M353.639 275.272l.676.718c3.883-2.062 9.922-7.106 15.032-8.037-.137-.28-.288-.565-.425-.845-5.335 1.498-8.699 4.85-15.283 8.164"/><path fill="#fd0" stroke="#000" stroke-width=".808" d="m349.98 275.502.956.89c3.018-3.787 14.072-10.838 17.489-11.271l-.998-1.345c-5.758 1.85-14.522 8.198-17.446 11.726z"/></g><g clip-rule="evenodd"><path d="m342.99 294.2-.01-.01v.01zm-1.02-10.81.35-.67.58-.89.68-.9.79-.9.89-.92 2.58-2.44.57 1.53.07-.31.34-1.05.43-1 .54-.96.62-.91.72-.87.8-.82.89-.79 2.65-2.03.78 2.88.15.88.08.89v.09l.81-.64.99-.58 1.09-.46 1.19-.35 1.28-.24 1.39-.13 1.48-.03 1.6.07 3.57.37-1.24 3.12-.59 1.27-.65 1.16-.7 1.06-.76.95-.81.84-.86.73-.23.15.66.11.98.22 1 .27 2.86.9-1.58 2.29-.5.65-.49.59-.51.54-.51.49-.52.44-.54.39-.54.34-.55.29-.56.24-.57.2-.57.16-.56.11-.57.08h-.06l-2.54 2.05-1.29.89-1.25.72-1.2.55-1.16.41-1.11.27-.04.01 3.72.96-3.55 2.86-1.29.89-1.25.71-1.2.55-1.16.41-1.11.28-1.06.16-1.01.07h-.95l-.88-.05-.83-.07-.77-.08-.7-.07-.65-.04-.59.01-1.69.16-.88-2.14-.41-1.11-.34-1.06-.26-1.04-.17-1-.09-.99.03-.98.13-.96.25-.95.36-.93.47-.9.58-.9.68-.89.79-.9.89-.92 2.57-2.44zm7.23 4.05-.14-.48-.2.58zM357.71 308.92l.27-.64.57-1.06.67-1.02.76-.96.86-.9.95-.84 1.05-.78 1.14-.71 1.23-.65 3.17-1.41.08 1.01.02-.06.67-1.01.77-.96.85-.9.95-.84 1.05-.78 1.14-.71 1.23-.65 3.18-1.41.19 2.74.47-.76.7-.9.77-.84.85-.76.92-.68.99-.6 1.06-.53 1.12-.44 2.84-.89.25 2.74.01.98-.06.95-.08.56.78-.72.9-.62.99-.48 1.06-.34 1.13-.2 1.18-.05 1.23.09 1.29.23 1.35.36 1.4.49 1.47.63 3.22 1.59-2.25 2.49-1.01.99-1.01.86-1.03.74-1.04.63-1.05.5-1.07.38-.21.05.11.06.52.29.51.32.5.35.5.37.49.4 1.85 1.62-2.2 1.54-.72.44-.72.41-.71.36-.71.31-.72.27-.72.23-.71.19-.71.15-.71.11-.71.08-.7.04-.7.01-.69-.03-.69-.05-.34-.04.16.12-2.44 1.61-.76.46-.74.43-.73.39-.72.35-.71.31-.7.28-.69.24-.68.21-.67.17-.66.14-.65.1-.64.07-.63.04-.45.01 1.93 1.5-2.43 1.61-.76.46-.74.43-.73.39-.72.35-.72.31-.69.28-.69.24-.68.21-.67.17-.66.14-.65.1-.64.08-.61.04.44.25.52.32.5.35.5.36.49.4 1.84 1.62-2.2 1.54-.71.45-.72.4-.71.36-.72.31-.72.28-.71.23-.72.19-.71.14-.71.12-.7.07-.71.04-.69.01-.7-.02-.69-.06-.68-.08-.68-.1-.67-.13-.67-.15-.66-.18-.66-.19-.65-.21-.65-.22-.64-.24-.64-.25-.64-.26-.63-.27-.63-.28-.63-.28-.62-.29-.62-.29-1.5-.71.14-2.35.16-1.36.23-1.29.3-1.23.38-1.18.46-1.1.54-1.05.61-.98.7-.91.77-.83.85-.76.92-.68.99-.61 1.05-.52 1.13-.44zm1.64 10.64-.05-.03-.48-.3-.47-.31-.46-.32-.46-.34-.09-.08-.07.11-.51.73-.46.59h.06l.58-.04.58-.02.58-.01h.58l.57.02zm8.3-7.4-.28-.22-.89-.69-.12.21-.55.8.57-.06 1.03-.05zm8.53-6.26.04-.64-.48.69zm10.47-4.91-.65-.41-.37.47.06-.01.59-.04z"/><g fill="#fd0"><path d="M387.32 299.7c2.11-5.66 6.62-7.3 14.67-3.07-5.02 5.89-9.89 6.34-14.67 3.07"/><path d="M397.81 306.1c-4.62-4.22-10.41-4.19-16.52-2.97 3.84-2.87 6.28-6.37 5.66-11.23-5.94 1.61-9.03 6.06-9.28 13.37 6.54 3.11 13.1 5.97 20.14.83M368.48 324.67c-4.63-4.23-10.41-4.2-16.52-2.97 3.83-2.88 6.28-6.38 5.66-11.23-5.94 1.61-9.04 6.06-9.29 13.36 6.55 3.12 13.11 5.97 20.15.84"/><path d="M377.02 295.8c.48 4.91-1.25 9.32-6.22 13 5.07-2.11 9.99-2.36 14.57 1.48-7.91 5.36-13.1 3.75-17.54.19-.3-6.75 2.31-11.89 9.19-14.67"/><path d="M367.08 302.11c.48 4.91-1.25 9.32-6.22 13 5.08-2.11 10-2.35 14.58 1.48-7.91 5.36-13.11 3.75-17.54.19-.31-6.75 2.31-11.88 9.18-14.67M355.16 281.46c-.01-6.05 3.65-9.16 12.67-8.01-2.64 7.27-7.05 9.4-12.67 8.01"/><path d="M367.23 283.78c-5.22-1.75-9-1.39-14.75 1.44 1.54-4.56 3.39-9.48 2.15-13.29-5 3.58-6.34 8.25-4.01 15.18 7.22.63 11.81 3.95 16.61-3.33"/><path d="M347.25 279.23c1.75 4.43 1.03 6.03-1.09 11.21 4.02-2.64 6.98-2.26 12.61-.76-6.91 5.95-10.97 2.99-14.61 3.56-2.64-6.21-2.38-9 3.09-14.01"/><path d="M341.36 285.9c1.75 4.43 1.03 6.03-1.08 11.21 4.02-2.65 6.97-2.26 12.6-.77-6.9 5.96-10.96 3-14.6 3.57-2.64-6.21-2.38-9 3.08-14.01M328.08 308.6c1.75 4.44 1.03 6.04-1.08 11.22 4.01-2.65 6.97-2.26 12.6-.77-6.91 5.96-10.97 3-14.61 3.57-2.64-6.21-2.38-9 3.09-14.02"/></g><path d="M328.42 306.94c.03.02.06.05.09.07l.78 2.08.26.78.2.75.15.72.09.7.04.68-.02.68-.07.67-.12.67-.16.67-.2.7-.25.72-.28.75-.05.13.68-.25.77-.23.77-.16.78-.11.79-.04h.8l.81.06.84.1.87.14.9.18.94.21.7.17c.5.72.98 1.46 1.45 2.21l-1.07.85-1.26.87-1.21.69-1.16.54-1.12.39-1.07.27-1.02.16-.97.06h-.91l-.87-.04-.81-.08-.77-.08-.71-.07-.67-.04-.63.01-1.36.13-.74-1.81-.4-1.09-.33-1.04-.25-.99-.17-.97-.08-.94.02-.93.12-.91.24-.89.34-.88.45-.86.56-.86.66-.86.77-.88.87-.91z"/><path fill="#fd0" d="M339.34 318.98c.04.06.08.12.12.19-6.82 5.8-10.85 2.88-14.47 3.45-2.64-6.21-2.38-9 3.09-14.02 1.75 4.44 1.03 6.04-1.08 11.22 3.95-2.61 6.87-2.27 12.34-.84"/></g></g><g fill-rule="evenodd" clip-rule="evenodd"><path d="m374.029 226.18.095-.536.095-.52.104-.528.104-.528.112-.52.122-.52.12-.519.122-.52.139-.51.138-.511.139-.511.147-.51.026-.096-7.031-5.568 3.273-7.3 8.295 1.957.122-.216.181-.338.191-.329.19-.338.2-.329.19-.329.2-.329.198-.329.018-.017-5.507-7.257 5.005-6.252 7.81 4.114.286-.295.364-.364.372-.363.364-.355.372-.355.381-.355.372-.347.381-.346.39-.346.182-.156-4-6.832 5.706-5.62 8.113 5.594.364-.19.78-.417.787-.398.797-.39.805-.38.806-.364.822-.347.823-.337.831-.33.831-.311.849-.294.849-.286.857-.277.857-.251.866-.252.875-.233.874-.208.883-.208.892-.19.892-.174.9-.156.901-.147.91-.13.917-.112.91-.104.926-.087.927-.069.926-.052.935-.043.936-.026.944-.009.891.009.884.026.883.034.883.044.875.069.874.078.866.086.866.104.866.113.857.13.858.147.848.156.84.173.84.182.831.19.832.208.83.225.815.226.814.25.814.252.805.268.797.286.796.294.788.303.78.312.78.33.761.337.77.355.754.364.753.372.32.156 8.496-5.854 5.715 5.611-4.07 6.954.138.121.39.329.39.338.39.337.38.338.381.347.373.346.372.355.372.355.312.312 7.837-4.122 5.005 6.252-5.334 7.04.164.25.2.313.198.311.2.312.19.32.19.312.191.32.121.2 8.521-2.01 3.282 7.3-6.954 5.508.061.19.173.546.173.554.165.563.156.554.147.563.147.563.139.563.138.571.122.572.13.571.112.572.113.58.104.571.095.59.095.58.087.58.078.588.069.59.07.588.06.597.06.59.044.597.043.597.035.598.034.597.018.606.017.606.017.598v.632l-.07 2.814-.216 2.806-.355 2.762-.485 2.72-.623 2.675-.745 2.624-.874 2.571-.987 2.512-1.117 2.45-1.221 2.381-1.334 2.321-1.446 2.243-1.541 2.165-1.646 2.095-1.74 2.009-1.827 1.922-1.931 1.827-2 1.75-2.096 1.636-2.165 1.55-2.251 1.438-2.312 1.333-2.39 1.23-2.45 1.108-2.503.996-2.572.866-2.624.753-2.675.615-2.72.494-2.762.346-2.805.216-2.84.07-2.832-.07-2.806-.216-2.762-.346-2.728-.494-2.667-.615-2.623-.753-2.572-.866-2.511-.996-2.45-1.108-2.382-1.23-2.32-1.333-2.243-1.438-2.174-1.541-2.087-1.645-2.009-1.75-1.922-1.827-1.827-1.922-1.75-2.009-1.636-2.087-1.55-2.173-1.437-2.243-1.334-2.32-1.23-2.382-1.108-2.45-.996-2.512-.866-2.571-.753-2.624-.615-2.667-.493-2.728-.347-2.762-.216-2.806-.07-2.814v-.571l.01-.555.008-.554.026-.545.017-.555.035-.545.034-.546.035-.545.052-.546.052-.537.052-.536.06-.546.07-.537.078-.537.07-.528.086-.537zm54.553 47.843-1.983-.052-1.957-.147-1.931-.251-1.897-.338-1.87-.433-1.827-.52-1.793-.606-1.758-.701-1.705-.77-1.663-.858-1.62-.927-1.567-1.013-1.515-1.074-1.463-1.151-1.394-1.213-1.343-1.281-1.281-1.342-1.212-1.403-1.152-1.455-1.083-1.515-1.004-1.567-.927-1.62-.857-1.662-.78-1.715-.692-1.749-.606-1.792-.52-1.828-.433-1.87-.346-1.896-.242-1.931-.148-1.957-.051-1.983.051-1.983.148-1.957.242-1.923.346-1.905.433-1.861.52-1.827.606-1.801.693-1.75.78-1.714.856-1.663.927-1.61 1.004-1.576 1.083-1.507 1.152-1.463 1.212-1.403 1.281-1.342 1.343-1.282 1.394-1.212 1.463-1.143 1.515-1.083 1.568-1.004 1.62-.935 1.662-.858 1.705-.77 1.758-.693 1.793-.615 1.827-.52 1.87-.432 1.897-.338 1.93-.251 1.958-.147 1.983-.052 1.982.052 1.957.147 1.923.251 1.905.338 1.862.433 1.835.52 1.793.614 1.749.693 1.714.77 1.663.858 1.61.935 1.568 1.004 1.515 1.074 1.464 1.152 1.402 1.212 1.343 1.282 1.281 1.342 1.213 1.403 1.143 1.463 1.082 1.507 1.004 1.576.936 1.61.848 1.663.78 1.714.692 1.75.606 1.8.529 1.828.433 1.861.337 1.905.243 1.923.156 1.957.043 1.983-.043 1.983-.156 1.957-.243 1.93-.337 1.897-.433 1.87-.529 1.828-.606 1.792-.692 1.758-.78 1.706-.848 1.662-.936 1.62-1.004 1.567-1.082 1.515-1.143 1.464-1.213 1.402-1.281 1.334-1.343 1.281-1.402 1.221-1.464 1.143-1.515 1.083-1.567 1.004-1.611.927-1.663.857-1.714.78-1.75.692-1.792.606-1.835.52-1.862.433-1.905.346-1.923.243-1.957.147z"/><path fill="#cec8ea" d="m378.774 256.419-.97-2.45-.857-2.512-.728-2.563-.606-2.615-.476-2.659-.346-2.701-.208-2.737-.07-2.77v-.546l.01-.546.016-.537.018-.536.017-.537.035-.537.034-.528.035-.537.043-.528.052-.529.06-.528.053-.528.07-.528.068-.52.078-.52.078-.519.087-.52.086-.519.096-.51.104-.52.104-.511.112-.511.113-.502.112-.511.13-.503.13-.502.13-.502.138-.502.148-.494.138-.493.13-.407-6.936-5.49 2.45-5.473 8.227 1.94.208-.39.173-.329.182-.33.182-.328.181-.32.19-.33.191-.32.19-.32.191-.32.2-.321.199-.32.268-.425-5.43-7.17 3.742-4.684 7.74 4.078.226-.242.346-.364.355-.364.355-.355.356-.355.355-.355.372-.346.364-.346.372-.338.372-.338.373-.338.38-.329.59-.493-4.036-6.902 4.27-4.2 7.905 5.447.269-.147.753-.424.762-.398.78-.39.77-.381.788-.373.797-.355.796-.337.805-.338.806-.312.822-.303.823-.294.831-.277.832-.269.84-.25.848-.243.857-.225.858-.208.857-.2.874-.19.875-.164.875-.156.883-.147.883-.122.892-.112.9-.104.901-.078.9-.07.91-.051.918-.044.909-.017.927-.009.865.009.875.017.857.035.866.043.857.07.85.069.848.086.848.104.84.113.84.13.831.138.832.156.822.165.823.182.814.19.814.2.805.216.806.225.796.242.788.251.788.26.78.277.779.286.762.294.762.312.762.32.753.33.745.346.736.355.736.364.727.372.251.13 8.27-5.698 4.269 4.2-4.113 7.04.58.467.381.32.381.321.381.33.381.328.372.338.373.338.363.337.364.347.364.346.355.355.597.598 7.742-4.079 3.74 4.685-5.282 6.97.251.373.2.303.199.303.199.303.19.312.19.303.191.312.19.311.183.312.19.312.182.312.208.372 8.425-1.992 2.45 5.464-6.875 5.447.165.476.173.537.173.537.165.545.156.537.156.554.147.546.138.545.139.555.13.554.13.563.12.554.113.563.104.563.104.562.096.572.086.571.087.572.078.571.069.572.07.58.06.58.052.58.052.58.043.58.035.59.026.588.026.59.008.588.009.589.009.606-.07 2.762-.216 2.737-.338 2.701-.476 2.659-.606 2.615-.736 2.563-.849 2.511-.97 2.45-1.082 2.4-1.204 2.329-1.299 2.26-1.411 2.199-1.507 2.122-1.61 2.034-1.698 1.966-1.792 1.88-1.88 1.792-1.965 1.705-2.043 1.602-2.122 1.507-2.19 1.412-2.27 1.307-2.329 1.195-2.39 1.082-2.459.97-2.502.858-2.563.727-2.616.606-2.658.476-2.702.347-2.736.208-2.78.069-2.77-.07-2.745-.207-2.702-.347-2.658-.476-2.607-.606-2.563-.727-2.511-.858-2.45-.97-2.4-1.082-2.329-1.195-2.268-1.307-2.191-1.412-2.122-1.507-2.043-1.602-1.966-1.705-1.879-1.793-1.792-1.879-1.698-1.966-1.61-2.034-1.507-2.122-1.411-2.2-1.3-2.26-1.194-2.329zm49.808 17.604-1.983-.052-1.957-.147-1.931-.251-1.897-.338-1.87-.433-1.827-.52-1.793-.606-1.758-.701-1.705-.77-1.663-.858-1.62-.927-1.567-1.013-1.515-1.074-1.463-1.151-1.394-1.213-1.343-1.281-1.281-1.342-1.212-1.403-1.152-1.455-1.083-1.515-1.004-1.567-.927-1.62-.857-1.662-.78-1.715-.692-1.749-.606-1.792-.52-1.828-.433-1.87-.346-1.896-.242-1.931-.148-1.957-.051-1.983.051-1.983.148-1.957.242-1.923.346-1.905.433-1.861.52-1.827.606-1.801.693-1.75.78-1.714.856-1.663.927-1.61 1.004-1.576 1.083-1.507 1.152-1.463 1.212-1.403 1.281-1.342 1.343-1.282 1.394-1.212 1.463-1.143 1.515-1.083 1.568-1.004 1.62-.935 1.662-.858 1.705-.77 1.758-.693 1.793-.615 1.827-.52 1.87-.432 1.897-.338 1.93-.251 1.958-.147 1.983-.052 1.982.052 1.957.147 1.923.251 1.905.338 1.862.433 1.835.52 1.793.614 1.749.693 1.714.77 1.663.858 1.61.935 1.568 1.004 1.515 1.074 1.464 1.152 1.402 1.212 1.343 1.282 1.281 1.342 1.213 1.403 1.143 1.463 1.082 1.507 1.004 1.576.936 1.61.848 1.663.78 1.714.692 1.75.606 1.8.529 1.828.433 1.861.337 1.905.243 1.923.156 1.957.043 1.983-.043 1.983-.156 1.957-.243 1.93-.337 1.897-.433 1.87-.529 1.828-.606 1.792-.692 1.758-.78 1.706-.848 1.662-.936 1.62-1.004 1.567-1.082 1.515-1.143 1.464-1.213 1.402-1.281 1.334-1.343 1.281-1.402 1.221-1.464 1.143-1.515 1.083-1.567 1.004-1.611.927-1.663.857-1.714.78-1.75.692-1.792.606-1.835.52-1.862.433-1.905.346-1.923.243-1.957.147z"/><path d="m428.582 280.292-2.304-.06-2.277-.174-2.243-.286-2.208-.398-2.165-.502-2.13-.606-2.078-.71-2.044-.806-1.983-.9-1.94-.987-1.878-1.091-1.819-1.17-1.758-1.246-1.697-1.334-1.636-1.411-1.56-1.49-1.48-1.558-1.411-1.637-1.342-1.688-1.247-1.767-1.17-1.818-1.09-1.88-.988-1.93-.9-1.992-.805-2.035-.71-2.087-.607-2.13-.502-2.165-.398-2.208-.286-2.243-.173-2.277-.06-2.303.06-2.304.173-2.268.286-2.243.398-2.208.502-2.174.606-2.121.71-2.087.806-2.035.9-1.991.988-1.931 1.09-1.88 1.17-1.827 1.247-1.757 1.342-1.698 1.411-1.628 1.48-1.558 1.56-1.49 1.636-1.411 1.697-1.334 1.758-1.255 1.819-1.17 1.879-1.082 1.94-.995 1.982-.9 2.044-.806 2.078-.702 2.13-.614 2.165-.503 2.208-.39 2.243-.285 2.277-.182 2.295-.052 2.312.052 2.269.182 2.242.286 2.208.39 2.174.502 2.121.614 2.087.702 2.035.805 1.992.9 1.93.996 1.88 1.083 1.827 1.169 1.758 1.255 1.697 1.334 1.628 1.411 1.559 1.49 1.489 1.558 1.411 1.628 1.334 1.698 1.255 1.757 1.17 1.827 1.082 1.88.996 1.93.9 1.983.806 2.044.7 2.087.607 2.121.502 2.174.399 2.208.285 2.243.174 2.268.06 2.304-.06 2.303-.174 2.277-.285 2.243-.39 2.208-.51 2.165-.607 2.13-.701 2.078-.806 2.044-.9 1.983-.996 1.94-1.083 1.879-1.169 1.818-1.255 1.758-1.334 1.697-1.411 1.637-1.49 1.558-1.558 1.481-1.628 1.412-1.697 1.333-1.758 1.256-1.827 1.169-1.88 1.082-1.93.996-1.992.9-2.035.806-2.087.71-2.121.606-2.174.502-2.208.398-2.242.286-2.278.173zm0-8.97-1.845-.044-1.818-.139-1.793-.234-1.766-.32-1.74-.398-1.698-.485-1.671-.563-1.628-.65-1.593-.718-1.55-.797-1.498-.866-1.464-.935-1.403-1.004-1.36-1.065-1.307-1.126-1.247-1.195-1.186-1.247-1.134-1.308-1.065-1.35-1.005-1.412-.935-1.455-.866-1.506-.797-1.55-.718-1.585-.641-1.637-.572-1.662-.484-1.706-.399-1.732-.32-1.766-.225-1.801-.139-1.819-.052-1.844.052-1.836.139-1.827.225-1.793.32-1.766.399-1.732.484-1.706.572-1.662.64-1.637.72-1.585.796-1.55.866-1.506.935-1.455 1.005-1.411 1.065-1.351 1.134-1.308 1.186-1.247 1.247-1.186 1.308-1.134 1.36-1.065 1.402-1.005 1.464-.935 1.498-.866 1.55-.797 1.593-.718 1.628-.65 1.671-.563 1.697-.485 1.732-.407 1.767-.311 1.8-.234 1.82-.139 1.844-.043 1.844.043 1.818.139 1.793.234 1.766.311 1.732.407 1.706.485 1.663.563 1.636.65 1.585.718 1.55.797 1.506.866 1.455.935 1.412 1.005 1.36 1.065 1.298 1.134 1.247 1.186 1.195 1.247 1.126 1.308 1.065 1.35 1.004 1.412.935 1.455.866 1.506.797 1.55.719 1.585.65 1.637.562 1.662.485 1.706.407 1.732.312 1.766.233 1.793.139 1.827.043 1.836-.043 1.844-.139 1.819-.233 1.8-.312 1.767-.407 1.732-.485 1.706-.563 1.662-.64 1.628-.728 1.594-.797 1.55-.866 1.506-.935 1.455-.996 1.403-1.073 1.36-1.126 1.307-1.195 1.247-1.247 1.186-1.299 1.135-1.36 1.065-1.41 1.004-1.456.935-1.506.866-1.55.797-1.585.719-1.628.64-1.671.572-1.706.485-1.732.398-1.766.32-1.793.226-1.818.138z"/><path d="M428.582 186.903c26.713 0 48.5 21.786 48.5 48.5s-21.787 48.509-48.5 48.509c-26.723 0-48.51-21.796-48.51-48.51s21.787-48.5 48.51-48.5m0 2.286c25.458 0 46.214 20.756 46.214 46.214s-20.765 46.223-46.214 46.223c-25.459 0-46.223-20.765-46.223-46.223s20.764-46.214 46.223-46.214"/><path fill="#cec8ea" d="M428.582 278.655c-23.822 0-43.253-19.43-43.253-43.252s19.431-43.244 43.253-43.244 43.244 19.422 43.244 43.244-19.423 43.252-43.244 43.252m0-5.94c-20.549 0-37.313-16.764-37.313-37.312s16.764-37.304 37.313-37.304 37.303 16.755 37.303 37.304-16.755 37.312-37.303 37.312"/></g><g fill-rule="evenodd"><path d="m393.92 161.3-.148-1.03 1.048-.008c10.997-.165 22.046-.286 33.095-.407 11.084-.122 22.168-.243 33.243-.407l1.048-.01-.13 1.04c-.295 2.494-.043 3.706.433 4.286.38.46 1.082.529 1.688.606l1.057.122-.277 1.021-12.28 45.392-.155.572-.58.095c-6.01 1.022-9.11-.07-11.586-.944-1.81-.632-3.247-1.134-5.43-.33.33.806.087 1.499-.536 2.08-.9.839-2.91 1.229-4.858 1.194-1.948-.026-3.923-.494-4.745-1.35-.52-.538-.72-1.152-.468-1.82-1.446-.363-2.961.113-4.892.72-3.239 1.013-7.525 2.355-14.513 1.108l-.563-.104-.156-.546c-2.087-7.325-4.165-14.65-6.252-21.977l-6.702-23.587-.295-1.022 1.057-.139c.797-.104 1.342-.493 1.654-1.134.372-.78.45-1.94.242-3.42"/><g clip-rule="evenodd"><path d="m461.331 163.613-.364 1.515-.363 1.507-.373 1.515-.363 1.507-.355 1.515-.364 1.516-.364 1.506-.355 1.516-.363 1.515-.355 1.507-.355 1.515-.364 1.515-.355 1.516-.355 1.515-.355 1.515-.355 1.516-.364 1.506-.355 1.516-.355 1.515-.364 1.516-.355 1.515-.363 1.515-.364 1.516-.355 1.506-.364 1.516-.372 1.515-.364 1.507-.372 1.515-.364 1.507-.502 2.026-1.377.407-.857.19-.831.122-.797.052h-.762l-.736-.052-.71-.095-.684-.139-.65-.165-.623-.199-.606-.216-.58-.225-.572-.234-.545-.234-.537-.234-.529-.216-.51-.208-.511-.182-.503-.164-.493-.13-.502-.096-.503-.069-.51-.017-.52.017-.537.07-.563.112-.597.182-.624.251-.658.32-.701.407-.736.494-.615.459-1.671-.762-.018-1.464-.017-1.627-.009-1.628-.017-1.628-.009-1.637-.017-1.628-.017-1.628-.009-1.628-.017-1.636-.018-1.628-.008-1.628-.017-1.628-.018-1.628-.008-1.628-.018-1.637-.008-1.627-.018-1.628-.017-1.628-.009-1.637-.017-1.628-.017-1.628-.009-1.628-.017-1.628-.018-1.636-.008-1.628-.018-1.628-.008-1.628-.018-1.637-.017-1.627-.009-1.628-.017-1.628-.017-2.182 1.853-1.03 1.36-.668 1.316-.554 1.281-.45 1.247-.364 1.212-.26 1.187-.181 1.151-.096 1.117-.026 1.1.052 1.065.113 1.04.173 1.012.217.996.268.97.312.961.337.935.364.927.39.91.398.9.407.9.416.892.407.892.407.883.38.9.373.893.346.9.32.91.278.926.251.935.2.953.146 2.052.208-.624 2.546z"/><path d="m394.69 164.366.407 1.498.39 1.498.398 1.498.39 1.507.39 1.498.389 1.498.39 1.498.38 1.507.39 1.498.381 1.498.381 1.506.381 1.498.381 1.507.381 1.498.381 1.498.381 1.507.39 1.498.38 1.507.382 1.498.39 1.506.38 1.498.39 1.499.39 1.506.39 1.498.39 1.507.398 1.498.398 1.507.398 1.498.399 1.506.536 1.992 1.438.442.926.208.9.138.858.07.831.008.797-.043.762-.104.736-.139.702-.182.684-.216.65-.225.631-.251.615-.26.589-.26.58-.26.572-.242.554-.234.545-.216.546-.19.537-.157.545-.13.537-.086.554-.044h.554l.58.044.607.112.632.165.658.242.701.312.745.398.788.494 1.403 1.004.909-.805-.026-1.992-.017-1.627-.026-1.628-.018-1.628-.026-1.628-.069-4.893-.017-1.628-.07-4.892-.017-1.628-.069-4.892-.017-1.628-.07-4.893-.026-1.628-.06-4.884-.026-1.627-.07-4.893-.017-1.628-.078-5.42-1.913-1.1-1.43-.719-1.376-.589-1.333-.467-1.282-.355-1.256-.251-1.203-.139-1.17-.052-1.142.043-1.091.122-1.074.19-1.03.26-1.014.312-.978.355-.961.398-.944.433-.927.459-.918.467-.909.477-.9.476-.9.476-.91.46-.91.45-.926.406-.926.39-.953.346-.961.295-.996.242-1.013.2-1.056.12-1.083.061-2.39-.043.728 2.693z"/><path fill="url(#q)" d="M296.89 304.6c-.18 3.54-.37 6.83-.55 10.36-8.73-6.14-14.98 5.15-23.88.98-4.42-18.45-9.97-36.82-14.39-55.27 14.42.41 20.41-14.86 37.91-5.54.19 2.94.45 6.78.64 9.73h.55c.18-2.95.37-6.46.55-9.41 15.78-9.49 25.99 3.51 36.94 4.41-4.42 18.45-9 37.39-13.42 55.84-12.05 2.55-12.55-7.85-23.71.15-.19-3.53-.45-7.71-.64-11.25" transform="translate(171.36 -64.47)scale(.86592)"/><path d="M394.733 164.513c-.372 1.29-1.238 2.07-2.598 2.252l12.963 45.564c12.262 2.2 15.977-3.879 20.644-1.35-3.56 3.429 11.404 3.74 7.836-.087 6.348-3.135 6.928 2.693 18.228.78l12.279-45.392c-1.065-.13-2.39-.243-2.866-2.182-3.69 15.119-7.136 30.307-10.86 45.417l-1.376.407c-2.892.632-5.152.355-7.836-.727-1.074-.425-2.113-.936-3.204-1.308-3.43-1.169-6.088.113-8.694 2.407-1.42-1.013-2.641-1.853-4.295-2.45-1.853-.494-3.325-.364-5.092.286-1.827.675-3.533 1.628-5.42 2.164-2.243.633-4.252.563-6.512.044l-1.438-.433c-4.07-15.093-7.74-30.29-11.759-45.392"/></g><path d="M352.979 215.23h151.224V373.2c-.277 6.919-2.295 12.261-5.637 16.14-3.594 4.148-8.677 6.582-14.782 7.456l-.13.009h-37.39c-3.94.121-7.083 1.818-9.759 4.174-2.762 2.424-5.057 5.55-7.222 8.373l-.692.892-.693-.892c-2.165-2.823-4.468-5.957-7.213-8.365-2.676-2.355-5.828-4.06-9.768-4.182h-37.39l-.121-.009c-6.105-.874-11.197-3.308-14.782-7.455-3.35-3.88-5.368-9.222-5.645-16.141z"/></g><g clip-rule="evenodd"><path fill="#fd0" fill-rule="evenodd" d="M353.853 216.101h149.483v157.061c-.562 13.898-8.27 21.137-19.682 22.765h-37.416c-8.365.251-13.258 7.178-17.648 12.885-4.381-5.698-9.291-12.634-17.647-12.885h-37.417c-11.412-1.628-19.11-8.867-19.673-22.765z"/><path d="M359.74 221.635h137.786l-.087 147.327c.2 3.144.07 5.932-.406 8.365-1.273 8.252-6.131 13.24-17.146 12.608h-34.61c-5.629 0-12.6 2.32-16.644 9.213-4.043-6.892-11.646-9.213-17.266-9.213H377.38c-11.015.632-15.873-4.356-17.154-12.608-.468-2.433-.598-5.221-.399-8.365z"/><path fill="#009640" d="M496.59 369.3c.096 1.61.105 3.213-.008 4.823-.026.32-.052.65-.086.97-.13 1.195-.347 2.381-.59 3.559l-.346 1.368-.441 1.273-.528 1.186-.615 1.1-.702.996-.796.9-.9.814-.494.373-.52.346-.545.32-.58.295-.607.268-.632.251-.675.217-.702.199-1.506.303-1.654.19-1.784.079-1.974-.061-35.183.009c-.762.034-1.515.086-2.277.181-.589.087-1.17.182-1.75.303-.605.139-1.186.286-1.774.46-.598.199-1.187.406-1.776.632-.588.26-1.16.528-1.74.822l-1.134.65c-.572.363-1.109.744-1.646 1.151l-1.056.884-1.005.978c-.692.762-1.359 1.541-1.93 2.399-.72-1.065-1.594-2.01-2.512-2.91l-1.082-.935-1.117-.84-1.17-.736a27 27 0 0 0-1.792-.944c-.614-.268-1.22-.52-1.844-.753a33 33 0 0 0-1.844-.572 47 47 0 0 0-1.836-.407 41 41 0 0 0-1.793-.25 33 33 0 0 0-2.268-.122h-34.014l-1.965.06-1.793-.077-1.645-.19-1.507-.304-.71-.2-.666-.216-.641-.25-.606-.27-.58-.294-.546-.32-.52-.346-.485-.373-.467-.39-.433-.415-.805-.91-.702-.995-.615-1.091-.528-1.186-.433-1.282-.355-1.368a41 41 0 0 1-.528-3.083c-.251-2.087-.268-4.165-.156-6.26l.017-.32-.086-146.488h136.062l-.095 146.487z"/><path d="m386.758 368.59-.338-.355-.208-.277-.156.07-1.948-.85-.979-.52-.857-.58-.762-.727-.606-1.021-.165-1.343.174-.45-.165-.095-.589-.468-.537-.545-.39-.511-.493-.606-.476-.823-.303-.926-.078-.996.164-.979.364-.9.52-.788.233-.269-.64-.753-.234-1.195-.095-.684-.061-.658-.017-.65.026-.632.086-.623.139-.606.216-.598.286-.571.355-.529.424-.476.503-.415.545-.338.364-.165-.052-.234-.095-.762-.044-.753.044-.745.112-.736.208-.71.286-.684.39-.64.458-.58.537-.52.59-.45.64-.382.675-.32.719-.26.294-.086.113-.477.182-.597.216-.58.269-.58.337-.563.416-.546.502-.502.606-.424.676-.338.727-.225.762-.113h.563l.2-.51.302-.667.33-.632.363-.598.398-.554.45-.511.486-.468.536-.407.572-.346.615-.277.65-.19.666-.122.667-.034.978.052.312-.416.416-.546.424-.493.424-.45.442-.407.459-.373.485-.329.52-.277.588-.208.64-.121.676.009.684.147.243.104.156-.234.424-.589.459-.545.476-.511.502-.477.537-.424.554-.39.59-.329.605-.285.633-.234.649-.173.658-.113.667-.06.805-.01.035-.129.234-.606.51-.745 1.092-.658 1.117.078.528-.528.52-.095v-.901l1.714-.32.182-.078.268-.13.32-.165.243-.112.07-.078.216-.225.069-.858.39-.935.632-.719.71-.502.753-.338 2.2-.675.138.208.156-.095v-.052l.156-.762.312-.754.476-.675.606-.546.684-.407.71-.277 2.72-.606.233 1.195.026-.017v-.018l1.1-1.1-.19-1.09-.209-1.152-.199-1.126-.164-1.09-.139-1.066-.078-1.039v-1.013l.104-1.013.26-1.013.485-.987.753-.875.996-.65 1.117-.372.805-.086-.026-.13-.086-.485-.07-.476-.069-.485-.06-.477-.052-.485-.044-.484-.034-.485-.026-.485-.018-.485-.008-.485v-.494l.017-.485.017-.493.035-.485.052-.494.052-.485.13-.96-.234.155-.883.476-.823.303-.918.07-.952-.433-.13-.234-.78.147-.71.139-.606.13-.52.095-.493.07-.615-.01-.84-.39-.372-.9.078-.675.165-.494.199-.493.25-.572.304-.684.07-.164-.451-.13-.563-1.308.346-1.1.537-.84.684-.84.806-.883.467-.485-.017-.329.052-.52.13-.51-.165-.173-.234-.225-.242-.208-.26-.2-.277-.181-.286-.165-.303-.164-.32-.148-.33-.138-.337-.13-.355-.121-.364-.113-.38-.104-.382-.104-.398-.095-5.55-1.299 6.485-1.567 1.143-.242.961-.165.797-.095.702-.026.614.052.563.138.476.208.381.243.304.225.25.19.087.052.286-.242-.217-.122-.363-.233-.355-.243-.338-.26-.329-.26-.32-.268-.312-.277-.303-.294-.303-.286-.286-.303-.277-.303-.217-.243-.38-.337-.382-1.074.684-.935.546-.234-4.944-2.174 6.269-.467 1.1-.087.978-.069.866-.06.78-.035.7-.018.642.01.597.042.2.035-.607-.9-.554-.944-.442-.884-.363-.822-.286-.762-.225-.693-.182-.615-.165-.537-.147-.45-.017-.06-.251.242-.338.312-.676.64-1.731 1.637-.884-2.485-.233-.728-.156-.796.017-.935.459-.97.944-.632 1.126-.217.917.035.32-.139.746-.182h.813l.814.217.78.416.718.597.659.736.528-.2h1.004l.918.408.693.675.52.84.424.979.182.597.199-.338 1.1-.415.57-.043-.042-.13-.087-.546.078-.65.398-.666.667-.372.606-.07.044.009-.32-.857-.26-.884-.13-.753.034-.788.476-.866.442-.164.043-.477.026-.26.104-1.194 1.005-.217.173-.043.441-.07.71.156.555.555.086.242.46.156.51.485.312.459.225.433.19.372.174.338.207.398.174.243.13.147.077.06.762-.268.884.537.06.052-.008-.043-.052-.607-.018-.649.052-.693.139-.727.736-2.303 2 1.437.598.537.537.589.476.623.329.494.242-.277.364-.33.355-.268.32-.225.286-.2.251-.181.217-.182.199-.208.19-.242.182-.312.182-.398 1.429-4.2 1.316 4.182.147.477.156.441.139.416.086.242.026-.077.217-.598.242-.615.26-.623.268-.632.295-.641.32-.658.33-.658 3.082-5.923-.424 6.763-.018.736.009.675.035.615.06.58.06.546.079.545.078.537.078.563.069.58.009.06.467-.424.554-.407.59-.329.631-.25 1.793-.434.415 1.732.087.554.035.424.658-.502.788-.58.822-.563.84-.545.866-.537.892-.528 5.152-2.901-2.823 4.563-.26.425-.26.415-.268.424-.25.416-.529.84-.26.424-.26.416-.26.416-.181.303 1.689-.277.069 2.078-.018.658-.06.64-.104.607-.078.286 1.792-.65-.891 2.26.484-.112.555-.078.588-.044.624-.017h.667l.701.026.745.043.77.052 2.468.217-.83 2.121-.252.563-.286.563-.303.537-.329.528-.355.52-.39.493-.597.719.035.164.779.503.545.38.52.408.494.424.458.442.425.476.39.493.337.52.303.554.243.58.19.606.13.633.07.649v.675l-.07.685-.736 3.879-1.792-2.996-.035-.035-.052-.035-.104-.043-.182-.043-.26-.026-.103.009.112.233.165.468.12.45.079.433.06.424.044.399.034.372.035.347.035.311.052.286.06.251.07.225.086.19.104.165 2.65 3.308-4.183-1.204.122.32.086.347.078.355.372 2.858-1.524-.883v.086l-.104.658-.25.641-.408.572-.762.675.052.26.06.502.036.502.017.485-.009.485-.034.476-.052.46-.07.458-.086.45-.096.442-.277 1.074-.97.338-.008.173v.52l-.017 1.272-.303.156.484 1.1-.268 1.117-.13.459-.147.45-.156.442-.173.441-.19.425-.2.415-.225.407-.234.398-.242.39-.269.381-.277.372-.294.364-.312.347-.32.337-1.706 1.663-.208.554-.286.667-.303.64-.329.624-.346.606-.364.589-.38.563-.408.554-.416.528-.441.52-.46.493-.467.485-.485.46-.493.45-.511.424-.52.415-.536.399-.546.39-1.515 1.004-.19.52-.408.987-.459.96-.493.919-.537.892-.572.857-.623.831-.65.788-.692.762-.728.719-.762.693-.805.658-.831.632-.858.589-.9.562-.918.537-2.84 1.481-.26.416-.554.762-.606.718-.65.667-.701.624-.745.571-.797.52-2.433 1.368-1.169-1.697-.069.017-.32.087-.33.077-.329.087-.337.078-.347.078-.346.07-.355.051-.251.043-.217.347-.303.372-.268.251-.727.667v.875l-1.706.329-.182.078-.095.052v.112l-1.36.918-.701.268-.65.148-.65.095-.666.078-.71.052-.727.043-.754.035-.753.034-.753.044-.736.043-.702.052-.658.06-.364.052-.571.52-.476.407-.494.398-.528.381-.554.364-.59.338-.631.303-.658.26-.702.207-.736.148-.762.095-.797.008-.805-.051-.84-.13-.848-.208-.546-.182v.009l-.398.554-.892.51-.546.26-.554.226-.545.173-.555.138-.545.096-.537.052-.537.008-.51-.017-.512-.052-.493-.078-.476-.113-.46-.13-.441-.155-.121-.044-.156.26-.857.476-.39.2-.381.181-.39.165-.398.139-.39.13-.39.103-.398.087-.398.07-.407.051-.398.017h-.399l-.407-.017-.398-.052-.39-.07-.424-.112-.26.208-.407.32-.407.295-.407.26-.407.25-.407.226-.415.2-.425.172-.424.148-.433.112-.441.087-.45.043-.46.009-.104-.009-.034.043-.537.572-.589.51-.64.434-.693.355-.736.26-.849.173-.156.355-.467.736-.607.632-.71.502-.563.26v.234l-.103.64-.182.607-.243.58-.311.545-.364.511-.442.528-.026.728-.19.78-.32.71-.14.198.053.052.441.832.182.909.2.095.493.485.91-.944 1.22-.78 1.645-.233 1.524.753.884 1.187.502 1.29.996 4.355-.555-.086.07.225-.234 1.152-.225.684-.312.65-.39.597-.467.554-.537.485-.58.415-1.689.97-1.022-.71-.935.182-.675.087-.632.06-.606.009-.58-.026-.555-.07-.537-.13-.51-.181-.477-.234-.441-.286z"/><path d="m378.531 247.275-.199.372-.121.407-.043.433.043.433.121.407.2.372.26.33.31.268.365.199.008.008-.147.174-.355.588-.234.659-.07.71.157.727.38.675.538.563.623.416.684.268.728.13.493-.008-.06.39.051.475.26.46.442.302.467.096.208-.009-.026.052-.06.39.052.45.25.442.425.294.364.07 75.94 108.24-.06.172-.052.477.052.485.156.441.243.399.303.337.372.277.407.2.45.13.485.043.476-.044.45-.13.416-.207.364-.269.312-.337.234-.399.155-.441.052-.485-.052-.477-.155-.45-.234-.398-.312-.338-.364-.268-.415-.208-.45-.13-.477-.043-.104.008-75.162-110.231-.077-.147-.425-.286-.415-.087.12-.32.061-.416-.052-.467-.26-.468-.44-.303-.096-.017.199-.65.078-.736-.078-.736-.225-.71-.39-.658-.502-.546-.598-.372-.649-.182h-.667l-.64.139-.182.078-.018-.234-.12-.407-.2-.372-.26-.33-.32-.26-.364-.207-.407-.13-.433-.052-.441.052-.407.13-.364.208-.312.26z"/><path d="m392.109 262.774-.06.468.406.935.702.59.762.31.805.14.84-.01.849-.155.83-.303.728-.407.563-.528.355-.728v-.25l.147.068.416-.164.39-.225.355-.303.294-.39.217-.476.06-.485.537-.026.51-.078.486-.121.459-.182.441-.251.416-.355.346-.529.104-.528.59-.13.58-.199.536-.242.494-.295.459-.363.433-.511.216-.676.165.009.614-.009.59-.06.58-.113.536-.199.72-.407.57-.528.347-.728v-.744.078l.51.052.771.078 1.412-.468 1.013-.364.857-.329.719-.329.606-.312.511-.32.442-.381.38-.52.183-.744-.217-.754-.407-.493-.424-.295-.416-.199-.415-.156-.433-.13-.788-.216-.754.251-.38.087-.39.06-.425.044-.45.008-.468-.008-.485-.035-.51-.052-.52-.078-.546-.095-.554-.113-.563-.13-.58-.138-.337-.087-.13-1.047-.719-.762-.849-.33-.866-.112h-.978l-.944.078-1.247-.2-1.342-.198-1.29-.165-1.221-.13-1.152-.095-1.09-.06-1.014-.018-.944.017-.874.07-.806.13-.736.19-.693.286-.623.407-.52.571-.329.719-.069.528-.095.372-.104.494-.07.494-.034.484v.494l.035.476.069.477.113.467.138.46.182.45.208.432.242.425.277.407.303.398.104.121-.234.416-.303.39-.337.303-.39.225-.45.173-.528.112-2.797.174 1.87 3.03.26.407.26.416.25.416.26.415.918 1.481.39-.242.147.346.399.51zm-3.455.979.372-.251-.918-1.446-1.567-2.477-1.429-2.26-1.316 2.546-.312.424-.32.32-.346.234-.373.165-.441.104-.442.026-.06-.156-.468-.875-.572-.779-.666-.675-.754-.58-.84-.46-.909-.337-.823-.19-.51-.182-.797-.018-.736.225-.624.399-.536.502-.468.589-.433.667-.407.762-.398.84-.39.917-.381 1.005-.372 1.082-.373 1.16-.363 1.23-.364 1.29-.32 1.213-.45.814-.382.874-.25.84-.044.883.372.953.866.58h.009l-.06.39-.105.58-.112.563-.122.554-.13.52-.147.51-.147.477-.164.459-.182.424-.19.39-.2.363-.208.33-.225.294-.528.571-.13.805-.052.45-.026.442.009.45.086.494.26.572.572.52.753.164.64-.113.529-.242.502-.32.52-.408.571-.52.641-.623.719-.753.978-1.074.243-.727.13-.407.51.26h.815l.727-.286.658-.485.39-.407.337-.468.286-.51.26-.546.043-.104.615.087.658-.173.511-.26.468-.32.441-.382.407-.433.312-.424.468.113.623-.078.502-.225.416-.295.346-.346.312-.39.268-.433.2-.407.398.139.52.017.484-.104.425-.19.372-.26.312-.312.052-.07.086.044.806.009.727-.295.658-.476.606-.632.476-.701.347-.754.199-.779.035-.814-.234-.866-.658-.762-.46-.164.01-.035-.07-.71-.277-.554zM410.224 296.476l-.364.52-.233.363-.044.104.06 1.412-2.467.147-1.212.052-1.195.017-1.16-.008-1.144-.035-1.108-.06-1.082-.096-1.065-.113-1.03-.147-1.005-.173-.97-.208-.953-.234-.926-.26-.892-.294-.866-.311-.84-.356-.805-.372-.78-.416-.753-.432-.727-.468-.684-.502-.667-.529-.624-.562-.597-.59-.563-.614-.528-.65-.502-.675-.468-.701-.424-.736-.39-.754-.364-.788-.182-.459-.077-.06-.373-.468-.242-.476-.165-.476-.121-.468-.087-.459-.069-.441-.06-.425-.052-.39-.052-.337-.01-.07h-.086l-.666-.069-.667-.225-.606-.485-.373-.71-.06-.744.138-.667.494-1.238.883-.113.13-.017.156-.044.182-.052.216-.078.251-.095.286-.121.33-.156.363-.173.407-.208.441-.242.494-.277.537-.312.589-.355.632-.39.684-.433.563-.364.58-.311.615-.208.701-.07.78.234.086.087.095-.104.399-.51.77-.235.424-.103.442-.07.45-.043h.46l.467.043.476.104.355.121.338.087.442.19.467.356.364.614.017.736-.225.563-.294.399-.529.493-.26.182.01.32-.46.71-.25.381-.243.381-.26.39-.268.398-.269.39-.294.398-.303.39-.32.398-.347.39-.364.381-.398.372-.416.373-.45.355-.2.147.2.615.277.632.312.589.363.554.399.52.433.476.476.45.51.416.555.39.589.363.623.338.65.303.684.277.71.26.727.225.762.208.771.181.788.165.797.147.814.121.822.104.823.087.831.078.823.06.822.044.814.034.814.026.797.018.78.017.77.009 1.567.008.684 1.576-.069 1.065-.346.832zm3.897-.424.207-.996.407-.84.529-.701.65-.58 1.038-.433.736.303.502.199.555.216.614.243.659.26.692.285.736.32.762.338.78.373.796.415.814.442.823.485.814.528.814.563.805.615.788.675.762.719.736.77.702.832.666.892.615.952.554 1.013.503 1.083.441 1.143.364 1.212.286 1.282.199 1.342.121 1.42.017 1.48-.069 1.56-.182 1.627-.277 1.706-.39 1.775-.38 1.48-.304 1.37-.25 1.315-.183 1.239-.138 1.177-.078 1.117-.035 1.057.018.995.069.936.112.874.148.823.19.77.234.71.26.667.294.624.33.571.363.528.39.503.415.45.45.424.477.399.502.355.528.329.563.311.58.269.615.251.632.216.65.2.675.173.693.147.433.07 1.558.294.338.38.217.243.268.303.303.347.312.355.424.459.234.467.07.485-.018.381-.043.33-.07.294-.078.26-.095.26-.476.952-1.966-.234-1.082-.165-1.057-.182-1.021-.225-1.005-.25-.961-.295-.935-.33-.9-.372-.867-.407-.831-.459-.788-.51-.753-.555-.702-.614-.667-.659-.606-.718-.563-.77-.502-.824-.45-.874-.398-.927-.338-.987-.277-1.039-.217-1.09-.164-1.153-.104-1.212-.035-1.264.009-1.325.078-1.385.138-1.455.2-1.516.26-1.584.32-1.654.372-1.663.182-1.299.095-1.264.026-1.22-.052-1.17-.112-1.117-.182-1.065-.234-1.03-.294-.979-.347-.935-.39-.892-.432-.857-.468-.805-.51-.771-.538-.736-.563-.684-.588-.65-.607-.606-.614-.571-.641-.529-.632-.493-.641-.45-.64-.416-.633-.372-.615-.338-.606-.295-.58-.25-.554-.217-.52-.182-.485-.147-.433-.104-.38-.07-.945-.103-.865-1.247zm38.628 47.496.468.26.468.276.476.303.485.312.485.33.493.354.494.364.502.39.51.407.52.415.52.45.528.46.537.484.537.511.554.52.554.554.563.572.572.588.58.615.58.64.598.668.788.9.26.979.077.718-.147.84-.727.754-.927.104-.667-.19-.545-.27-.684-.432-.494-.641-.372-.45-.364-.45-.372-.434-.373-.424-.38-.407-.382-.407-.39-.39-.389-.39-.39-.372-.398-.372-.398-.355-.399-.346-.407-.347-.415-.329-.407-.32-.416-.32-.415-.304-.425-.303-.424-.294-.424-.277-.433-.277-.425-.269-.441-.268-.433-.251-.442-.251-.45-.234-.442-.243-.45-.225-.45-.216-.46-.217-.865-.398-.173-.338-.044-.043-.155-.121-.19-.165-.226-.199-.269-.294-.303-.59.07-.787.346-.511.234-.2.086-1.116 1.897.545.424.139.433.147.433.165.442.173.45.19.45.2.45.225.45.233z"/><path d="m407.306 304.174.07-1.507.155-1.55.26-1.602.363-1.645.46-1.688.57-1.74.72-1.906.528-.753.407-.641.38-.667.365-.701.346-.728.312-.762.294-.77.277-.797.243-.805.207-.823.19-.831.157-.84.13-.84.086-.84.06-.84.036-.831-.01-.823-.042-.814-.078-.796-.113-.78-.147-.762-.19-.727-.217-.71-.269-.684-.294-.65-.338-.614-.372-.58-.416-.546-.45-.511-.494-.468-.12-.086-.252.242-.416.295-.45.25-.476.209-.502.173-.528.147-.563.113-.58.095-.615.07-.632.042-.667.026-.693.009-1.056-.009-.19-.12-1.04.285-.494.052-.597-.087-.615-.398-.346-.632-.06-.58.06-.477.095-.337.087-.364.156-.459.199-.424.233-.399.269-.363.294-.338.303-.312.52-.476.208-.06.017-.027.095-.199-.026-.034-.19-.797.199-.78.424-.57.494-.416.563-.347.597-.294.719-.364.667-.346.597-.32.546-.304.493-.277.433-.26.39-.233.338-.226.294-.199.26-.182.208-.164.181-.156.139-.13.113-.112.086-.096.546-.701 1.325.216.632.226.606.433.424.675.104.77-.147.693-.286.606-.043.07.07.06.562.46.675.554.702.658.623.857.113.485.25.26.477.545.468.572.45.606.433.632.416.667.398.692.372.728.347.753.32.78.286.822.26.849.225.874.19.91.156.935.113.97.069 1.004.035 1.03-.018 1.065-.06 1.091-.113 1.126-.156 1.152-.208 1.186-.26 1.221-.32 1.247-.372 1.282-.433 1.307-.494 1.351-.554 1.377-.623 1.411-.676 1.438-.718 1.42-.511 1.23-.425 1.203-.329 1.16-.242 1.1-.173 1.056-.087 1.022-.017.961.052.927.112.883.173.849.234.805.286.77.338.737.39.701.432.676.485.64.528.615.563.58.598.555.64.52.676.493.693.467.727.433.753.407.762.373.788.346.797.312.805.285.814.26.814.234.806.2.052.008.38-.33.685.555.64.13-.034.346 3.082 2.494v-2.381l2.382.476.874.2.858.224.83.243.824.277.796.303.78.338.753.355.727.398.702.416.684.459.65.493.623.52.597.563.563.588.528.633.494.666.459.702.424.744.39.771.346.814.312.849.268.883.225.926.19.953.148 1.004.104 1.03.07 1.075.025 1.117-.026 1.151-.06 1.195-.104 1.239-.122.952-.103.9-.078.884-.078.866-.052.84-.044.831-.017.805-.009.797.01.77.016.754.044.736.052.719.069.701.087.684.095.658.121.65.121.623.147.606.156.598.173.571.191.554.2.537.216.52.225.493.25.485.252.468.268.45.286.433.303.416.312.398.329.381.459.494.26.485.19.398.165.51v.84l-.676.832-.9.147-.667-.112-.745-.251-.485-.286-.38-.26-.382-.286-.372-.303-.364-.337-.346-.364-.338-.39-.329-.424-.311-.45-.295-.477-.277-.51-.268-.546-.252-.58-.233-.615-.217-.64-.208-.694-.181-.718-.174-.762-.156-.806-.138-.848-.121-.883-.096-.936-.086-.987-.07-1.03-.043-1.083-.034-1.134-.009-1.186.009-1.238.026-1.3.052-1.359.069-1.411.095-1.481.07-.996.034-.926v-.884l-.043-.83-.07-.789-.103-.753-.139-.71-.165-.667-.199-.632-.216-.606-.251-.563-.269-.537-.303-.51-.32-.477-.338-.46-.372-.432-.381-.407-.416-.398-.433-.373-.45-.355-.476-.337-.494-.32-.51-.313-.53-.294-.553-.277-.563-.269-.58-.26-.598-.25-.606-.234-.615-.225-.64-.226-1.499-.502v-2.139l-2.961-.623.07.346.095.468.086.442.078.398.06.346.053.407-.425 2.754-1.723-1.784-.719-.07-1.298-.19-1.282-.242-1.264-.303-1.23-.364-1.212-.416-1.178-.467-1.134-.528-1.108-.59-1.066-.64-1.021-.701-.97-.754-.918-.822-.866-.866-.805-.935-.754-.988-.675-1.039-.606-1.1-.537-1.151-.459-1.212-.381-1.256-.294-1.316-.208-1.36-.121-1.411z"/><g fill="#e30613"><path d="M449.424 281.245c-3.914 0-7.109-2.884-7.109-6.417 0-3.524 3.195-6.408 7.11-6.408s7.108 2.884 7.108 6.408c0 3.533-3.195 6.417-7.109 6.417M459.252 266.048c-2.727 0-4.953-2.096-4.953-4.668s2.226-4.667 4.953-4.667c2.72 0 4.945 2.096 4.945 4.667s-2.226 4.668-4.945 4.668M443.242 263.796c1.827-.58 3.333-1.36 2.545-3.524-.814-2.771-1.957-3.784-3.42-3.04-1.334 2.036-.528 4.278.875 6.564"/><path d="M461.46 272.966c-2.407-.796-2.086 1.43-3.861 1.369.58 2.693-.884 4.892-3.507 6.806 2.632 2.009 5.29 3.316 8.182-.33 1.16-1.8-1.454-5.134-.813-7.845"/></g><path fill="#fd0" d="M463.47 294.207c-.59 0-1.066-.45-1.066-.995s.477-.988 1.065-.988 1.066.442 1.066.988-.477.995-1.066.995M462.188 293.68c-2.485-3.118-3.914-7.145-5.3-2.235-2.277 2.2 1.109 2.364 5.3 2.234"/><path fill="#e30613" d="M479.783 262.904c1.446 1.334 2.477 2.945 2.027 5.542-.19.251-.373.502-.563.754.52.502.597 1.073.234 1.705-.693-1.151-1.256-1.23-1.698-.233.46.623.814 1.307.52 2.32-.823-1.437-1.637-1.93-2.46-1.472-.043.9-.095 1.801-.138 2.702-.944-.52-1.446-1.36-1.515-2.511-.502.485-1.005.978-1.507 1.463 1.36.338 2.572 1.264 3.68 2.607.234-.771.503-1.49.996-1.75.372.044.753.096 1.134.139.174-.407.347-.823.52-1.23.312 0 .346.286.658.286.017-.476.251-1.169.139-1.515.38-.667.822-.632 1.324.095.399-2.113.347-4.165-.138-6.157-1.074-2.104-2.148-2.545-3.213-2.745"/><path fill="#e30613" d="M477.705 270.005c2.13 0 2.174-1.342 2.174-3.1s-.988-5.377-2.321-3.862c-1.325 1.515-4.252 2.814-4.252 4.572s2.26 2.39 4.4 2.39"/><path d="M476.285 268.109c.736 0 1.593-1.221 1.689-1.87.095-.642-1.204-2.703-1.126-.806s-.736.952-1.645 1.048c-.91.104.346 1.628 1.082 1.628"/><path fill="#79ac2b" d="M483.793 266.74c2.476 3.282-.442 5.378.753 6.434q2.532-.546 3.17.805c.744-3.195-1.014-5.437-3.923-7.239"/><g fill="#ad4582"><path d="M477.8 278.43c-.675 0-1.23-.571-1.23-1.281 0-.702.555-1.273 1.23-1.273s1.221.571 1.221 1.273c0 .71-.545 1.281-1.22 1.281M474.467 278.526c-.658 0-1.204-.416-1.204-.927 0-.502.546-.918 1.204-.918.666 0 1.203.416 1.203.918 0 .51-.537.927-1.203.927M470.665 280.231c-.831 0-1.506-.45-1.506-.995s.675-.996 1.506-.996 1.516.45 1.516.996-.684.995-1.516.995M474.562 281.322c-.632 0-1.16-.38-1.16-.83 0-.46.528-.832 1.16-.832.64 0 1.16.372 1.16.831 0 .45-.52.831-1.16.831M475.298 283.972c-.572 0-1.04-.39-1.04-.857s.468-.849 1.04-.849 1.039.381 1.039.849-.468.857-1.04.857M471.8 283.21c-.546 0-.988-.338-.988-.753 0-.424.442-.762.988-.762s.995.338.995.762c0 .415-.45.753-.995.753M477.818 281.556c-.632 0-1.152-.528-1.152-1.186 0-.65.52-1.178 1.152-1.178.64 0 1.16.529 1.16 1.178 0 .658-.52 1.186-1.16 1.186M479.922 279.002c-.416 0-.753-.26-.753-.572s.337-.571.753-.571.753.26.753.571-.337.572-.753.572M480.918 281.885c-.598 0-1.091-.441-1.091-.995 0-.546.493-.988 1.09-.988s1.083.442 1.083.988c0 .554-.485.995-1.082.995M477.939 283.825c-.572 0-1.04-.424-1.04-.944s.468-.944 1.04-.944 1.04.425 1.04.944-.469.944-1.04.944M477.229 286.336c-.65 0-1.178-.476-1.178-1.065s.528-1.065 1.178-1.065 1.186.476 1.186 1.065-.537 1.065-1.186 1.065"/></g><path fill="#fd0" d="M480.286 289.514c-1.247-.086-2.2.598-2.72 2.39.295 1.585.78 2.84 2.668 1.801zM479.039 287.28c-.979-.701-2.087-.52-3.213-.216.147 2.398.58 3.48 1.308 3.264 2.433-2.156 2.667-2.918 1.905-3.048"/><g fill="#79ac2b"><path d="M453.39 258.887q.48-4.313-.753-2.183c-.06-2.26-.251-4.303-1.325-4.788-.9.433-1.68-.026-2.33-1.368-.493-.918-.891-2.304-1.8-1.334.051-1.576-.399-1.126-.754-1.09-.06.718-.13 1.428-.19 2.138-.806-.338-1.36-.251-.139 2.84.727.805.459 1.394.043 1.94-2.528-1.23-2.84-.173 1.706 5.923-1.636.857-.78 1.55 5.542 1.896-.537-.38.147-1.455-1.385-1.688-1.706-.26-3.109-2.01-4.252-3.525 1.385.996 2.884 1.758 4.641 1.992-1.81-2.598-3.879-5.048-4.736-8.2 1.385 2.753 3.585 5.083 5.732 7.447M455.434 256.323c-1.62-1.073-2.01-2.364-2.234-3.697.207-.017.415-.026.623-.043-.112-1.455-.545-2.85.087-4.46 1.506.953 2.494 2.624 3.368 4.46.702-3.577 3.005-2.14 4.079-5.785 1.264 4.174 2.251 4.538-.286 8.91-.46-.865-.347-3.299.424-5.637-.762 1.819-1.94 4.148-2.935 5.499-2.087.139-1.663-2.58-2.85-3.559.797 1.628.702 3.065-.276 4.312M448.472 263.796c-.762-1.714-2.252-1.273-4.451 1.325.364.944.978 1.827 1.862 2.65 6.182-.45 7.87-1.438 6.503-2.797-1.013.329-2.027.658-3.031.978 1.411-.978 1.723-1.567.926-1.757-1.35.502-2.701 1.013-4.06 1.515-.486-.632.268-1.273 2.25-1.914M444.272 268.645c-1.637-3.61-3.308-7.204-4.01-11.213-.796-3.057-1.99-3.888-3.567-2.494-1.645-2.58-2.996-2.754-4.251-2.061-3.378-.39-2.52 1.49-1.905 3.23.891-.849 1.792-1.697 2.684-2.546 2.303 2.009-.33 6.217 11.049 15.084M428.971 263.701c9.404-.675 6.988-1.022 13.344 4.901.2 1.16.165 2.252-1.463 2.892-1.949-1.333-4.018-2.381-6.356-2.797-.502.096-.615.658-.347 1.663-2.009-.78-3.567-2.104-4.935-3.672-.693-.484.104-.718 2.398-.684-.467-1.255-1.515-1.827-2.64-2.303"/><path d="M435.864 270.022c1.723.77 3.412 1.368 5.282 2.84q-.597 1.328 0 2.642c-2.849.173-4.918-1.083-5.282-5.482M435.474 271.053c-.069.666-.13 1.333-.199 2.009-.961-.347-1.853-.754-2.295-1.62q.663-.688 2.494-.39M424.33 271.884c7.81-1.966 4.355.104 9.283 1.074-.78.978-1.949 1.567-3.516 1.766-1.429-1.688-3.55-2.338-5.767-2.84"/><path d="M437.674 275.261c-6.287-1.463-7.915-.32-7.43 2.009-2.45 2.468-4.234 4.563-1.316 4.018-2.243 5.611-2.866 4.347 2.883 3.524-.052 1.221.962 1.247 4.295-1.325-.424 5.161 6.209.641 5.915-5.481-2.659.684-5.308 2.295-7.967 4.165.165-.996 1.697-2.52 4.598-4.555a24 24 0 0 0-7.083 3.23c1.126-1.662 2.788-3.108 5.611-4.113-1.723-.26-3.386.19-4.979 1.368.269-1.437 2.71-2.19 5.473-2.84M443.077 280.638c.598.615 1.256 1.178 2.399 1.386-1.04.952-1.256 2.173-.658 3.671q.48-2.48 2.597-2.91c-.718 7.534.953 9.076 2.71 10.418-2.156-3.239-2.156-6.763-1.177-10.417 1.732 1.082 3.429 2.243 4.191 6.079.459-2.156.2-4.4-.563-6.694 4.4 1.853 7.309 4.919 2.659 6.183.51 3.368-.208 4.494-2.148 3.368.494 2.026-.51 4.616-2.2 7.456-.545-2.485-1.757-4.217-3.264-5.611-.355 4.052-1.74.285-3.065-3.014-1.23 2.156-1.628.2-1.637-3.628-3.195 2.866-1.593-1.593.156-6.287M475.575 270.87c-1.559-1.333-3.316-2.199-5.351-2.398q.716-.585 1.446-1.169c-3.585-1.784-7.43-.909-11.387 1.17 2.433-.096 4.936-.373 6.98.7-1.655-.268-3.56-.043-5.5.252 2.113.563 4.339 1.073 5.395 2.121-2.156-.65-3.541-.45-6.278-.216 3.126.944 1.135 2.346 2.434 3.429 2.182-.286 4.347-.442 6.347.32.173-.78-.217-1.134-.32-1.697 4.875.58 3.238-1.974 6.234-2.511M463.4 278.768c5.317.303 6.581 1.931 6.001 4.174-6.096.441-6.806-1.524-6-4.174M468.18 293.74c.009-.026.026-.052.035-.078.563-1.602.433-3.256-.71-4.962q1.31-.895 2.632 0c-.589-2.857-1.792-5.091-5.195-5.04-.32.286-.65.58-.979.866-.07-1.342-1.29-1.54-2.667-1.576-1.48.72-2.728 1.542-2.39 3.066.71-.554 1.152-.39 1.559-.139q-.3 3.559 1.506 5.456c.416-1.343.979-2.027 1.689-2.07.234 2.277 3.126 1.62 4.52 4.477"/><path d="M463.383 275.607c-1.16 1.828.355 2.702 4.563 2.624.035-.597.07-1.203.113-1.801 4.537 1.429 5.369-1.247 7.507-.857-.39-1.36-1.446-1.923-2.805-2.13-.684 2.39-4.468 2.658-9.378 2.164M463.911 256.947c-1.143-3.083-.225-7.421 2.745-13.015-.528 6.46 2.122 6.036-1.273 16.505-.736-2.235-1.273-4.754-.398-9.326-1.368 2.043-1.498 3.974-1.074 5.836M467.47 257.215c1.065-1.835 1.247-3.308.537-4.425.952-1.662 2.095-2.597 3.42-2.822.338 1.212.312 2.502-.069 3.896-1.394.407-2.676 1.689-3.888 3.351"/><path d="M466.457 265.2c.043-7.379 5.256-12.548 12.824-16.705a1744 1744 0 0 0-4.165 6.711c-1.16-1.42-3.065.477-5.3 3.888-2.13 1.533-3.021 3.68-3.36 6.105"/><path d="M470.916 261.562c1.611-1.784 3.256-3.455 5.11-4.399-.98.884-1.75 1.931-2.07 3.308q4.4-.585 4.087-5.637c-6.036.84-7.785 3.325-7.127 6.728"/><path d="M478.666 259.112c-3.437 1.186-6.875 3.42-10.313 5.542 1.784-.97 3.473-1.706 5.014-2.105-2.373 1.386-3.317 2.425-3.628 3.317l2.667 1.117c2.745-2.823 5.43-5.629 6.26-7.871M485.776 260.445c-4.287-.407-7.335-.312-5.95 1.559 1.447-.043 2.902-.095 4.348-.139-2.191.632-2.425 1.446-.71 2.46a12.2 12.2 0 0 0 2.312-3.88M486.061 279.85c-1.732-1.879.173-4.918-3.065-6.771-.147.667-.286 1.325-.424 1.992-.442-.33-.884-.667-1.325-.996a4.58 4.58 0 0 0-1.845 2.225c.381.173.762.347 1.135.52.13-.52.25-1.04.38-1.559.295 1.767.693 3.273 1.75 2.884.563-5.438.658 1.23 3.394 1.705M481.195 278.811c1.593.736 3.013 1.637 3.212 3.646-.675-.398-1.35-.788-2.026-1.186.953 1.74 1.23 3.212.043 4.07-.268-1.343-.978-2.304-2.121-2.884 1.403-.831 2.009-1.931.892-3.646M481.429 291.203c.623-2.321.727-4.772-.979-7.672-1.325-.381-1.844.112-1.576 1.472 1.87 1.558 2.165 3.896 2.555 6.2M476.207 292.069c-.441-2.927-1.472-5.733-3.368-8.374-.892-.234-2.633.286-2.615 1.412 2.65 4.269 4.935 7.49 5.983 6.962"/></g><g fill="#fd0"><path d="M470.388 289.843c-.199 2.771.762 3.516 2.884 2.226q-1.117-2.743-2.884-2.226M476.458 301.273l.13-6.13c1.308-1.135 2.26-.875 2.875.779q-.716 3.195-3.005 5.351M475.679 293.575c-1.983-.242-4.338-.857-4.832.39.217 1.082.433 2.173.65 3.264-1.698-2.138-3.04-2.701-4.044-1.697 1.36 5.083.614 10.79-.13 16.574 5.524-3.585 9.092-9.032 8.356-18.53"/><path d="M465.885 295.402c3.274 15.604-1.1 24.809-10.702 29.632.814-11.092 1.524-22.064-1.178-29.632l1.567-1.307c3.308.961 6.66 1.74 10.313 1.307"/><path d="M452.576 299.316c4.061 16.193 3.325 27.441-4.442 31.46-1.264-1.828-2.52-3.655-3.784-5.482 2.606-11.707-9.404-25.631-7.438-38.637.952-.174 1.913-.347 2.866-.529v3.923c.303.26.606.52.918.78.303-.39.606-.78.909-1.178q.855 2.61 1.697 5.221c.347-.563.702-1.126 1.048-1.697.693 1.524 1.394 3.048 2.087 4.572.303-.52.606-1.048.918-1.567 1.212 2.216 2.433 4.442 3.654 6.659a627 627 0 0 1 1.567-3.525"/><path d="M443.042 323.986c2.789-6.832-4.347-18.097-6.529-27.146-8.745-.961.658 12.573-3.126 22.574 3.741.875 7.309 1.957 9.655 4.572M440.297 332.342c1.438-.268 2.01-1.22 1.698-2.874-1.256-1.784-2.823-2.659-4.434-3.395-1.004-.303-1.307.26-.918 1.697 1.221 1.524 2.442 3.048 3.654 4.572M428.556 309.76c.216 1.082.433 3.047.649 5.87-.866-1.22-1.74-2.433-2.606-3.654-.044-1.264.606-2 1.957-2.217M426.07 317.977c-.909-1.429-1.827-2.866-2.736-4.304-1.914.477-2.26 1.481-1.048 3.005q1.9.65 3.784 1.299M433.119 327.64c1.437 2.304 2.875 4.616 4.312 6.92-.874.216-2.087.259-3.654.13-1.134-2.746-1.966-5.352-.658-7.05M427.638 324.246c-.503 5.29-.46 9.595.788 11.75-2.217 2.044-4.65 3.664-8.616 2.217 2.433-4.087 2.961-9.135 2.606-14.616z"/><path d="M421.247 323.198c.45 5.81-.286 11.292-3.654 16.063-2.312 1.386-4.356 1.083-6.14.26 3.923-3.819 1.698-20.228 3.525-19.578 1.22 1.082 3.308 2.173 6.27 3.255"/><path d="M412.242 322.03c.796 7.048.407 13.438-2.615 18.4-1.741 1.005-3.308 1.308-4.702.918.874-5.447.83-9.967.658-14.357q2.543-5.091 6.659-4.962M404.275 326.463c.173 4.832.13 9.664-.39 14.487-2.052 1.922-3.74 2.788-5.091 2.615.719-4.434.719-8.876.39-13.318q3.325-5.276 5.091-3.784M397.876 329.727c.572 5.577.961 10.798.13 13.578-.953 1.567-2.087 2.433-3.395 2.615-.086-3.853-1.117-7.23-1.956-10.711q1.571-5.87 5.221-5.482M393.183 345.782c.433-3.126-.347-6.876-1.308-10.703-3.186-.528-3.922 2-4.312 4.962.745 3.61 1.836 6.529 3.264 8.745 1.481-.303 2.27-1.307 2.356-3.004M386.784 339.78c.346 3.612.952 7.136 3.394 10.054.173.953-.173 1.914-1.048 2.866-2.572-1.428-4.217-3.784-5.74-6.26-1.135-3.611 0-5.837 3.394-6.66M382.8 347.4c1.446 2.469 2.996 4.746 5.308 5.707.72.996.59 1.983-.407 2.979-3.134.52-5.386-.875-7.23-3.135-.727-3.35.052-5.204 2.33-5.55M387.624 357.212q1.805 1.195.077 2.727c-2.597 1.343-5.091 2.208-6.832-.32-1.23-1.316-1.177-2.624.165-3.94 2.303 1.264 4.503 1.767 6.59 1.533M388.585 360.104c1.238-.269 1.714.424 1.446 2.087-.797 1.853-2.356 2.762-4.018 3.541-2.918-1.186-3.801-2.251-2.65-3.22 2.061-.235 4.018-.668 5.222-2.408M390.516 362.511c1.047-.805 1.766-.32 2.173 1.446.078 1.178.104 2.364-.242 3.542-3.516.727-4.4-.243-4.901-1.446 1.844-.97 2.84-2.148 2.97-3.542M393.087 362.433c.148 2.165.07 4.737 1.126 5.308 1.264-.65 1.983-1.61 2.174-2.9-.563-1.983-1.663-2.78-3.3-2.408M396.309 362.026q-.975-5.458-4.183-.64c1.394.216 2.789.432 4.183.64"/></g><path d="M448.402 270.308q.34-1.143 1.992-.987c.494.545 1.134 1.082 2.814 1.62 1.091.995-1.628.224-4.806-.633M460.647 258.16c-.347-.382-.72-.746-1.343-.97-.476-.157-1.879 1.056-3.411 2.45-.806 1.368 2.286-1.29 4.754-1.48"/><g fill="#cec8ea"><path d="M387.831 284.085c2.52-1.533 3.68-3.628 5.014-5.655-.078-1.186.216-1.61.892-1.281.65-.554.545-.927-.32-1.1-.858-.355-1.784-.242-2.737.07a4.56 4.56 0 0 1-1.636 1.385c-.035-1.152-.788-1.204-2.243-.173-3.87 2.467-5.447 3.074-6.373 3.16q-.923 1.923 1.428 1.715c1.195-.295.503 3.844 1.845 4.554 3.057 8.21 11.49 11.855 24.635 10.937.2-1.04.78-2.658.996-3.204l.468-.935-1.03.043c-8.409-.069-19.138-.675-20.939-9.516m-.675-3.784c-.494 0-.892-.416-.892-.918s.398-.918.892-.918.892.416.892.918-.399.918-.892.918"/><path fill-rule="evenodd" d="M410.016 268.715c-.424 1.697-2.97 2.294-6.702 2.216q-1.467-1.026-1.559.104c-.814.269-1.073-.008-.779-.848.139-.918.71-1.654 1.463-2.312.754-.07.71-1.126 1.308-1.507-.961-.623-.632-1.299 1.004-2.018 4.105-2.052 5.438-3.082 5.993-3.836q2.116.195.727 2.105c-.866.866 3.04 2.407 2.961 3.922 4.927 4.997 8.443 14.539.252 30.16-6.01 13.647 3.42 20.419 12.131 22.488l2.295.719c-.113.667-.736 2.831-.961 3.256-12.747-1.022-23.363-10.123-18.297-26.749.944-3.082 2.701-5.316 3.792-8.27 2.564-6.926 2.252-15.871-3.628-19.43m-4-1.576a.9.9 0 0 1-.892-.91c0-.51.398-.917.892-.917s.892.407.892.918a.9.9 0 0 1-.892.909"/><path d="M415.844 297.238c.493-.987 1.152-2.831 1.368-3.273 5.17 2.095 19.882 6.529 15.258 25.31-4.356 16.107 2.086 21.025 10.33 22.038.45.096.727.087 1.446.122-.035.303-.173 2.563-.087 2.944-11.646-1.23-18.236-6.633-13.846-25.12 2.494-15.076-10.304-21.744-14.47-22.02"/><path d="M433.37 320.375c9.265 1.706 15.232 6.937 13.933 19.943-1.368 10.062 0 17.214 4.096 21.448.493.858.822 1.594-.814.953-3.663-2.06-6.278-7.161-5.196-23.085 1.005-10.824-4.72-14.331-11.525-16.643l-1.074-.295c.043-.32.493-2 .58-2.32"/><path d="M448.385 343.028c4.096 1.247 8.867 4.373 15.041 11.5.58 1.826-.104 1.81-1.368.952-2.693-3.516-5.698-6.191-8.936-8.261-1.533-.97-3.282-1.81-4.901-2.528z"/></g><path fill="#fd0" d="M462.941 369.179c-.892 0-1.628-.658-1.628-1.472s.736-1.472 1.628-1.472 1.62.666 1.62 1.472c0 .814-.728 1.472-1.62 1.472"/><g fill="#cec8ea" stroke="#000" stroke-miterlimit="2.613" stroke-width=".249"><path stroke-width=".21561408" d="M415.827 249.102c-2.356.883-5.508.155-8.78-.797 1.211-1.48.302-2.052-2.746-1.706-7.55-1.264-12.72-1.377-12.668 1.022-.684 2.286-.147 4.26 1.602 5.931q-1.026 3.196-4.339 3.196a691 691 0 0 0 2.061 3.316c3.568-2.113 6.2-5.273 6.729-10.729 4.753 1.403 9.585 2.702 14.954 3.196 6.598-2.096 5.447-2.858 3.187-3.43z"/><path stroke-width=".21561408" d="M402.474 251.96c-1.48-.72-2.961-1.144-4.45-1.256-.13 4.208-2.564 8.338-6.045 9.923.19 1.065.684 1.221 1.48.459 3.577-1.663 6.971-3.793 9.015-9.127zM398.144 261.77c-.762 0-1.376-.433-1.376-.97 0-.528.614-.97 1.376-.97.754 0 1.369.433 1.369.97s-.615.97-1.369.97z"/><path stroke-width=".21561408" d="M400.768 259.605c-1.134 0-2.052-.433-2.052-.97s.918-.97 2.052-.97 2.052.434 2.052.97-.926.97-2.052.97zM403.41 257.596c-1.126 0-2.183-.71-2.183-1.247 0-.528.693-1.472 1.819-1.472 1.134 0 3.056.806 3.056 1.334 0 .537-1.558 1.385-2.693 1.385zM409.332 254.86c-1.645.78-7.014-.251-6.564-1.472.46-1.212.78-1.87 1.828-1.463 1.047.398 5.247.874 5.29 1.194s1.091.97-.554 1.741zM396.716 263.606c-1.646.78-3.784.25-3.325-.97.458-1.212.77-1.87 1.827-1.472 1.047.407 2.009.372 2.052.701.043.32 1.1.97-.554 1.74zM367.785 280.708c1.706-1.74 2.33-4.893 2.797-8.261-1.792.441-1.93-.624-.415-3.213 1.905-7.343 3.862-12.053 5.948-10.945 2.278.39 3.802 1.732 4.573 4.044 2.147.32 3.654-.511 4.537-2.494.693 1.1 1.385 2.2 2.087 3.3-3.282 2.285-7.1 3.264-12.106 1.341-.65 4.901-1.446 9.811-3.143 14.85-4.468 5.023-4.685 3.655-4.278 1.378z"/><path stroke-width=".21561408" d="M375.605 269.944c-.044-1.645.181-3.169.666-4.554 3.758 1.731 8.348 1.35 11.136-1.074.857.632.797 1.143-.19 1.533-2.893 2.485-6.114 4.598-11.612 4.095zM385.952 270.36c.303-.684.165-1.429-.311-1.663-.468-.233-1.091.13-1.395.806-.303.684-.164 1.428.304 1.662.476.234 1.1-.13 1.402-.805z"/><path stroke-width=".21561408" d="M383 271.763c.45-1.013.441-2.035-.035-2.269-.468-.234-1.212.398-1.671 1.42-.45 1.022-.433 2.035.034 2.269.477.242 1.221-.398 1.672-1.42zM380.185 273.26c.45-1.012.251-2.277-.225-2.51-.467-.234-1.567-.026-2.017.995-.45 1.014-.511 3.1-.044 3.334s1.836-.796 2.286-1.818zM375.423 277.391c1.342-1.143 2.571-6.425 1.325-6.555-1.247-.121-1.957-.121-2.018.996-.07 1.126-1.325 5.109-1.056 5.282.268.182.415 1.42 1.749.277zM388.126 269.884c1.342-1.143 1.723-3.3.476-3.42-1.247-.13-1.957-.13-2.018.995-.069 1.117-.476 1.974-.207 2.156.268.173.415 1.412 1.749.269z"/></g><g fill="#fd0"><g stroke="#000" stroke-miterlimit="2.613" stroke-width=".249"><path stroke-width=".21561408" d="M380.315 249.838c-.719 0-1.307-.607-1.307-1.351s.588-1.351 1.307-1.351 1.308.606 1.308 1.35-.59 1.352-1.308 1.352zM384.16 253.881c1.411-1.065 1.792-2.952.848-4.208s-2.251-.866-3.662.2c-1.412 1.056-2.408 2.407-1.464 3.662s2.866 1.412 4.278.346zM385.138 255.466c-.779.719-1.67 1.022-1.974.684-.312-.329.07-1.186.849-1.905.779-.71 1.67-1.022 1.974-.684.312.338-.07 1.195-.849 1.905zM386.212 257.276c-.675.623-1.455.892-1.723.597s.07-1.039.753-1.662c.676-.624 1.455-.892 1.723-.598.269.286-.069 1.04-.753 1.663z"/></g><path d="m385.32 258.324 23.692 33.77 1.636.044c.156-.364.32-.719.485-1.074l-23.475-34.438c-.51.962-1.325 1.481-2.338 1.698m29.424 41.936 12.495 17.812 2.035.719c.078-.32.147-.598.156-.9l-13.205-19.371-.935-.113c-.2.606-.381 1.23-.546 1.853m17.596 25.077 10.183 14.522 1.991.692.035-.476v-.008l-11.04-16.176-.927-.26c-.095.537-.173 1.178-.242 1.706m15.725 22.419 13.274 18.92.572-1.143-12.998-19.067-.874-.407z"/></g><g fill="#a99ed6"><path d="M427.837 186.366c-.32 0-.632 0-.944-.009l1.056 1.507c11.283.052 20.47-2.546 20.497-5.793.017-3.265-9.205-5.984-20.54-6.053-.156-.009-.303-.009-.459-.009-.38.503-.753.996-1.126 1.507.52-.009 1.04-.017 1.576-.009 10.218.061 18.548 2.105 18.531 4.546s-8.365 4.382-18.591 4.313"/><path d="M427.854 184.859c-1.533 0-2.788-1.247-2.788-2.78s1.255-2.788 2.788-2.788 2.78 1.256 2.78 2.788-1.247 2.78-2.78 2.78M421.013 180.477c-4.476-6.044-6.788-11.282-5.29-12.573 1.35-1.177 5.48 1.213 10.226 5.637.303-.372.615-.744.927-1.117-5.56-5.057-10.617-7.663-12.478-6.052-2.087 1.81.476 8.321 5.793 15.456q.002-.01.017-.034c.269-.442.537-.875.805-1.317M435.137 178.53c-.208.38-.416.761-.641 1.15.329.416.658.832.978 1.248.433-.745.84-1.481 1.213-2.208-.278-.035-.555-.078-.84-.113zM428.746 188.47l.979.952c.25-.32.51-.649.762-.978q-.87.026-1.74.026M431.534 184.426c-.294.433-.597.866-.892 1.29l.901-.026.97-.06c.086-.122.173-.243.26-.373a55 55 0 0 0 1.195-1.827q-.48-.634-.962-1.255c-.467.744-.96 1.489-1.472 2.251"/><path d="M418.104 185.647c-5.282-.814-8.807-2.243-8.798-3.827.009-1.472 3.048-2.763 7.698-3.542a94.58 94.58 0 0 1-.77-1.29c-5.387 1.039-8.937 2.797-8.945 4.823-.018 2.165 4.078 4.104 10.165 5.17.018-.035.035-.078.052-.113.19-.407.399-.814.598-1.221m1.836-7.767a72 72 0 0 1 2.952-.243c.252-.363.511-.736.771-1.1.104-.147.217-.294.32-.441a60 60 0 0 0-4.927.442c.286.45.58.9.884 1.342M422.892 186.175a44 44 0 0 1-1.948-.173c-.242.45-.476.892-.701 1.342a.2.2 0 0 1-.026.043c1.299.165 2.667.286 4.078.364-.476-.52-.944-1.039-1.403-1.576M431.595 171.065a2.2 2.2 0 0 1-2.2-2.19c0-1.213.988-2.2 2.2-2.2a2.2 2.2 0 0 1 2.19 2.2c0 1.203-.978 2.19-2.19 2.19M434.253 167.956c1.793-1.368 3.23-1.922 4.018-1.385 1.316.892.494 4.598-1.827 9.421q.675.088 1.35.19l.122.026c2.563-5.62 3.29-10.096 1.49-11.308-1.204-.823-3.343-.044-5.915 1.896l.096.087.181.199.165.216.138.234.122.242z"/><path d="M426.954 190.496c-4.2 4.953-8.01 7.82-9.49 6.815-2.027-1.368 1.004-9.395 6.727-17.855 2.105-3.1 4.278-5.837 6.296-8.001l-.234-.113-.234-.139-.217-.164-.38-.381-.061-.087c-2.113 2.226-4.312 4.962-6.4 8.045-6.355 9.386-9.334 18.53-6.632 20.366 2.043 1.377 6.754-1.801 11.672-7.49q-.417-.388-.848-.788c-.07-.07-.13-.139-.2-.208"/><path d="M431.214 179.04c1.862 2.148 3.516 4.286 4.884 6.287l.467-.052h.052c.009 0 .009 0 .018-.009h.043c.338-.043.675-.087 1.022-.139a66 66 0 0 0-5.144-6.823c-.693-.043-1.385-.087-2.078-.113.242.278.493.555.736.849m-1.247-3.602c-.381-.39-.762-.78-1.134-1.152-.303.364-.606.736-.9 1.108.675.01 1.35.026 2.034.044m7.733 12.382c2.433 4.036 3.429 7.188 2.312 8.149-1.845 1.602-8.807-3.403-15.5-11.136a60 60 0 0 1-1.715-2.06l-.095.146c-.243.407-.476.814-.719 1.221.45.554.918 1.117 1.403 1.672 7.421 8.572 15.483 13.82 17.95 11.69 1.525-1.325.563-5.17-2.147-9.933l-.424.078-.217.035c-.25.043-.502.086-.753.121z"/></g></g></svg>