<svg xmlns="http://www.w3.org/2000/svg" xml:space="preserve" width="600" height="400"><path d="M423.27 202.658h-7.972v-5.315h7.972a2.657 2.657 0 1 0 0-5.314h-7.972l5.315-5.315h2.657c4.336.015 7.973 3.57 7.973 7.971a7.95 7.95 0 0 1-2.032 5.316 7.94 7.94 0 0 1 2.032 5.314c0 4.403-3.637 7.958-7.973 7.973h-7.972v-5.316h7.972a2.658 2.658 0 0 0 0-5.315M216.592 200c0-7.336 5.95-13.287 13.287-13.287s13.288 5.95 13.288 13.287-5.95 13.288-13.288 13.288c-7.337 0-13.287-5.95-13.287-13.288m13.287 18.603c10.272 0 18.603-8.33 18.603-18.603 0-10.271-8.33-18.602-18.603-18.602-10.272 0-18.602 8.33-18.602 18.602s8.33 18.603 18.602 18.603m-5.313-26.576h5.313a7.973 7.973 0 0 1 7.973 7.973c0 4.403-3.637 7.958-7.973 7.973h-5.313v-5.316h5.313a2.658 2.658 0 0 0 0-5.315h-5.313zm45.174-5.313h5.315v26.574h-5.315l-10.63-16.684v16.683h-5.315v-26.573h5.315l10.63 16.684zm-79.723 0h15.945v5.315h-10.63v5.314h10.63v5.315h-10.63v5.315h10.63v5.314h-15.945zm90.352 0h5.315v26.574h-5.315zm21.26 26.574c5.87 0 10.63-4.76 10.63-10.63v-5.314c0-5.87-4.76-10.63-10.63-10.63h-10.63v26.574zm0-21.26a5.316 5.316 0 0 1 5.315 5.316v5.314a5.316 5.316 0 0 1-5.315 5.315h-5.315v-15.944zm92.41 7.972c0 7.338-5.95 13.288-13.288 13.288-7.336 0-13.287-5.95-13.287-13.288 0-7.336 5.951-13.287 13.287-13.287 7.338 0 13.288 5.95 13.288 13.287m-13.288-18.602c-10.27 0-18.6 8.33-18.6 18.602s8.33 18.603 18.6 18.603c10.273 0 18.603-8.33 18.603-18.603 0-10.271-8.33-18.602-18.603-18.602m-211.994 5.315h5.315v21.26h10.63v5.314h-15.945zm241.226 0v26.574h-5.315v-21.259zm-61.12 15.944a2.66 2.66 0 0 0-2.658 2.658v2.657h10.63v5.315H340.89v-7.972c.015-4.336 3.57-7.973 7.973-7.973a2.658 2.658 0 0 0 0-5.314h-7.973l5.315-5.314h2.658c4.335.015 7.972 3.57 7.972 7.97a7.974 7.974 0 0 1-7.972 7.973" style="fill:purple;fill-opacity:1;stroke:none"/><path d="M0 0h600v400H0z" style="fill:#fff;fill-opacity:1;stroke:none"/><path d="M0 0h400v400H0z" style="fill:#005bbb;fill-opacity:1;stroke:none"/><path d="M0 0h200v400H0z" style="fill:#ffd500;fill-opacity:1;stroke:none"/><path d="M382.36-49.43H75.64v234.671C75.64 269.924 144.317 338.6 229 338.6s153.36-68.675 153.36-153.359z" style="fill:#ffd500;fill-opacity:1;fill-rule:evenodd;stroke:#000;stroke-width:.5;stroke-miterlimit:4;stroke-opacity:1;stroke-dasharray:none" transform="translate(185.067 127.434)scale(.5019)"/><path d="M373.821 185.241c.011 79.969-64.852 144.82-144.82 144.82-79.97 0-144.821-64.851-144.821-144.82V-40.858h289.608z" style="fill:#d40000;fill-opacity:1;fill-rule:evenodd;stroke:#000;stroke-width:.5;stroke-miterlimit:4;stroke-opacity:1;stroke-dasharray:none" transform="translate(185.067 127.434)scale(.5019)"/><path d="M135.512 13.157h186.977v169.401c0 51.624-41.865 93.49-93.489 93.49s-93.488-41.866-93.488-93.49z" style="fill:#ffd500;fill-opacity:1;fill-rule:evenodd;stroke:#000;stroke-width:.5;stroke-miterlimit:4;stroke-opacity:1;stroke-dasharray:none" transform="translate(185.067 127.434)scale(.5019)"/><path d="M317.687 182.558c0 48.972-39.715 88.687-88.687 88.687-48.97 0-88.686-39.715-88.686-88.687V17.96h177.373z" style="fill:#005bbb;fill-opacity:1;fill-rule:evenodd;stroke:#000;stroke-width:.5;stroke-miterlimit:4;stroke-opacity:1;stroke-dasharray:none" transform="translate(185.067 127.434)scale(.5019)"/><g style="fill-rule:evenodd;stroke:#000;stroke-width:.52909601;stroke-miterlimit:4;stroke-opacity:1;stroke-dasharray:none"><path d="M297.942 281.34c10.346 0 18.736 8.39 18.736 18.736s-8.39 18.735-18.736 18.735-18.736-8.39-18.736-18.735c0-10.346 8.39-18.736 18.736-18.736zm0 3.993c8.141 0 14.743 6.602 14.743 14.743s-6.602 14.743-14.743 14.743-14.743-6.603-14.743-14.743 6.602-14.743 14.743-14.743z" style="fill:#fff;stroke:#000;stroke-width:.52909601;stroke-miterlimit:4;stroke-opacity:1;stroke-dasharray:none" transform="translate(158.689 16.15)scale(.4743)"/><path d="M293.851 308.371h8.182v16.979h-8.182zM252.548 424.908c3.694 7.982 12.108 11.994 20.236 10.834 9.474-1.352 19.95-12.143 19.95-21.802h-.013v-.002h7.086v.002h-.014c-.001 13.138-13.201 27.571-26.518 28.387-10.259.629-20.256-4.841-25.133-13.703l-4.656 6.208c-2.604-9.421-3.266-21.615-2.053-29.827 4.106 7.23 9.338 12.976 16.061 17.51z" style="fill:#fff;stroke:#000;stroke-width:.52909601;stroke-miterlimit:4;stroke-opacity:1;stroke-dasharray:none" transform="translate(158.689 16.15)scale(.4743)"/><path d="M343.336 424.908c-3.694 7.982-12.108 11.994-20.237 10.834-9.473-1.352-19.949-12.143-19.95-21.802h.014v-.002h-7.086v.002h.014c0 13.138 13.201 27.571 26.518 28.387 10.259.629 20.256-4.841 25.133-13.703l4.656 6.208c2.604-9.421 3.266-21.615 2.053-29.827-4.106 7.23-9.338 12.976-16.061 17.51z" style="fill:#fff;stroke:#000;stroke-width:.52909601;stroke-miterlimit:4;stroke-opacity:1;stroke-dasharray:none" transform="translate(158.689 16.15)scale(.4743)"/><path d="m303.859 422.388 5.244-99.872.006-.114h-22.334l.006.114 5.244 99.872.001.032c.136 2.618.075 5.24-.184 7.821-.26 2.578-.72 5.12-1.383 7.576-3.402 12.608-12.163 22.968-26.746 25l-.012.002a29 29 0 0 1-8.885-.147 29.88 29.88 0 0 1-18.561-11.219l7.016-4.434.151-.096-.155-.088a53 53 0 0 1-10.913-8.326c-3.279-3.249-6.209-6.981-8.822-11.22l-.155-.252-.043.292-.002.012a53 53 0 0 0-.46 4.595 84 84 0 0 0-.137 5.137c.023 9.144 1.32 19.728 3.137 26.767l.057.222.135-.186 4.926-6.802a40.262 40.262 0 0 0 7.578 7.187c7.303 5.311 16.347 8.118 25.737 7.421l.023-.001a36 36 0 0 0 6.385-1.064 37 37 0 0 0 5.976-2.127c9.754-4.449 17.403-12.989 21.253-23.006a43 43 0 0 0 2.565 5.481 43 43 0 0 0 3.462 5.268c6.578 8.57 16.36 14.614 27.61 15.449l.023.002a38.3 38.3 0 0 0 10.72-.726c8.862-1.874 16.844-6.832 22.573-13.884l4.925 6.802.135.186.057-.222.003-.011c.354-1.373.688-2.878.996-4.477.308-1.602.591-3.3.843-5.059 1.297-9.043 1.781-19.693.696-26.964l-.043-.292-.155.252c-2.613 4.239-5.543 7.971-8.822 11.22a53 53 0 0 1-10.913 8.326l-.155.088.151.096 7.016 4.434a29.4 29.4 0 0 1-2.806 3.163 30 30 0 0 1-3.305 2.786c-5.996 4.356-13.61 6.493-21.347 5.415h-.001l-.035-.005c-2.836-.398-5.452-1.111-7.849-2.094a29.5 29.5 0 0 1-6.545-3.714c-10.116-7.603-14.587-21.17-13.882-34.616z" style="fill:#fff;stroke:#000;stroke-width:.52909601;stroke-miterlimit:4;stroke-opacity:1;stroke-dasharray:none" transform="translate(158.689 16.15)scale(.4743)"/></g><g style="fill:#ffd500;fill-opacity:1;fill-rule:evenodd;stroke:#000;stroke-width:.52909601;stroke-miterlimit:4;stroke-opacity:1;stroke-dasharray:none"><path d="M160.619 377.955c2.353 2.269 5.633 3.636 9.038 3.969v-28.248l-12.352-1.315v-3.402h11.152a5.142 5.142 0 1 1 6.609-1.023 5 5 0 0 1-1.205 1.023h11.156v3.402l-12.353 1.315v28.272c3.308-.275 6.509-1.56 8.873-3.971l-.208-.064-1.941-.598c3.129-1.484 5.328-4.106 7.23-8.007 1.132 4.204.644 8.643-2.024 11.787l-1.068-1.694c-6.866 8.569-18.547 7.571-24.936-.051l-1.1 1.745c-2.668-3.144-3.157-7.583-2.024-11.787 1.902 3.901 4.101 6.523 7.23 8.007l-1.706.525zm8.504-35.402a2.885 2.885 0 0 0 .003 4.073c1.21 1.211 3.215 1.066 4.266-.222a2.88 2.88 0 0 0-.197-3.853 2.884 2.884 0 0 0-4.072.002zM160.619 246.874c2.353 2.269 5.633 3.636 9.038 3.969v-28.249l-12.352-1.315v-3.401h11.152a5.14 5.14 0 1 1 6.342-8.004 5.15 5.15 0 0 1 .267 6.981 5 5 0 0 1-1.205 1.023h11.156v3.401l-12.353 1.315v28.273c3.308-.275 6.509-1.56 8.873-3.971l-.208-.064-1.941-.599c3.129-1.483 5.328-4.105 7.23-8.006 1.132 4.203.644 8.643-2.024 11.787l-1.068-1.694c-6.866 8.569-18.547 7.57-24.936-.051l-1.1 1.745c-2.668-3.144-3.157-7.584-2.024-11.787 1.902 3.901 4.101 6.523 7.23 8.006l-1.706.526zm8.504-35.402a2.884 2.884 0 0 0 .003 4.072c1.21 1.211 3.215 1.066 4.266-.221a2.88 2.88 0 0 0-.197-3.854 2.884 2.884 0 0 0-4.072.003zM178.923 501.36c2.353 2.27 5.633 3.636 9.038 3.969v-28.248l-12.352-1.315v-3.401h11.152a5.142 5.142 0 1 1 6.609-1.023 5 5 0 0 1-1.205 1.023h11.156v3.401l-12.353 1.315v28.273c3.308-.275 6.51-1.56 8.873-3.971l-.208-.065-1.941-.598c3.129-1.484 5.328-4.106 7.23-8.006 1.133 4.203.644 8.642-2.024 11.787l-1.068-1.694c-6.866 8.568-18.547 7.57-24.935-.051l-1.101 1.745c-2.668-3.145-3.156-7.584-2.024-11.787 1.902 3.9 4.101 6.522 7.23 8.006l-1.706.526zm8.504-35.401a2.884 2.884 0 0 0 .003 4.072c1.21 1.211 3.216 1.066 4.266-.221a2.88 2.88 0 0 0-.196-3.854 2.885 2.885 0 0 0-4.073.003zM414.419 377.955c2.353 2.269 5.633 3.636 9.038 3.969v-28.248l-12.352-1.315v-3.402h11.152a5.142 5.142 0 1 1 6.609-1.023 5 5 0 0 1-1.205 1.023h11.156v3.402l-12.353 1.315v28.272c3.308-.275 6.509-1.56 8.873-3.971l-.208-.064-1.941-.598c3.129-1.484 5.328-4.106 7.23-8.007 1.132 4.204.644 8.643-2.024 11.787l-1.068-1.694c-6.866 8.569-18.547 7.571-24.935-.051l-1.101 1.745c-2.668-3.144-3.157-7.583-2.024-11.787 1.902 3.901 4.101 6.523 7.23 8.007l-1.706.525zm8.504-35.402a2.885 2.885 0 0 0 .003 4.073c1.21 1.211 3.215 1.066 4.266-.222a2.88 2.88 0 0 0-.197-3.853 2.884 2.884 0 0 0-4.072.002zM414.419 246.874c2.353 2.269 5.633 3.636 9.038 3.969v-28.249l-12.352-1.315v-3.401h11.152a5.14 5.14 0 1 1 6.342-8.004 5.15 5.15 0 0 1 .267 6.981 5 5 0 0 1-1.205 1.023h11.156v3.401l-12.353 1.315v28.273c3.308-.275 6.509-1.56 8.873-3.971l-.208-.064-1.941-.599c3.129-1.483 5.328-4.105 7.23-8.006 1.132 4.203.644 8.643-2.024 11.787l-1.068-1.694c-6.866 8.569-18.547 7.57-24.935-.051l-1.101 1.745c-2.668-3.144-3.157-7.584-2.024-11.787 1.902 3.901 4.101 6.523 7.23 8.006l-1.706.526zm8.504-35.402a2.884 2.884 0 0 0 .003 4.072c1.21 1.211 3.215 1.066 4.266-.221a2.88 2.88 0 0 0-.197-3.854 2.884 2.884 0 0 0-4.072.003zM396.115 501.36c2.353 2.27 5.633 3.636 9.038 3.969v-28.248l-12.352-1.315v-3.401h11.152a5.142 5.142 0 1 1 6.609-1.023 5 5 0 0 1-1.205 1.023h11.156v3.401l-12.353 1.315v28.273c3.308-.275 6.509-1.56 8.873-3.971l-.209-.065-1.94-.598c3.128-1.484 5.328-4.106 7.23-8.006 1.132 4.203.644 8.642-2.024 11.787l-1.068-1.694c-6.866 8.568-18.548 7.57-24.936-.051l-1.1 1.745c-2.668-3.145-3.157-7.584-2.025-11.787 1.903 3.9 4.102 6.522 7.231 8.006l-1.706.526zm8.504-35.401a2.884 2.884 0 0 0 .003 4.072c1.209 1.211 3.215 1.066 4.265-.221a2.88 2.88 0 0 0-.196-3.854 2.884 2.884 0 0 0-4.072.003z" style="fill:#ffd500;fill-opacity:1;stroke:#000;stroke-width:.52909601;stroke-miterlimit:4;stroke-opacity:1;stroke-dasharray:none" transform="translate(158.689 16.15)scale(.4743)"/></g><g style="fill:#ffd500;fill-opacity:1"><path d="M231.506 365.822c1.904 0 3.449 1.889 3.449 4.216s-1.545 4.217-3.45 4.217c-1.903 0-3.448-1.89-3.448-4.217s1.545-4.216 3.449-4.216zM240.976 342.189c1.787-.651 3.912.667 4.74 2.942s.049 4.652-1.74 5.303-3.913-.668-4.741-2.944c-.828-2.274-.048-4.65 1.74-5.301z" style="fill:#ffd500;fill-opacity:1;fill-rule:evenodd;stroke:#000;stroke-width:.5;stroke-miterlimit:4;stroke-opacity:1;stroke-dasharray:none" transform="translate(185.067 102.34)scale(.5019)"/><path d="M234.022 361.768c1.79-.65 3.912.668 4.741 2.943s.048 4.65-1.74 5.302c-1.79.65-3.913-.668-4.742-2.943-.827-2.276-.048-4.65 1.741-5.302z" style="fill:#ffd500;fill-opacity:1;fill-rule:evenodd;stroke:#000;stroke-width:.5;stroke-miterlimit:4;stroke-opacity:1;stroke-dasharray:none" transform="translate(185.067 102.34)scale(.5019)"/><path d="M236.638 354.948c1.789-.65 3.913.668 4.741 2.943.829 2.276.05 4.651-1.74 5.302-1.789.652-3.913-.667-4.74-2.942-.83-2.276-.049-4.652 1.739-5.303z" style="fill:#ffd500;fill-opacity:1;fill-rule:evenodd;stroke:#000;stroke-width:.5;stroke-miterlimit:4;stroke-opacity:1;stroke-dasharray:none" transform="translate(185.067 102.34)scale(.5019)"/><path d="M236.753 348.65c1.788-.651 3.913.668 4.741 2.943s.049 4.65-1.74 5.302c-1.79.651-3.913-.668-4.741-2.943s-.049-4.651 1.74-5.302zM222.037 342.588c-1.79-.652-3.914.667-4.742 2.942s-.049 4.65 1.74 5.302c1.79.65 3.914-.667 4.741-2.943.83-2.276.05-4.65-1.74-5.301zM228.99 362.166c-1.789-.65-3.913.668-4.741 2.943-.829 2.276-.05 4.651 1.74 5.302 1.789.652 3.913-.667 4.74-2.942.83-2.276.049-4.652-1.739-5.303z" style="fill:#ffd500;fill-opacity:1;fill-rule:evenodd;stroke:#000;stroke-width:.5;stroke-miterlimit:4;stroke-opacity:1;stroke-dasharray:none" transform="translate(185.067 102.34)scale(.5019)"/><path d="M226.373 355.347c-1.789-.651-3.913.667-4.74 2.943-.829 2.275-.049 4.65 1.74 5.301s3.912-.667 4.741-2.942.048-4.65-1.74-5.302z" style="fill:#ffd500;fill-opacity:1;fill-rule:evenodd;stroke:#000;stroke-width:.5;stroke-miterlimit:4;stroke-opacity:1;stroke-dasharray:none" transform="translate(185.067 102.34)scale(.5019)"/><path d="M226.259 349.049c-1.789-.652-3.913.667-4.741 2.942-.829 2.276-.05 4.65 1.74 5.302 1.788.65 3.913-.667 4.74-2.943.83-2.276.05-4.65-1.74-5.301z" style="fill:#ffd500;fill-opacity:1;fill-rule:evenodd;stroke:#000;stroke-width:.5;stroke-miterlimit:4;stroke-opacity:1;stroke-dasharray:none" transform="translate(185.067 102.34)scale(.5019)"/><path d="M228.591 342.985c-1.789-.65-3.913.668-4.74 2.943-.829 2.276-.05 4.651 1.739 5.303 1.789.65 3.913-.669 4.74-2.944.83-2.275.05-4.65-1.739-5.302zM234.42 342.588c1.789-.652 3.913.667 4.741 2.942.829 2.276.05 4.65-1.74 5.302-1.789.65-3.913-.667-4.74-2.943-.829-2.276-.049-4.65 1.74-5.301zM231.506 356.64c1.904 0 3.449 1.966 3.449 4.387 0 2.422-1.545 4.387-3.45 4.387-1.903 0-3.448-1.965-3.448-4.387 0-2.42 1.545-4.386 3.449-4.386z" style="fill:#ffd500;fill-opacity:1;fill-rule:evenodd;stroke:#000;stroke-width:.5;stroke-miterlimit:4;stroke-opacity:1;stroke-dasharray:none" transform="translate(185.067 102.34)scale(.5019)"/><path d="M231.506 348.509c1.904 0 3.449 1.966 3.449 4.387s-1.545 4.386-3.45 4.386c-1.903 0-3.448-1.965-3.448-4.386s1.545-4.387 3.449-4.387zM235.133 331.063c-2.104-1.015-3.69-1.075-4.878-.472-1.98 1.005-2.048 4.794-3.187 7.193 1.042.184 2.23-.128 3.096-.773 2.745-2.041 2.353-.316 1.415 2.1-.698 1.8-.002 3.838-1.016 6.335 6.246.16 8.73-2.869 8.2-7.124-.351-2.813 1.495-2.545 1.454-.27-.076 4.067 2.261 6.584 5.804 7.259 3.214.613 5.556 1.187 7.393 3.092 1.479-5.96.823-10.837-3.898-12.77-1.966-.804-1.67-1.337.403-1.479 1.878-.127 3.63.492 5.511 1.21-1.12-4.122-4.42-6.498-9.813-5.914-5.827.632-5.602.103-.94-2.42-.503-1.644-12.16-1.776-9.544 4.033z" style="fill:#ffd500;fill-opacity:1;fill-rule:evenodd;stroke:#000;stroke-width:.5;stroke-miterlimit:4;stroke-opacity:1;stroke-dasharray:none" transform="translate(185.067 102.34)scale(.5019)"/><path d="M228.286 331.063c2.104-1.015 3.69-1.075 4.877-.472 1.98 1.005 2.049 4.794 3.188 7.193-1.042.184-2.23-.128-3.096-.773-2.744-2.041-2.353-.316-1.416 2.1.699 1.8.002 3.838 1.017 6.335-6.246.16-8.73-2.869-8.2-7.124.352-2.813-1.496-2.545-1.454-.27.075 4.067-2.262 6.584-5.804 7.259-3.214.613-5.556 1.187-7.393 3.092-1.478-5.96-.823-10.837 3.898-12.77 1.966-.804 1.67-1.337-.404-1.479-1.876-.127-3.628.492-5.51 1.21 1.12-4.122 4.42-6.498 9.812-5.914 5.828.632 5.602.103.94-2.42.504-1.644 12.16-1.776 9.545 4.033z" style="fill:#ffd500;fill-opacity:1;fill-rule:evenodd;stroke:#000;stroke-width:.5;stroke-miterlimit:4;stroke-opacity:1;stroke-dasharray:none" transform="translate(185.067 102.34)scale(.5019)"/></g><g style="fill:#ffd500;fill-opacity:1;fill-rule:evenodd;stroke:#000;stroke-width:.52909601;stroke-miterlimit:4;stroke-opacity:1;stroke-dasharray:none"><g style="fill:#ffd500;fill-opacity:1;stroke:#000;stroke-width:.52909601;stroke-miterlimit:4;stroke-opacity:1;stroke-dasharray:none"><path d="M298.372 195.608v18.393h-.86v-18.393zm4.754 2.869-.408 11.732-.861-.016.409-11.731zm-2.377-1.436-.204 15.062-.86-.005.204-15.062zm-7.131 1.421.409 11.731-.861.016-.408-11.732zm2.377-1.426.204 15.062-.86.005-.204-15.062z" style="fill:#ffd500;fill-opacity:1;stroke:#000;stroke-width:.52909601;stroke-miterlimit:4;stroke-opacity:1;stroke-dasharray:none" transform="translate(158.689 16.15)scale(.4743)"/><g style="fill:#ffd500;fill-opacity:1;stroke:#000;stroke-width:.52909601;stroke-miterlimit:4;stroke-opacity:1;stroke-dasharray:none"><path d="M302.654 209.288c-1.814 1.285-5.098 2.625-4.675 5.143.241 1.441 2.526 1.4 4.039-1.109.754-1.25.843-2.755.636-4.034z" style="fill:#ffd500;fill-opacity:1;stroke:#000;stroke-width:.52909601;stroke-miterlimit:4;stroke-opacity:1;stroke-dasharray:none" transform="translate(158.689 16.15)scale(.4743)"/><path d="M302.654 213.345c-1.814 1.285-5.098 2.625-4.675 5.143.242 1.442 2.526 1.4 4.039-1.108.754-1.251.843-2.756.636-4.035z" style="fill:#ffd500;fill-opacity:1;stroke:#000;stroke-width:.52909601;stroke-miterlimit:4;stroke-opacity:1;stroke-dasharray:none" transform="translate(158.689 16.15)scale(.4743)"/><path d="M302.654 217.403c-1.814 1.284-5.098 2.625-4.675 5.143.242 1.441 2.526 1.4 4.039-1.109.754-1.251.843-2.756.636-4.034z" style="fill:#ffd500;fill-opacity:1;stroke:#000;stroke-width:.52909601;stroke-miterlimit:4;stroke-opacity:1;stroke-dasharray:none" transform="translate(158.689 16.15)scale(.4743)"/><path d="M302.654 221.46c-1.814 1.285-5.098 2.625-4.675 5.143.242 1.441 2.526 1.4 4.039-1.109.754-1.25.843-2.755.636-4.034z" style="fill:#ffd500;fill-opacity:1;stroke:#000;stroke-width:.52909601;stroke-miterlimit:4;stroke-opacity:1;stroke-dasharray:none" transform="translate(158.689 16.15)scale(.4743)"/><path d="M302.654 225.517c-1.814 1.285-5.098 2.625-4.675 5.143.242 1.442 2.526 1.4 4.039-1.108.754-1.251.843-2.756.636-4.035z" style="fill:#ffd500;fill-opacity:1;stroke:#000;stroke-width:.52909601;stroke-miterlimit:4;stroke-opacity:1;stroke-dasharray:none" transform="translate(158.689 16.15)scale(.4743)"/><path d="M302.654 229.574c-1.814 1.285-5.098 2.625-4.675 5.143.242 1.442 2.526 1.4 4.039-1.108.754-1.251.843-2.756.636-4.035z" style="fill:#ffd500;fill-opacity:1;stroke:#000;stroke-width:.52909601;stroke-miterlimit:4;stroke-opacity:1;stroke-dasharray:none" transform="translate(158.689 16.15)scale(.4743)"/><path d="M302.654 233.632c-1.814 1.285-5.098 2.625-4.675 5.143.241 1.441 2.526 1.4 4.039-1.109.754-1.251.843-2.756.636-4.034z" style="fill:#ffd500;fill-opacity:1;stroke:#000;stroke-width:.52909601;stroke-miterlimit:4;stroke-opacity:1;stroke-dasharray:none" transform="translate(158.689 16.15)scale(.4743)"/><path d="M302.654 237.689c-1.814 1.285-5.098 2.625-4.675 5.143.241 1.441 2.526 1.4 4.039-1.108.754-1.251.843-2.756.636-4.035z" style="fill:#ffd500;fill-opacity:1;stroke:#000;stroke-width:.52909601;stroke-miterlimit:4;stroke-opacity:1;stroke-dasharray:none" transform="translate(158.689 16.15)scale(.4743)"/></g><g style="fill:#ffd500;fill-opacity:1;stroke:#000;stroke-width:.52909601;stroke-miterlimit:4;stroke-opacity:1;stroke-dasharray:none"><path d="M293.23 209.288c1.814 1.285 5.098 2.625 4.675 5.143-.241 1.441-2.526 1.4-4.039-1.109-.754-1.25-.843-2.755-.636-4.034z" style="fill:#ffd500;fill-opacity:1;stroke:#000;stroke-width:.52909601;stroke-miterlimit:4;stroke-opacity:1;stroke-dasharray:none" transform="translate(158.689 16.15)scale(.4743)"/><path d="M293.23 213.345c1.814 1.285 5.098 2.625 4.675 5.143-.242 1.442-2.526 1.4-4.039-1.108-.755-1.251-.843-2.756-.636-4.035z" style="fill:#ffd500;fill-opacity:1;stroke:#000;stroke-width:.52909601;stroke-miterlimit:4;stroke-opacity:1;stroke-dasharray:none" transform="translate(158.689 16.15)scale(.4743)"/><path d="M293.23 217.403c1.814 1.284 5.098 2.625 4.675 5.143-.242 1.441-2.526 1.4-4.039-1.109-.755-1.251-.843-2.756-.636-4.034z" style="fill:#ffd500;fill-opacity:1;stroke:#000;stroke-width:.52909601;stroke-miterlimit:4;stroke-opacity:1;stroke-dasharray:none" transform="translate(158.689 16.15)scale(.4743)"/><path d="M293.23 221.46c1.814 1.285 5.098 2.625 4.675 5.143-.242 1.441-2.526 1.4-4.039-1.109-.755-1.25-.843-2.755-.636-4.034z" style="fill:#ffd500;fill-opacity:1;stroke:#000;stroke-width:.52909601;stroke-miterlimit:4;stroke-opacity:1;stroke-dasharray:none" transform="translate(158.689 16.15)scale(.4743)"/><path d="M293.23 225.517c1.814 1.285 5.098 2.625 4.675 5.143-.242 1.442-2.526 1.4-4.039-1.108-.755-1.251-.843-2.756-.636-4.035z" style="fill:#ffd500;fill-opacity:1;stroke:#000;stroke-width:.52909601;stroke-miterlimit:4;stroke-opacity:1;stroke-dasharray:none" transform="translate(158.689 16.15)scale(.4743)"/><path d="M293.23 229.574c1.814 1.285 5.098 2.625 4.675 5.143-.242 1.442-2.526 1.4-4.039-1.108-.755-1.251-.843-2.756-.636-4.035z" style="fill:#ffd500;fill-opacity:1;stroke:#000;stroke-width:.52909601;stroke-miterlimit:4;stroke-opacity:1;stroke-dasharray:none" transform="translate(158.689 16.15)scale(.4743)"/><path d="M293.23 233.632c1.814 1.285 5.098 2.625 4.675 5.143-.241 1.441-2.526 1.4-4.039-1.109-.754-1.251-.843-2.756-.636-4.034z" style="fill:#ffd500;fill-opacity:1;stroke:#000;stroke-width:.52909601;stroke-miterlimit:4;stroke-opacity:1;stroke-dasharray:none" transform="translate(158.689 16.15)scale(.4743)"/><path d="M293.23 237.689c1.814 1.285 5.098 2.625 4.675 5.143-.241 1.441-2.526 1.4-4.039-1.108-.754-1.251-.843-2.756-.636-4.035z" style="fill:#ffd500;fill-opacity:1;stroke:#000;stroke-width:.52909601;stroke-miterlimit:4;stroke-opacity:1;stroke-dasharray:none" transform="translate(158.689 16.15)scale(.4743)"/></g></g><g style="fill:#ffd500;fill-opacity:1;stroke:#000;stroke-width:.52909601;stroke-miterlimit:4;stroke-opacity:1;stroke-dasharray:none"><path d="m280.754 206.209 1.445 15.462-.851.063-1.446-15.462zm4.928 2.062.518 9.893-.852.05-.518-9.892zm-2.464-1.032.981 12.678-.851.058-.982-12.678zm-6.944 1.717 1.327 9.833-.85.076-1.327-9.833zm2.24-1.373 1.386 12.648-.851.067-1.386-12.647z" style="fill:#ffd500;fill-opacity:1;stroke:#000;stroke-width:.52909601;stroke-miterlimit:4;stroke-opacity:1;stroke-dasharray:none" transform="translate(158.689 16.15)scale(.4743)"/><path d="M276.703 217.516c1.932 1.1 5.332 2.11 5.159 4.657-.098 1.458-2.376 1.642-4.129-.705-.873-1.17-1.11-2.659-1.03-3.952z" style="fill:#ffd500;fill-opacity:1;stroke:#000;stroke-width:.52909601;stroke-miterlimit:4;stroke-opacity:1;stroke-dasharray:none" transform="translate(158.689 16.15)scale(.4743)"/><path d="M276.926 222.187c2.058.839 5.561 1.398 5.722 3.946.092 1.458-2.142 1.937-4.185-.162-1.019-1.046-1.448-2.491-1.537-3.784z" style="fill:#ffd500;fill-opacity:1;stroke:#000;stroke-width:.52909601;stroke-miterlimit:4;stroke-opacity:1;stroke-dasharray:none" transform="translate(158.689 16.15)scale(.4743)"/><path d="M277.831 226.796c2.132.63 5.673.838 6.086 3.357.237 1.442-1.938 2.141-4.18.256-1.118-.94-1.689-2.335-1.906-3.613z" style="fill:#ffd500;fill-opacity:1;stroke:#000;stroke-width:.52909601;stroke-miterlimit:4;stroke-opacity:1;stroke-dasharray:none" transform="translate(158.689 16.15)scale(.4743)"/><path d="M278.874 231.385c2.198.332 5.733.052 6.488 2.491.433 1.396-1.626 2.387-4.106.827-1.236-.778-1.992-2.083-2.382-3.318z" style="fill:#ffd500;fill-opacity:1;stroke:#000;stroke-width:.52909601;stroke-miterlimit:4;stroke-opacity:1;stroke-dasharray:none" transform="translate(158.689 16.15)scale(.4743)"/><path d="M280.413 235.392c2.218.142 5.716-.441 6.678 1.924.551 1.354-1.416 2.518-4.02 1.176-1.299-.669-2.164-1.903-2.658-3.1z" style="fill:#ffd500;fill-opacity:1;stroke:#000;stroke-width:.52909601;stroke-miterlimit:4;stroke-opacity:1;stroke-dasharray:none" transform="translate(158.689 16.15)scale(.4743)"/><path d="M282.251 239.313c2.223.001 5.678-.802 6.787 1.498.635 1.316-1.254 2.602-3.937 1.428-1.339-.586-2.28-1.763-2.85-2.926zM285.803 216.294c-1.56 1.584-4.558 3.479-3.7 5.884.49 1.377 2.733.935 3.782-1.8.523-1.364.346-2.861-.082-4.084z" style="fill:#ffd500;fill-opacity:1;stroke:#000;stroke-width:.52909601;stroke-miterlimit:4;stroke-opacity:1;stroke-dasharray:none" transform="translate(158.689 16.15)scale(.4743)"/><path d="M286.727 220.492c-1.628 1.513-4.707 3.274-3.956 5.714.43 1.397 2.69 1.055 3.858-1.631.583-1.34.472-2.843.098-4.083z" style="fill:#ffd500;fill-opacity:1;stroke:#000;stroke-width:.52909601;stroke-miterlimit:4;stroke-opacity:1;stroke-dasharray:none" transform="translate(158.689 16.15)scale(.4743)"/><path d="M287.936 224.36c-1.628 1.513-4.707 3.275-3.956 5.715.43 1.397 2.69 1.055 3.858-1.632.583-1.339.472-2.843.098-4.083z" style="fill:#ffd500;fill-opacity:1;stroke:#000;stroke-width:.52909601;stroke-miterlimit:4;stroke-opacity:1;stroke-dasharray:none" transform="translate(158.689 16.15)scale(.4743)"/><path d="M288.964 227.767c-1.508 1.633-4.442 3.625-3.507 6.001.536 1.36 2.762.845 3.722-1.922.478-1.38.253-2.871-.215-4.079z" style="fill:#ffd500;fill-opacity:1;stroke:#000;stroke-width:.52909601;stroke-miterlimit:4;stroke-opacity:1;stroke-dasharray:none" transform="translate(158.689 16.15)scale(.4743)"/><path d="M290.251 231.195c-1.387 1.738-4.171 3.935-3.067 6.237.632 1.318 2.815.646 3.574-2.184.378-1.411.046-2.881-.507-4.053z" style="fill:#ffd500;fill-opacity:1;stroke:#000;stroke-width:.52909601;stroke-miterlimit:4;stroke-opacity:1;stroke-dasharray:none" transform="translate(158.689 16.15)scale(.4743)"/><path d="M291.715 234.553c-1.231 1.851-3.815 4.281-2.516 6.479.743 1.258 2.861.399 3.372-2.485.255-1.438-.203-2.875-.856-3.994z" style="fill:#ffd500;fill-opacity:1;stroke:#000;stroke-width:.52909601;stroke-miterlimit:4;stroke-opacity:1;stroke-dasharray:none" transform="translate(158.689 16.15)scale(.4743)"/></g><g style="fill:#ffd500;fill-opacity:1;stroke:#000;stroke-width:.52909601;stroke-miterlimit:4;stroke-opacity:1;stroke-dasharray:none"><path d="m315.131 206.209-1.445 15.463.851.063 1.445-15.463zm-4.929 2.063-.517 9.893.852.05.517-9.893zm2.465-1.033-.982 12.678.852.059.981-12.678zm6.943 1.717-1.326 9.833.85.076 1.326-9.833zm-2.239-1.373-1.386 12.648.85.068 1.386-12.648z" style="fill:#ffd500;fill-opacity:1;stroke:#000;stroke-width:.52909601;stroke-miterlimit:4;stroke-opacity:1;stroke-dasharray:none" transform="translate(158.689 16.15)scale(.4743)"/><path d="M319.181 217.516c-1.931 1.1-5.331 2.11-5.159 4.657.099 1.459 2.376 1.643 4.129-.705.874-1.17 1.111-2.659 1.03-3.952z" style="fill:#ffd500;fill-opacity:1;stroke:#000;stroke-width:.52909601;stroke-miterlimit:4;stroke-opacity:1;stroke-dasharray:none" transform="translate(158.689 16.15)scale(.4743)"/><path d="M318.958 222.187c-2.058.839-5.561 1.398-5.722 3.946-.092 1.459 2.142 1.938 4.186-.161 1.019-1.047 1.447-2.492 1.536-3.785z" style="fill:#ffd500;fill-opacity:1;stroke:#000;stroke-width:.52909601;stroke-miterlimit:4;stroke-opacity:1;stroke-dasharray:none" transform="translate(158.689 16.15)scale(.4743)"/><path d="M318.053 226.797c-2.131.63-5.672.837-6.086 3.356-.237 1.442 1.939 2.142 4.181.256 1.118-.94 1.688-2.335 1.905-3.612z" style="fill:#ffd500;fill-opacity:1;stroke:#000;stroke-width:.52909601;stroke-miterlimit:4;stroke-opacity:1;stroke-dasharray:none" transform="translate(158.689 16.15)scale(.4743)"/><path d="M317.01 231.385c-2.197.332-5.733.052-6.488 2.491-.432 1.396 1.627 2.387 4.106.827 1.237-.778 1.993-2.082 2.382-3.318z" style="fill:#ffd500;fill-opacity:1;stroke:#000;stroke-width:.52909601;stroke-miterlimit:4;stroke-opacity:1;stroke-dasharray:none" transform="translate(158.689 16.15)scale(.4743)"/><path d="M315.472 235.392c-2.218.142-5.717-.441-6.678 1.925-.551 1.353 1.415 2.517 4.02 1.176 1.298-.669 2.163-1.904 2.658-3.101z" style="fill:#ffd500;fill-opacity:1;stroke:#000;stroke-width:.52909601;stroke-miterlimit:4;stroke-opacity:1;stroke-dasharray:none" transform="translate(158.689 16.15)scale(.4743)"/><path d="M313.633 239.313c-2.222.001-5.677-.802-6.787 1.498-.635 1.316 1.254 2.602 3.938 1.428 1.338-.585 2.28-1.762 2.849-2.926zM310.082 216.295c1.56 1.583 4.558 3.478 3.7 5.883-.491 1.377-2.733.935-3.782-1.8-.523-1.364-.347-2.861.082-4.083z" style="fill:#ffd500;fill-opacity:1;stroke:#000;stroke-width:.52909601;stroke-miterlimit:4;stroke-opacity:1;stroke-dasharray:none" transform="translate(158.689 16.15)scale(.4743)"/><path d="M309.157 220.492c1.628 1.513 4.707 3.274 3.956 5.715-.43 1.397-2.689 1.054-3.858-1.632-.582-1.339-.472-2.843-.098-4.083z" style="fill:#ffd500;fill-opacity:1;stroke:#000;stroke-width:.52909601;stroke-miterlimit:4;stroke-opacity:1;stroke-dasharray:none" transform="translate(158.689 16.15)scale(.4743)"/><path d="M307.948 224.361c1.629 1.512 4.707 3.274 3.956 5.714-.43 1.397-2.689 1.055-3.858-1.631-.582-1.34-.472-2.843-.098-4.083z" style="fill:#ffd500;fill-opacity:1;stroke:#000;stroke-width:.52909601;stroke-miterlimit:4;stroke-opacity:1;stroke-dasharray:none" transform="translate(158.689 16.15)scale(.4743)"/><path d="M306.921 227.767c1.507 1.633 4.442 3.626 3.506 6.001-.535 1.36-2.762.846-3.721-1.922-.479-1.38-.254-2.871.215-4.079z" style="fill:#ffd500;fill-opacity:1;stroke:#000;stroke-width:.52909601;stroke-miterlimit:4;stroke-opacity:1;stroke-dasharray:none" transform="translate(158.689 16.15)scale(.4743)"/><path d="M305.634 231.196c1.386 1.737 4.17 3.934 3.067 6.237-.632 1.318-2.816.645-3.574-2.185-.378-1.41-.047-2.881.507-4.052z" style="fill:#ffd500;fill-opacity:1;stroke:#000;stroke-width:.52909601;stroke-miterlimit:4;stroke-opacity:1;stroke-dasharray:none" transform="translate(158.689 16.15)scale(.4743)"/><path d="M304.169 234.554c1.231 1.85 3.815 4.28 2.517 6.478-.744 1.259-2.861.4-3.372-2.485-.255-1.438.202-2.874.855-3.993z" style="fill:#ffd500;fill-opacity:1;stroke:#000;stroke-width:.52909601;stroke-miterlimit:4;stroke-opacity:1;stroke-dasharray:none" transform="translate(158.689 16.15)scale(.4743)"/></g></g></svg>