<svg xmlns="http://www.w3.org/2000/svg" width="450" height="300" viewBox="0 0 441.092 294.061"><path d="M0 0h441.092v294.061H0z" style="fill:#fff;fill-opacity:1;stroke:none"/><path d="M0 73.515h441.092v147.031H0z" style="fill:#ffd500;fill-opacity:1;stroke:none"/><path d="M0 122.526h441.092v49.01H0z" style="fill:#005bbb;fill-opacity:1;stroke:none"/><g style="stroke-width:.7351535;stroke-miterlimit:4;stroke-dasharray:none"><path d="m281.378 68.201 9.095-1.068c4.698-.955 8.598 4.886 7.835 8.424-1.794 4.359-3.216 7.326-3.216 12.119v15.32l11.434 17.576c-2.252 13.063-1.352 25.674.981 38.082l-17.744 10.242c-11.023 8.605-4.623 24.22 7.93 25.454.045 7.319-2.851 13.425-9.877 17.831-7.833 4.91-15.265 8.387-21.421 15.762-1.362 8.542-7.008 12.61-13.47 13.247-2.699 11.984-21.651 8.075-32.38 20.346-10.726-12.271-29.678-8.362-32.379-20.346-6.46-.637-12.106-4.705-13.47-13.247-6.155-7.375-13.587-10.851-21.419-15.762-7.026-4.406-9.922-10.512-9.878-17.83 12.554-1.235 18.953-16.85 7.93-25.455l-17.744-10.242c2.333-12.408 3.233-25.02.982-38.082L146 102.996v-15.32c0-4.793-1.422-7.76-3.217-12.12-.761-3.537 3.138-9.378 7.837-8.423l9.095 1.068z" style="fill:#ffd300;fill-rule:evenodd;stroke:maroon;stroke-width:.7351535;stroke-miterlimit:4;stroke-dasharray:none"/><path d="m268.116 229.122-1.004-3.464c4.715-8.49 12.65-9.685 19.374-15.135 5.523-4.477 7.984-9.511 7.83-15.021-6.693-1.51-11.712-7.75-11.712-15.216 0-6.66 3.997-12.345 9.611-14.566v3.235c-3.909 1.933-6.598 5.96-6.598 10.614 0 7.541 6.853 12.8 14.018 11.669 1.68 9.617-2.394 18.846-11.059 23.48-8.12 4.343-15.109 5.345-20.46 14.404zM289.998 59.222c3.47 0 4.388 1.89 4.388 4.221 0 6.513-11.054 6.86-15.092 6.86h-50.518v-4.388h50.518c6.52 0 7.235-6.693 10.704-6.693zM277.125 85.148a4.006 4.006 0 0 1 4.004 4.004 4.006 4.006 0 0 1-4.004 4.004 4.006 4.006 0 0 1-4.004-4.004 4.006 4.006 0 0 1 4.004-4.004zM305.943 75.667c0-2.33-1.89-4.22-4.22-4.22-6.515 0-8.698 8.049-8.698 15.091v42.117h3.72V86.538c0-8.022 9.198-4.927 9.198-10.871z" style="fill:#ffd300;fill-rule:evenodd;stroke:maroon;stroke-width:.7351535;stroke-miterlimit:4;stroke-dasharray:none"/><path d="M297.011 101.328c19.72 0 16.884 29.973-3.86 29.973-8.9 0-16.256-5.884-17.433-13.518 5.174 7.38 12.356 8.735 17.222 2.9-3.553-1.567-6.035-5.119-6.035-9.25 0-5.58 4.526-10.105 10.106-10.105zM296.79 173.924c19.719 0 17.116-29.395-3.861-28.815-8.895.245-19.269 8.9-19.055 23.027 2.508-8.259 9.674-12.343 14.546-9.978a10.05 10.05 0 0 0-1.735 5.66c0 5.58 4.525 10.106 10.105 10.106zM220.546 264.062c-5.858-5.757-12.654-9.879-20.816-11.196-8.255-1.333-13.488-5.018-14.561-11.937l5.233.192c1.024 3.634 4.102 6.277 10.095 8.11 7.86 2.407 13.776 3.818 20.049 10.028 6.274-6.21 12.19-7.62 20.05-10.027 6.1-1.868 9.18-4.572 10.148-8.307l5.18.004c-1.073 6.92-6.306 10.604-14.562 11.937-8.16 1.317-15.232 5.302-20.816 11.197zM172.976 229.122l1.004-3.464c-4.716-8.49-12.65-9.685-19.373-15.135-5.524-4.477-7.984-9.511-7.83-15.021 6.693-1.51 11.71-7.75 11.71-15.216 0-6.66-3.995-12.345-9.61-14.566v3.235c3.908 1.933 6.598 5.96 6.598 10.614 0 7.541-6.852 12.8-14.018 11.669-1.681 9.617 2.395 18.846 11.06 23.48 8.12 4.343 15.109 5.345 20.459 14.404z" style="fill:#ffd300;fill-rule:evenodd;stroke:maroon;stroke-width:.7351535;stroke-miterlimit:4;stroke-dasharray:none"/><path d="M258.918 230.362a5.76 5.76 0 0 1-3.886 1.505c-3.189 0-5.644-2.588-5.774-5.774-.532-12.99 20.325-12.3 21.05 2.363.474 9.585-9.57 14.594-19.326 14.594-11.99 0-21.714-8.714-21.714-19.458 0-3.208.867-6.234 2.401-8.902-.696 1.88-1.9 4.01-1.9 6.1 0 9.879 9.248 17.877 19.99 18.735 3.24.259 6.602-.278 8.958-2.406 2.759-2.496 2.076-5.672.201-6.757zM216.361 241.81c1.573-1.459 3.192-3.29 4.185-5.464 1.004 2.107 2.466 3.895 4.185 5.463a31.6 31.6 0 0 0-4.185 5.464c-1.328-2.157-2.723-3.844-4.185-5.464zM144.302 173.924c-19.72 0-17.116-29.395 3.86-28.815 8.896.245 19.27 8.9 19.056 23.027-2.507-8.259-9.674-12.343-14.545-9.978a10.06 10.06 0 0 1 1.735 5.66c0 5.58-4.526 10.106-10.106 10.106zM182.175 230.362a5.76 5.76 0 0 0 3.886 1.505c3.188 0 5.644-2.588 5.774-5.774.53-12.99-20.325-12.3-21.05 2.363-.474 9.585 9.57 14.594 19.325 14.594 11.99 0 21.715-8.714 21.715-19.458 0-3.208-.868-6.234-2.403-8.902.698 1.88 1.901 4.01 1.901 6.1 0 9.879-9.247 17.877-19.99 18.735-3.24.259-6.602-.278-8.958-2.406-2.759-2.496-2.076-5.672-.2-6.757zM135.15 75.667c0-2.33 1.89-4.22 4.22-4.22 6.514 0 8.696 8.049 8.696 15.091v42.117h-3.72V86.538c0-8.022-9.196-4.927-9.196-10.871zM151.094 59.222c-3.47 0-4.388 1.89-4.388 4.221 0 6.513 11.054 6.86 15.092 6.86h50.518v-4.388h-50.518c-6.52 0-7.234-6.693-10.704-6.693zM163.967 85.148a4.006 4.006 0 0 0-4.004 4.004 4.006 4.006 0 0 0 4.004 4.004 4.006 4.006 0 0 0 4.004-4.004 4.006 4.006 0 0 0-4.004-4.004z" style="fill:#ffd300;fill-rule:evenodd;stroke:maroon;stroke-width:.7351535;stroke-miterlimit:4;stroke-dasharray:none"/><path d="M144.082 101.328c-19.72 0-16.885 29.973 3.86 29.973 8.898 0 16.255-5.884 17.432-13.518-5.174 7.38-12.356 8.735-17.221 2.9a10.11 10.11 0 0 0 6.033-9.25c0-5.58-4.524-10.105-10.104-10.105zM227.116 84.743c-4.09-12.346 7.065-14.666 15.841-6.992-6.227-11.106-2.071-21.584 6.302-27.12h-57.426c8.374 5.536 12.53 16.014 6.303 27.12 8.775-7.674 19.93-5.354 15.84 6.992z" style="fill:#ffd300;fill-rule:evenodd;stroke:maroon;stroke-width:.7351535;stroke-miterlimit:4;stroke-dasharray:none"/><path d="M251.712 76.032a5.164 5.164 0 0 1-4.457 7.764c-6.798 0-9.562-10.407-9.562-15.486 0-9.753 9.202-23.61 19.887-23.61 5.788 0 11.762 5.002 11.762 11.17 0 5.628-2.549 11.17-9.224 11.17a9.22 9.22 0 0 1-8.043-4.705c-4.82-1.113-9.643 2.593-9.643 7.667 0 3.284 2.493 8.184 6.818 8.04 1.066-.035 2.278-.802 2.462-2.01z" style="fill:#ffd300;fill-rule:evenodd;stroke:maroon;stroke-width:.7351535;stroke-miterlimit:4;stroke-dasharray:none"/><path d="M235.03 83.658c0 1.54-.749 2.794-1.832 3.555-1.35.948-2.801 1.312-4.183 1.187-8.33-.753-7.895-13.095-.968-15.99 4.166-1.74 9.546-.565 11.325 4.455-3.738-4.14-10.84-1.568-10.553 2.832 2.795-1.303 6.21.743 6.21 3.961zM189.38 76.032a5.164 5.164 0 0 0 4.457 7.764c6.8 0 9.562-10.407 9.562-15.486 0-9.753-9.202-23.61-19.886-23.61-5.789 0-11.763 5.002-11.763 11.17 0 5.628 2.549 11.17 9.224 11.17a9.22 9.22 0 0 0 8.044-4.705c4.818-1.113 9.642 2.593 9.642 7.667 0 3.284-2.492 8.184-6.817 8.04-1.068-.035-2.278-.802-2.464-2.01z" style="fill:#ffd300;fill-rule:evenodd;stroke:maroon;stroke-width:.7351535;stroke-miterlimit:4;stroke-dasharray:none"/><path d="M206.064 83.658c0 1.54.748 2.794 1.831 3.555 1.348.948 2.801 1.312 4.182 1.187 8.33-.753 7.896-13.095.968-15.99-4.167-1.74-9.546-.565-11.324 4.455 3.737-4.14 10.839-1.568 10.553 2.832-2.795-1.303-6.21.743-6.21 3.961z" style="fill:#ffd300;fill-rule:evenodd;stroke:maroon;stroke-width:.7351535;stroke-miterlimit:4;stroke-dasharray:none"/><path d="M235.852 47.612h-1.734a6.13 6.13 0 0 0-3.204-3.946l1.231-10.298a16 16 0 0 1 3.707-8.407zM222.077 62.92h3.48a13.8 13.8 0 0 1-3.48 6.445zm-6.54 0h3.48v6.445a13.77 13.77 0 0 1-3.48-6.445zm9.828-6.841c.344 1.202.538 2.467.538 3.779h-3.826a3.82 3.82 0 0 1 3.288-3.78zm-9.637 0a3.82 3.82 0 0 1 3.288 3.779h-3.827c0-1.312.195-2.577.539-3.78zm18.39-5.405h1.734v9.184h-6.888c0-1.552-.216-3.057-.61-4.484l1.471-.335a6.15 6.15 0 0 0 4.293-4.365zm-28.877 0h1.734a6.14 6.14 0 0 0 4.293 4.365l1.47.335a16.9 16.9 0 0 0-.61 4.484h-6.887zm15.305-5.012a35 35 0 0 0 3.36 7.618 6.9 6.9 0 0 0-3.36 2.261 6.87 6.87 0 0 0-3.36-2.26 35 35 0 0 0 3.36-7.62zM205.24 24.96a16 16 0 0 1 3.707 8.407l1.231 10.298a6.13 6.13 0 0 0-3.204 3.946h-1.734zm15.305-10.968a9.14 9.14 0 0 0-2.295 6.064c.084 5.106.71 10.202.765 15.309.113 4.757-1.314 9.226-3.05 13.585-.578 1.204-1.204 2.384-1.828 3.564l-1.843-.371a3.06 3.06 0 0 1 .586-6.063l.67.072-1.495-12.487c-.488-5.56-3.356-10.437-7.58-13.609a19 19 0 0 0-2.296-1.484V62.92h10.235a16.83 16.83 0 0 0 6.266 10.26 6.2 6.2 0 0 1 1.865 2.034 6.2 6.2 0 0 1 1.866-2.034 16.83 16.83 0 0 0 6.265-10.26h10.235V18.573c-.8.44-1.57.939-2.295 1.484-4.226 3.172-7.092 8.05-7.582 13.61l-1.494 12.486.67-.072a3.07 3.07 0 0 1 2.99 2.463 3.06 3.06 0 0 1-2.404 3.6l-1.842.371c-.625-1.18-1.251-2.36-1.829-3.564-1.736-4.36-3.163-8.828-3.05-13.585.055-5.107.681-10.203.766-15.309 0-2.326-.87-4.445-2.296-6.064z" style="fill:#ffd500;fill-opacity:1;stroke:maroon;stroke-width:.7351535;stroke-miterlimit:4;stroke-dasharray:none"/></g><path d="M277.244 167.324V89.251H163.848v78.073c0 31.309 25.39 56.7 56.698 56.7 31.309 0 56.698-25.391 56.698-56.7z" style="fill:#d20000;fill-rule:evenodd;stroke:maroon;stroke-width:1.47030699;stroke-miterlimit:4;stroke-dasharray:none"/><path d="m228.09 143.33 7.834-29.239h-30.757l7.835 29.239-29.238-7.834v30.757l29.238-7.835-7.835 29.239h30.757l-7.834-29.24 29.24 7.836v-30.757z" style="fill:#fff;fill-rule:evenodd;stroke:none"/></svg>