<svg xmlns="http://www.w3.org/2000/svg" xmlns:xlink="http://www.w3.org/1999/xlink" xml:space="preserve" width="600" height="400"><path fill="#77b5fe" d="M0 0h600v400H0z" style="fill:#76c5f0;fill-opacity:1"/><g transform="translate(216.469 97.424)scale(.78132)"><symbol id="a" viewBox="-1.625 -1.625 3.25 3.25"><path fill="#404040" d="M1.625 0a1.626 1.626 0 1 0-3.251.001A1.626 1.626 0 0 0 1.625 0"/></symbol><symbol id="b" fill="#fff" stroke="#404040" stroke-linejoin="round" style="fill:#c3c3c1;fill-opacity:1" viewBox="-5.213 -12.238 11.086 24.477"><path d="M.699-4.193C-.994-1.747-3.418-.117-4.713-.185c1.303.039 2.966 1.838 3.558 4.378A37.6 37.6 0 0 0 3.152.139 22.5 22.5 0 0 0 .699-4.193z" style="fill:#c3c3c1;fill-opacity:1"/><path d="M2.842-11.738c.716 1.941-.403 5.135-2.143 7.545A22.5 22.5 0 0 1 3.151.139C5.107-4.06 5.46-7.559 2.842-11.738z" style="fill:#c3c3c1;fill-opacity:1"/><path d="M-2.987 11.738C1.234 9.525 3.152 5.963 3.152.138a37.6 37.6 0 0 1-4.307 4.054c.65 2.505-.287 5.699-1.832 7.546z" style="fill:#c3c3c1;fill-opacity:1"/><path d="M2.515 3.699c-.58-.107-.754-1.791-.39-3.762s1.129-3.482 1.708-3.375c1.158.214 1.802 1.985 1.439 3.955-.365 1.973-1.599 3.396-2.757 3.182z" style="fill:#c3c3c1;fill-opacity:1"/></symbol><symbol id="c" viewBox="-8.944 -5.785 17.889 11.569"><path fill="gold" stroke="#404040" d="M-8.165 4.965c.856-2.747 3.204-5.641 6.593-7.724 3.389-2.082 7.03-2.868 9.869-2.391C7.441-2.401 5.094.492 1.704 2.575c-3.388 2.082-6.101 1.003-9.869 2.39z"/></symbol><path fill="gold" d="M106.9 267.97c-4.34-14.2-13.742-24.84-22.99-24.84h-57c-14.35 0-25.59-11.641-25.59-26.5V1.09H212.5v215.54c0 14.859-11.24 26.5-25.59 26.5h-57c-9.086 0-18.492 10.654-23.005 24.872v-.034z"/><path fill="#77b5fe" d="M8.32 8.088v208.54c0 11.117 7.992 19.5 18.59 19.5h57c12.353 0 19.046 8.026 23.043 16.638 4.069-8.608 10.785-16.638 22.957-16.638h57c10.598 0 18.59-8.383 18.59-19.5V8.088z" style="fill:#76c5f0;fill-opacity:1"/><path fill="gold" stroke="#404040" d="m120.42 54.414-4.585-8.497h-7.25l-3.509 8.556c-12.928 2.925-22.58 14.47-22.58 28.277V93.5h60.75V82.75c0-13.898-9.779-25.507-22.831-28.336z"/><path fill="#fff" stroke="#404040" d="M144.75 100.15a2 2 0 0 1-2 2h-59.5a2 2 0 0 1-2-2v-4.375a2 2 0 0 1 2-2h59.5a2 2 0 0 1 2 2z" style="fill:#c3c3c1;fill-opacity:1"/><path fill="#fff" stroke="#404040" stroke-linecap="round" stroke-linejoin="round" d="M115.53 87.011a4.87 4.87 0 0 0 2.149-4.042c0-2.106-1.343-3.883-3.213-4.565 1.131-1.145 2.479-2.279 2.802-2.279-.55 0-4.464-3.938-4.464-4.464 0 .589-3.867 4.464-4.464 4.464.332 0 1.678 1.134 2.806 2.277-1.872.681-3.217 2.459-3.217 4.566 0 1.687.857 3.173 2.16 4.048-4.665 1.213-8.113 5.439-8.113 10.483l-.031 4.563h21.688l.031-4.563c0-5.05-3.459-9.283-8.134-10.488" style="fill:#c3c3c1;fill-opacity:1"/><use xlink:href="#a" width="3.25" height="3.25" x="-1.625" y="-1.625" transform="matrix(1 0 0 -1 84.75 97.964)"/><use xlink:href="#a" width="3.25" height="3.25" x="-1.625" y="-1.625" transform="matrix(1 0 0 -1 91.625 97.964)"/><use xlink:href="#a" width="3.25" height="3.25" x="-1.625" y="-1.625" transform="matrix(1 0 0 -1 98.5 97.964)"/><use xlink:href="#a" width="3.25" height="3.25" x="-1.625" y="-1.625" transform="matrix(1 0 0 -1 127.25 97.964)"/><use xlink:href="#a" width="3.25" height="3.25" x="-1.625" y="-1.625" transform="matrix(1 0 0 -1 134.23 97.964)"/><use xlink:href="#a" width="3.25" height="3.25" x="-1.625" y="-1.625" transform="matrix(1 0 0 -1 141.209 97.964)"/><use xlink:href="#a" width="3.25" height="3.25" x="-1.625" y="-1.625" transform="matrix(1 0 0 -1 112.875 76)"/><use xlink:href="#a" width="3.25" height="3.25" x="-1.625" y="-1.625" transform="matrix(1.4651 0 0 -1.4651 108.494 96.744)"/><use xlink:href="#a" width="3.25" height="3.25" x="-1.625" y="-1.625" transform="matrix(1.4651 0 0 -1.4651 117.12 96.744)"/><use xlink:href="#b" width="11.086" height="24.477" x="-5.213" y="-12.238" transform="matrix(1 0 0 -1 140.428 77.074)"/><use xlink:href="#b" width="11.086" height="24.477" x="-5.213" y="-12.238" transform="matrix(-1 0 0 -1 85.5 77.074)"/><path fill="#fff" stroke="#404040" d="M112.58 27.833c0 2.917-6 26.5-12.583 27.75 0 0 6.499.416 8.333-2.167.386-1.635-.583-1.448-.583-3.583 1.656 0 2.917.417 2.917.417s.552.938.146 1.406-1.344 1.531-1.344 2.313 3.114 3.125 3.114 4.75c0-1.625 3.114-3.969 3.114-4.75s-.938-1.844-1.344-2.313.146-1.406.146-1.406 1.261-.417 2.917-.417c0 2.135-.969 1.948-.583 3.583 1.834 2.583 8.333 2.167 8.333 2.167-6.583-1.25-12.583-24.833-12.583-27.75z" style="fill:#c3c3c2;fill-opacity:1"/><path fill="gold" stroke="#404040" d="M112.58 27.833c0 1.024-.741 4.597-1.985 8.854h3.971c-1.245-4.256-1.986-7.83-1.986-8.854z"/><circle cx="112.69" cy="26.938" r="1.5" fill="#fcfcfc" stroke="#404040" style="fill:#c3c3c1;fill-opacity:1"/><path fill="gold" stroke="#404040" d="M162.78 171.82c-.006.073-.022.144-.022.219a3.25 3.25 0 1 0 6.5 0c0-.194-.024-.383-.057-.568.02 0 .037.006.057.006a3.25 3.25 0 1 0 0-6.5q-.019.002-.038.004c.015-.126.038-.249.038-.379a3.25 3.25 0 1 0-6.5 0c0 .075.017.146.022.219h-25.257v-25.257c.073.006.144.022.219.022a3.25 3.25 0 1 0 0-6.5c-.194 0-.383.024-.568.057 0-.02.006-.037.006-.057a3.25 3.25 0 1 0-6.5 0q.002.019.004.038c-.126-.015-.249-.038-.379-.038a3.25 3.25 0 1 0 0 6.5c.075 0 .146-.017.219-.022v25.257h-25.257c.006-.073.022-.144.022-.219a3.25 3.25 0 1 0-6.5 0c0 .194.024.383.057.568-.02 0-.037-.006-.057-.006a3.25 3.25 0 1 0 0 6.5q.019-.002.038-.004c-.015.126-.038.249-.038.379a3.25 3.25 0 1 0 6.5 0c0-.075-.017-.146-.022-.219h25.257v24.257c-.073-.006-.144-.022-.219-.022a3.25 3.25 0 1 0 0 6.5c.194 0 .383-.024.568-.057 0 .02-.006.037-.006.057a3.25 3.25 0 1 0 6.5 0c0-.013-.004-.025-.004-.038.126.015.249.038.379.038a3.25 3.25 0 1 0 0-6.5c-.075 0-.146.017-.219.022V171.82z"/><path fill="gold" stroke="#404040" stroke-linejoin="round" d="M70.15 198.75c10.1 19.25 33.35 20.125 42.475 20.125-.25-1.625 0-3 1.125-3.625-31.25-.125-43.6-16.5-43.6-16.5z"/><path fill="gold" stroke="#404040" d="m87.917 119.75 22.333-6.67L90 120.92l25.58-6.17-26.163 7.92 30.083-4.75-27.875 5.91 27.455-3.75-25.83 4.5 23.87-1.5-25.495 2.25-10.708 2.25z"/><use xlink:href="#c" width="17.889" height="11.569" x="-8.944" y="-5.785" transform="matrix(-.5952 -.4493 .4447 -.6991 89.736 126.076)"/><use xlink:href="#c" width="17.889" height="11.569" x="-8.944" y="-5.785" transform="matrix(-.6105 -.4284 .4202 -.7141 83.47 129.599)"/><use xlink:href="#c" width="17.889" height="11.569" x="-8.944" y="-5.785" transform="matrix(-.6796 -.3073 .2799 -.7798 77.798 133.41)"/><use xlink:href="#c" width="17.889" height="11.569" x="-8.944" y="-5.785" transform="rotate(189.242 42.687 65.648)scale(.8985)"/><use xlink:href="#c" width="17.889" height="11.569" x="-8.944" y="-5.785" transform="rotate(178.1 33.39 72.516)scale(.8984)"/><use xlink:href="#c" width="17.889" height="11.569" x="-8.944" y="-5.785" transform="rotate(168.455 25.527 78.31)scale(.8984)"/><use xlink:href="#c" width="17.889" height="11.569" x="-8.944" y="-5.785" transform="rotate(157.377 16.234 84.91)scale(.8984)"/><use xlink:href="#c" width="17.889" height="11.569" x="-8.944" y="-5.785" transform="rotate(146.766 7.042 92.085)scale(.8984)"/><use xlink:href="#c" width="17.889" height="11.569" x="-8.944" y="-5.785" transform="rotate(137.217 -1.612 98.888)"/><use xlink:href="#c" width="17.889" height="11.569" x="-8.944" y="-5.785" transform="rotate(132.735 -6.018 104.602)"/><use xlink:href="#c" width="17.889" height="11.569" x="-8.944" y="-5.785" transform="rotate(126.505 -12.377 110.905)"/><use xlink:href="#c" width="17.889" height="11.569" x="-8.944" y="-5.785" transform="rotate(122.325 -17.117 117.107)"/><use xlink:href="#c" width="17.889" height="11.569" x="-8.944" y="-5.785" transform="matrix(-.0528 .6069 .7324 .0271 88.382 120.464)"/><use xlink:href="#c" width="17.889" height="11.569" x="-8.944" y="-5.785" transform="matrix(-.0228 .7836 .8333 .0215 80.903 123.808)"/><use xlink:href="#c" width="17.889" height="11.569" x="-8.944" y="-5.785" transform="matrix(.1668 .8165 .8179 -.1667 74.724 127.022)"/><use xlink:href="#c" width="17.889" height="11.569" x="-8.944" y="-5.785" transform="matrix(.2286 .8433 .8074 -.2388 68.962 131.362)"/><use xlink:href="#c" width="17.889" height="11.569" x="-8.944" y="-5.785" transform="matrix(.458 .8316 .9825 -.4043 63.66 138.201)"/><use xlink:href="#c" width="17.889" height="11.569" x="-8.944" y="-5.785" transform="matrix(.6127 .72 .7903 -.5582 58.837 145.951)"/><use xlink:href="#c" width="17.889" height="11.569" x="-8.944" y="-5.785" transform="rotate(219.97 56.174 66.755)scale(-1 1)"/><use xlink:href="#c" width="17.889" height="11.569" x="-8.944" y="-5.785" transform="rotate(210.81 50.144 74.296)scale(-1 1)"/><use xlink:href="#c" width="17.889" height="11.569" x="-8.944" y="-5.785" transform="rotate(201.143 44.204 81.257)scale(-1 1)"/><use xlink:href="#c" width="17.889" height="11.569" x="-8.944" y="-5.785" transform="rotate(190.597 37.199 88.246)scale(-1 1)"/><use xlink:href="#c" width="17.889" height="11.569" x="-8.944" y="-5.785" transform="rotate(187.533 36.91 93.259)scale(-1 1)"/><use xlink:href="#c" width="17.889" height="11.569" x="-8.944" y="-5.785" transform="matrix(1 0 0 -1 65.584 199.083)"/></g></svg>