<svg xmlns="http://www.w3.org/2000/svg" width="600" height="400"><path fill="#0057b7" d="M0-.002h600v400H0z"/><path fill="#e0004d" d="M300-.002h300v400H300z"/><path d="m239.19 177.658.2-6.97.643.062.067.006c9.843.934 19.749 2.813 28.95 6.522 18.726 7.55 28.857 20.68 30.947 38.102 2.09-17.422 12.222-30.552 30.948-38.102 9.201-3.709 19.106-5.588 28.95-6.522l.067-.006.644-.061.198 6.969 2.238.026-.086 6.215 1.775.073.116 6.728 1.977.053.337 7.347c-16.837-1.73-43.854-1.36-50.434 18.37-1.64 4.919-1.594 10.378-.135 15.826 2.501 9.341 9.145 18.636 18.554 25.16 1.505.952 2.018 2.25 1.846 3.561-.088.681-.367 1.355-.788 1.973a6.6 6.6 0 0 1-1.596 1.612c-1.8 1.29-4.354 1.847-6.671.638-11.772-4.784-18.934-11.365-23.12-18.96-2.723-4.944-4.179-10.309-4.82-15.88-.642 5.571-2.097 10.935-4.821 15.88-4.185 7.595-11.346 14.176-23.118 18.96-2.317 1.21-4.872.652-6.672-.638a6.6 6.6 0 0 1-1.595-1.612c-.421-.618-.7-1.292-.789-1.973-.17-1.31.341-2.609 1.846-3.56v-.001c9.41-6.524 16.054-15.818 18.554-25.16 1.459-5.449 1.506-10.907-.135-15.826-6.58-19.73-33.596-20.1-50.433-18.37l.337-7.347 1.977-.053.115-6.728 1.775-.073-.085-6.215z"/><path d="M299.98 113.188c12.321 0 22.314 9.992 22.314 22.313s-9.992 22.314-22.314 22.314-22.314-9.993-22.314-22.314 9.993-22.313 22.314-22.313m-20.358 9.46L264.339 99.86l21.986 14.746c-2.281-4.364-1.826-7.672-1.378-10.925.622-4.512.544-7.22-2.174-11.527 5.587 2 6.381 5.719 7.665 10.406.864 3.19 1.791 6.612 4.234 9.457l5.308-26.926 5.12 25.977c1.473-4.697 4.134-6.714 6.751-8.698 3.63-2.75 5.49-4.72 6.613-9.688 2.537 5.366.469 8.557-1.938 12.779-1.645 2.867-3.409 5.943-3.693 9.683l22.789-15.284-14.746 21.988c4.363-2.282 7.672-1.828 10.926-1.38 4.51.622 7.22.545 11.526-2.174-2.001 5.588-5.72 6.382-10.406 7.665-3.19.865-6.613 1.792-9.457 4.235l26.926 5.307-25.977 5.121c4.696 1.473 6.714 4.134 8.697 6.75 2.75 3.63 4.72 5.49 9.689 6.613-5.367 2.537-8.557.47-12.78-1.938-2.867-1.645-5.942-3.409-9.682-3.693l15.283 22.789-21.987-14.746c2.281 4.363 1.827 7.672 1.379 10.926-.621 4.51-.544 7.22 2.174 11.526-5.587-2-6.381-5.719-7.665-10.406-.864-3.19-1.792-6.611-4.234-9.457l-5.308 26.926-5.121-25.978c-1.472 4.698-4.133 6.715-6.75 8.699-3.63 2.75-5.49 4.72-6.613 9.688-2.537-5.366-.469-8.556 1.938-12.778 1.645-2.867 3.408-5.943 3.692-9.682l-22.787 15.283 14.746-21.988c-4.364 2.28-7.673 1.826-10.926 1.378-4.512-.621-7.22-.544-11.526 2.175 2-5.588 5.719-6.382 10.406-7.665 3.19-.864 6.611-1.792 9.456-4.235l-26.925-5.308 25.978-5.12c-4.697-1.473-6.715-4.133-8.7-6.75-2.75-3.63-4.72-5.49-9.687-6.613 5.366-2.537 8.556-.47 12.779 1.938 2.867 1.645 5.943 3.41 9.682 3.693z"/><path fill="gold" d="M299.98 113.188c12.316 0 22.313 9.997 22.313 22.313 0 12.317-9.997 22.314-22.313 22.314-12.317 0-22.314-9.997-22.314-22.314s9.997-22.313 22.314-22.313M283.08 242.548l-.92.846-.895.895-.871.896-.82.895-.797.896-.721.87-.323.448-.299.423-.298.423-.274.423-.249.398-.198.398-.2.398-.148.373-.125.349-.1.348-.074.348-.025.299v.323l.05.273.074.274.125.249.174.224.199.199.273.174.299.174.323.124.323.075.324.025h.298l.299-.075.273-.1.274-.149.249-.198.248-.224.249-.249.224-.299.224-.323.224-.373.198-.374.2-.422.198-.448.174-.448.175-.472.173-.523.15-.497.298-1.095.249-1.12.249-1.143.199-1.194.198-1.17zM290.35 250.518l-1.169.248-1.169.25-1.119.273-1.119.323-1.07.324-1.02.348-.472.174-.448.2-.447.198-.423.2-.398.198-.373.224-.324.199-.323.224-.273.224-.25.224-.223.248-.174.25-.149.223-.1.249-.074.273-.025.25.025.273.05.249.124.274.15.273.223.274.224.224.224.174.248.149.274.1.273.05h.597l.299-.075.323-.075.348-.125.323-.149.349-.174.373-.224.348-.224.373-.273.373-.274.373-.298.373-.324.373-.323.771-.721.771-.772.771-.796.746-.846.722-.845z"/><path fill="green" d="m273.73 252.308-1.045.547-1.044.547-1.02.573-.97.596-.945.598-.87.597-.423.298-.373.299-.373.298-.349.299-.322.298-.3.299-.273.298-.223.274-.224.299-.175.273-.124.273-.124.274-.075.274-.025.274.025.248.05.249.075.224.149.224.174.224.248.223.274.2.274.149.273.1.274.05.273.024.299-.025.273-.074.299-.1.274-.124.298-.175.274-.224.298-.224.273-.273.274-.274.298-.323.274-.323.274-.374.273-.373.274-.397.273-.424.547-.87.523-.92.497-.97.497-.971.448-.995zM280.05 260.468l-1.194-.125-1.169-.1-1.169-.099-1.143-.05h-1.12l-1.07.025-.521.025-.498.05-.473.05-.472.05-.423.074-.423.1-.397.1-.349.098-.348.15-.298.124-.274.175-.249.173-.224.175-.173.224-.15.224-.1.223-.05.25-.024.273.025.298.075.324.1.323.148.274.175.248.198.2.224.174.249.124.274.1.273.074.324.05.348.025.348-.025.373-.05.373-.05.398-.1.423-.099.422-.149.448-.15.448-.173.448-.175.472-.224.945-.447.97-.498.97-.522.97-.572.945-.572zM296.99 236.628l-.945.697-.945.72-.92.747-.87.747-.822.746-.77.746-.373.373-.324.348-.323.373-.298.35-.274.372-.224.348-.224.324-.199.348-.149.323-.125.3-.099.323-.074.273-.025.299v.273l.05.249.099.248.124.224.175.224.223.2.249.174.298.149.299.124.298.05.274.025.298-.025.274-.075.249-.1.273-.148.274-.2.248-.199.249-.248.249-.299.223-.298.25-.348.223-.374.224-.373.224-.423.199-.423.224-.448.198-.472.373-.97.374-1.02.348-1.045.323-1.094.299-1.07zM286.56 232.748l-.423 1.095-.423 1.119-.373 1.12-.348 1.094-.298 1.07-.274 1.044-.1.498-.099.497-.074.473-.05.447-.05.448-.025.423v.398l.025.398.025.348.05.349.1.298.099.274.124.274.15.224.173.174.2.174.248.124.249.1.299.05h.323l.323-.026.299-.049.298-.1.248-.149.224-.174.2-.2.149-.223.149-.274.124-.298.1-.299.074-.348.075-.373.025-.398.025-.398v-.448l-.025-.448-.025-.447-.05-.498-.05-.473-.074-.522-.2-1.02-.223-1.07-.274-1.069-.273-1.095-.323-1.07zM286.39 218.618l-.124 1.368-.1 1.343-.05 1.344-.025 1.318v1.293l.05 1.22.05.597.05.572.074.547.1.522.1.498.099.473.124.447.15.423.148.373.175.349.174.323.223.273.224.25.224.199.274.149.274.1.298.074h.298l.349-.025.347-.074.374-.15.323-.174.274-.199.223-.224.2-.274.148-.273.1-.324.075-.323.05-.373v-.373l-.026-.423-.049-.423-.1-.448-.1-.448-.148-.472-.15-.498-.199-.497-.199-.498-.224-.522-.248-.547-.547-1.07-.597-1.095-.647-1.094-.671-1.095-.672-1.095zM298.83 221.038l-.696.945-.697.97-.671.945-.647.97-.572.97-.522.921-.249.448-.224.448-.199.448-.174.422-.15.423-.148.398-.125.373-.074.373-.075.374-.025.323v.323l.025.299.05.273.075.274.124.224.149.224.2.174.223.15.273.124.3.1.322.074.324.025.273-.025.299-.05.248-.124.249-.124.224-.2.224-.199.198-.248.175-.299.174-.298.15-.349.148-.348.125-.398.1-.423.123-.423.075-.472.1-.473.074-.473.05-.522.1-1.045.074-1.07.025-1.119.025-1.12-.025-1.119zM295.74 205.288l-.398 1.293-.373 1.293-.348 1.319-.299 1.269-.248 1.244-.2 1.218-.074.572-.05.573-.05.547-.024.522-.025.523.025.473.025.472.05.423.074.423.074.373.125.348.149.299.174.273.175.249.223.2.25.173.272.125.299.074.348.05.373-.025.373-.05.349-.1.298-.148.273-.174.25-.2.198-.248.174-.299.15-.298.099-.349.1-.373.05-.398.049-.422v-.448l-.025-.473-.025-.497-.05-.523-.074-.522-.1-.523-.124-.572-.125-.572-.298-1.144-.348-1.194-.398-1.22-.423-1.193-.448-1.194zM281.27 207.078l.497 1.269.498 1.268.546 1.244.548 1.194.572 1.145.597 1.069.298.498.299.497.323.448.298.448.299.398.323.373.299.348.323.323.298.274.299.249.323.2.299.148.298.125.298.074.324.025.273-.025.299-.074.298-.125.274-.199.298-.224.274-.273.199-.299.149-.299.124-.323.05-.298v-.324l-.025-.348-.1-.323-.123-.349-.15-.348-.199-.348-.248-.373-.274-.349-.298-.373-.324-.348-.373-.373-.373-.373-.423-.373-.422-.348-.473-.374-.945-.721-1.02-.721-1.07-.722-1.069-.672-1.094-.671zM281.72 197.108l.473 1.268.522 1.269.547 1.219.547 1.194.572 1.144.597 1.095.298.497.3.498.297.448.324.447.298.398.299.373.323.349.298.323.324.274.298.224.299.198.323.175.298.1.299.074.299.025.298-.025.298-.05.299-.149.273-.174.299-.224.248-.298.224-.274.15-.299.099-.323.05-.323.025-.324-.05-.323-.074-.324-.125-.348-.174-.348-.2-.348-.223-.373-.274-.349-.298-.373-.348-.348-.348-.373-.398-.374-.398-.373-.448-.373-.448-.348-.945-.746-1.02-.722-1.069-.696-1.094-.697-1.095-.646z"/><path fill="gold" d="M310.37 168.208c.97 3.581 1.862 6.868 4.737 8.694-1.782-3.733-1.375-6.696-.96-9.705.471-3.425.95-6.912-2.062-11.737a23 23 0 0 1-2.445 1.294c4.097 5.065 1.15 6.847 2.341 10.538-1.455-1.796-.342-6.036-4.053-9.84a23 23 0 0 1-2.218.678c2.75 3.032 3.74 6.681 4.66 10.078zm-26.173-2.236c-1.846 3.219-3.54 6.173-2.798 9.498 1.379-3.9 3.763-5.707 6.184-7.542 2.754-2.088 5.56-4.214 6.841-9.756a23 23 0 0 1-2.643-.816c-.685 6.48-4.03 5.655-5.797 9.109.24-2.3 4.027-4.512 4.092-9.828a23 23 0 0 1-2.048-1.089c-.198 4.09-2.08 7.372-3.83 10.424zm-16.927-20.087c-3.581.97-6.868 1.862-8.694 4.738 3.733-1.783 6.696-1.376 9.705-.96 3.425.47 6.913.95 11.738-2.062a23 23 0 0 1-1.294-2.446c-5.065 4.098-6.848 1.15-10.539 2.342 1.796-1.456 6.037-.343 9.842-4.054a23 23 0 0 1-.68-2.217c-3.03 2.75-6.681 3.74-10.077 4.66zm2.236-26.173c-3.22-1.846-6.174-3.54-9.498-2.798 3.9 1.38 5.707 3.763 7.542 6.184 2.088 2.755 4.215 5.56 9.756 6.842q.333-1.355.817-2.644c-6.481-.684-5.656-4.03-9.11-5.796 2.3.24 4.512 4.027 9.829 4.092q.495-1.055 1.088-2.048c-4.09-.198-7.372-2.08-10.425-3.832m20.087-16.926c-.97-3.581-1.862-6.868-4.737-8.694 1.782 3.733 1.374 6.696.96 9.705-.472 3.425-.95 6.913 2.062 11.738q1.179-.718 2.445-1.293c-4.098-5.066-1.15-6.848-2.342-10.54 1.456 1.796.343 6.037 4.055 9.842a23 23 0 0 1 2.217-.679c-2.75-3.032-3.74-6.682-4.66-10.078zm26.172 2.235c1.847-3.218 3.54-6.172 2.799-9.497-1.38 3.9-3.763 5.707-6.184 7.542-2.755 2.088-5.56 4.215-6.841 9.757q1.355.332 2.643.816c.684-6.48 4.03-5.656 5.796-9.11-.24 2.3-4.026 4.512-4.09 9.829q1.052.495 2.046 1.088c.198-4.09 2.08-7.372 3.831-10.425m16.927 20.088c3.582-.97 6.868-1.862 8.694-4.737-3.732 1.782-6.696 1.375-9.705.96-3.424-.471-6.913-.95-11.738 2.062q.718 1.18 1.293 2.446c5.067-4.099 6.849-1.15 10.54-2.342-1.795 1.455-6.037.343-9.842 4.055q.394 1.085.68 2.216c3.031-2.75 6.682-3.74 10.078-4.66zm-2.235 26.172c3.219 1.847 6.173 3.54 9.498 2.798-3.9-1.379-5.708-3.762-7.542-6.183-2.088-2.755-4.216-5.56-9.757-6.842a23 23 0 0 1-.817 2.644c6.482.684 5.656 4.03 9.11 5.797-2.299-.241-4.512-4.027-9.829-4.092q-.495 1.054-1.088 2.048c4.09.198 7.372 2.08 10.425 3.83m-53.377-20.313-22.975 4.529 22.975 4.53a23.5 23.5 0 0 1-.425-3.667l-8.89-.863 8.89-.862q.07-1.876.425-3.667m3.506 17.517-13.047 19.455 19.454-13.048a23.4 23.4 0 0 1-2.894-2.292l-6.898 5.677 5.678-6.897a23.5 23.5 0 0 1-2.293-2.895m14.867 9.913 4.53 22.975 4.528-22.975c-1.192.235-2.417.38-3.667.426l-.862 8.89-.862-8.89a23.4 23.4 0 0 1-3.667-.425zm17.517-3.506 19.455 13.048-13.047-19.455a23.5 23.5 0 0 1-2.293 2.895l5.678 6.898-6.899-5.678a23.4 23.4 0 0 1-2.894 2.293zm9.913-14.867 22.975-4.529-22.975-4.529a23.4 23.4 0 0 1 .425 3.667l8.89.862-8.89.863a23.5 23.5 0 0 1-.425 3.666m-3.506-17.517 13.047-19.455L312.97 116.1a23.5 23.5 0 0 1 2.895 2.294l6.898-5.678-5.678 6.898c.837.9 1.605 1.868 2.293 2.894zm-14.867-9.913-4.529-22.975-4.529 22.975a23.5 23.5 0 0 1 3.667-.425l.862-8.89.862 8.89c1.25.047 2.475.191 3.667.426zm-17.518 3.506-19.454-13.047 13.047 19.455a23.4 23.4 0 0 1 2.293-2.895l-5.678-6.897 6.898 5.677a23.5 23.5 0 0 1 2.894-2.293z"/><path d="M295.36 142.638c3.715-9.783-.476-16.673-4.852-17.124-2.58-.266-5.476 1.512-6.35 6.647l-2.834-2.306c1.579-4.038 5.584-6.247 9.245-6.057 5.135.267 9.755 5.364 6.9 17.325h5.033c-2.855-11.961 1.765-17.058 6.9-17.325 3.66-.19 7.666 2.019 9.244 6.057l-2.833 2.306c-.875-5.135-3.77-6.913-6.35-6.647-4.377.45-8.568 7.341-4.852 17.124zM306.62 148.598c.699-.19 1.406-.35 2.019-1.572q-.49.185-.985.348c-2.207.468-3.369-.523-4.103-1.15-.416-.355-.729-.622-1.125-.606-.487.02-.766.511-1.099 1.1-.345.61-.775 1.368-1.34 1.403-.566-.035-.995-.794-1.34-1.403-.333-.588-.61-1.08-1.1-1.1-.395-.016-.708.25-1.124.606-.734.627-1.896 1.618-4.104 1.15q-.495-.163-.984-.348c.612 1.221 1.32 1.382 2.018 1.572q1.112.301 2.243.5c.367.82.953 1.587 1.818 1.91.871.324 1.794.097 2.573-.345.779.442 1.701.67 2.573.345.864-.323 1.451-1.09 1.818-1.91q1.13-.199 2.242-.5m-1.716-.493c-1.274.26-2.566.418-3.86.474.448-.375.766-.94 1.044-1.429v-.002c.201-.358.37-.656.372-.656.054-.002.255.17.522.397.46.392 1.062.907 1.922 1.216zm-5.973.474a24.6 24.6 0 0 1-3.86-.473c.86-.31 1.461-.825 1.92-1.217.267-.228.468-.399.523-.397l.372.658c.277.49.596 1.054 1.045 1.429m-2.259.684c2.198.29 4.43.29 6.629 0-.286.45-.639.773-1.047.925-.819.305-1.597-.127-2.267-.554-.67.427-1.45.86-2.268.554-.45-.168-.79-.52-1.047-.925"/><path d="M292.69 132.308a2.34 2.34 0 0 1-1.117 1.995 5.25 5.25 0 0 0 3.08-1.958 5.25 5.25 0 0 0-2.911-1.919c.575.426.948 1.111.948 1.882zm-4.683 0c0-.705.312-1.337.805-1.766a5.26 5.26 0 0 0-2.51 1.803 5.25 5.25 0 0 0 2.666 1.853 2.34 2.34 0 0 1-.96-1.89m7.736.037a6.14 6.14 0 0 1-5.267 2.977 6.14 6.14 0 0 1-5.266-2.977 6.14 6.14 0 0 1 5.266-2.976 6.14 6.14 0 0 1 5.267 2.976m-6.582.162a.494.494 0 1 0 .989.002.494.494 0 0 0-.989-.002m21.601-2.08a5.25 5.25 0 0 1 2.91 1.918 5.25 5.25 0 0 1-3.079 1.958 2.34 2.34 0 0 0 .17-3.877zm-2.774 3.77a5.26 5.26 0 0 1-2.667-1.852 5.26 5.26 0 0 1 2.512-1.803 2.337 2.337 0 0 0 .155 3.655m1.509-4.828a6.14 6.14 0 0 0-5.266 2.976 6.14 6.14 0 0 0 5.266 2.977 6.14 6.14 0 0 0 5.267-2.977 6.14 6.14 0 0 0-5.267-2.976m-.82 2.643a.494.494 0 1 1 0 .99.495.495 0 1 1 0-.99"/><path fill="gold" d="M291.55 210.338a1.58 1.58 0 1 1 0 3.16 1.58 1.58 0 0 1 0-3.16m1.393 10.796a1.58 1.58 0 1 1 0 3.16 1.58 1.58 0 0 1 0-3.16m-1.666 13.458a1.58 1.58 0 1 1 0 3.16 1.58 1.58 0 0 1 0-3.16m-6.168 12.587a1.58 1.58 0 1 1 0 3.16 1.58 1.58 0 0 1 0-3.16m-9.227 8.433a1.58 1.58 0 1 1 0 3.16 1.58 1.58 0 0 1 0-3.16m5.832-58.508c1.333 3.593 3.03 7.588 5.397 10.199 1.092 1.205 2.604 2.017 3.905.77 1.395-1.336.813-2.822-.324-4.252-2.31-2.907-5.86-4.832-8.978-6.717zm1.368 45.448c-2.419 2.223-4.811 4.562-6.467 7.413-.858 1.479-1.651 3.457.324 4.403 2.013.964 3.218-.994 3.93-2.562 1.296-2.86 1.807-6.14 2.213-9.254m7.262 7.96c-3.09.658-6.504 1.312-9.227 2.96-1.443.874-2.682 2.206-1.343 3.707 1.017 1.14 2.28.783 3.482.1 2.845-1.62 5.001-4.32 7.088-6.767zm-16.613 1.791c-2.809 1.472-5.798 2.952-8.033 5.25-1.043 1.07-1.926 2.488-.523 3.63 1.282 1.044 2.591.37 3.656-.696 2.24-2.24 3.611-5.391 4.9-8.184m6.317 8.16c-3.134-.327-6.569-.747-9.675 0-1.664.4-2.983 1.147-2.537 2.81.477 1.776 2.394 1.723 3.806 1.369 2.836-.711 5.916-2.606 8.406-4.18zm16.937-23.832c-2.396 1.766-5.115 3.718-6.864 6.219-.992 1.418-1.98 3.313.1 4.279 1.506.7 2.724-.584 3.456-1.741 1.696-2.68 2.443-5.727 3.308-8.757m-10.421-3.88c-1.118 2.892-2.222 5.803-2.512 8.905-.144 1.54.045 3.682 2.04 3.607 1.891-.071 2.277-1.68 2.313-3.309.066-3.095-.934-6.272-1.841-9.204zm-.174-14.13c-.32 3.523-.588 7.13.124 10.621.426 2.09 1.293 3.972 3.382 3.334 2.116-.646 2.015-2.582 1.493-4.428-.983-3.477-3.005-6.535-5-9.528zm12.435 2.413c-1.804 2.449-3.758 5.017-4.8 7.91-.551 1.53-.941 3.464.97 4.005 1.788.506 2.731-1.02 3.133-2.562.803-3.078.77-6.167.697-9.353m-3.084-15.746c-1.054 3.424-2.037 6.783-2.09 10.373-.024 1.774.317 4.158 2.637 3.93 2.11-.208 2.43-2.164 2.338-3.98-.18-3.527-1.578-7.091-2.885-10.324zm-14.474 1.79c1.32 3.37 2.698 7.07 5.098 9.851 1.221 1.415 2.605 2.497 4.203 1.12 1.46-1.258.733-2.927-.323-4.254-2.29-2.879-5.865-4.877-8.978-6.717M240.7 172.168l-.154 5.396c20.788.502 42.687 5.297 53.211 24.728-1.05-8.284-9.625-15.52-17.217-19.901a63 63 0 0 0-7.936-3.84h-.005l-.048-.02v-.002c-8.868-3.575-18.364-5.415-27.85-6.361zm47.504 25.385c-11.636-14.658-31.764-18.766-49.881-18.538l.065 4.683c19.172-.135 34.768 3.734 49.816 13.855zm-51.611-12.287-.092 5.352c16.043.136 34.721.951 46.906 13.205-7.326-15.49-31.14-19.2-46.814-18.556zm14.796 7.296c-5.717-.595-11.479-.642-16.924-.497l-.209 4.546c14.56-1.328 36.006-.678 45.236 9.237-7.162-12.082-25.054-12.968-28.104-13.286zM359.3 172.168l.154 5.396c-20.788.502-42.688 5.297-53.21 24.728 1.05-8.284 9.624-15.52 17.216-19.901a63 63 0 0 1 7.937-3.84h.005l.047-.02v-.002c8.87-3.575 18.364-5.415 27.85-6.361zm-47.504 25.385c11.636-14.658 31.764-18.766 49.881-18.538l-.064 4.683c-19.172-.135-34.768 3.734-49.817 13.855zm51.611-12.287.092 5.352c-16.043.136-34.721.951-46.906 13.205 7.326-15.49 31.14-19.2 46.814-18.556zm-14.796 7.296c5.717-.595 11.479-.642 16.924-.497l.209 4.546c-14.561-1.328-36.006-.678-45.236 9.237 7.162-12.082 25.054-12.968 28.103-13.286zM308.45 210.338a1.58 1.58 0 1 0 0 3.16 1.58 1.58 0 0 0 0-3.16m-1.393 10.796a1.58 1.58 0 1 0 0 3.16 1.58 1.58 0 0 0 0-3.16m1.666 13.458a1.58 1.58 0 1 0 0 3.16 1.58 1.58 0 0 0 0-3.16m6.168 12.587a1.58 1.58 0 1 0 0 3.16 1.58 1.58 0 0 0 0-3.16m9.227 8.433a1.58 1.58 0 1 0 0 3.16 1.58 1.58 0 0 0 0-3.16m-5.832-58.508c-1.333 3.593-3.03 7.588-5.397 10.199-1.092 1.205-2.604 2.017-3.905.77-1.395-1.336-.813-2.822.324-4.252 2.31-2.907 5.861-4.832 8.978-6.717zm-1.367 45.448c2.418 2.223 4.81 4.562 6.466 7.413.858 1.479 1.652 3.457-.324 4.403-2.013.964-3.218-.994-3.93-2.562-1.296-2.86-1.807-6.14-2.212-9.254m-7.263 7.96c3.091.658 6.504 1.312 9.227 2.96 1.443.874 2.682 2.206 1.343 3.707-1.017 1.14-2.28.783-3.482.1-2.845-1.62-5-4.32-7.088-6.767zm16.614 1.791c2.809 1.472 5.798 2.952 8.033 5.25 1.043 1.07 1.926 2.488.522 3.63-1.282 1.044-2.59.37-3.656-.696-2.239-2.24-3.61-5.391-4.899-8.184m-6.317 8.16c3.133-.327 6.568-.747 9.674 0 1.665.4 2.984 1.147 2.538 2.81-.477 1.776-2.395 1.723-3.806 1.369-2.836-.711-5.916-2.606-8.406-4.18m-16.937-23.832c2.395 1.766 5.115 3.718 6.864 6.219.992 1.418 1.98 3.313-.1 4.279-1.506.7-2.724-.584-3.457-1.741-1.695-2.68-2.442-5.727-3.307-8.757m10.42-3.88c1.119 2.892 2.222 5.803 2.512 8.905.145 1.54-.044 3.682-2.039 3.607-1.891-.071-2.278-1.68-2.313-3.309-.066-3.095.934-6.272 1.84-9.204zm.175-14.13c.32 3.523.587 7.13-.124 10.621-.427 2.09-1.294 3.972-3.383 3.334-2.115-.646-2.014-2.582-1.492-4.428.983-3.477 3.005-6.535 4.999-9.528zm-12.435 2.413c1.804 2.449 3.758 5.017 4.8 7.91.551 1.53.941 3.464-.97 4.005-1.788.506-2.732-1.02-3.134-2.562-.802-3.078-.768-6.167-.696-9.353m3.084-15.746c1.053 3.424 2.037 6.783 2.089 10.373.025 1.774-.316 4.158-2.636 3.93-2.11-.208-2.43-2.164-2.338-3.98.179-3.527 1.578-7.091 2.885-10.324zm14.474 1.79c-1.321 3.37-2.698 7.07-5.098 9.851-1.222 1.415-2.606 2.497-4.204 1.12-1.46-1.258-.732-2.927.324-4.254 2.289-2.879 5.865-4.877 8.978-6.717"/><path fill="gold" stroke="#000" d="M202.51 74.678v134.524c0 53.818 43.668 97.534 97.486 97.534s97.486-43.716 97.486-97.534V74.678H202.511zm4.98 4.98H392.5v129.55c0 51.117-41.388 92.506-92.504 92.506s-92.505-41.39-92.505-92.505z"/></svg>