<svg xmlns="http://www.w3.org/2000/svg" xmlns:xlink="http://www.w3.org/1999/xlink" width="795" height="530"><path fill="#fff" d="M0 0h795v530H0z"/><path fill="#093" d="M317 0h478v212H317zM0 317h795v212H0z"/><g transform="translate(27)"><g id="a"><path d="M169.5 227.6c.3-2.5.2-4.8-.3-7.2-1.2-4.7-5-4.2-8-2.9-.7 2-1.2 4.2-1.9 6 .3 2.8.2 6.4-.7 9-.5 2.1 1.2 4.1 2.7 4.5 7.5 1.4 15 4.1 19.5 8.3 1.1 1.3.5 4-1.1 5.9-1.5 1.9-2.5 4.8-1.2 6.8 1.8-3 5-1.6 6.3 1.3 3.9-2.6 2.9-5.9 1.9-10-.5-2.1.5-4.8 2.4-5.2 3.4-.4 5.1 2.1 7.2 4.1 2 1.9 4.8 3.5 7.4 2.4-1.3-2.3-1.3-5.7 1.6-7.5-.3-1.8-2.1-2.7-3.6-2.4-3 .9-7.3.7-9.1-1.2-1.7-1.9 4.6-5.9 7.2-5.6 2.6.4 5.3 0 5.8-2.6-2.3-2.6-2.3-4-1.7-7l-.6-.4c-2-1.7-4.1.9-5.4 3.4-1.5 2.4-3.9 4.7-6.1 6.1-1.9 1.2-1.9 1.1 0 0 2.5-1.9 4.5-3.8 6-6.2.8-1.7 1.9-3.1 3.4-4-1.5-1.3-1.1-3.9-.5-5.4-2.4-2.1-5.7 0-5.6 3.2-.2 3.8-2.6 7.4-5.5 9.9-1.1 1.8-3.2 3.4-5.5 4-5.9-1-11.8-4.4-14.4-7.4z" style="fill:red;stroke:#900" transform="translate(-.4)"/><g style="fill:none;stroke:#000"><path d="M177.8 165.6c-2.7-6.8-4.9-14.3-6.3-20.7M208.6 69c4.4-8 7.6-14.2 11.3-21.85M216.8 146.4c-8.4-6.3-15.5-11.3-22.8-17.65M233.7 97.9c-7.5 1.1-15.8 1.9-22.1 2.4M228 123.8c-9.2-2.6-15.4-4.6-23.9-7.5M197.8 160.8c-5.5-7.8-9.2-14.1-12.9-21.35M231 71.4c-5.9 4.1-12.3 8-18 11.4"/></g><path d="M169.9 27.8c-.6 1.9-2.9 1.5-3.1-.2-.4.2-.8.1-1.2-.2-1.4 2-3.9 1.4-4-1.6 0-3 3-4 4.4-2.3.5-1.8-.6-3.2-2.4-3.3-.7 0-1.4.6-1.6 1 .1-2-.8-3.3-1.9-5.2-1.1 1.8-2 3.1-2 5.2-.1-.4-.6-1-1.6-1-1.9.1-3 1.5-2.4 3.3 1.5-2.1 4.5 0 4.4 2.3 0 2.4-2.9 3.5-4.2 1.5-.3.3-.6.3-1 .2-.6 1.6-2.6 2.8-3.2.2-.2-1.6 0-4.3 2-3.8-.3-1.1-1.2-2.3-2.4-2.2-1 .2-1.7 1.2-1.7 2.2-.7-1.7-1.7-2.7-3.3-2.6 2.1 3.7 3.2 7.2 3.8 10.9 7.7-2.2 15.7-2.2 23.2 0 .4-4.3 1.7-7.3 3.8-10.9-1.5-.1-2.7.8-3.1 2.6-.2-1.3-1-2.2-2-2.2-1.2.1-2.1.9-2.3 2.2 1.8-.1 2.6 2.2 2 3.9z" style="fill:#fc0;stroke:#960" transform="translate(-.4)"/><path d="M171.6 37.6v-5.2c-7.6-2.2-16.1-2.2-23.1 0v5.2c8.8-2.2 14.6-2.5 22.8-.1z" style="fill:#fc0;stroke:#960" transform="translate(-.4)"/><path d="M187 53.6c-.4.1-.9.3-1.2 1-1.2 2.6-6.2 5.2-7.5 2.6-.5-1.1-1-1.5-1.8-2.2-1.4-1.1-3.2-1.6-5-1.6-2.9-.1-4.8 2.4-5.4 4.8.8-.365 1.7-.7 2.5-1 2.5-2.9 6.3.6 7.9 2.9 3.5 5.5 10.2-.8 10.4-6.6z" style="fill:red;stroke:#900" transform="translate(-.4)"/><path d="M172.2 40.6c0-1.2-.2-2.2-.9-3.1-6.6-2.2-14.7-2.5-21.9 0-2.2.9-4.8 1.4-7 .3-.3 3 2 3.6 3.9 4-1.9 5-2.8 9.8-2.8 15.5 3.1-.4 5-3.4 6.6-5.5-2.3 3.5-3 6.3-2.5 9.7 2.7-.7 4.9-2.2 6.4-5-1.1 2.5-1.6 6.6-.5 8.8-1 2.5-.7 5.2.2 7.6 2.9-1.3 4.7-2.6 6.6-4.6l.1 4c.1 3.8.4 5.7 2.9 6.2-1.8-6.9-1-11.6 3.5-14.2-3.6-3.6-3.5-9.1.3-12.8 3.2-3.1 4.7-4.6 4-8.5.5-.9.7-1.5 1-2.3z" style="fill:#000;stroke:#666" transform="translate(-.4)"/><path d="M176.5 43.4c-.3-2.2-2.5-2.7-4.3-2.8-.4.9-.8 1.7-1 2.3.3 1.7.3 2.6-.3 4.2-.7 1.5-2.2 3-3.6 4.3-4.9 4.6-3.6 9.2-.2 13.1 2.2-3.3 6.4-4 9.3-.8-.1-5.2-5.5-8.4-10-5.4.2-2.4 1.6-4.4 4.2-4.8 1.5-1.4 3.8-1.5 5-.8 2.8-1.7 6-.6 7 1.8 1.6-4.9.9-9.4-6-11.1z" style="fill:#fc0;stroke:#960" transform="translate(-.4)"/><g style="fill:#000;stroke:#666"><path d="M187 126.3c1.3 7.9 1.7 10 2.4 14.6-1.3-.3-2.4-.6-3.6-1 2.4 3.2 5 6.5 7.4 9.2 12.7 16.1 29.3 28.1 41 22.3-14.6-12.7-29.5-27.6-39.4-42.3-3.2-.7-5-1.2-7.8-2.7zM197.8 69.4c4.1-2.3 6.8-2.5 10.8-1 1.9-5.2 3.6-10.9 4.9-15.9 4.1-15.1 1.6-29.9-6.2-37.8.6 14.1-1.6 26.5-4.8 37.9.8 6-2.1 12.1-4.7 16.7z"/><path d="M200.8 46.2c-3.6 10.8-7.8 19.1-17.1 29.1-4 7.2-5.2 10.3-1.4 16.8 1.4 2.1 2.3 5.3 1 7.2-7.9 9.3-19.2 4.8-22.6-5.3l.1 16.7c19.8 10.5 39.7-7.7 30.9-32.3 9-11.5 13.5-22.1 9-32.2z"/><path d="m191.8 78.4.1.4c2-.4 7-2.4 12 1.2 3.8-2.5 4.1-7.6 4.7-11.6-3.3-1.5-7.5-1.4-10.7.9-2.3 3.5-4 5.7-6.1 9.1z"/><path d="M191.9 78.9c1.1 3 1.7 6.4 2.1 9.3 4.8-1.3 7.2-4.3 9.9-8.2-3.4-2.3-8.6-2.9-12-1.1zM209.8 65c-2.1 9.5-2.9 13.3-5.9 15 3.1-.1 5.6.3 8 2 2.4-2.2 4.8-4.6 7-6.7 10.4-11.7 21.5-23.5 18.2-39.9-8.2 10.9-18.2 21.2-27.3 29.7z"/><path d="M153.4 25c-1.5.3-1 2.8.2 2.6 1.4-.3 1-2.8-.2-2.6zM166.3 27.8c1.2.1 1.5-2.7.2-2.8s-1.7 2.6-.2 2.8z" style="fill:#fc0;stroke:#960" transform="translate(-.4)"/><path d="M138.4 77.3c-1.3.2-2.6-.1-3.8-.3-1.3 4.3-2.5 10-2.5 14.3l17.6-.1c-1.8-2.5-3-6.1-2.3-10-1.6 3.6-5.2 7.3-8.4 8.2-1.8-4.3-1.1-8.5-.6-12z"/><path d="M138.4 77.3c0-4 1.3-8.1 3-11.4-1.4.8-2.3.6-3.2.2-1.2 5.4-3.4 6.9-6 8.1 1.6 3.3 3.5 3.1 6.2 3.1z"/><path d="M138.4 77.3c4.3-.5 7-4.1 9-7.1-1.1-2.8-.9-6-.1-8.5-1.5 3.3-3.9 3.7-6 4.3-1.8 3.6-2.9 7.4-3 11.3z"/><path d="M135.8 59.4c-1.6 2.5 1.8 9.1 5.7 6.5-.7-3.4.7-6.4 1.2-8.8-.6.1-1-.1-1.6-.3-1.4 1.5-4 3.9-5.3 2.6z"/><path d="M168 43.4c-.4-.2-.8-.4-1.1-.7-1 4.3-5.1 3.5-4.8-.1-1.3.5-2.6.9-3.7 1 1.1 6.1 8.3 7.1 9.6-.2z" style="fill:#fc0" transform="translate(-.4)"/><path d="M142.8 57.1c.2-5.1.4-7.5 2-12.1-3.5 5.7-5 5.6-7.5 4-.5 4.6.9 7.8 5.5 8.1zM148.1 54.3c-1.5 1.8-3.2 2.4-5.2 2.8-1.2 2.7-2 5.9-1.5 8.8 2.6-.4 5.2-2.1 5.8-4.4-.5-2.7.1-5 1-7.2zM147.2 62.1c-.7 3.1-.7 5.4.2 8.1 2.8-.7 4.9-2.4 5.6-4.8-.8-2.6-.9-4.7-.2-7-1.4 2.1-3.5 2.9-5.7 3.7z"/><path d="M152.8 66.2c-1.3 2.2-3.4 3.2-5.5 4.1-.9 3.6-.8 7.5.1 10.9 2.9-2.3 4.5-5.2 6-8.4-.8-2.5-1.2-4.3-.6-6.6zM160.1 72.2l-.2-3.8c-2.3 2-4.2 3.3-6.5 4.5-.9 2.9.3 7.2 2.1 9.5 1.9-2 2.8-3.9 3.7-6.4-.1-1.4.5-2.6.9-3.7z"/><path d="M147.4 70.2c-2.7 4.5-5.2 6.3-9 7.3-.8 4-.8 8.4.7 11.9 3.9-1.6 6.5-4.6 8.3-8.1-1.1-4-1-7.5 0-11.1zM164.7 86.5c-3.8-2.4-6.1-5.1-5.7-9.9-.9 2.6-1.8 4.1-3.5 5.6 2.3 5 4.7 6.4 9.3 4.3z"/><path d="M160 87.4c-2.6-1-3.6-2.6-4.5-5-.8 3.6-2.3 6.7-3.9 8.8h7.3c.7-.5 1.1-2.6 1.1-3.8z"/><path d="M155.6 82.4c-2.2-2.7-2.6-6.3-2.3-9.6-1.4 3.7-3.1 6.5-5.9 8.6-.5 4 .5 7.4 2.4 9.9h2.1c2.1-2.5 2.9-5.7 3.8-8.8zM166 112.8c-1.8-.6-3.1-1.1-5-1.9.1 11.3 0 11.1-.1 21.2.4.9.5 1.1 1 2l5.7-11.9c-1.5-3.5-1.6-6.2-1.6-9.4z"/><path d="M166 112.8c-.3 7.5 2.3 13.5 9.7 18.5 1.9-5.8 3.3-12.1 1.9-18.1-3.9.8-8.3.6-11.5-.4z"/><path d="m167.6 122.2-5.7 12c1.6 3.9 8 9.8 11 11.7.8-4.8 1.7-9.7 2.6-14.5-4-3.4-5.7-4.7-7.9-9.2z"/><path d="M160.9 132c-.6 14.7-.5 14.7-.6 23.4.2 12.6 8.9 23.1 17.2 25.8-3.4-12.3-5.2-25.5-6.2-36.5-3.7-2.5-8.8-8.7-10.4-12.8zM203.9 80c-2.3 3.5-6.1 7.8-9.9 8.2 4.1-.3 8.2-.5 11.8 3.8 4.2-.7 6.8-4.4 8.6-7.7-2.8-3.4-6.6-4.7-10.5-4.3z"/><path d="M213.1 82.8c.5.4.8.9 1.2 1.4-2.1 3.9-4.9 6.7-8.5 7.7 5 3.1 4.2 2.6 6.8 6.4 3.6-1.3 7.5-2.7 10.7-4.1 11.9-4.9 27.6-14.5 28-28.3-12.9 7.2-26.5 12.7-38.2 16.9zM205.7 92c-2.6-3.8-8.1-4.7-11.7-3.8 0 2.9 0 6.2-.9 8.8 4.6-.1 9.6-1.3 12.6-5z"/><path d="M193.1 97c3.8.5 7.9 2.8 8.9 6.7 4.7.2 8.3-1.5 10.9-5-1.6-3.2-4.4-5.5-7.1-6.7-3.5 3.9-8 5-12.7 5z"/><path d="M202 103.7c-1.5-4.4-5-6-8.9-6.7-.6 2.2-1.6 4.4-2.7 6.3 4.3 1.8 8.2 2 11.6.5zM202.3 103.7c3.3 4.3 3.3 4.9 6.1 10.4-.5.3-1 .7-1.5 1 2.4.2 4.9.5 7.1.7 19.6 1.3 33.8-.9 40.4-13.7-15.1 1.3-30.7.6-43.3-1.3-2.4 2-5.5 2.5-8.8 2.9z"/><path d="M202.1 103.7c-4.1 1.8-8.4 1.2-11.6-.4 3.1 3.1 5 7.6 5.4 11.8 3.8 1.6 8.5 2.5 12.5-1.1-2-4.3-3.7-7.1-6.2-10.3zM177.6 113.2l.1.5c1 5.5 4.3 10 10 12.7.7-6.8 1.1-10.4-2.8-16.7-2.5 1.6-4.6 2.8-7.3 3.5z"/><path d="M175.5 131.3c2.3 5 8.7 8.6 14.2 9.6-.7-4.9-1.4-9.8-2.1-14.6-4.7-2.7-8.3-5.6-10-12.5 1.3 8.7-.6 13.2-2.1 17.6zM190.4 103.2c-1.4 2.5-3.6 4.8-5.6 6.5 3.3 3.4 6.7 5.1 11 5.4-.6-5.7-2.4-8.3-5.4-11.8z"/><path d="M187.6 126.3c4 2.9 9 3 13 2.5l-4.8-13.8c-4.2-.2-8.5-2-11-5.4 4.4 7 3.5 11.6 2.8 16.7z"/><path d="M196 129c3.2 2 6.8 4.1 9.8 5.8 13.7 6.5 33.6 17 45.9 4.6-18.1-5.9-35.2-14.6-48.9-23.1-2.4.3-4.7-.1-6.8-1 2 6.1 2 6.1 4.2 13.4-1.4.1-2.9.2-4.3.2zM186.1 139.95l-1.25-.5 1.2 2.25 1.2 2.25-.6-2z"/><path d="m175.6 131.4-2.2 11.8c8.2 26.7 17.5 52.1 35 52.8-9-17.6-17.5-37.3-22.3-56-4.3-1.5-8.7-4.3-10.5-8.6ZM173.8 193.3c-1.2-9-4.2-11.3-11.9-12.1l2.4 4.4c4 .2 7.1 3.8 9.5 7.8zM169.9 203.6c0 3.2.5 7.1 2.6 9 .5-4.4 1.7-6.8 2.2-10 .5-3.6.6-6.4-.8-9.2-.8 4.6-1.9 6.9-3.9 10.3z"/><path d="M172.4 212.6c-1.9-2.3-2.4-5.2-2.6-9-.3 4.9-1.5 8.7-3.3 12.7 1.3 5.7 5.7 6 9.3 4.5-3.3-.1-3.5-4.9-3.4-8.2z"/><path d="M209.8 221.5c-1.1-2.3-3.1-5.4-5.3-5.5-1.8.1-3 .6-3.8 1.8-1.2 1.8-1 4.4.5 5.4.5-.2 1.1-.1 1.5.1.5-1.7 1.6-3.6 3.3-3.6s2.6.8 3.8 1.9zM204 224.1c-1.1 3-.5 5 1.7 7.2.7-1.5 1.3-2.6 2.9-2.6 1.9.1 2.7 2.4 3.6 4.1 0-6.6-2.1-10.4-8.2-8.7z" style="fill:#fc0;stroke:#960" transform="translate(-.4)"/><path d="M169.9 203.6c2-3 3.4-6.6 3.9-10.3-3.6-5.6-5.5-7-9.5-7.8 2.1 1.4 3.5 4.4 3 8.2-.5 3.5-.3 7.2 2.6 9.9zM152.8 179.8c-1.6-1-2.2-3.3-2.2-5.2-1.5 5.7-2.8 9.3-5.4 13.2 4.1 2.2 7.3 2 11.3.7-.4-4.2-1.9-7.5-3.8-8.7z"/><path d="M152.8 179.8c3.3 2.9 7.5 4.5 11.6 5.6l-2.3-4.2c-3.3-1.5-6.1-2.2-9.3-1.4zM145.1 187.8l3.7 5.6c2.9 3 5.5 4.6 8.9 6.2 1.5-5.3.8-8.1-1-10.6l-.1-.6c-4.5 1.6-7.8 1.2-11.5-.6z"/><path d="m148.8 193.3-3.7-5.6c-.8 5.6-2.6 10.1-5.3 14.9 1.1 3.6 3.9 5.2 6.8 6.7 3-6.8 3.5-10.1 2.2-16.1z"/><path d="M145.1 187.8c-2.2-1.4-4.6-3.4-5.5-6.2l-1.3.6c-.4 3.2-1.4 7.1-2.6 9.8.9 3.8 2.4 7.8 4.2 10.9 2.7-5.5 4.3-9.8 5.1-15z"/><path d="M139.7 181.6c1.4 3 2.9 4.7 5.4 6.2 2.6-3.7 4.1-7.7 5-12-6.6 3.5-6.5 3.5-10.4 5.8zM167 195.4c.6-3.9.7-7.7-2.8-10-4-1.2-7.8-2.5-10.8-5.1 1.9 2.2 3 5.1 3.1 8 2.6 3.7 7.1 5.6 10.5 7.1zM157.8 199.5c-3.7-1.5-6.6-3.7-9-6.2 1.1 3.7.8 7 .2 10.2 2.9-.3 5.3 2.8 7.1 4.8z"/><path d="M167 195.4c-3.9-1.6-7.4-3.5-10.2-6.5 2.2 3.3 1.9 7.1 1 10.8.6 3.6 2.2 6 5.2 7.4 2-4.1 3.3-7.7 3.9-11.7zM138.4 182c-3.2.6-3.2.6-7 1.4.6 4 2.6 6.3 4.3 8.4 1.5-2.6 2.1-6.7 2.7-9.8z"/><path d="M131.6 184c-.8 3.2-1.8 5.1-4.1 7.7l.2 1.6.2 1.6.4 1.6.2.8.3.8.6 1.4.7 1.4.8 1.4.5 1.4c2.5-2.7 3.9-7.3 4.4-11.6-2.6-3-3.4-5-4.2-8.1Z"/><path d="M131.5 203.8c.4 5.6 2.3 8.6 4.9 11.1 2-4 3.1-8.1 3.5-12.4-2-4-3.4-7-4.2-10.8-.4 6-2.1 8.5-4.2 12z"/><path d="M131.4 224.5h.1c2.4-2.2 4.2-5.2 4.9-9.5-2.9-2.6-4.2-6.9-4.9-10.6-.9 3.8-1.8 8.1-4.9 10.5.3 4.5 2.5 7.6 4.8 9.6z"/><path d="M136.5 215c-.9 4.3-2.8 7.2-5.1 9.5 1.2 4.9 3.3 7.1 5.6 9.2 3-4.6 3.2-8.4 2.5-13.2-1.9-1.8-2.5-3.4-3-5.5z"/><path d="M136.4 215c.7 3.2 3.1 6.1 5.6 6.7 0-6.5 2.3-11.1 4.8-12.2-3.1-1.3-6-3.9-6.9-7-.3 4.8-1.8 9-3.4 12.5z"/><path d="M137 233.7c1.3 2.2 8.1 7.1 13.3 3.8-5.6-4.2-7.8-9.7-8.3-15.8-.9-.2-1.8-.6-2.5-1.3 1.1 5.4-.3 9.6-2.5 13.3zM131.4 224.3c-.9 3.9-2.7 7.3-5.5 9.3l2.4 8.3 3.2 6.3c1-2.1 2.1-4.2 3.1-6.3l2.4-8.3c-2.9-2.4-4.8-5.4-5.7-9.3z"/><path d="m137 233.6 1.8 8.1-1.8-8.1-2.4 8.3c1 4.2 3.8 7.7 6.1 10.8 1.8-5.5 2.1-10.3 1.2-15.2-1.6-.7-3-1.9-4.2-3z"/><path d="M134.6 242c-.8 1.6-1.1 2.4-3.2 6.3v6.4c1.4 5.9 5.4 10.5 8.8 14.4.8-5.9 1.2-11.1.4-16.4-3.2-3.9-4.9-6.8-6-10.7zM163.1 207.3c-.4 3.4-.2 5.2-2.1 9.2-1.4 3.8.7 8.1 3.8 10.4 1.3-2.9 1.5-7.3 1.6-10.6-1.9-2.9-2.8-5.8-3.3-9z"/><path d="M160.8 217.6c1.7-3.6 2-6.7 2.4-10.2-2.8-1.7-5.1-4-5.3-7.8l-1.7 8.8c.7 3.5 2.6 6.8 4.6 9.2zM166.4 216.3c2.4-4.5 3-8.3 3.5-12.7-2.7-2.2-2.9-5.5-2.8-8.1-1 4.2-2 8.1-3.9 11.2.3 3.4 1.6 7 3.2 9.6z"/><path d="m156.1 208.3-1.2 10.6c-.3 2.9-1.8 5.4-4 7 3.2 1 5.1 1.5 7.4-1.9 1.2-2 1.8-4.5 2.3-6.5-2.2-2.7-3.9-5.9-4.5-9.2z"/><path d="m154.9 218.9 1.2-10.6c-2.6-2.9-4.4-5.1-7-4.8-.8 2.4-1.3 4-2.3 6.2 4.7-1.2 8.2 0 8.1 9.2zM141.9 237.6c2.6 3.8 3.5 6.4 5 9.9l6.5 6.2 7 3.7c-2.4-9.8-6.5-14.1-11.4-19-3 .5-4.1.2-7.1-.8z"/><path d="M141.8 237.3c1.4 7.8-.2 11.4-.9 15.4.5 4.9 3.1 8.9 7 11.5 1.3-9.6.5-16.9-6.1-26.9z"/><path d="M140.7 252.7c.8 6.1.1 11.1-.5 16.4l.2 2.1c1.5 5.8 4 11.2 9 15.2 2.1-9.5 1.9-15.9-1.6-22.2-3.8-3.1-5.5-5.8-7-11.6zM146.8 247.4c1.7 5.5 1.5 11.7 1 16.8 3.5 3.5 6.4 7.9 8.7 11.6 1.6-6.9 1.5-16.9-3-22.3-2.7-2.7-3.8-3.9-6.7-6.2z"/><path d="M140.4 269.1c-4.2-4.9-7.1-8.9-8.9-14.4v30.8-30.9c-1.6 5.6-4.9 10.1-8.9 14.6-1.7 16 1.4 22.1 9.2 32.2 8-10.5 10.8-17 8.6-32.2z"/></g><path d="M205.4 243c-3.3 2.1-2.9 5-1.6 7.5 1.8-2.1 5 0 5.8 1.9 1-4.9 1.4-7.4-4.2-9.4zM184.7 259.4c-2.1-3.9-4.5-3.7-6.3-1.4-1.5 5.9 2.5 8.4 7.6 9-3.9-2.4-4.6-6.2-1.3-7.7z" style="fill:#fc0;stroke:#960" transform="translate(-.4)"/><g style="fill:none;stroke:#666"><path d="M218.6 65.2c-4.5 4.9-7.9 8.1-12.4 12.43M202.4 67.3c3.1-5.4 4.8-9.5 6.2-14.6M191.9 78.8c3.9-1.4 7.5-3 10.4-5.5M153.4 42.3c2.4 2.9 9.4.2 11.5-1.274M157.4 62.7c-.8 1.3-2.3 2.1-3.9 2.501M163.2 37.7c1.4 3.4 5.9 8.2 7.5 5.206M164.3 138.1c.3 3.2.9 6 1.4 9.135M205.8 98.2l-7.301-1.7M223 108.5c-6.6-.1-11.7-.4-17.8-.956M224.6 85.6c-5.6 2.6-11.6 4.9-17 6.779M196.5 87.3c4.4-.4 7.3-1 11.2-2.201M178.3 117.3c.7 4.8 2.3 9 4 12.763M200.3 110c-2.9-1-6.3-2.8-8.6-5.152M192.5 121.4c-2.3-2.5-4.4-5.5-5.9-8.35M206.8 153.1c-7.3-7-13-13.4-18.2-20.774M198.6 122.6c7.3 4.3 14.9 8 21.9 11.024M167.6 122.6l2.5 12.049M189 167c-5.1-10.7-9.1-22.5-11.7-32.584M131.5 285.4l-.1-28.85M143.7 238.4l6.1 6.9M136.5 255l-1.9-12.481M138.8 241.8l-1.801-8.1M142.3 246.2l1.9 6.75M152.8 260.4l-5.4-11.55M145.6 273.1l-4.201-17.35"/></g></g><use xlink:href="#a" transform="matrix(-1 0 0 1 263 0)"/><path d="M102 90c-1 0-2 1-2 2v52a31.5 40 0 0 0 63 0V92c0-1-1-2-2-2z" style="fill:#fc0;stroke:#960;stroke-width:.5"/><path d="M161.5 91.5h-60v54a30 37 0 0 0 60 0z" style="fill:#1059d3"/><path d="m131.5 95.2-5.525 8.288 3.848 5.774h-3.595v7.531h4.017v19.581h-3.876c-.29-5.247-1.555-9.993-3.579-13.619-2.225-3.985-5.426-6.741-9.169-6.946l2.315 3.189v24.405a2.51 2.51 0 1 0 2.51 2.51h5.362l6.437 9.429v8.145h-6.111a2.51 2.51 0 1 0 0 2.51h6.11v8.12a2.51 2.51 0 1 0 2.511 0v-8.12h6.111a2.51 2.51 0 1 0 0-2.51h-6.11v-8.145l6.436-9.428h5.362a2.51 2.51 0 1 0 2.51-2.51v-24.406l2.315-3.19c-3.743.206-6.944 2.962-9.17 6.947-2.023 3.626-3.288 8.372-3.578 13.62h-3.876v-19.582h4.017v-7.53h-3.595l3.848-5.775zm0 4.527 2.508 3.761-2.508 3.762-2.508-3.762zm-2.761 12.046h5.522v2.51h-5.522zm-10.293 9.196c.769.822 1.493 1.828 2.153 3.01 1.772 3.174 2.929 7.543 3.217 12.395a2.51 2.51 0 1 0 2.518 2.51h3.91v4.52h-11.798zm26.108 0v22.434h-11.799v-4.518h3.91a2.51 2.51 0 1 0 2.52-2.51c.287-4.853 1.444-9.222 3.216-12.396.66-1.182 1.384-2.188 2.153-3.01m-17.706 24.945h9.304l-4.652 6.815Z" style="color:#000;font-style:normal;font-variant:normal;font-weight:400;font-stretch:normal;font-size:medium;line-height:normal;font-family:sans-serif;font-variant-ligatures:normal;font-variant-position:normal;font-variant-caps:normal;font-variant-numeric:normal;font-variant-alternates:normal;font-variant-east-asian:normal;font-feature-settings:normal;font-variation-settings:normal;text-indent:0;text-align:start;text-decoration:none;text-decoration-line:none;text-decoration-style:solid;text-decoration-color:#000;letter-spacing:normal;word-spacing:normal;text-transform:none;writing-mode:lr-tb;direction:ltr;text-orientation:mixed;dominant-baseline:auto;baseline-shift:baseline;text-anchor:start;white-space:normal;shape-padding:0;shape-margin:0;inline-size:0;clip-rule:nonzero;display:inline;overflow:visible;visibility:visible;opacity:1;isolation:auto;mix-blend-mode:normal;color-interpolation:sRGB;color-interpolation-filters:linearRGB;solid-color:#000;solid-opacity:1;vector-effect:none;fill:#fc0;fill-opacity:1;fill-rule:nonzero;stroke:none;stroke-width:2.51039;stroke-linecap:butt;stroke-linejoin:miter;stroke-miterlimit:4;stroke-dasharray:none;stroke-dashoffset:0;stroke-opacity:1;color-rendering:auto;image-rendering:auto;shape-rendering:auto;text-rendering:auto;stop-color:#000;stop-opacity:1"/></g></svg>