<svg xmlns="http://www.w3.org/2000/svg" xmlns:xlink="http://www.w3.org/1999/xlink" width="900" height="600"><path fill="#73b1ff" d="M0 0h900v600H0"/><g fill="#fc3"><path id="a" d="M0 270.505v-60.016L450 300 0 147.246V78.085L450 300 0 0h107.916L450 300 186.907 0h62.639L450 300 302.056 0h46.108L450 300 390.326 0h40.011L450 300z"/><use xlink:href="#a" transform="matrix(-1 0 0 1 900 0)"/><circle cx="50%" cy="50%" r="180"/><path fill="#000" d="M0 300h900v300H0"/><use xlink:href="#b" transform="matrix(.46162 0 0 .44944 242.271 311.942)"/><use xlink:href="#b" transform="matrix(.6695 0 0 .61781 148.728 231.308)"/><use xlink:href="#b" transform="matrix(.82416 0 0 .8089 79.129 137.936)"/><use xlink:href="#b" transform="matrix(.93428 0 0 .94269 29.576 58.924)"/><path id="b" d="M627.474 330.073c-36.533-6.42-104.109-10.377-177.474-10.397-73.197.019-140.879 4-177.474 10.397 36.533 6.42 104.109 10.377 177.474 10.397 73.197-.019 140.879-4 177.474-10.397"/></g></svg>