<svg xmlns="http://www.w3.org/2000/svg" xml:space="preserve" width="1200" height="800" style="shape-rendering:geometricPrecision;text-rendering:geometricPrecision;image-rendering:optimizeQuality;fill-rule:evenodd;clip-rule:evenodd"><defs><style>.fil8{fill:#592213}.fil3{fill:#fff}.fil1{fill:#000}.fil4{fill:maroon}.fil7{fill:#b49900}.fil6{fill:#ffe1ab}.fil2{fill:#fff}.fil5{fill:#a00}</style></defs><path d="M0 0h1200v800H0z" style="fill:#0e2674"/><path id="path2875" d="M576.45 687.873s-.634-5.741-25.522 7.656c-24.891 13.4-49.139 6.383-49.139 6.383s.638-9.574 15.315-21.698c14.678-12.126 12.763-56.796 12.763-56.796l11.483-107.21s.645-29.993-1.912-47.224c-2.55-17.23-9.57-44.67-9.57-44.67l-8.299 52.327-14.674-59.346-12.124-42.757s17.228 66.367 21.696 110.4c4.464 44.03-23.612 90.619-23.612 90.619L480.09 456.222l-3.827-44.675 8.933 153.159s7.018 28.08-5.742 65.094c-12.763 37.012-56.795 54.242-56.795 54.242s12.124-23.614 17.865-39.568c5.745-15.951 6.383-31.27 3.83-55.52-.638-53.6-10.209-236.752-10.209-236.752s-14.679 2.556-27.84-6.301c-21.54-17.473-14.837-34.94-14.837-34.94l-15.395-17.47 12.761-9.572 8.299 1.277s-2.556-33.824-.642-44.671 7.022-29.355 4.469-45.948c-2.554-16.589-9.572-32.543-9.572-32.543s13.402.634 8.934-12.128c-15.317-37.651-1.277-57.431-1.277-57.431l15.315-22.337s-1.276 44.033 1.915 54.246c3.191 10.21 5.745 1.91 5.745 1.91l2.553-18.507s3.188 8.298 7.656 28.717c4.465 20.423-1.276 54.246-1.276 54.246s-4.283 40.353-7.02 52.965c-3.269 15.077-.4 41.64-.4 41.64l6.143-4.628 3.91 4.39s-1.996-72.032 5.661-97.558c7.66-25.526 17.232-54.244 38.292-69.56 21.061-15.315 47.221-11.489 47.221-11.489s21.06 7.66 23.61 22.976c2.558 15.315-19.78 42.118-19.78 42.118s-8.933 23.61-2.553 33.182c6.38 9.574 8.936 8.297 8.936 8.297s11.483-8.932 32.545-14.677c15.315.639 19.142-4.468 19.142-4.468s-27.437-8.933-31.271-45.945c-3.827-37.015 26.805-61.264 26.805-61.264s28.717-17.23 59.349-8.294c30.632 8.933 37.65 40.203 37.65 40.203s7.022 20.42-3.827 42.757c-10.85 22.333-38.929 31.27-38.929 31.27s-10.21 5.74-1.273 5.74c8.933 0 42.752 5.746 42.752 5.746l18.508 5.741s14.042 7.657 12.763-17.865c-1.273-25.53-16.59-42.122-16.59-42.122s-14.042-28.076 2.55-42.118c21.06-12.763 55.523 4.468 55.523 4.468s17.227 5.103 32.54 34.462c15.32 29.355 19.146 79.13 19.146 79.13l-1.277 81.044s-9.571 268.028-10.848 299.933c-1.28 31.909 22.972 77.218 22.972 77.218s-42.752-20.422-57.43-42.76c-14.68-22.334-10.209-65.725-10.209-65.725l10.847-155.712-17.23 148.05s-29.994-36.375-22.334-91.255c7.656-54.88 18.504-98.91 18.504-98.91l-25.526 86.785-5.744-31.27s4.468 86.151 1.915 144.228c-2.55 58.068-12.125 79.129-15.954 89.338-3.827 10.21-17.867 19.781-17.867 19.781s-7.66 6.386 1.274 14.04c29.997 13.404 27.441 29.993 27.441 29.993s-31.906 4.472-38.927-5.741c-3.827-5.742-8.932-5.742-15.316-10.848-23.607-1.276-17.228-13.404-17.228-13.404l.64-7.018s-7.66.638-25.53.638-28.079-6.38-28.079-6.38z" class="fil1"/><path id="path2877" d="m621.922 624.693 10.528 61.74s-23.454 6.227-54.564-6.696c-4.305-1.914-21.537-8.617-5.745-30.635 28.72-27.281 49.78-24.409 49.78-24.409" class="fil2"/><path id="path2879" d="M544.861 661.068c-6.22 3.35-5.981 9.334-6.22 12.447-7.897 2.629-22.734 13.876-23.931 15.315-1.193 1.436-2.636 2.39-5.027 9.09 1.676 1.678 14.598 2.396 14.598 2.396s9.332 1.433 13.405-3.35c4.063-4.784 13.398-7.66 13.398-7.66s13.401-.715 12.443-12.444c-2.633-6.22-1.915-13.876-1.915-13.876s-.478-1.918.958-7.18c1.437-5.267-3.826-1.915-3.826-1.915s-7.66 3.826-13.883 7.177z" class="fil2"/><path id="path2881" d="m628.622 634.265 30.632-3.83s.954 1.915 0 1.915c-5.505.96-25.369 13.641-25.369 13.641s.482 16.752 1.915 20.822c1.436 4.069 1.196 22.018.238 23.454-.957 1.433-1.91 7.42-1.91 7.42s-1.917 9.808 5.26 9.09c7.18-.719 16.754 4.547 16.754 4.547l15.795 11.965s17.945 9.096 25.126 4.787c-4.544-15.316-14.358-18.663-14.358-18.663l-14.602-10.292s-7.414-5.745-6.938-16.517c.478-10.765.96-57.191.96-57.191l.476-19.382s-6.696 5.023-10.05 6.22c-3.348 1.197-15.077 6.46-19.625 7.42-4.547.955-5.023 5.503-5.023 5.503l.718 9.092z" class="fil3"/><path id="path2883" d="M574.535 374.379c-12.922 1.915-15.791 13.398-15.791 13.398l-8.14 88.544-8.134 81.367-6.702 72.269-3.827 39.727s7.178-20.582 44.029-36.373c32.548-14.837 68.443-22.018 68.443-22.018l12.924-2.393-6.223-85.673-10.528-134.01 3.347 7.178 23.934 221.118 2.393-205.799s0-16.277-12.443-26.33c-12.444-10.047-33.026-10.047-33.026-10.047s-37.335-2.876-50.256-.957z" class="fil2"/><path id="path2885" d="M691.8 386.823s6.223 24.89 9.572 95.722c3.347 70.838-4.79 138.321-4.79 138.321s-8.136 51.208-15.31 54.563c-7.185 3.348-6.703 1.432-6.703 1.432s-1.436-30.15-.482-45.465c.958-15.317.482-85.194.482-98.119 0-12.922-.482-26.8-1.436-52.168-.958-25.367 18.667-94.286 18.667-94.286z" class="fil4"/><path id="path2887" d="M694.434 468.063c6.698 27.76 2.869 89.02-.48 121.093-3.354 32.068-6.22 53.607-9.095 62.218-2.873 8.616-7.178 11.007-7.178 11.007s6.223-25.363 11.008-78.967c4.787-53.607 7.18-68.924 5.745-115.35z" class="fil5"/><path id="path2889" d="m404.63 338.481 17.71-.475-9.096 10.05z" class="fil2"/><path id="path2891" d="M436.695 665.851s36.377-5.26 41.642-57.906c5.263-52.648-1.436-100.989-1.436-100.989l-7.66-110.562-1.914-49.3 12.443 74.666s11.011 72.271 12.444 78.015c1.436 5.741 3.833 48.339 3.833 48.339s12.44-21.058 14.355-49.772c1.918-28.723-4.305-55.044-4.305-55.044L485.515 339.92l-.955-10.528 24.885 71.79 11.964 42.117s12.445-18.188 5.745-46.906c-6.699-28.713-15.316-48.337-15.316-48.337l-8.614-31.59-62.22 33.982 4.308 78.014 4.787 99.552s1.436 34.458 3.827 78.016c2.393 43.55-17.231 59.821-17.231 59.821z" class="fil3"/><path id="path2893" d="M530.505 310.724s20.1 0 21.058 40.68c.961 40.681-1.915 78.49-1.915 78.49l-3.35 39.249s-16.275-37.81-15.793-64.615c.48-26.799 0-93.804 0-93.804" class="fil4"/><path id="path2895" d="m382.136 294.687 7.896-7.896s5.266 5.745 9.81 6.7 9.097.72 9.097.72 5.501 0 10.768-1.2c5.262-1.196 9.81-6.46 9.81-6.46l8.854 9.814-8.854 8.612s-4.069-2.87-6.46-4.067c-2.393-1.196-8.617-1.436-8.617-1.436l-5.98-.478s-8.617-.48-11.49 1.196c-2.868 1.673-5.74 4.549-5.74 4.549z" class="fil2"/><path id="path2897" d="M395.777 308.568c-3.59 2.393 0 5.027 0 5.027s9.572-.24 11.008-.24 1.91-4.547 0-4.547c-1.918 0-6.463-.24-11.008-.24" class="fil6"/><path id="path2899" d="M394.337 315.749c-4.065 0 1.198 4.547 1.198 4.547s15.795.958 19.624.24c3.83-.722 1.436-4.787 0-4.787z" class="fil6"/><path id="path2901" d="M394.819 322.447c-1.196 0-2.633 4.309 1.194 4.548 3.83.239 18.667.239 19.385.239.719 0 3.112-5.262 0-5.027-3.112.24-19.385.24-20.579.24" class="fil6"/><path id="path2903" d="M398.167 328.674c-.715 0-1.436 5.263 1.196 5.263 2.633 0 14.12-.24 15.557 0 1.436.239 3.59-4.79.238-4.79-3.35 0-16.273-.473-16.991-.473" class="fil6"/><path id="path2905" d="M410.132 308.331c-5.023 1.196 2.394 4.545 2.394 4.545s6.702.238 8.138.478 4.785.958 4.066 3.349c-.718 2.393-.718 2.156-3.587 5.269-4.787 5.023-.24 11.724-.24 11.724s7.418 3.587 11.247-1.196c3.827-4.787 2.633-11.726 2.633-11.726s-.718-8.378-4.309-11.01c-3.59-2.63-6.698-3.827-9.092-3.827-2.393 0-6.223 1.196-11.25 2.394" class="fil6"/><path id="path2907" d="M579.007 349.332h9.89s2.868 3.508 2.868 6.06c0 2.554-.315 10.53-.315 10.53s-.64 5.584-2.394 5.741c-1.755.163-9.574 0-9.574 0s-2.713-1.912-2.713-5.741c0-3.827-.32-8.136-.32-11.486s2.558-5.104 2.558-5.104" class="fil7"/><path id="path2909" d="M596.554 349.013h9.89s2.873 3.51 2.873 6.06c0 2.554-.319 10.532-.319 10.532s-.639 5.586-2.394 5.741c-1.752.16-9.572 0-9.572 0s-2.713-1.914-2.713-5.74c0-3.831-.319-8.14-.319-11.487 0-3.35 2.554-5.106 2.554-5.106" class="fil7"/><path id="path2911" d="M561.613 349.013h9.894s2.869 3.51 2.869 6.06c0 2.554-.317 10.532-.317 10.532s-.637 5.586-2.392 5.741c-1.757.16-10.211 0-10.211 0s-2.074-1.914-2.074-5.74c0-3.831-.319-8.14-.319-11.487 0-3.35 2.55-5.106 2.55-5.106" class="fil7"/><path id="path2913" d="M614.1 349.169h9.89s2.877 3.511 2.877 6.064-.32 10.528-.32 10.528-.638 5.586-2.393 5.745c-1.756.156-10.213 0-10.213 0s-2.07-1.911-2.07-5.745c0-3.83-.323-8.134-.323-11.485s2.552-5.107 2.552-5.107" class="fil7"/><path id="path2915" d="M631.172 348.535h9.893s2.869 3.507 2.869 6.06c0 2.556-.32 10.529-.32 10.529s-.633 5.585-2.392 5.744c-1.753.16-10.21 0-10.21 0s-2.071-1.914-2.071-5.744c0-3.827-.319-8.136-.319-11.487 0-3.35 2.55-5.102 2.55-5.102" class="fil7"/><path id="path2917" d="M440.046 302.108s42.118-28.717 53.604-32.546c1.44-23.452 9.092-21.537 9.092-21.537l6.224 3.827s22.976-24.409 24.412-24.887c-14.837-13.402-19.146-21.536-19.146-21.536s-10.05-15.795 2.394-33.026c12.443-17.231 19.618-32.068 19.618-32.068s1.442-37.81-27.278-28.238c-28.714 9.574-45.466 31.589-45.466 31.589s-19.145 30.631-22.975 61.263-3.352 64.613-3.352 64.613z" class="fil2"/><path id="path2919" d="M452.49 254.727s9.574-62.7 30.156-76.58c20.58-13.88 15.792-11.965 22.49-13.403 2.395-5.742 0-21.537-11.006-10.05-11.008 11.488-24.409 27.28-31.586 44.989-7.182 17.71-10.054 55.044-10.054 55.044z" class="fil1"/><path id="path2921" d="M588.418 193.46s-28.72-13.877-30.152-43.554c-1.437-29.67 18.663-51.689 18.663-51.689s24.411-25.845 57.916-14.359c33.5 11.487 37.81 42.119 37.81 42.119s5.262 16.751-4.788 36.855c-10.05 20.1-31.588 28.237-31.588 28.237l-6.221 2.235s2.869-5.107 0-7.5c8.613-2.872 6.702-11.008 6.702-11.008s13.398-7.177 14.356-24.89c.956-17.706-10.21-27.121-13.88-31.587-3.668-4.468-17.228-10.532-17.228-10.532s-17.71-5.74-29.196-.478c-11.49 5.265-19.146 17.23-19.146 17.23s-5.745 10.054-4.784 16.274c.954 6.224 4.305 11.01 4.305 11.01s3.348 7.338 9.093 14.834c8.933 9.735 8.138 26.803 8.138 26.803z" class="fil7"/><path id="path2923" d="M535.609 227.443s3.51-11.166 15.635-15.953c12.128-4.785 19.146-3.19 19.146-3.19s6.702.636 11.805 2.236c5.107 1.592 27.76 5.102 27.76 5.102s13.4.319 22.015-5.102c8.616-5.426-2.23-7.98-2.23-7.98s22.014 2.231 36.695 4.47c14.674 2.233.954 22.97.954 22.97s-18.823.64-28.398.64c-9.57 0-35.416-1.915-35.416-1.915s35.097 10.847 41.158 13.4c-1.915 1.915-6.699 11.487-6.699 11.487l-42.438-14.679s32.546 22.339 36.692 25.21c-1.915.319-6.06 13.72-6.06 13.72l-37.015-19.784-36.69-10.528-12.769-12.124z" class="fil4"/><path id="path2925" d="M682.704 214.042s29.675-4.148 37.331 47.54c7.662 51.693-16.59 89.024-16.59 89.024s-24.568 42.76-51.373 24.568c-26.802-18.185-24.246-66.045-24.246-66.045s3.505-49.778 21.377-73.069c17.866-23.295 33.501-22.018 33.501-22.018" class="fil2"/><path id="path2927" d="m679.194 228.081 20.425 3.511-8.297 50.732 26.163 4.149-3.511 23.61-26.483-4.146-7.659 54.244-21.062-2.873 7.341-54.245-29.674-5.742 4.149-23.295 30.951 4.787z" class="fil1"/><path id="path2929" d="m680.79 231.912 14.358 1.914-7.657 51.37 27.333 4.253-1.983 14.588-27.906-4.801-7.972 53.927-15.319-1.596 8.616-53.927-28.397-4.787 2.233-14.04 28.395 3.511z" class="fil7"/><path id="path2931" d="M622.398 167.774c-.958 2.872-5.422 25.207-26.803 23.93-.638 3.192-7.02 8.937-7.02 8.937l-3.827 5.74s-1.596 4.15 6.064 4.788c17.227 2.235 29.99-3.191 29.99-3.191l3.83-2.55s.957-37.654-2.234-37.654" class="fil6"/><path id="path2933" d="M585.383 133.951s19.147-11.965 27.76 3.191c5.744 6.703 6.386 15.317 7.659 22.339 1.28 10.368-5.103 17.868-5.103 17.868s-5.266 3.987-8.613 5.423c-3.355 1.436-3.355 2.869-9.578 1.277-6.22-1.596-11.004-15.156-11.962-17.228-.958-2.078-2.713-6.383-2.713-6.383s4.787 2.553 5.741 0c.482 1.117 2.557 5.262 2.557 5.262s-1.276 4.947 2.39 5.905c3.67.957 3.033.638 5.107-1.596 2.072-2.234-1.273-2.234-1.273-2.234s-3.51 3.67-4.472-.954c-.957-4.628-1.433-7.819-1.433-7.819s-1.595-4.625-2.393-6.859c-.8-2.237-4.145-.798-4.145-.798s-1.918 1.434-3.833 3.986c-3.033-.319-4.15-7.177-4.15-7.177s-.159-7.18 3.03-10.053c3.194-2.869 5.425-4.149 5.425-4.149z" class="fil6"/><path id="path2935" d="M592.883 147.515c-2.231 1.593-.319 3.508-.319 3.508s3.99 5.265 10.05 3.833c6.067-1.44 6.067-6.064 6.067-6.064h3.512s.634-1.277-.482-2.394c-1.114-1.116-3.67-2.553-6.061-2.873-2.393-.319-6.224.799-8.142 1.755-1.91.958-2.39.64-4.624 2.235z" class="fil1"/><path id="path2937" d="M599.585 151.661v1.277s3.67 0 5.106-.957c1.434-.958 1.912-3.986 1.912-3.986l-1.277.16s-.319 1.591-1.751 2.709c-1.436 1.116-3.99.797-3.99.797" class="fil6"/><path id="path2939" d="M596.235 176.871c-.48 1.116 2.393.957 2.393.957s2.553-1.755 4.15-3.032c1.595-1.277 3.51-1.277 3.51-1.277s-1.596-2.074-4.149-1.596c-2.553.48-6.699 2.394-6.699 2.394s-2.716 3.51.795 2.553z" class="fil1"/><path id="path2941" d="m584.748 158.363.163 1.436s2.07-.16 2.865-1.117c.799-.957 0-3.191 0-3.191h-1.116s.482 1.436-.157 2.394c-.641.956-1.755.478-1.755.478" class="fil6"/><path id="path2943" d="M574.264 208.8s1.277 6.06 6.061 9.572c4.784 3.51 15.635 3.51 15.635 3.51z" class="fil5"/><path id="path2945" d="M563.053 213.404s1.592 8.936 16.59 16.911c15 7.976 49.455 18.508 49.455 18.508s-33.821-14.678-41.796-18.508c-7.98-3.83-24.249-16.911-24.249-16.911" class="fil5"/><path id="path2947" d="M548.053 227.763s10.532 12.447 28.078 22.015c17.55 9.574 43.399 15.958 43.399 15.958s-20.743-9.257-29.359-13.725c-8.614-4.464-42.118-24.248-42.118-24.248z" class="fil5"/><path id="path2949" d="M434.544 305.937s6.938 6.939 6.938 17.231c0 10.286-6.938 24.169-6.938 24.169l56.237-31.35s36.612-21.06 40.202-22.253c3.591-1.198 22.016-8.379 28.24 4.544 6.22 12.926 4.065 46.426 4.065 46.426l62.94 1.197s-4.551-41.642-8.378-51.453-6.939-23.212-29.675-36.852c-22.733-13.64-39.006-23.93-39.006-23.93s-8.134-4.788-11.725-6.702c-.48 3.83-24.409 27.28-24.409 27.28s-8.135 8.618-12.208 17.232c-1.194 6.223-8.374 5.983-8.374 5.983s-13.876 3.587-20.1 7.178c-6.223 3.59-19.621 14.12-19.621 14.12s8.135 15.555 9.332 17.71c1.197 2.15 2.154 6.701-2.155 2.15-4.308-4.545-14.119-17.467-14.119-17.467z" class="fil2"/><path id="path2951" d="m704.244 223.137 19.146 27.76s7.174-4.31 11.006 1.433c6.221 7.18.955 32.547.955 32.547s-5.262 28.716-7.653 38.291c-2.397 9.568-10.535 32.065-10.535 32.065s-6.696 18.67-8.135 25.365c-1.437 6.7-6.698 31.59-6.22 36.374.475 4.787 6.696 27.76 6.696 27.76s8.14-28.236 12.444-41.636c4.308-13.405 25.369-74.187 25.369-74.187l-10.529 60.782s-8.614 39.25-11.486 52.647c-2.872 13.404-4.787 40.685-4.305 54.09.475 27.756 14.837 50.253 14.837 50.253s0-22.018 1.433-33.026c1.436-11.008 9.095-56.955 9.095-56.955l17.71-108.645-2.872 69.878-6.702 88.063s-9.096 74.186 1.914 115.825c11.008 41.64 38.771 43.554 38.771 43.554s-14.838-21.057-16.759-35.419c-1.914-14.359-.472-32.065-.472-32.065l10.528-212.983 6.703-135.448s1.433-80.409-34.944-115.346c-26.32-21.538-35.895-21.538-35.895-21.538s-16.752-6.7-26.802 10.052c-10.05 16.75 11.963 41.64 11.963 41.64s23.936 24.409 6.223 44.99c-4.309 6.699-11.484 13.88-11.484 13.88z" class="fil2"/><path id="path2953" d="M726.737 165.222s16.27 2.396 32.068 23.933c15.793 21.536 20.58 67.005 20.58 67.005s-2.876-46.423-11.487-61.742c-8.613-15.313-21.536-30.15-21.536-30.15s-4.787-5.266-11.01-10.053c-6.22-4.788-9.096-.958-9.572.957-.478 1.916.958 10.05.958 10.05z" class="fil1"/><path id="path2955" d="M577.091 133.316c-.322.639.954 5.902 4.309 2.554.795-2.554-3.192.318-4.309-2.554" class="fil8"/><path id="path2957" d="M579.007 122.469c4.461 7.976 8.45 6.859 7.018 9.092-8.777 3.83-8.614-7.978-7.018-9.092" class="fil8"/><path id="path2959" d="M593.681 111.299c-17.231 8.457-3.986 17.71-3.986 17.71s-.799-11.327 3.986-17.71" class="fil8"/><path id="path2961" d="M612.345 111.937s-15.632 5.267-18.5 14.518c.633-24.409 18.5-14.518 18.5-14.518" class="fil8"/><path id="path2963" d="M601.018 124.061s17.71-21.377 27.285-.954c-14.998-6.702-27.285.954-27.285.954" class="fil8"/><path id="path2965" d="M611.869 126.774s12.922-1.752 24.89 10.848c-1.117-21.217-24.89-10.848-24.89-10.848" class="fil8"/><path id="path2967" d="M621.441 133.795c20.263 1.915 14.522 21.7 11.01 19.622-3.51-2.072 4.785 0-11.01-19.622" class="fil8"/><path id="path2969" d="M626.546 147.994c14.998 16.273 1.597 18.504 1.597 18.504s3.191-4.944-1.597-18.504" class="fil8"/><path id="path2971" d="M409.577 89.284c-14.681 19.78-10.85 39.884-10.85 39.884l7.978 40.522-10.213-4.468s6.702 11.808 8.936 23.294 1.277 27.76 1.277 27.76-4.148 26.802-5.744 43.714 6.383 31.27 6.383 31.27l13.4-7.02s-1.595-13.084-1.595-25.208 5.107-42.756 5.107-42.756 2.55-9.571 6.698-40.844c4.145-31.268-3.51-48.818-3.51-48.818s.318 2.873-3.19 9.255c-3.51 6.38-8.297-.956-8.297-.956s-10.848-14.997-6.38-45.629" class="fil7"/></svg>